%TF.GenerationSoftware,KiCad,Pcbnew,(6.0.6)*%
%TF.CreationDate,2022-10-08T16:47:07+05:30*%
%TF.ProjectId,RGB-3W-Light-Panel,5247422d-3357-42d4-9c69-6768742d5061,V1.1*%
%TF.SameCoordinates,Original*%
%TF.FileFunction,Paste,Top*%
%TF.FilePolarity,Positive*%
%FSLAX46Y46*%
G04 Gerber Fmt 4.6, Leading zero omitted, Abs format (unit mm)*
G04 Created by KiCad (PCBNEW (6.0.6)) date 2022-10-08 16:47:07*
%MOMM*%
%LPD*%
G01*
G04 APERTURE LIST*
G04 Aperture macros list*
%AMOutline4P*
0 Free polygon, 4 corners , with rotation*
0 The origin of the aperture is its center*
0 number of corners: always 4*
0 $1 to $8 corner X, Y*
0 $9 Rotation angle, in degrees counterclockwise*
0 create outline with 4 corners*
4,1,4,$1,$2,$3,$4,$5,$6,$7,$8,$1,$2,$9*%
%AMOutline5P*
0 Free polygon, 5 corners , with rotation*
0 The origin of the aperture is its center*
0 number of corners: always 5*
0 $1 to $10 corner X, Y*
0 $11 Rotation angle, in degrees counterclockwise*
0 create outline with 5 corners*
4,1,5,$1,$2,$3,$4,$5,$6,$7,$8,$9,$10,$1,$2,$11*%
%AMOutline6P*
0 Free polygon, 6 corners , with rotation*
0 The origin of the aperture is its center*
0 number of corners: always 6*
0 $1 to $12 corner X, Y*
0 $13 Rotation angle, in degrees counterclockwise*
0 create outline with 6 corners*
4,1,6,$1,$2,$3,$4,$5,$6,$7,$8,$9,$10,$11,$12,$1,$2,$13*%
%AMOutline7P*
0 Free polygon, 7 corners , with rotation*
0 The origin of the aperture is its center*
0 number of corners: always 7*
0 $1 to $14 corner X, Y*
0 $15 Rotation angle, in degrees counterclockwise*
0 create outline with 7 corners*
4,1,7,$1,$2,$3,$4,$5,$6,$7,$8,$9,$10,$11,$12,$13,$14,$1,$2,$15*%
%AMOutline8P*
0 Free polygon, 8 corners , with rotation*
0 The origin of the aperture is its center*
0 number of corners: always 8*
0 $1 to $16 corner X, Y*
0 $17 Rotation angle, in degrees counterclockwise*
0 create outline with 8 corners*
4,1,8,$1,$2,$3,$4,$5,$6,$7,$8,$9,$10,$11,$12,$13,$14,$15,$16,$1,$2,$17*%
%AMFreePoly0*
4,1,53,-5.000000,6.000000,-4.993835,6.156918,-4.951834,6.436286,-4.870888,6.706950,-4.752613,6.963507,-4.599369,7.200840,-4.414214,7.414214,-4.200840,7.599369,-3.963507,7.752613,-3.706950,7.870888,-3.436286,7.951834,-3.156918,7.993835,-3.000000,8.000000,3.000000,8.000000,3.156918,7.993835,3.436286,7.951834,3.706950,7.870888,3.963507,7.752613,4.200840,7.599369,4.414214,7.414214,
4.599369,7.200840,4.752613,6.963507,4.870888,6.706950,4.951834,6.436286,4.993835,6.156918,5.000000,6.000000,5.000000,-6.000000,4.993835,-6.156918,4.951834,-6.436286,4.870888,-6.706950,4.752613,-6.963507,4.599369,-7.200840,4.414214,-7.414214,4.200840,-7.599369,3.963507,-7.752613,3.706950,-7.870888,3.436286,-7.951834,3.156918,-7.993835,3.000000,-8.000000,-3.000000,-8.000000,
-3.156918,-7.993835,-3.436286,-7.951834,-3.706950,-7.870888,-3.963507,-7.752613,-4.200840,-7.599369,-4.414214,-7.414214,-4.599369,-7.200840,-4.752613,-6.963507,-4.870888,-6.706950,-4.951834,-6.436286,-4.993835,-6.156918,-5.000000,-6.000000,-5.000000,6.000000,-5.000000,6.000000,$1*%
G04 Aperture macros list end*
%ADD10Outline4P,-3.500000X3.250000X3.500000X3.250000X3.500000X-3.250000X-3.500000X-3.250000X0.000000*%
%ADD11Outline4P,-3.500000X10.000000X3.500000X10.000000X3.500000X-10.000000X-3.500000X-10.000000X0.000000*%
%ADD12Outline5P,-5.000000X7.500000X5.000000X7.500000X5.000000X-7.500000X-3.000000X-7.500000X-5.000000X-5.500000X0.000000*%
%ADD13R,1.200000X3.100000*%
%ADD14C,5.700000*%
%ADD15FreePoly0,0.000000*%
%ADD16Outline4P,-5.000000X10.000000X5.000000X10.000000X5.000000X-10.000000X-5.000000X-10.000000X0.000000*%
G04 APERTURE END LIST*
D10*
%TO.C,HS1*%
X419590000Y-257270000D03*
D11*
X413090000Y-257270000D03*
D12*
X427590000Y-254770000D03*
%TD*%
D10*
%TO.C,HS4*%
X373835000Y-257185000D03*
D12*
X381835000Y-254685000D03*
D11*
X367335000Y-257185000D03*
%TD*%
D13*
%TO.C,D12*%
X418110000Y-263300000D03*
X419810000Y-263300000D03*
X421510000Y-263300000D03*
X421510000Y-250860000D03*
X419810000Y-250860000D03*
X418110000Y-250860000D03*
D14*
X419810000Y-257080000D03*
%TD*%
D10*
%TO.C,HS12*%
X171835000Y-257105000D03*
D15*
X163335000Y-255105000D03*
D16*
X179835000Y-257105000D03*
%TD*%
D13*
%TO.C,D8*%
X236610000Y-263300000D03*
X238310000Y-263300000D03*
X240010000Y-263300000D03*
X240010000Y-250860000D03*
X238310000Y-250860000D03*
X236610000Y-250860000D03*
D14*
X238310000Y-257080000D03*
%TD*%
D13*
%TO.C,D3*%
X326610000Y-263300000D03*
X328310000Y-263300000D03*
X330010000Y-263300000D03*
X330010000Y-250860000D03*
X328310000Y-250860000D03*
X326610000Y-250860000D03*
D14*
X328310000Y-257080000D03*
%TD*%
D13*
%TO.C,D9*%
X215110000Y-263300000D03*
X216810000Y-263300000D03*
X218510000Y-263300000D03*
X218510000Y-250860000D03*
X216810000Y-250860000D03*
X215110000Y-250860000D03*
D14*
X216810000Y-257080000D03*
%TD*%
D10*
%TO.C,HS11*%
X194235000Y-257105000D03*
D11*
X187735000Y-257105000D03*
D12*
X202235000Y-254605000D03*
%TD*%
D13*
%TO.C,D6*%
X395110000Y-263300000D03*
X396810000Y-263300000D03*
X398510000Y-263300000D03*
X398510000Y-250860000D03*
X396810000Y-250860000D03*
X395110000Y-250860000D03*
D14*
X396810000Y-257080000D03*
%TD*%
D13*
%TO.C,D10*%
X192610000Y-263300000D03*
X194310000Y-263300000D03*
X196010000Y-263300000D03*
X196010000Y-250860000D03*
X194310000Y-250860000D03*
X192610000Y-250860000D03*
D14*
X194310000Y-257080000D03*
%TD*%
D10*
%TO.C,HS7*%
X284235000Y-257105000D03*
D12*
X292235000Y-254605000D03*
D11*
X277735000Y-257105000D03*
%TD*%
%TO.C,HS2*%
X390275000Y-257235000D03*
D16*
X404775000Y-257235000D03*
D10*
X396775000Y-257235000D03*
%TD*%
D13*
%TO.C,D2*%
X305110000Y-263300000D03*
X306810000Y-263300000D03*
X308510000Y-263300000D03*
X308510000Y-250860000D03*
X306810000Y-250860000D03*
X305110000Y-250860000D03*
D14*
X306810000Y-257080000D03*
%TD*%
D16*
%TO.C,HS8*%
X269735000Y-257105000D03*
D10*
X261735000Y-257105000D03*
D11*
X255235000Y-257105000D03*
%TD*%
%TO.C,HS3*%
X345235000Y-257135000D03*
D10*
X351735000Y-257135000D03*
D16*
X359735000Y-257135000D03*
%TD*%
D13*
%TO.C,D11*%
X170110000Y-263300000D03*
X171810000Y-263300000D03*
X173510000Y-263300000D03*
X173510000Y-250860000D03*
X171810000Y-250860000D03*
X170110000Y-250860000D03*
D14*
X171810000Y-257080000D03*
%TD*%
D13*
%TO.C,D5*%
X372110000Y-263300000D03*
X373810000Y-263300000D03*
X375510000Y-263300000D03*
X375510000Y-250860000D03*
X373810000Y-250860000D03*
X372110000Y-250860000D03*
D14*
X373810000Y-257080000D03*
%TD*%
D11*
%TO.C,HS9*%
X231835000Y-257105000D03*
D10*
X238335000Y-257105000D03*
D12*
X246335000Y-254605000D03*
%TD*%
D13*
%TO.C,D7*%
X260022900Y-218410650D03*
X261722900Y-218410650D03*
X263422900Y-218410650D03*
X263422900Y-205970650D03*
X261722900Y-205970650D03*
X260022900Y-205970650D03*
D14*
X261722900Y-212190650D03*
%TD*%
D10*
%TO.C,HS5*%
X328247900Y-212215650D03*
D12*
X336247900Y-209715650D03*
D11*
X321747900Y-212215650D03*
%TD*%
D13*
%TO.C,D1*%
X282522900Y-218410650D03*
X284222900Y-218410650D03*
X285922900Y-218410650D03*
X285922900Y-205970650D03*
X284222900Y-205970650D03*
X282522900Y-205970650D03*
D14*
X284222900Y-212190650D03*
%TD*%
D16*
%TO.C,HS6*%
X314622900Y-212215650D03*
D10*
X306622900Y-212215650D03*
D11*
X300122900Y-212215650D03*
%TD*%
D13*
%TO.C,D4*%
X350022900Y-218410650D03*
X351722900Y-218410650D03*
X353422900Y-218410650D03*
X353422900Y-205970650D03*
X351722900Y-205970650D03*
X350022900Y-205970650D03*
D14*
X351722900Y-212190650D03*
%TD*%
D16*
%TO.C,HS10*%
X224647900Y-212215650D03*
D10*
X216647900Y-212215650D03*
D11*
X210147900Y-212215650D03*
%TD*%
%TO.C,HS9*%
X231747900Y-212215650D03*
D10*
X238247900Y-212215650D03*
D12*
X246247900Y-209715650D03*
%TD*%
D11*
%TO.C,HS2*%
X390187900Y-212345650D03*
D16*
X404687900Y-212345650D03*
D10*
X396687900Y-212345650D03*
%TD*%
D13*
%TO.C,D9*%
X215022900Y-218410650D03*
X216722900Y-218410650D03*
X218422900Y-218410650D03*
X218422900Y-205970650D03*
X216722900Y-205970650D03*
X215022900Y-205970650D03*
D14*
X216722900Y-212190650D03*
%TD*%
D13*
%TO.C,D3*%
X326522900Y-218410650D03*
X328222900Y-218410650D03*
X329922900Y-218410650D03*
X329922900Y-205970650D03*
X328222900Y-205970650D03*
X326522900Y-205970650D03*
D14*
X328222900Y-212190650D03*
%TD*%
D13*
%TO.C,D12*%
X418022900Y-218410650D03*
X419722900Y-218410650D03*
X421422900Y-218410650D03*
X421422900Y-205970650D03*
X419722900Y-205970650D03*
X418022900Y-205970650D03*
D14*
X419722900Y-212190650D03*
%TD*%
D13*
%TO.C,D6*%
X395022900Y-218410650D03*
X396722900Y-218410650D03*
X398422900Y-218410650D03*
X398422900Y-205970650D03*
X396722900Y-205970650D03*
X395022900Y-205970650D03*
D14*
X396722900Y-212190650D03*
%TD*%
D13*
%TO.C,D8*%
X236522900Y-218410650D03*
X238222900Y-218410650D03*
X239922900Y-218410650D03*
X239922900Y-205970650D03*
X238222900Y-205970650D03*
X236522900Y-205970650D03*
D14*
X238222900Y-212190650D03*
%TD*%
D10*
%TO.C,HS11*%
X194147900Y-212215650D03*
D11*
X187647900Y-212215650D03*
D12*
X202147900Y-209715650D03*
%TD*%
D10*
%TO.C,HS12*%
X171747900Y-212215650D03*
D15*
X163247900Y-210215650D03*
D16*
X179747900Y-212215650D03*
%TD*%
%TO.C,HS8*%
X269647900Y-212215650D03*
D10*
X261647900Y-212215650D03*
D11*
X255147900Y-212215650D03*
%TD*%
D13*
%TO.C,D5*%
X372022900Y-218410650D03*
X373722900Y-218410650D03*
X375422900Y-218410650D03*
X375422900Y-205970650D03*
X373722900Y-205970650D03*
X372022900Y-205970650D03*
D14*
X373722900Y-212190650D03*
%TD*%
D13*
%TO.C,D11*%
X170022900Y-218410650D03*
X171722900Y-218410650D03*
X173422900Y-218410650D03*
X173422900Y-205970650D03*
X171722900Y-205970650D03*
X170022900Y-205970650D03*
D14*
X171722900Y-212190650D03*
%TD*%
D11*
%TO.C,HS3*%
X345147900Y-212245650D03*
D10*
X351647900Y-212245650D03*
D16*
X359647900Y-212245650D03*
%TD*%
D13*
%TO.C,D10*%
X192522900Y-218410650D03*
X194222900Y-218410650D03*
X195922900Y-218410650D03*
X195922900Y-205970650D03*
X194222900Y-205970650D03*
X192522900Y-205970650D03*
D14*
X194222900Y-212190650D03*
%TD*%
D13*
%TO.C,D2*%
X305022900Y-218410650D03*
X306722900Y-218410650D03*
X308422900Y-218410650D03*
X308422900Y-205970650D03*
X306722900Y-205970650D03*
X305022900Y-205970650D03*
D14*
X306722900Y-212190650D03*
%TD*%
D10*
%TO.C,HS7*%
X284147900Y-212215650D03*
D12*
X292147900Y-209715650D03*
D11*
X277647900Y-212215650D03*
%TD*%
D10*
%TO.C,HS1*%
X419502900Y-212380650D03*
D11*
X413002900Y-212380650D03*
D12*
X427502900Y-209880650D03*
%TD*%
D10*
%TO.C,HS4*%
X373747900Y-212295650D03*
D12*
X381747900Y-209795650D03*
D11*
X367247900Y-212295650D03*
%TD*%
D13*
%TO.C,D7*%
X260110000Y-263300000D03*
X261810000Y-263300000D03*
X263510000Y-263300000D03*
X263510000Y-250860000D03*
X261810000Y-250860000D03*
X260110000Y-250860000D03*
D14*
X261810000Y-257080000D03*
%TD*%
D13*
%TO.C,D1*%
X282610000Y-263300000D03*
X284310000Y-263300000D03*
X286010000Y-263300000D03*
X286010000Y-250860000D03*
X284310000Y-250860000D03*
X282610000Y-250860000D03*
D14*
X284310000Y-257080000D03*
%TD*%
D16*
%TO.C,HS10*%
X224735000Y-257105000D03*
D10*
X216735000Y-257105000D03*
D11*
X210235000Y-257105000D03*
%TD*%
D13*
%TO.C,D4*%
X350110000Y-263300000D03*
X351810000Y-263300000D03*
X353510000Y-263300000D03*
X353510000Y-250860000D03*
X351810000Y-250860000D03*
X350110000Y-250860000D03*
D14*
X351810000Y-257080000D03*
%TD*%
D10*
%TO.C,HS5*%
X328335000Y-257105000D03*
D12*
X336335000Y-254605000D03*
D11*
X321835000Y-257105000D03*
%TD*%
D16*
%TO.C,HS6*%
X314710000Y-257105000D03*
D10*
X306710000Y-257105000D03*
D11*
X300210000Y-257105000D03*
%TD*%
D10*
%TO.C,HS5*%
X328545000Y-167032450D03*
D12*
X336545000Y-164532450D03*
D11*
X322045000Y-167032450D03*
%TD*%
D13*
%TO.C,D1*%
X282820000Y-173227450D03*
X284520000Y-173227450D03*
X286220000Y-173227450D03*
X286220000Y-160787450D03*
X284520000Y-160787450D03*
X282820000Y-160787450D03*
D14*
X284520000Y-167007450D03*
%TD*%
D13*
%TO.C,D7*%
X260320000Y-173227450D03*
X262020000Y-173227450D03*
X263720000Y-173227450D03*
X263720000Y-160787450D03*
X262020000Y-160787450D03*
X260320000Y-160787450D03*
D14*
X262020000Y-167007450D03*
%TD*%
D16*
%TO.C,HS6*%
X314920000Y-167032450D03*
D10*
X306920000Y-167032450D03*
D11*
X300420000Y-167032450D03*
%TD*%
D13*
%TO.C,D4*%
X350320000Y-173227450D03*
X352020000Y-173227450D03*
X353720000Y-173227450D03*
X353720000Y-160787450D03*
X352020000Y-160787450D03*
X350320000Y-160787450D03*
D14*
X352020000Y-167007450D03*
%TD*%
D16*
%TO.C,HS10*%
X224945000Y-167032450D03*
D10*
X216945000Y-167032450D03*
D11*
X210445000Y-167032450D03*
%TD*%
%TO.C,HS9*%
X232045000Y-167032450D03*
D10*
X238545000Y-167032450D03*
D12*
X246545000Y-164532450D03*
%TD*%
D13*
%TO.C,D12*%
X418320000Y-173227450D03*
X420020000Y-173227450D03*
X421720000Y-173227450D03*
X421720000Y-160787450D03*
X420020000Y-160787450D03*
X418320000Y-160787450D03*
D14*
X420020000Y-167007450D03*
%TD*%
D13*
%TO.C,D9*%
X215320000Y-173227450D03*
X217020000Y-173227450D03*
X218720000Y-173227450D03*
X218720000Y-160787450D03*
X217020000Y-160787450D03*
X215320000Y-160787450D03*
D14*
X217020000Y-167007450D03*
%TD*%
D13*
%TO.C,D8*%
X236820000Y-173227450D03*
X238520000Y-173227450D03*
X240220000Y-173227450D03*
X240220000Y-160787450D03*
X238520000Y-160787450D03*
X236820000Y-160787450D03*
D14*
X238520000Y-167007450D03*
%TD*%
D10*
%TO.C,HS11*%
X194445000Y-167032450D03*
D11*
X187945000Y-167032450D03*
D12*
X202445000Y-164532450D03*
%TD*%
D10*
%TO.C,HS12*%
X172045000Y-167032450D03*
D15*
X163545000Y-165032450D03*
D16*
X180045000Y-167032450D03*
%TD*%
D13*
%TO.C,D3*%
X326820000Y-173227450D03*
X328520000Y-173227450D03*
X330220000Y-173227450D03*
X330220000Y-160787450D03*
X328520000Y-160787450D03*
X326820000Y-160787450D03*
D14*
X328520000Y-167007450D03*
%TD*%
D13*
%TO.C,D5*%
X372320000Y-173227450D03*
X374020000Y-173227450D03*
X375720000Y-173227450D03*
X375720000Y-160787450D03*
X374020000Y-160787450D03*
X372320000Y-160787450D03*
D14*
X374020000Y-167007450D03*
%TD*%
D11*
%TO.C,HS2*%
X390485000Y-167162450D03*
D16*
X404985000Y-167162450D03*
D10*
X396985000Y-167162450D03*
%TD*%
D16*
%TO.C,HS8*%
X269945000Y-167032450D03*
D10*
X261945000Y-167032450D03*
D11*
X255445000Y-167032450D03*
%TD*%
D13*
%TO.C,D11*%
X170320000Y-173227450D03*
X172020000Y-173227450D03*
X173720000Y-173227450D03*
X173720000Y-160787450D03*
X172020000Y-160787450D03*
X170320000Y-160787450D03*
D14*
X172020000Y-167007450D03*
%TD*%
D13*
%TO.C,D6*%
X395320000Y-173227450D03*
X397020000Y-173227450D03*
X398720000Y-173227450D03*
X398720000Y-160787450D03*
X397020000Y-160787450D03*
X395320000Y-160787450D03*
D14*
X397020000Y-167007450D03*
%TD*%
D11*
%TO.C,HS3*%
X345445000Y-167062450D03*
D10*
X351945000Y-167062450D03*
D16*
X359945000Y-167062450D03*
%TD*%
D13*
%TO.C,D10*%
X192820000Y-173227450D03*
X194520000Y-173227450D03*
X196220000Y-173227450D03*
X196220000Y-160787450D03*
X194520000Y-160787450D03*
X192820000Y-160787450D03*
D14*
X194520000Y-167007450D03*
%TD*%
D10*
%TO.C,HS7*%
X284445000Y-167032450D03*
D12*
X292445000Y-164532450D03*
D11*
X277945000Y-167032450D03*
%TD*%
D13*
%TO.C,D2*%
X305320000Y-173227450D03*
X307020000Y-173227450D03*
X308720000Y-173227450D03*
X308720000Y-160787450D03*
X307020000Y-160787450D03*
X305320000Y-160787450D03*
D14*
X307020000Y-167007450D03*
%TD*%
D10*
%TO.C,HS1*%
X419800000Y-167197450D03*
D11*
X413300000Y-167197450D03*
D12*
X427800000Y-164697450D03*
%TD*%
D10*
%TO.C,HS4*%
X374045000Y-167112450D03*
D12*
X382045000Y-164612450D03*
D11*
X367545000Y-167112450D03*
%TD*%
%TO.C,HS5*%
X321957900Y-122143100D03*
D12*
X336457900Y-119643100D03*
D10*
X328457900Y-122143100D03*
%TD*%
D14*
%TO.C,D1*%
X284432900Y-122118100D03*
D13*
X282732900Y-115898100D03*
X284432900Y-115898100D03*
X286132900Y-115898100D03*
X286132900Y-128338100D03*
X284432900Y-128338100D03*
X282732900Y-128338100D03*
%TD*%
D14*
%TO.C,D7*%
X261932900Y-122118100D03*
D13*
X260232900Y-115898100D03*
X261932900Y-115898100D03*
X263632900Y-115898100D03*
X263632900Y-128338100D03*
X261932900Y-128338100D03*
X260232900Y-128338100D03*
%TD*%
D11*
%TO.C,HS6*%
X300332900Y-122143100D03*
D10*
X306832900Y-122143100D03*
D16*
X314832900Y-122143100D03*
%TD*%
D14*
%TO.C,D4*%
X351932900Y-122118100D03*
D13*
X350232900Y-115898100D03*
X351932900Y-115898100D03*
X353632900Y-115898100D03*
X353632900Y-128338100D03*
X351932900Y-128338100D03*
X350232900Y-128338100D03*
%TD*%
D11*
%TO.C,HS10*%
X210357900Y-122143100D03*
D10*
X216857900Y-122143100D03*
D16*
X224857900Y-122143100D03*
%TD*%
D12*
%TO.C,HS9*%
X246457900Y-119643100D03*
D10*
X238457900Y-122143100D03*
D11*
X231957900Y-122143100D03*
%TD*%
D14*
%TO.C,D12*%
X419932900Y-122118100D03*
D13*
X418232900Y-115898100D03*
X419932900Y-115898100D03*
X421632900Y-115898100D03*
X421632900Y-128338100D03*
X419932900Y-128338100D03*
X418232900Y-128338100D03*
%TD*%
D14*
%TO.C,D9*%
X216932900Y-122118100D03*
D13*
X215232900Y-115898100D03*
X216932900Y-115898100D03*
X218632900Y-115898100D03*
X218632900Y-128338100D03*
X216932900Y-128338100D03*
X215232900Y-128338100D03*
%TD*%
D14*
%TO.C,D8*%
X238432900Y-122118100D03*
D13*
X236732900Y-115898100D03*
X238432900Y-115898100D03*
X240132900Y-115898100D03*
X240132900Y-128338100D03*
X238432900Y-128338100D03*
X236732900Y-128338100D03*
%TD*%
D12*
%TO.C,HS11*%
X202357900Y-119643100D03*
D11*
X187857900Y-122143100D03*
D10*
X194357900Y-122143100D03*
%TD*%
D16*
%TO.C,HS12*%
X179957900Y-122143100D03*
D15*
X163457900Y-120143100D03*
D10*
X171957900Y-122143100D03*
%TD*%
D14*
%TO.C,D3*%
X328432900Y-122118100D03*
D13*
X326732900Y-115898100D03*
X328432900Y-115898100D03*
X330132900Y-115898100D03*
X330132900Y-128338100D03*
X328432900Y-128338100D03*
X326732900Y-128338100D03*
%TD*%
D14*
%TO.C,D5*%
X373932900Y-122118100D03*
D13*
X372232900Y-115898100D03*
X373932900Y-115898100D03*
X375632900Y-115898100D03*
X375632900Y-128338100D03*
X373932900Y-128338100D03*
X372232900Y-128338100D03*
%TD*%
D10*
%TO.C,HS2*%
X396897900Y-122273100D03*
D16*
X404897900Y-122273100D03*
D11*
X390397900Y-122273100D03*
%TD*%
%TO.C,HS8*%
X255357900Y-122143100D03*
D10*
X261857900Y-122143100D03*
D16*
X269857900Y-122143100D03*
%TD*%
D14*
%TO.C,D11*%
X171932900Y-122118100D03*
D13*
X170232900Y-115898100D03*
X171932900Y-115898100D03*
X173632900Y-115898100D03*
X173632900Y-128338100D03*
X171932900Y-128338100D03*
X170232900Y-128338100D03*
%TD*%
D14*
%TO.C,D6*%
X396932900Y-122118100D03*
D13*
X395232900Y-115898100D03*
X396932900Y-115898100D03*
X398632900Y-115898100D03*
X398632900Y-128338100D03*
X396932900Y-128338100D03*
X395232900Y-128338100D03*
%TD*%
D16*
%TO.C,HS3*%
X359857900Y-122173100D03*
D10*
X351857900Y-122173100D03*
D11*
X345357900Y-122173100D03*
%TD*%
D14*
%TO.C,D10*%
X194432900Y-122118100D03*
D13*
X192732900Y-115898100D03*
X194432900Y-115898100D03*
X196132900Y-115898100D03*
X196132900Y-128338100D03*
X194432900Y-128338100D03*
X192732900Y-128338100D03*
%TD*%
D11*
%TO.C,HS7*%
X277857900Y-122143100D03*
D12*
X292357900Y-119643100D03*
D10*
X284357900Y-122143100D03*
%TD*%
D14*
%TO.C,D2*%
X306932900Y-122118100D03*
D13*
X305232900Y-115898100D03*
X306932900Y-115898100D03*
X308632900Y-115898100D03*
X308632900Y-128338100D03*
X306932900Y-128338100D03*
X305232900Y-128338100D03*
%TD*%
D12*
%TO.C,HS1*%
X427712900Y-119808100D03*
D11*
X413212900Y-122308100D03*
D10*
X419712900Y-122308100D03*
%TD*%
D11*
%TO.C,HS4*%
X367457900Y-122223100D03*
D12*
X381957900Y-119723100D03*
D10*
X373957900Y-122223100D03*
%TD*%
D11*
%TO.C,HS5*%
X321986050Y-77039400D03*
D12*
X336486050Y-74539400D03*
D10*
X328486050Y-77039400D03*
%TD*%
D14*
%TO.C,D1*%
X284461050Y-77014400D03*
D13*
X282761050Y-70794400D03*
X284461050Y-70794400D03*
X286161050Y-70794400D03*
X286161050Y-83234400D03*
X284461050Y-83234400D03*
X282761050Y-83234400D03*
%TD*%
D14*
%TO.C,D7*%
X261961050Y-77014400D03*
D13*
X260261050Y-70794400D03*
X261961050Y-70794400D03*
X263661050Y-70794400D03*
X263661050Y-83234400D03*
X261961050Y-83234400D03*
X260261050Y-83234400D03*
%TD*%
D11*
%TO.C,HS6*%
X300361050Y-77039400D03*
D10*
X306861050Y-77039400D03*
D16*
X314861050Y-77039400D03*
%TD*%
D14*
%TO.C,D4*%
X351961050Y-77014400D03*
D13*
X350261050Y-70794400D03*
X351961050Y-70794400D03*
X353661050Y-70794400D03*
X353661050Y-83234400D03*
X351961050Y-83234400D03*
X350261050Y-83234400D03*
%TD*%
D14*
%TO.C,D9*%
X216961050Y-77014400D03*
D13*
X215261050Y-70794400D03*
X216961050Y-70794400D03*
X218661050Y-70794400D03*
X218661050Y-83234400D03*
X216961050Y-83234400D03*
X215261050Y-83234400D03*
%TD*%
D11*
%TO.C,HS10*%
X210386050Y-77039400D03*
D10*
X216886050Y-77039400D03*
D16*
X224886050Y-77039400D03*
%TD*%
D14*
%TO.C,D8*%
X238461050Y-77014400D03*
D13*
X236761050Y-70794400D03*
X238461050Y-70794400D03*
X240161050Y-70794400D03*
X240161050Y-83234400D03*
X238461050Y-83234400D03*
X236761050Y-83234400D03*
%TD*%
D12*
%TO.C,HS9*%
X246486050Y-74539400D03*
D10*
X238486050Y-77039400D03*
D11*
X231986050Y-77039400D03*
%TD*%
D14*
%TO.C,D12*%
X419961050Y-77014400D03*
D13*
X418261050Y-70794400D03*
X419961050Y-70794400D03*
X421661050Y-70794400D03*
X421661050Y-83234400D03*
X419961050Y-83234400D03*
X418261050Y-83234400D03*
%TD*%
D11*
%TO.C,HS7*%
X277886050Y-77039400D03*
D12*
X292386050Y-74539400D03*
D10*
X284386050Y-77039400D03*
%TD*%
D12*
%TO.C,HS11*%
X202386050Y-74539400D03*
D11*
X187886050Y-77039400D03*
D10*
X194386050Y-77039400D03*
%TD*%
D14*
%TO.C,D11*%
X171961050Y-77014400D03*
D13*
X170261050Y-70794400D03*
X171961050Y-70794400D03*
X173661050Y-70794400D03*
X173661050Y-83234400D03*
X171961050Y-83234400D03*
X170261050Y-83234400D03*
%TD*%
D14*
%TO.C,D2*%
X306961050Y-77014400D03*
D13*
X305261050Y-70794400D03*
X306961050Y-70794400D03*
X308661050Y-70794400D03*
X308661050Y-83234400D03*
X306961050Y-83234400D03*
X305261050Y-83234400D03*
%TD*%
D14*
%TO.C,D6*%
X396961050Y-77014400D03*
D13*
X395261050Y-70794400D03*
X396961050Y-70794400D03*
X398661050Y-70794400D03*
X398661050Y-83234400D03*
X396961050Y-83234400D03*
X395261050Y-83234400D03*
%TD*%
D14*
%TO.C,D5*%
X373961050Y-77014400D03*
D13*
X372261050Y-70794400D03*
X373961050Y-70794400D03*
X375661050Y-70794400D03*
X375661050Y-83234400D03*
X373961050Y-83234400D03*
X372261050Y-83234400D03*
%TD*%
D16*
%TO.C,HS3*%
X359886050Y-77069400D03*
D10*
X351886050Y-77069400D03*
D11*
X345386050Y-77069400D03*
%TD*%
D16*
%TO.C,HS12*%
X179986050Y-77039400D03*
D15*
X163486050Y-75039400D03*
D10*
X171986050Y-77039400D03*
%TD*%
D14*
%TO.C,D3*%
X328461050Y-77014400D03*
D13*
X326761050Y-70794400D03*
X328461050Y-70794400D03*
X330161050Y-70794400D03*
X330161050Y-83234400D03*
X328461050Y-83234400D03*
X326761050Y-83234400D03*
%TD*%
D11*
%TO.C,HS8*%
X255386050Y-77039400D03*
D10*
X261886050Y-77039400D03*
D16*
X269886050Y-77039400D03*
%TD*%
D10*
%TO.C,HS2*%
X396926050Y-77169400D03*
D16*
X404926050Y-77169400D03*
D11*
X390426050Y-77169400D03*
%TD*%
D14*
%TO.C,D10*%
X194461050Y-77014400D03*
D13*
X192761050Y-70794400D03*
X194461050Y-70794400D03*
X196161050Y-70794400D03*
X196161050Y-83234400D03*
X194461050Y-83234400D03*
X192761050Y-83234400D03*
%TD*%
D11*
%TO.C,HS4*%
X367486050Y-77119400D03*
D12*
X381986050Y-74619400D03*
D10*
X373986050Y-77119400D03*
%TD*%
D12*
%TO.C,HS1*%
X427741050Y-74704400D03*
D11*
X413241050Y-77204400D03*
D10*
X419741050Y-77204400D03*
%TD*%
M02*
