%TF.GenerationSoftware,KiCad,Pcbnew,(6.0.6)*%
%TF.CreationDate,2022-10-08T16:47:07+05:30*%
%TF.ProjectId,RGB-3W-Light-Panel,5247422d-3357-42d4-9c69-6768742d5061,V1.1*%
%TF.SameCoordinates,Original*%
%TF.FileFunction,Profile,NP*%
%FSLAX46Y46*%
G04 Gerber Fmt 4.6, Leading zero omitted, Abs format (unit mm)*
G04 Created by KiCad (PCBNEW (6.0.6)) date 2022-10-08 16:47:07*
%MOMM*%
%LPD*%
G01*
G04 APERTURE LIST*
%TA.AperFunction,Profile*%
%ADD10C,0.100000*%
%TD*%
%TA.AperFunction,Profile*%
%ADD11C,0.050000*%
%TD*%
G04 APERTURE END LIST*
D10*
X320678950Y-246305600D02*
X432810000Y-246295600D01*
X320678950Y-244475600D02*
X320678950Y-246305600D01*
X313538950Y-244470000D02*
X155920000Y-244470000D01*
X434668950Y-244475600D02*
X320678950Y-244475600D01*
X313538950Y-246315600D02*
X313538950Y-244470000D01*
X160278950Y-246315600D02*
X313538950Y-246315600D01*
X432722900Y-201440650D02*
X432722900Y-207900650D01*
X157810000Y-263830000D02*
X157810000Y-270320000D01*
X155847900Y-218940650D02*
X157717900Y-218940650D01*
X155935000Y-263830000D02*
X157805000Y-263830000D01*
X155832900Y-199580650D02*
X155832900Y-209900650D01*
X432722900Y-218980650D02*
X432722900Y-225440650D01*
X434592900Y-207890650D02*
X434602900Y-199600650D01*
X434592900Y-218980650D02*
X434592900Y-229320650D01*
X157722900Y-218940650D02*
X157722900Y-225430650D01*
X160222900Y-227940650D02*
X430222900Y-227940650D01*
X430222900Y-227940650D02*
G75*
G03*
X432722900Y-225440650I-30900J2530900D01*
G01*
X157722900Y-204440650D02*
X157722900Y-209900650D01*
X160191850Y-201426250D02*
G75*
G03*
X157722900Y-204440650I326276J-2785536D01*
G01*
X157722900Y-225440650D02*
G75*
G03*
X160222900Y-227940650I2530900J30900D01*
G01*
D11*
X155832900Y-218950650D02*
X155832900Y-229320650D01*
D10*
X434592900Y-229320650D02*
X155832900Y-229320650D01*
X155857900Y-209900650D02*
X157727900Y-209900650D01*
X432732900Y-218980650D02*
X434592900Y-218980650D01*
X432722900Y-207910650D02*
X434592900Y-207910650D01*
X434680000Y-252780000D02*
X434690000Y-244490000D01*
X434680000Y-274210000D02*
X155920000Y-274210000D01*
X155920000Y-244470000D02*
X155920000Y-254790000D01*
X432810000Y-252800000D02*
X434680000Y-252800000D01*
X160310000Y-272830000D02*
X430310000Y-272830000D01*
X157810000Y-270330000D02*
G75*
G03*
X160310000Y-272830000I2530900J30900D01*
G01*
X155920000Y-263840000D02*
X155920000Y-274210000D01*
X155945000Y-254790000D02*
X157815000Y-254790000D01*
X432810000Y-246330000D02*
X432810000Y-252790000D01*
X432810000Y-263870000D02*
X432810000Y-270330000D01*
X157810000Y-249330000D02*
X157810000Y-254790000D01*
X432820000Y-263870000D02*
X434680000Y-263870000D01*
X160278950Y-246315600D02*
G75*
G03*
X157810000Y-249330000I326276J-2785536D01*
G01*
X430310000Y-272830000D02*
G75*
G03*
X432810000Y-270330000I-30900J2530900D01*
G01*
X434680000Y-263870000D02*
X434680000Y-274210000D01*
X313451850Y-201426250D02*
X313451850Y-199580650D01*
X320591850Y-199586250D02*
X320591850Y-201416250D01*
X320591850Y-201416250D02*
X432722900Y-201406250D01*
X313451850Y-199580650D02*
X155832900Y-199580650D01*
X434581850Y-199586250D02*
X320591850Y-199586250D01*
X160191850Y-201426250D02*
X313451850Y-201426250D01*
X320888950Y-154403050D02*
X320888950Y-156233050D01*
X434878950Y-154403050D02*
X320888950Y-154403050D01*
X320888950Y-156233050D02*
X433020000Y-156223050D01*
X313748950Y-156243050D02*
X313748950Y-154397450D01*
X313748950Y-154397450D02*
X156130000Y-154397450D01*
X160488950Y-156243050D02*
X313748950Y-156243050D01*
X320801850Y-109513700D02*
X320801850Y-111343700D01*
X434791850Y-109513700D02*
X320801850Y-109513700D01*
X320801850Y-111343700D02*
X432932900Y-111333700D01*
X313661850Y-111353700D02*
X313661850Y-109508100D01*
X313661850Y-109508100D02*
X156042900Y-109508100D01*
X160401850Y-111353700D02*
X313661850Y-111353700D01*
X320830000Y-66240000D02*
X432961050Y-66240000D01*
X320830000Y-64410000D02*
X320830000Y-66240000D01*
X434820000Y-64410000D02*
X320830000Y-64410000D01*
X313690000Y-64404400D02*
X156071050Y-64404400D01*
X313690000Y-66250000D02*
X313690000Y-64404400D01*
X160430000Y-66250000D02*
X313690000Y-66250000D01*
X158020000Y-159257450D02*
X158020000Y-164717450D01*
X433020000Y-173797450D02*
X433020000Y-180257450D01*
X433020000Y-156257450D02*
X433020000Y-162717450D01*
X433030000Y-173797450D02*
X434890000Y-173797450D01*
X160488950Y-156243050D02*
G75*
G03*
X158020000Y-159257450I326276J-2785536D01*
G01*
X433020000Y-162727450D02*
X434890000Y-162727450D01*
X158020000Y-180257450D02*
G75*
G03*
X160520000Y-182757450I2530900J30900D01*
G01*
X430520000Y-182757450D02*
G75*
G03*
X433020000Y-180257450I-30900J2530900D01*
G01*
X160520000Y-182757450D02*
X430520000Y-182757450D01*
X434890000Y-162707450D02*
X434900000Y-154417450D01*
X156130000Y-173767450D02*
X156130000Y-184137450D01*
X434890000Y-184137450D02*
X156130000Y-184137450D01*
X434890000Y-173797450D02*
X434890000Y-184137450D01*
X156155000Y-164717450D02*
X158025000Y-164717450D01*
X156130000Y-154397450D02*
X156130000Y-164717450D01*
X158020000Y-173757450D02*
X158020000Y-180247450D01*
X156145000Y-173757450D02*
X158015000Y-173757450D01*
X157932900Y-114368100D02*
X157932900Y-119828100D01*
X432932900Y-128908100D02*
X432932900Y-135368100D01*
X432932900Y-111368100D02*
X432932900Y-117828100D01*
X432942900Y-128908100D02*
X434802900Y-128908100D01*
X160401850Y-111353700D02*
G75*
G03*
X157932900Y-114368100I326276J-2785536D01*
G01*
X432932900Y-117838100D02*
X434802900Y-117838100D01*
X157932900Y-135368100D02*
G75*
G03*
X160432900Y-137868100I2530900J30900D01*
G01*
X430432900Y-137868100D02*
G75*
G03*
X432932900Y-135368100I-30900J2530900D01*
G01*
X160432900Y-137868100D02*
X430432900Y-137868100D01*
X434802900Y-117818100D02*
X434812900Y-109528100D01*
X156042900Y-128878100D02*
X156042900Y-139248100D01*
X434802900Y-139248100D02*
X156042900Y-139248100D01*
X434802900Y-128908100D02*
X434802900Y-139248100D01*
X156067900Y-119828100D02*
X157937900Y-119828100D01*
X156042900Y-109508100D02*
X156042900Y-119828100D01*
X157932900Y-128868100D02*
X157932900Y-135358100D01*
X156057900Y-128868100D02*
X157927900Y-128868100D01*
X150550000Y-59210000D02*
X440550000Y-59210000D01*
X440550000Y-59210000D02*
X440550000Y-279210000D01*
X440550000Y-279210000D02*
X150550000Y-279210000D01*
X150550000Y-279210000D02*
X150550000Y-59210000D01*
X156071050Y-83774400D02*
X156071050Y-94144400D01*
X434831050Y-94144400D02*
X156071050Y-94144400D01*
X434831050Y-83804400D02*
X434831050Y-94144400D01*
X156071050Y-64404400D02*
X156071050Y-74724400D01*
X156086050Y-83764400D02*
X157956050Y-83764400D01*
X156096050Y-74724400D02*
X157961050Y-74724400D01*
X157961050Y-83764400D02*
X157961050Y-90254400D01*
X157961050Y-69264400D02*
X157961050Y-74724400D01*
X434831050Y-72734400D02*
X434841050Y-64410000D01*
X432971050Y-83804400D02*
X434831050Y-83804400D01*
X432961050Y-72734400D02*
X434831050Y-72734400D01*
X432961050Y-83804400D02*
X432961050Y-90264400D01*
X157961050Y-90264400D02*
G75*
G03*
X160461050Y-92764400I2530900J30900D01*
G01*
X430461050Y-92764400D02*
G75*
G03*
X432961050Y-90264400I-30900J2530900D01*
G01*
X160430000Y-66250000D02*
G75*
G03*
X157961050Y-69264400I326276J-2785536D01*
G01*
X160461050Y-92764400D02*
X430461050Y-92764400D01*
X432961050Y-66240000D02*
X432961050Y-72734400D01*
M02*
