M48
; DRILL file {KiCad (6.0.6)} date Sat Oct  8 16:47:38 2022
; FORMAT={-:-/ absolute / metric / decimal}
; #@! TF.CreationDate,2022-10-08T16:47:38+05:30
; #@! TF.GenerationSoftware,Kicad,Pcbnew,(6.0.6)
; #@! TF.FileFunction,Plated,1,2,PTH
FMAT,2
METRIC
; #@! TA.AperFunction,Plated,PTH,ViaDrill
T1C0.300
; #@! TA.AperFunction,Plated,PTH,ViaDrill
T2C0.375
; #@! TA.AperFunction,Plated,PTH,ComponentDrill
T3C0.500
; #@! TA.AperFunction,Plated,PTH,ComponentDrill
T4C0.950
; #@! TA.AperFunction,Plated,PTH,ComponentDrill
T5C3.500
%
G90
G05
T1
X166.322Y-220.101
X166.409Y-264.99
X166.532Y-130.028
X166.56Y-84.924
X166.619Y-174.918
X168.709Y-206.51
X168.796Y-251.399
X168.919Y-116.437
X168.947Y-71.334
X169.006Y-161.327
X171.303Y-220.339
X171.39Y-265.228
X171.513Y-130.266
X171.541Y-85.163
X171.6Y-175.156
X173.423Y-203.071
X173.51Y-247.96
X173.633Y-112.998
X173.661Y-67.895
X173.706Y-220.355
X173.72Y-157.888
X173.793Y-265.244
X173.916Y-130.282
X173.944Y-85.178
X174.003Y-175.172
X174.182Y-203.061
X174.269Y-247.95
X174.392Y-112.988
X174.42Y-67.885
X174.479Y-157.878
X174.794Y-224.774
X174.881Y-269.663
X175.004Y-134.701
X175.032Y-89.598
X175.091Y-179.591
X176.884Y-225.354
X176.971Y-270.243
X177.094Y-135.281
X177.122Y-90.178
X177.181Y-180.171
X189.572Y-222.824
X189.659Y-267.714
X189.782Y-132.752
X189.81Y-87.648
X189.869Y-177.641
X191.889Y-225.366
X191.976Y-270.256
X192.099Y-135.294
X192.125Y-216.074
X192.127Y-90.19
X192.186Y-180.183
X192.212Y-260.963
X192.335Y-126.001
X192.363Y-80.897
X192.422Y-170.89
X192.565Y-203.055
X192.653Y-247.944
X192.775Y-112.983
X192.804Y-67.879
X192.863Y-157.872
X194.356Y-204.032
X194.444Y-248.921
X194.566Y-113.959
X194.595Y-68.856
X194.654Y-158.849
X194.977Y-203.854
X195.064Y-248.744
X195.187Y-113.782
X195.215Y-68.678
X195.274Y-158.671
X195.923Y-220.389
X195.955Y-222.765
X196.01Y-265.278
X196.042Y-267.655
X196.133Y-130.316
X196.161Y-85.212
X196.165Y-132.693
X196.193Y-87.589
X196.22Y-175.205
X196.252Y-177.582
X207.726Y-222.705
X207.813Y-267.595
X207.936Y-132.633
X207.964Y-87.529
X208.023Y-177.522
X208.904Y-224.056
X208.991Y-268.945
X209.114Y-133.983
X209.142Y-88.879
X209.201Y-178.872
X214.041Y-207.609
X214.128Y-252.498
X214.131Y-216.127
X214.218Y-261.016
X214.251Y-117.536
X214.279Y-72.433
X214.338Y-162.426
X214.341Y-126.054
X214.369Y-80.95
X214.428Y-170.944
X215.284Y-215.939
X215.372Y-260.828
X215.494Y-125.867
X215.523Y-80.763
X215.582Y-170.756
X216.669Y-204.017
X216.756Y-248.906
X216.879Y-113.944
X216.907Y-68.84
X216.966Y-158.833
X217.269Y-220.362
X217.356Y-265.252
X217.445Y-204.003
X217.479Y-130.29
X217.508Y-85.186
X217.533Y-248.893
X217.566Y-175.179
X217.655Y-113.931
X217.684Y-68.827
X217.743Y-158.82
X218.373Y-215.939
X218.46Y-260.828
X218.583Y-125.867
X218.611Y-80.763
X218.67Y-170.756
X219.273Y-216.081
X219.361Y-260.97
X219.483Y-126.008
X219.512Y-80.904
X219.57Y-170.897
X223.307Y-222.705
X223.395Y-267.595
X223.517Y-132.633
X223.546Y-87.529
X223.605Y-177.522
X236.423Y-216.271
X236.431Y-225.29
X236.51Y-261.16
X236.518Y-270.179
X236.633Y-126.198
X236.641Y-135.217
X236.661Y-81.094
X236.67Y-90.114
X236.72Y-171.087
X236.728Y-180.107
X237.309Y-203.253
X237.396Y-248.142
X237.519Y-113.18
X237.547Y-68.077
X237.606Y-158.07
X237.942Y-204.032
X238.029Y-248.921
X238.037Y-216.467
X238.124Y-261.357
X238.152Y-113.959
X238.18Y-68.856
X238.239Y-158.849
X238.247Y-126.395
X238.275Y-81.291
X238.334Y-171.284
X239.011Y-203.403
X239.098Y-248.292
X239.221Y-113.331
X239.249Y-68.227
X239.308Y-158.22
X239.939Y-222.705
X240.026Y-267.595
X240.149Y-132.633
X240.177Y-87.529
X240.236Y-177.522
X240.923Y-216.221
X241.01Y-261.11
X241.133Y-126.148
X241.161Y-81.044
X241.22Y-171.037
X252.923Y-225.371
X253.01Y-270.26
X253.133Y-135.298
X253.161Y-90.194
X253.22Y-180.187
X253.413Y-224.681
X253.5Y-269.57
X253.623Y-134.608
X253.651Y-89.504
X253.71Y-179.497
X253.843Y-226.131
X253.93Y-271.02
X254.053Y-136.058
X254.081Y-90.954
X254.14Y-180.947
X259.035Y-207.603
X259.123Y-252.493
X259.245Y-117.531
X259.274Y-72.427
X259.332Y-162.42
X261.466Y-220.345
X261.553Y-265.235
X261.676Y-130.273
X261.704Y-85.169
X261.763Y-175.162
X262.444Y-204.002
X262.531Y-248.891
X262.654Y-113.929
X262.682Y-68.825
X262.741Y-158.818
X263.945Y-202.812
X264.033Y-247.701
X264.155Y-112.739
X264.184Y-67.635
X264.243Y-157.628
X264.273Y-216.031
X264.361Y-260.92
X264.483Y-125.958
X264.512Y-80.854
X264.57Y-170.847
X269.546Y-225.516
X269.633Y-270.405
X269.756Y-135.444
X269.784Y-90.34
X269.843Y-180.333
X279.517Y-226.199
X279.604Y-271.088
X279.727Y-136.126
X279.755Y-91.022
X279.814Y-181.015
X281.533Y-220.774
X281.62Y-265.663
X281.743Y-130.701
X281.771Y-85.597
X281.83Y-175.59
X282.026Y-220.342
X282.113Y-265.231
X282.236Y-130.27
X282.265Y-85.166
X282.265Y-216.156
X282.323Y-175.159
X282.352Y-261.046
X282.475Y-126.084
X282.503Y-80.98
X282.547Y-203.078
X282.562Y-170.973
X282.634Y-247.968
X282.757Y-113.006
X282.785Y-67.902
X282.844Y-157.895
X284.193Y-220.774
X284.28Y-265.663
X284.403Y-130.701
X284.431Y-85.597
X284.49Y-175.59
X284.974Y-204.032
X285.061Y-248.921
X285.184Y-113.959
X285.212Y-68.856
X285.271Y-158.849
X286.709Y-203.077
X286.796Y-247.966
X286.919Y-113.004
X286.923Y-216.261
X286.947Y-67.9
X287.006Y-157.893
X287.01Y-261.15
X287.133Y-126.188
X287.161Y-81.084
X287.22Y-171.077
X297.291Y-222.798
X297.378Y-267.688
X297.501Y-132.726
X297.529Y-87.622
X297.588Y-177.615
X298.633Y-225.291
X298.72Y-270.18
X298.843Y-135.218
X298.871Y-90.114
X298.93Y-180.107
X304.003Y-207.593
X304.09Y-252.482
X304.213Y-117.52
X304.241Y-72.416
X304.3Y-162.41
X304.46Y-216.466
X304.547Y-261.355
X304.67Y-126.393
X304.698Y-81.29
X304.757Y-171.283
X306.556Y-216.151
X306.641Y-204.032
X306.643Y-261.041
X306.728Y-248.921
X306.766Y-126.079
X306.794Y-80.975
X306.851Y-113.959
X306.853Y-170.968
X306.879Y-68.856
X306.938Y-158.849
X307.683Y-216.151
X307.77Y-261.04
X307.893Y-126.078
X307.921Y-80.974
X307.98Y-170.967
X308.473Y-203.077
X308.56Y-247.966
X308.683Y-113.004
X308.711Y-67.901
X308.77Y-157.894
X311.543Y-222.813
X311.63Y-267.702
X311.753Y-132.74
X311.781Y-87.636
X311.84Y-177.629
X325.673Y-220.311
X325.76Y-265.2
X325.883Y-130.238
X325.911Y-85.134
X325.97Y-175.127
X326.137Y-202.971
X326.224Y-247.861
X326.347Y-112.899
X326.375Y-67.795
X326.434Y-157.788
X327.428Y-220.311
X327.515Y-265.2
X327.638Y-130.238
X327.666Y-85.134
X327.725Y-175.127
X328.277Y-207.943
X328.364Y-252.832
X328.487Y-117.871
X328.515Y-72.767
X328.574Y-162.76
X330.787Y-203.015
X330.812Y-216.57
X330.874Y-247.905
X330.899Y-261.459
X330.997Y-112.943
X331.022Y-126.498
X331.025Y-67.839
X331.051Y-81.394
X331.084Y-157.832
X331.109Y-171.387
X335.198Y-227.333
X335.285Y-272.222
X335.408Y-137.261
X335.436Y-92.157
X335.495Y-182.15
X336.088Y-226.427
X336.175Y-271.316
X336.298Y-136.354
X336.326Y-91.251
X336.385Y-181.244
X342.307Y-222.918
X342.394Y-267.808
X342.517Y-132.846
X342.545Y-87.742
X342.604Y-177.735
X349.033Y-220.311
X349.12Y-265.2
X349.243Y-130.238
X349.271Y-85.134
X349.33Y-175.127
X349.896Y-202.943
X349.983Y-247.832
X350.106Y-112.87
X350.134Y-67.767
X350.193Y-157.76
X350.193Y-216.178
X350.28Y-261.067
X350.403Y-126.106
X350.431Y-81.002
X350.49Y-170.995
X351.491Y-204.032
X351.578Y-248.921
X351.701Y-113.959
X351.729Y-68.856
X351.788Y-158.849
X352.758Y-220.655
X352.845Y-265.544
X352.968Y-130.582
X352.996Y-85.478
X353.055Y-175.471
X353.423Y-202.92
X353.51Y-247.81
X353.633Y-112.848
X353.661Y-67.744
X353.72Y-157.737
X355.038Y-225.047
X355.125Y-269.936
X355.248Y-134.974
X355.276Y-89.87
X355.335Y-179.863
X356.694Y-224.791
X356.781Y-269.68
X356.904Y-134.718
X356.932Y-89.615
X356.991Y-179.608
X357.695Y-222.918
X357.782Y-267.808
X357.905Y-132.846
X357.933Y-87.742
X357.992Y-177.735
X366.342Y-222.74
X366.429Y-267.629
X366.552Y-132.667
X366.58Y-87.564
X366.639Y-177.557
X371.516Y-220.509
X371.603Y-265.398
X371.726Y-130.436
X371.755Y-85.333
X371.813Y-175.326
X372.987Y-203.947
X373.074Y-248.836
X373.197Y-113.874
X373.225Y-68.771
X373.284Y-158.764
X373.678Y-204.032
X373.723Y-216.447
X373.765Y-248.921
X373.785Y-222.74
X373.81Y-261.336
X373.872Y-267.629
X373.888Y-113.959
X373.916Y-68.856
X373.933Y-126.374
X373.961Y-81.271
X373.975Y-158.849
X373.995Y-132.667
X374.02Y-171.264
X374.023Y-87.564
X374.082Y-177.557
X376.281Y-202.987
X376.319Y-216.511
X376.369Y-247.876
X376.406Y-261.4
X376.491Y-112.914
X376.52Y-67.811
X376.529Y-126.438
X376.557Y-81.334
X376.579Y-157.804
X376.616Y-171.327
X378.012Y-225.996
X378.099Y-270.885
X378.222Y-135.923
X378.25Y-90.819
X378.309Y-180.812
X394.715Y-202.802
X394.802Y-247.691
X394.925Y-112.729
X394.953Y-67.626
X395.012Y-157.619
X395.175Y-216.218
X395.262Y-261.108
X395.385Y-126.146
X395.414Y-81.042
X395.472Y-171.035
X395.473Y-225.551
X395.56Y-270.44
X395.683Y-135.478
X395.711Y-90.374
X395.77Y-180.367
X395.898Y-220.335
X395.985Y-265.224
X396.108Y-130.262
X396.136Y-85.159
X396.195Y-175.152
X396.366Y-204.032
X396.453Y-248.921
X396.576Y-113.959
X396.604Y-68.856
X396.663Y-158.849
X397.557Y-220.984
X397.644Y-265.873
X397.767Y-130.911
X397.795Y-85.808
X397.854Y-175.801
X398.255Y-221.957
X398.343Y-266.847
X398.423Y-207.947
X398.465Y-131.885
X398.494Y-86.781
X398.51Y-252.836
X398.553Y-176.774
X398.633Y-117.874
X398.661Y-72.771
X398.72Y-162.764
X411.538Y-222.848
X411.625Y-267.738
X411.748Y-132.776
X411.776Y-87.672
X411.835Y-177.665
X416.917Y-222.832
X416.92Y-216.511
X417.004Y-267.721
X417.007Y-261.4
X417.127Y-132.759
X417.13Y-126.438
X417.155Y-87.655
X417.159Y-81.334
X417.214Y-177.648
X417.217Y-171.327
X418.635Y-227.108
X418.7Y-216.246
X418.722Y-271.998
X418.787Y-261.135
X418.845Y-137.036
X418.873Y-91.932
X418.91Y-126.173
X418.932Y-181.925
X418.939Y-81.069
X418.946Y-204.032
X418.998Y-171.062
X419.033Y-248.921
X419.156Y-113.959
X419.184Y-68.856
X419.243Y-158.849
X420.075Y-204.032
X420.162Y-248.921
X420.285Y-113.959
X420.313Y-68.856
X420.372Y-158.849
X422.013Y-207.906
X422.1Y-252.795
X422.223Y-117.834
X422.251Y-72.73
X422.31Y-162.723
X425.023Y-217.98
X425.11Y-262.869
X425.233Y-127.907
X425.261Y-82.803
X425.32Y-172.796
T2
X158.893Y-218.941
X158.98Y-263.83
X159.103Y-128.868
X159.131Y-83.764
X159.19Y-173.757
X171.203Y-222.541
X171.29Y-267.43
X171.413Y-132.468
X171.441Y-87.364
X171.5Y-177.357
X175.443Y-223.291
X175.53Y-268.18
X175.653Y-133.218
X175.681Y-88.114
X175.74Y-178.107
X297.333Y-224.591
X297.42Y-269.48
X297.543Y-134.518
X297.571Y-89.414
X297.63Y-179.407
X349.963Y-221.921
X350.05Y-266.81
X350.173Y-131.848
X350.201Y-86.744
X350.26Y-176.737
X350.863Y-224.611
X350.95Y-269.5
X351.073Y-134.538
X351.101Y-89.434
X351.16Y-179.427
X389.633Y-224.521
X389.72Y-269.41
X389.843Y-134.448
X389.871Y-89.344
X389.93Y-179.337
X393.933Y-225.161
X394.02Y-270.05
X394.143Y-135.088
X394.171Y-89.984
X394.23Y-179.977
X394.863Y-221.961
X394.95Y-266.85
X395.073Y-131.888
X395.101Y-86.784
X395.16Y-176.777
X396.409Y-222.374
X396.497Y-267.263
X396.619Y-132.302
X396.648Y-87.198
X396.707Y-177.191
X398.323Y-225.041
X398.41Y-269.93
X398.533Y-134.968
X398.561Y-89.864
X398.62Y-179.857
X402.713Y-224.061
X402.8Y-268.95
X402.923Y-133.988
X402.951Y-88.884
X403.01Y-178.877
X420.593Y-227.031
X420.68Y-271.92
X420.803Y-136.958
X420.831Y-91.854
X420.89Y-181.847
X424.423Y-226.421
X424.51Y-271.31
X424.633Y-136.348
X424.661Y-91.244
X424.72Y-181.237
T3
X159.568Y-222.941
X159.655Y-267.83
X159.778Y-132.868
X159.806Y-87.764
X159.865Y-177.757
X160.337Y-221.084
X160.337Y-224.797
X160.424Y-265.974
X160.424Y-269.686
X160.547Y-131.012
X160.547Y-134.724
X160.575Y-85.908
X160.575Y-89.621
X160.634Y-175.901
X160.634Y-179.614
X162.193Y-220.316
X162.193Y-225.566
X162.28Y-265.205
X162.28Y-270.455
X162.403Y-130.243
X162.403Y-135.493
X162.431Y-85.139
X162.431Y-90.389
X162.49Y-175.132
X162.49Y-180.382
X164.049Y-221.084
X164.049Y-224.797
X164.136Y-265.974
X164.136Y-269.686
X164.259Y-131.012
X164.259Y-134.724
X164.287Y-85.908
X164.287Y-89.621
X164.346Y-175.901
X164.346Y-179.614
X164.818Y-222.941
X164.905Y-267.83
X165.028Y-132.868
X165.056Y-87.764
X165.115Y-177.757
X199.398Y-222.611
X199.485Y-267.5
X199.608Y-132.538
X199.636Y-87.434
X199.695Y-177.427
X200.167Y-220.754
X200.167Y-224.467
X200.254Y-265.644
X200.254Y-269.356
X200.377Y-130.682
X200.377Y-134.394
X200.405Y-85.578
X200.405Y-89.291
X200.464Y-175.571
X200.464Y-179.284
X202.023Y-219.986
X202.023Y-225.236
X202.11Y-264.875
X202.11Y-270.125
X202.233Y-129.913
X202.233Y-135.163
X202.261Y-84.809
X202.261Y-90.059
X202.32Y-174.802
X202.32Y-180.052
X203.879Y-220.754
X203.879Y-224.467
X203.966Y-265.644
X203.966Y-269.356
X204.089Y-130.682
X204.089Y-134.394
X204.117Y-85.578
X204.117Y-89.291
X204.176Y-175.571
X204.176Y-179.284
X204.648Y-222.611
X204.735Y-267.5
X204.858Y-132.538
X204.886Y-87.434
X204.945Y-177.427
X244.598Y-222.591
X244.685Y-267.48
X244.808Y-132.518
X244.836Y-87.414
X244.895Y-177.407
X245.367Y-220.734
X245.367Y-224.447
X245.454Y-265.624
X245.454Y-269.336
X245.577Y-130.662
X245.577Y-134.374
X245.605Y-85.558
X245.605Y-89.271
X245.664Y-175.551
X245.664Y-179.264
X247.223Y-219.966
X247.223Y-225.216
X247.31Y-264.855
X247.31Y-270.105
X247.433Y-129.893
X247.433Y-135.143
X247.461Y-84.789
X247.461Y-90.039
X247.52Y-174.782
X247.52Y-180.032
X249.079Y-220.734
X249.079Y-224.447
X249.166Y-265.624
X249.166Y-269.336
X249.289Y-130.662
X249.289Y-134.374
X249.317Y-85.558
X249.317Y-89.271
X249.376Y-175.551
X249.376Y-179.264
X249.848Y-222.591
X249.935Y-267.48
X250.058Y-132.518
X250.086Y-87.414
X250.145Y-177.407
X289.498Y-222.511
X289.585Y-267.4
X289.708Y-132.438
X289.736Y-87.334
X289.795Y-177.327
X290.267Y-220.654
X290.267Y-224.367
X290.354Y-265.544
X290.354Y-269.256
X290.477Y-130.582
X290.477Y-134.294
X290.505Y-85.478
X290.505Y-89.191
X290.564Y-175.471
X290.564Y-179.184
X292.123Y-219.886
X292.123Y-225.136
X292.21Y-264.775
X292.21Y-270.025
X292.333Y-129.813
X292.333Y-135.063
X292.361Y-84.709
X292.361Y-89.959
X292.42Y-174.702
X292.42Y-179.952
X293.979Y-220.654
X293.979Y-224.367
X294.066Y-265.544
X294.066Y-269.256
X294.189Y-130.582
X294.189Y-134.294
X294.217Y-85.478
X294.217Y-89.191
X294.276Y-175.471
X294.276Y-179.184
X294.748Y-222.511
X294.835Y-267.4
X294.958Y-132.438
X294.986Y-87.334
X295.045Y-177.327
X334.598Y-222.521
X334.685Y-267.41
X334.808Y-132.448
X334.836Y-87.344
X334.895Y-177.337
X335.367Y-220.664
X335.367Y-224.377
X335.454Y-265.554
X335.454Y-269.266
X335.577Y-130.592
X335.577Y-134.304
X335.605Y-85.488
X335.605Y-89.201
X335.664Y-175.481
X335.664Y-179.194
X337.223Y-219.896
X337.223Y-225.146
X337.31Y-264.785
X337.31Y-270.035
X337.433Y-129.823
X337.433Y-135.073
X337.461Y-84.719
X337.461Y-89.969
X337.52Y-174.712
X337.52Y-179.962
X339.079Y-220.664
X339.079Y-224.377
X339.166Y-265.554
X339.166Y-269.266
X339.289Y-130.592
X339.289Y-134.304
X339.317Y-85.488
X339.317Y-89.201
X339.376Y-175.481
X339.376Y-179.194
X339.848Y-222.521
X339.935Y-267.41
X340.058Y-132.448
X340.086Y-87.344
X340.145Y-177.337
X379.738Y-222.521
X379.825Y-267.41
X379.948Y-132.448
X379.976Y-87.344
X380.035Y-177.337
X380.507Y-220.664
X380.507Y-224.377
X380.594Y-265.554
X380.594Y-269.266
X380.717Y-130.592
X380.717Y-134.304
X380.745Y-85.488
X380.745Y-89.201
X380.804Y-175.481
X380.804Y-179.194
X382.363Y-219.896
X382.363Y-225.146
X382.45Y-264.785
X382.45Y-270.035
X382.573Y-129.823
X382.573Y-135.073
X382.601Y-84.719
X382.601Y-89.969
X382.66Y-174.712
X382.66Y-179.962
X384.219Y-220.664
X384.219Y-224.377
X384.306Y-265.554
X384.306Y-269.266
X384.429Y-130.592
X384.429Y-134.304
X384.457Y-85.488
X384.457Y-89.201
X384.516Y-175.481
X384.516Y-179.194
X384.988Y-222.521
X385.075Y-267.41
X385.198Y-132.448
X385.226Y-87.344
X385.285Y-177.337
X425.648Y-222.441
X425.735Y-267.33
X425.858Y-132.368
X425.886Y-87.264
X425.945Y-177.257
X426.417Y-220.584
X426.417Y-224.297
X426.504Y-265.474
X426.504Y-269.186
X426.627Y-130.512
X426.627Y-134.224
X426.655Y-85.408
X426.655Y-89.121
X426.714Y-175.401
X426.714Y-179.114
X428.273Y-219.816
X428.273Y-225.066
X428.36Y-264.705
X428.36Y-269.955
X428.483Y-129.743
X428.483Y-134.993
X428.511Y-84.639
X428.511Y-89.889
X428.57Y-174.632
X428.57Y-179.882
X430.129Y-220.584
X430.129Y-224.297
X430.216Y-265.474
X430.216Y-269.186
X430.339Y-130.512
X430.339Y-134.224
X430.367Y-85.408
X430.367Y-89.121
X430.426Y-175.401
X430.426Y-179.114
X430.898Y-222.441
X430.985Y-267.33
X431.108Y-132.368
X431.136Y-87.264
X431.195Y-177.257
T4
X182.828Y-224.066
X182.915Y-268.955
X183.038Y-133.993
X183.066Y-88.889
X183.125Y-178.882
X185.328Y-224.066
X185.415Y-268.955
X185.538Y-133.993
X185.566Y-88.889
X185.625Y-178.882
X187.828Y-224.066
X187.915Y-268.955
X188.038Y-133.993
X188.066Y-88.889
X188.125Y-178.882
X190.328Y-224.066
X190.415Y-268.955
X190.538Y-133.993
X190.566Y-88.889
X190.625Y-178.882
X192.828Y-224.066
X192.915Y-268.955
X193.038Y-133.993
X193.066Y-88.889
X193.125Y-178.882
X195.328Y-224.066
X195.415Y-268.955
X195.538Y-133.993
X195.566Y-88.889
X195.625Y-178.882
X228.128Y-224.056
X228.215Y-268.945
X228.338Y-133.983
X228.366Y-88.879
X228.425Y-178.872
X230.628Y-224.056
X230.715Y-268.945
X230.838Y-133.983
X230.866Y-88.879
X230.925Y-178.872
X233.128Y-224.056
X233.215Y-268.945
X233.338Y-133.983
X233.366Y-88.879
X233.425Y-178.872
X235.628Y-224.056
X235.715Y-268.945
X235.838Y-133.983
X235.866Y-88.879
X235.925Y-178.872
X238.128Y-224.056
X238.215Y-268.945
X238.338Y-133.983
X238.366Y-88.879
X238.425Y-178.872
X240.628Y-224.056
X240.715Y-268.945
X240.838Y-133.983
X240.866Y-88.879
X240.925Y-178.872
X273.028Y-224.166
X273.115Y-269.055
X273.238Y-134.093
X273.266Y-88.989
X273.325Y-178.982
X275.528Y-224.166
X275.615Y-269.055
X275.738Y-134.093
X275.766Y-88.989
X275.825Y-178.982
X278.028Y-224.166
X278.115Y-269.055
X278.238Y-134.093
X278.266Y-88.989
X278.325Y-178.982
X280.528Y-224.166
X280.615Y-269.055
X280.738Y-134.093
X280.766Y-88.989
X280.825Y-178.982
X283.028Y-224.166
X283.115Y-269.055
X283.238Y-134.093
X283.266Y-88.989
X283.325Y-178.982
X285.528Y-224.166
X285.615Y-269.055
X285.738Y-134.093
X285.766Y-88.989
X285.825Y-178.982
X318.123Y-224.191
X318.21Y-269.08
X318.333Y-134.118
X318.361Y-89.014
X318.42Y-179.007
X320.623Y-224.191
X320.71Y-269.08
X320.833Y-134.118
X320.861Y-89.014
X320.92Y-179.007
X323.123Y-224.191
X323.21Y-269.08
X323.333Y-134.118
X323.361Y-89.014
X323.42Y-179.007
X325.623Y-224.191
X325.71Y-269.08
X325.833Y-134.118
X325.861Y-89.014
X325.92Y-179.007
X328.123Y-224.191
X328.21Y-269.08
X328.333Y-134.118
X328.361Y-89.014
X328.42Y-179.007
X330.623Y-224.191
X330.71Y-269.08
X330.833Y-134.118
X330.861Y-89.014
X330.92Y-179.007
X363.088Y-224.066
X363.175Y-268.955
X363.298Y-133.993
X363.326Y-88.889
X363.385Y-178.882
X365.588Y-224.066
X365.675Y-268.955
X365.798Y-133.993
X365.826Y-88.889
X365.885Y-178.882
X368.088Y-224.066
X368.175Y-268.955
X368.298Y-133.993
X368.326Y-88.889
X368.385Y-178.882
X370.588Y-224.066
X370.675Y-268.955
X370.798Y-133.993
X370.826Y-88.889
X370.885Y-178.882
X373.088Y-224.066
X373.175Y-268.955
X373.298Y-133.993
X373.326Y-88.889
X373.385Y-178.882
X375.588Y-224.066
X375.675Y-268.955
X375.798Y-133.993
X375.826Y-88.889
X375.885Y-178.882
X409.038Y-224.206
X409.125Y-269.095
X409.248Y-134.133
X409.276Y-89.029
X409.335Y-179.022
X411.538Y-224.206
X411.625Y-269.095
X411.748Y-134.133
X411.776Y-89.029
X411.835Y-179.022
X414.038Y-224.206
X414.125Y-269.095
X414.248Y-134.133
X414.276Y-89.029
X414.335Y-179.022
X416.538Y-224.206
X416.625Y-269.095
X416.748Y-134.133
X416.776Y-89.029
X416.835Y-179.022
X419.038Y-224.206
X419.125Y-269.095
X419.248Y-134.133
X419.276Y-89.029
X419.335Y-179.022
X421.538Y-224.206
X421.625Y-269.095
X421.748Y-134.133
X421.776Y-89.029
X421.835Y-179.022
T5
X162.193Y-222.941
X162.28Y-267.83
X162.403Y-132.868
X162.431Y-87.764
X162.49Y-177.757
X202.023Y-222.611
X202.11Y-267.5
X202.233Y-132.538
X202.261Y-87.434
X202.32Y-177.427
X247.223Y-222.591
X247.31Y-267.48
X247.433Y-132.518
X247.461Y-87.414
X247.52Y-177.407
X292.123Y-222.511
X292.21Y-267.4
X292.333Y-132.438
X292.361Y-87.334
X292.42Y-177.327
X337.223Y-222.521
X337.31Y-267.41
X337.433Y-132.448
X337.461Y-87.344
X337.52Y-177.337
X382.363Y-222.521
X382.45Y-267.41
X382.573Y-132.448
X382.601Y-87.344
X382.66Y-177.337
X428.273Y-222.441
X428.36Y-267.33
X428.483Y-132.368
X428.511Y-87.264
X428.57Y-177.257
T0
M30
