%TF.GenerationSoftware,KiCad,Pcbnew,(6.0.6)*%
%TF.CreationDate,2022-10-08T16:47:07+05:30*%
%TF.ProjectId,RGB-3W-Light-Panel,5247422d-3357-42d4-9c69-6768742d5061,V1.1*%
%TF.SameCoordinates,Original*%
%TF.FileFunction,Soldermask,Bot*%
%TF.FilePolarity,Negative*%
%FSLAX46Y46*%
G04 Gerber Fmt 4.6, Leading zero omitted, Abs format (unit mm)*
G04 Created by KiCad (PCBNEW (6.0.6)) date 2022-10-08 16:47:07*
%MOMM*%
%LPD*%
G01*
G04 APERTURE LIST*
G04 Aperture macros list*
%AMRoundRect*
0 Rectangle with rounded corners*
0 $1 Rounding radius*
0 $2 $3 $4 $5 $6 $7 $8 $9 X,Y pos of 4 corners*
0 Add a 4 corners polygon primitive as box body*
4,1,4,$2,$3,$4,$5,$6,$7,$8,$9,$2,$3,0*
0 Add four circle primitives for the rounded corners*
1,1,$1+$1,$2,$3*
1,1,$1+$1,$4,$5*
1,1,$1+$1,$6,$7*
1,1,$1+$1,$8,$9*
0 Add four rect primitives between the rounded corners*
20,1,$1+$1,$2,$3,$4,$5,0*
20,1,$1+$1,$4,$5,$6,$7,0*
20,1,$1+$1,$6,$7,$8,$9,0*
20,1,$1+$1,$8,$9,$2,$3,0*%
G04 Aperture macros list end*
%ADD10RoundRect,0.250000X-0.600000X-0.725000X0.600000X-0.725000X0.600000X0.725000X-0.600000X0.725000X0*%
%ADD11O,1.700000X1.950000*%
%ADD12RoundRect,0.249999X0.450001X1.425001X-0.450001X1.425001X-0.450001X-1.425001X0.450001X-1.425001X0*%
%ADD13RoundRect,0.250000X-0.350000X-0.450000X0.350000X-0.450000X0.350000X0.450000X-0.350000X0.450000X0*%
%ADD14RoundRect,0.249999X-0.450001X-1.425001X0.450001X-1.425001X0.450001X1.425001X-0.450001X1.425001X0*%
%ADD15RoundRect,0.150000X0.150000X-0.587500X0.150000X0.587500X-0.150000X0.587500X-0.150000X-0.587500X0*%
%ADD16RoundRect,0.249999X1.425001X-0.450001X1.425001X0.450001X-1.425001X0.450001X-1.425001X-0.450001X0*%
%ADD17C,0.800000*%
%ADD18C,7.000000*%
G04 APERTURE END LIST*
D10*
%TO.C,J7*%
X182915000Y-268955000D03*
D11*
X185415000Y-268955000D03*
X187915000Y-268955000D03*
X190415000Y-268955000D03*
X192915000Y-268955000D03*
X195415000Y-268955000D03*
%TD*%
D12*
%TO.C,R86*%
X224760000Y-250020000D03*
X218660000Y-250020000D03*
%TD*%
D13*
%TO.C,R90*%
X208960000Y-253792500D03*
X210960000Y-253792500D03*
%TD*%
D14*
%TO.C,R102*%
X163860000Y-250020000D03*
X169960000Y-250020000D03*
%TD*%
D15*
%TO.C,Q13*%
X331460000Y-258767500D03*
X329560000Y-258767500D03*
X330510000Y-256892500D03*
%TD*%
D12*
%TO.C,R14*%
X404610000Y-249800000D03*
X398510000Y-249800000D03*
%TD*%
D13*
%TO.C,R99*%
X186310000Y-253930000D03*
X188310000Y-253930000D03*
%TD*%
%TO.C,R79*%
X230510000Y-262730000D03*
X232510000Y-262730000D03*
%TD*%
%TO.C,R26*%
X370770000Y-253940000D03*
X372770000Y-253940000D03*
%TD*%
%TO.C,R56*%
X286010000Y-253730000D03*
X288010000Y-253730000D03*
%TD*%
%TO.C,R7*%
X412130000Y-263202500D03*
X414130000Y-263202500D03*
%TD*%
D12*
%TO.C,R68*%
X269760000Y-250020000D03*
X263660000Y-250020000D03*
%TD*%
D15*
%TO.C,Q6*%
X400550000Y-259587500D03*
X398650000Y-259587500D03*
X399600000Y-257712500D03*
%TD*%
%TO.C,Q28*%
X220360000Y-258967500D03*
X218460000Y-258967500D03*
X219410000Y-257092500D03*
%TD*%
D13*
%TO.C,R83*%
X218410000Y-253730000D03*
X220410000Y-253730000D03*
%TD*%
D14*
%TO.C,R84*%
X208860000Y-250020000D03*
X214960000Y-250020000D03*
%TD*%
D15*
%TO.C,Q1*%
X423790000Y-259737500D03*
X421890000Y-259737500D03*
X422840000Y-257862500D03*
%TD*%
%TO.C,Q32*%
X192960000Y-259267500D03*
X191060000Y-259267500D03*
X192010000Y-257392500D03*
%TD*%
D13*
%TO.C,R25*%
X365840000Y-262780000D03*
X367840000Y-262780000D03*
%TD*%
D14*
%TO.C,R66*%
X253860000Y-250020000D03*
X259960000Y-250020000D03*
%TD*%
D15*
%TO.C,Q16*%
X310260000Y-258867500D03*
X308360000Y-258867500D03*
X309310000Y-256992500D03*
%TD*%
D13*
%TO.C,R9*%
X412300000Y-254280000D03*
X414300000Y-254280000D03*
%TD*%
D15*
%TO.C,Q9*%
X367860000Y-259177500D03*
X365960000Y-259177500D03*
X366910000Y-257302500D03*
%TD*%
D10*
%TO.C,J6*%
X363175000Y-268955000D03*
D11*
X365675000Y-268955000D03*
X368175000Y-268955000D03*
X370675000Y-268955000D03*
X373175000Y-268955000D03*
X375675000Y-268955000D03*
%TD*%
D13*
%TO.C,R70*%
X254060000Y-262692500D03*
X256060000Y-262692500D03*
%TD*%
D16*
%TO.C,R31*%
X360360000Y-260230000D03*
X360360000Y-254130000D03*
%TD*%
D15*
%TO.C,Q30*%
X210810000Y-259030000D03*
X208910000Y-259030000D03*
X209860000Y-257155000D03*
%TD*%
D13*
%TO.C,R61*%
X276510000Y-262730000D03*
X278510000Y-262730000D03*
%TD*%
D15*
%TO.C,Q25*%
X241960000Y-258867500D03*
X240060000Y-258867500D03*
X241010000Y-256992500D03*
%TD*%
D12*
%TO.C,R5*%
X427710000Y-249930000D03*
X421610000Y-249930000D03*
%TD*%
D15*
%TO.C,Q5*%
X395800000Y-259527500D03*
X393900000Y-259527500D03*
X394850000Y-257652500D03*
%TD*%
D12*
%TO.C,R41*%
X336160000Y-249920000D03*
X330060000Y-249920000D03*
%TD*%
D13*
%TO.C,R91*%
X195910000Y-262630000D03*
X197910000Y-262630000D03*
%TD*%
%TO.C,R35*%
X348650000Y-254000000D03*
X350650000Y-254000000D03*
%TD*%
%TO.C,R27*%
X365940000Y-253930000D03*
X367940000Y-253930000D03*
%TD*%
%TO.C,R89*%
X213710000Y-253730000D03*
X215710000Y-253730000D03*
%TD*%
D16*
%TO.C,R49*%
X314710000Y-260280000D03*
X314710000Y-254180000D03*
%TD*%
D13*
%TO.C,R74*%
X240010000Y-253630000D03*
X242010000Y-253630000D03*
%TD*%
D14*
%TO.C,R3*%
X411850000Y-249910000D03*
X417950000Y-249910000D03*
%TD*%
D13*
%TO.C,R65*%
X263410000Y-253550000D03*
X265410000Y-253550000D03*
%TD*%
%TO.C,R37*%
X329610000Y-262730000D03*
X331610000Y-262730000D03*
%TD*%
D12*
%TO.C,R50*%
X314660000Y-250020000D03*
X308560000Y-250020000D03*
%TD*%
D14*
%TO.C,R21*%
X365890000Y-249860000D03*
X371990000Y-249860000D03*
%TD*%
D16*
%TO.C,R85*%
X224910000Y-260380000D03*
X224910000Y-254280000D03*
%TD*%
D15*
%TO.C,Q17*%
X305460000Y-258867500D03*
X303560000Y-258867500D03*
X304510000Y-256992500D03*
%TD*%
%TO.C,Q26*%
X237160000Y-258867500D03*
X235260000Y-258867500D03*
X236210000Y-256992500D03*
%TD*%
D13*
%TO.C,R38*%
X329610000Y-253530000D03*
X331610000Y-253530000D03*
%TD*%
D14*
%TO.C,R39*%
X320360000Y-249920000D03*
X326460000Y-249920000D03*
%TD*%
D13*
%TO.C,R46*%
X308210000Y-262730000D03*
X310210000Y-262730000D03*
%TD*%
D16*
%TO.C,R40*%
X336110000Y-260280000D03*
X336110000Y-254180000D03*
%TD*%
D14*
%TO.C,R93*%
X186360000Y-250020000D03*
X192460000Y-250020000D03*
%TD*%
D13*
%TO.C,R18*%
X398560000Y-254270000D03*
X400560000Y-254270000D03*
%TD*%
%TO.C,R19*%
X375510000Y-262730000D03*
X377510000Y-262730000D03*
%TD*%
D17*
%TO.C,H8*%
X160423845Y-269686155D03*
X164136155Y-265973845D03*
D18*
X162280000Y-267830000D03*
D17*
X160423845Y-265973845D03*
X162280000Y-265205000D03*
X164136155Y-269686155D03*
X159655000Y-267830000D03*
X164905000Y-267830000D03*
X162280000Y-270455000D03*
%TD*%
%TO.C,H3*%
X335453845Y-269266155D03*
X337310000Y-270035000D03*
D18*
X337310000Y-267410000D03*
D17*
X337310000Y-264785000D03*
X339166155Y-269266155D03*
X339166155Y-265553845D03*
X339935000Y-267410000D03*
X335453845Y-265553845D03*
X334685000Y-267410000D03*
%TD*%
D12*
%TO.C,R95*%
X202260000Y-250020000D03*
X196160000Y-250020000D03*
%TD*%
D17*
%TO.C,H7*%
X199485000Y-267500000D03*
X203966155Y-265643845D03*
X202110000Y-270125000D03*
X200253845Y-265643845D03*
X204735000Y-267500000D03*
X202110000Y-264875000D03*
D18*
X202110000Y-267500000D03*
D17*
X203966155Y-269356155D03*
X200253845Y-269356155D03*
%TD*%
D15*
%TO.C,Q7*%
X377460000Y-259187500D03*
X375560000Y-259187500D03*
X376510000Y-257312500D03*
%TD*%
%TO.C,Q3*%
X414200000Y-259787500D03*
X412300000Y-259787500D03*
X413250000Y-257912500D03*
%TD*%
D12*
%TO.C,R104*%
X179760000Y-250020000D03*
X173660000Y-250020000D03*
%TD*%
D17*
%TO.C,H5*%
X290353845Y-269256155D03*
X294066155Y-269256155D03*
X289585000Y-267400000D03*
X292210000Y-264775000D03*
X294066155Y-265543845D03*
X294835000Y-267400000D03*
X290353845Y-265543845D03*
X292210000Y-270025000D03*
D18*
X292210000Y-267400000D03*
%TD*%
D16*
%TO.C,R94*%
X202510000Y-260480000D03*
X202510000Y-254380000D03*
%TD*%
D12*
%TO.C,R58*%
X292260000Y-250020000D03*
X286160000Y-250020000D03*
%TD*%
D13*
%TO.C,R107*%
X169810000Y-253530000D03*
X171810000Y-253530000D03*
%TD*%
D15*
%TO.C,Q14*%
X326760000Y-258867500D03*
X324860000Y-258867500D03*
X325810000Y-256992500D03*
%TD*%
D14*
%TO.C,R30*%
X343880000Y-249900000D03*
X349980000Y-249900000D03*
%TD*%
D13*
%TO.C,R105*%
X169910000Y-262130000D03*
X171910000Y-262130000D03*
%TD*%
D15*
%TO.C,Q27*%
X232460000Y-258867500D03*
X230560000Y-258867500D03*
X231510000Y-256992500D03*
%TD*%
%TO.C,Q21*%
X278460000Y-258930000D03*
X276560000Y-258930000D03*
X277510000Y-257055000D03*
%TD*%
D17*
%TO.C,H2*%
X384306155Y-269266155D03*
X384306155Y-265553845D03*
X385075000Y-267410000D03*
X379825000Y-267410000D03*
D18*
X382450000Y-267410000D03*
D17*
X380593845Y-265553845D03*
X382450000Y-270035000D03*
X380593845Y-269266155D03*
X382450000Y-264785000D03*
%TD*%
D13*
%TO.C,R43*%
X320210000Y-262730000D03*
X322210000Y-262730000D03*
%TD*%
%TO.C,R96*%
X191060000Y-262630000D03*
X193060000Y-262630000D03*
%TD*%
%TO.C,R55*%
X286010000Y-262730000D03*
X288010000Y-262730000D03*
%TD*%
D17*
%TO.C,H6*%
X249935000Y-267480000D03*
X247310000Y-264855000D03*
X249166155Y-265623845D03*
X245453845Y-269336155D03*
X247310000Y-270105000D03*
X249166155Y-269336155D03*
D18*
X247310000Y-267480000D03*
D17*
X245453845Y-265623845D03*
X244685000Y-267480000D03*
%TD*%
D10*
%TO.C,J4*%
X228215000Y-268945000D03*
D11*
X230715000Y-268945000D03*
X233215000Y-268945000D03*
X235715000Y-268945000D03*
X238215000Y-268945000D03*
X240715000Y-268945000D03*
%TD*%
D15*
%TO.C,Q2*%
X419080000Y-259737500D03*
X417180000Y-259737500D03*
X418130000Y-257862500D03*
%TD*%
D13*
%TO.C,R98*%
X191110000Y-253930000D03*
X193110000Y-253930000D03*
%TD*%
%TO.C,R15*%
X393810000Y-262730000D03*
X395810000Y-262730000D03*
%TD*%
%TO.C,R51*%
X303410000Y-262730000D03*
X305410000Y-262730000D03*
%TD*%
%TO.C,R106*%
X165210000Y-262130000D03*
X167210000Y-262130000D03*
%TD*%
%TO.C,R45*%
X320210000Y-253630000D03*
X322210000Y-253630000D03*
%TD*%
D16*
%TO.C,R13*%
X405250000Y-260110000D03*
X405250000Y-254010000D03*
%TD*%
D13*
%TO.C,R63*%
X276510000Y-253730000D03*
X278510000Y-253730000D03*
%TD*%
D15*
%TO.C,Q22*%
X265360000Y-258867500D03*
X263460000Y-258867500D03*
X264410000Y-256992500D03*
%TD*%
D13*
%TO.C,R20*%
X375520000Y-253990000D03*
X377520000Y-253990000D03*
%TD*%
D10*
%TO.C,J1*%
X409125000Y-269095000D03*
D11*
X411625000Y-269095000D03*
X414125000Y-269095000D03*
X416625000Y-269095000D03*
X419125000Y-269095000D03*
X421625000Y-269095000D03*
%TD*%
D14*
%TO.C,R12*%
X388860000Y-249770000D03*
X394960000Y-249770000D03*
%TD*%
D13*
%TO.C,R78*%
X235210000Y-262730000D03*
X237210000Y-262730000D03*
%TD*%
%TO.C,R72*%
X253860000Y-253592500D03*
X255860000Y-253592500D03*
%TD*%
D15*
%TO.C,Q29*%
X215560000Y-258967500D03*
X213660000Y-258967500D03*
X214610000Y-257092500D03*
%TD*%
D14*
%TO.C,R75*%
X230360000Y-250020000D03*
X236460000Y-250020000D03*
%TD*%
D13*
%TO.C,R11*%
X389220000Y-254290000D03*
X391220000Y-254290000D03*
%TD*%
D14*
%TO.C,R57*%
X276360000Y-250020000D03*
X282460000Y-250020000D03*
%TD*%
D12*
%TO.C,R32*%
X359680000Y-249900000D03*
X353580000Y-249900000D03*
%TD*%
D13*
%TO.C,R80*%
X235210000Y-253630000D03*
X237210000Y-253630000D03*
%TD*%
D15*
%TO.C,Q35*%
X171760000Y-258867500D03*
X169860000Y-258867500D03*
X170810000Y-256992500D03*
%TD*%
D13*
%TO.C,R44*%
X324810000Y-253630000D03*
X326810000Y-253630000D03*
%TD*%
%TO.C,R100*%
X174560000Y-262130000D03*
X176560000Y-262130000D03*
%TD*%
%TO.C,R62*%
X281310000Y-253730000D03*
X283310000Y-253730000D03*
%TD*%
%TO.C,R10*%
X389220000Y-262780000D03*
X391220000Y-262780000D03*
%TD*%
%TO.C,R6*%
X416952900Y-218270650D03*
X418952900Y-218270650D03*
%TD*%
%TO.C,R71*%
X258522900Y-208740650D03*
X260522900Y-208740650D03*
%TD*%
D10*
%TO.C,J3*%
X273027900Y-224165650D03*
D11*
X275527900Y-224165650D03*
X278027900Y-224165650D03*
X280527900Y-224165650D03*
X283027900Y-224165650D03*
X285527900Y-224165650D03*
%TD*%
D13*
%TO.C,R60*%
X281222900Y-217840650D03*
X283222900Y-217840650D03*
%TD*%
%TO.C,R82*%
X218422900Y-217820650D03*
X220422900Y-217820650D03*
%TD*%
%TO.C,R28*%
X353480000Y-262740000D03*
X355480000Y-262740000D03*
%TD*%
%TO.C,R2*%
X421792900Y-209360650D03*
X423792900Y-209360650D03*
%TD*%
%TO.C,R64*%
X263422900Y-217840650D03*
X265422900Y-217840650D03*
%TD*%
D15*
%TO.C,Q31*%
X197672900Y-214378150D03*
X195772900Y-214378150D03*
X196722900Y-212503150D03*
%TD*%
D13*
%TO.C,R42*%
X324822900Y-217840650D03*
X326822900Y-217840650D03*
%TD*%
D15*
%TO.C,Q33*%
X188172900Y-214378150D03*
X186272900Y-214378150D03*
X187222900Y-212503150D03*
%TD*%
D13*
%TO.C,R1*%
X421822900Y-218240650D03*
X423822900Y-218240650D03*
%TD*%
%TO.C,R88*%
X208772900Y-217783150D03*
X210772900Y-217783150D03*
%TD*%
%TO.C,R101*%
X174472900Y-208640650D03*
X176472900Y-208640650D03*
%TD*%
D12*
%TO.C,R23*%
X381562900Y-204930650D03*
X375462900Y-204930650D03*
%TD*%
D13*
%TO.C,R81*%
X230422900Y-208740650D03*
X232422900Y-208740650D03*
%TD*%
D15*
%TO.C,Q19*%
X287872900Y-214078150D03*
X285972900Y-214078150D03*
X286922900Y-212203150D03*
%TD*%
D13*
%TO.C,R92*%
X195772900Y-209040650D03*
X197772900Y-209040650D03*
%TD*%
%TO.C,R47*%
X308222900Y-208740650D03*
X310222900Y-208740650D03*
%TD*%
D15*
%TO.C,Q10*%
X355282900Y-214368150D03*
X353382900Y-214368150D03*
X354332900Y-212493150D03*
%TD*%
D16*
%TO.C,R59*%
X292322900Y-215490650D03*
X292322900Y-209390650D03*
%TD*%
D13*
%TO.C,R52*%
X298622900Y-217840650D03*
X300622900Y-217840650D03*
%TD*%
%TO.C,R36*%
X343732900Y-209100650D03*
X345732900Y-209100650D03*
%TD*%
%TO.C,R108*%
X165022900Y-208640650D03*
X167022900Y-208640650D03*
%TD*%
%TO.C,R73*%
X239922900Y-217840650D03*
X241922900Y-217840650D03*
%TD*%
D15*
%TO.C,Q15*%
X321972900Y-213978150D03*
X320072900Y-213978150D03*
X321022900Y-212103150D03*
%TD*%
D13*
%TO.C,R29*%
X353392900Y-209120650D03*
X355392900Y-209120650D03*
%TD*%
D14*
%TO.C,R48*%
X298872900Y-205130650D03*
X304972900Y-205130650D03*
%TD*%
D15*
%TO.C,Q18*%
X300672900Y-213978150D03*
X298772900Y-213978150D03*
X299722900Y-212103150D03*
%TD*%
D13*
%TO.C,R17*%
X393792900Y-209330650D03*
X395792900Y-209330650D03*
%TD*%
D15*
%TO.C,Q34*%
X176422900Y-213940650D03*
X174522900Y-213940650D03*
X175472900Y-212065650D03*
%TD*%
D16*
%TO.C,R67*%
X269922900Y-215490650D03*
X269922900Y-209390650D03*
%TD*%
%TO.C,R103*%
X180822900Y-215590650D03*
X180822900Y-209490650D03*
%TD*%
D15*
%TO.C,Q4*%
X391052900Y-214708150D03*
X389152900Y-214708150D03*
X390102900Y-212833150D03*
%TD*%
D13*
%TO.C,R8*%
X417092900Y-209360650D03*
X419092900Y-209360650D03*
%TD*%
%TO.C,R53*%
X303422900Y-208740650D03*
X305422900Y-208740650D03*
%TD*%
D15*
%TO.C,Q20*%
X283172900Y-214078150D03*
X281272900Y-214078150D03*
X282222900Y-212203150D03*
%TD*%
D13*
%TO.C,R69*%
X258622900Y-217840650D03*
X260622900Y-217840650D03*
%TD*%
%TO.C,R87*%
X213622900Y-217740650D03*
X215622900Y-217740650D03*
%TD*%
D15*
%TO.C,Q24*%
X255722900Y-214040650D03*
X253822900Y-214040650D03*
X254772900Y-212165650D03*
%TD*%
%TO.C,Q8*%
X372582900Y-214268150D03*
X370682900Y-214268150D03*
X371632900Y-212393150D03*
%TD*%
D17*
%TO.C,H1*%
X430129055Y-224296805D03*
X430129055Y-220584495D03*
X425647900Y-222440650D03*
X428272900Y-219815650D03*
X428272900Y-225065650D03*
X426416745Y-220584495D03*
D18*
X428272900Y-222440650D03*
D17*
X426416745Y-224296805D03*
X430897900Y-222440650D03*
%TD*%
D15*
%TO.C,Q36*%
X166972900Y-213978150D03*
X165072900Y-213978150D03*
X166022900Y-212103150D03*
%TD*%
%TO.C,Q12*%
X345662900Y-214338150D03*
X343762900Y-214338150D03*
X344712900Y-212463150D03*
%TD*%
D13*
%TO.C,R54*%
X298722900Y-208740650D03*
X300722900Y-208740650D03*
%TD*%
%TO.C,R97*%
X186272900Y-217740650D03*
X188272900Y-217740650D03*
%TD*%
D16*
%TO.C,R4*%
X429022900Y-215290650D03*
X429022900Y-209190650D03*
%TD*%
D13*
%TO.C,R33*%
X348522900Y-217840650D03*
X350522900Y-217840650D03*
%TD*%
D10*
%TO.C,J2*%
X318122900Y-224190650D03*
D11*
X320622900Y-224190650D03*
X323122900Y-224190650D03*
X325622900Y-224190650D03*
X328122900Y-224190650D03*
X330622900Y-224190650D03*
%TD*%
D16*
%TO.C,R76*%
X246222900Y-215490650D03*
X246222900Y-209390650D03*
%TD*%
%TO.C,R22*%
X382252900Y-215180650D03*
X382252900Y-209080650D03*
%TD*%
D15*
%TO.C,Q11*%
X350472900Y-214348150D03*
X348572900Y-214348150D03*
X349522900Y-212473150D03*
%TD*%
D13*
%TO.C,R16*%
X398532900Y-217890650D03*
X400532900Y-217890650D03*
%TD*%
%TO.C,R34*%
X343802900Y-217910650D03*
X345802900Y-217910650D03*
%TD*%
D15*
%TO.C,Q23*%
X260522900Y-214040650D03*
X258622900Y-214040650D03*
X259572900Y-212165650D03*
%TD*%
D13*
%TO.C,R24*%
X370672900Y-217920650D03*
X372672900Y-217920650D03*
%TD*%
%TO.C,R28*%
X353392900Y-217850650D03*
X355392900Y-217850650D03*
%TD*%
D15*
%TO.C,Q7*%
X377372900Y-214298150D03*
X375472900Y-214298150D03*
X376422900Y-212423150D03*
%TD*%
%TO.C,Q3*%
X414112900Y-214898150D03*
X412212900Y-214898150D03*
X413162900Y-213023150D03*
%TD*%
D17*
%TO.C,H5*%
X290266745Y-224366805D03*
X293979055Y-224366805D03*
X289497900Y-222510650D03*
X292122900Y-219885650D03*
X293979055Y-220654495D03*
X294747900Y-222510650D03*
X290266745Y-220654495D03*
X292122900Y-225135650D03*
D18*
X292122900Y-222510650D03*
%TD*%
D17*
%TO.C,H7*%
X199397900Y-222610650D03*
X203879055Y-220754495D03*
X202022900Y-225235650D03*
X200166745Y-220754495D03*
X204647900Y-222610650D03*
X202022900Y-219985650D03*
D18*
X202022900Y-222610650D03*
D17*
X203879055Y-224466805D03*
X200166745Y-224466805D03*
%TD*%
D12*
%TO.C,R95*%
X202172900Y-205130650D03*
X196072900Y-205130650D03*
%TD*%
%TO.C,R104*%
X179672900Y-205130650D03*
X173572900Y-205130650D03*
%TD*%
D15*
%TO.C,Q21*%
X278372900Y-214040650D03*
X276472900Y-214040650D03*
X277422900Y-212165650D03*
%TD*%
D13*
%TO.C,R96*%
X190972900Y-217740650D03*
X192972900Y-217740650D03*
%TD*%
D12*
%TO.C,R77*%
X246172900Y-205130650D03*
X240072900Y-205130650D03*
%TD*%
D17*
%TO.C,H2*%
X384219055Y-224376805D03*
X384219055Y-220664495D03*
X384987900Y-222520650D03*
X379737900Y-222520650D03*
D18*
X382362900Y-222520650D03*
D17*
X380506745Y-220664495D03*
X382362900Y-225145650D03*
X380506745Y-224376805D03*
X382362900Y-219895650D03*
%TD*%
D16*
%TO.C,R94*%
X202422900Y-215590650D03*
X202422900Y-209490650D03*
%TD*%
D17*
%TO.C,H6*%
X249847900Y-222590650D03*
X247222900Y-219965650D03*
X249079055Y-220734495D03*
X245366745Y-224446805D03*
X247222900Y-225215650D03*
X249079055Y-224446805D03*
D18*
X247222900Y-222590650D03*
D17*
X245366745Y-220734495D03*
X244597900Y-222590650D03*
%TD*%
D13*
%TO.C,R107*%
X169722900Y-208640650D03*
X171722900Y-208640650D03*
%TD*%
D15*
%TO.C,Q22*%
X265272900Y-213978150D03*
X263372900Y-213978150D03*
X264322900Y-212103150D03*
%TD*%
D12*
%TO.C,R58*%
X292172900Y-205130650D03*
X286072900Y-205130650D03*
%TD*%
%TO.C,R32*%
X359592900Y-205010650D03*
X353492900Y-205010650D03*
%TD*%
D13*
%TO.C,R105*%
X169822900Y-217240650D03*
X171822900Y-217240650D03*
%TD*%
%TO.C,R44*%
X324722900Y-208740650D03*
X326722900Y-208740650D03*
%TD*%
D15*
%TO.C,Q27*%
X232372900Y-213978150D03*
X230472900Y-213978150D03*
X231422900Y-212103150D03*
%TD*%
D13*
%TO.C,R63*%
X276422900Y-208840650D03*
X278422900Y-208840650D03*
%TD*%
D15*
%TO.C,Q2*%
X418992900Y-214848150D03*
X417092900Y-214848150D03*
X418042900Y-212973150D03*
%TD*%
D10*
%TO.C,J1*%
X409037900Y-224205650D03*
D11*
X411537900Y-224205650D03*
X414037900Y-224205650D03*
X416537900Y-224205650D03*
X419037900Y-224205650D03*
X421537900Y-224205650D03*
%TD*%
D13*
%TO.C,R78*%
X235122900Y-217840650D03*
X237122900Y-217840650D03*
%TD*%
%TO.C,R72*%
X253772900Y-208703150D03*
X255772900Y-208703150D03*
%TD*%
%TO.C,R15*%
X393722900Y-217840650D03*
X395722900Y-217840650D03*
%TD*%
D15*
%TO.C,Q35*%
X171672900Y-213978150D03*
X169772900Y-213978150D03*
X170722900Y-212103150D03*
%TD*%
D10*
%TO.C,J4*%
X228127900Y-224055650D03*
D11*
X230627900Y-224055650D03*
X233127900Y-224055650D03*
X235627900Y-224055650D03*
X238127900Y-224055650D03*
X240627900Y-224055650D03*
%TD*%
D14*
%TO.C,R30*%
X343792900Y-205010650D03*
X349892900Y-205010650D03*
%TD*%
D13*
%TO.C,R100*%
X174472900Y-217240650D03*
X176472900Y-217240650D03*
%TD*%
%TO.C,R98*%
X191022900Y-209040650D03*
X193022900Y-209040650D03*
%TD*%
D15*
%TO.C,Q14*%
X326672900Y-213978150D03*
X324772900Y-213978150D03*
X325722900Y-212103150D03*
%TD*%
D13*
%TO.C,R55*%
X285922900Y-217840650D03*
X287922900Y-217840650D03*
%TD*%
%TO.C,R43*%
X320122900Y-217840650D03*
X322122900Y-217840650D03*
%TD*%
%TO.C,R20*%
X375432900Y-209100650D03*
X377432900Y-209100650D03*
%TD*%
%TO.C,R46*%
X308122900Y-217840650D03*
X310122900Y-217840650D03*
%TD*%
D14*
%TO.C,R39*%
X320272900Y-205030650D03*
X326372900Y-205030650D03*
%TD*%
D17*
%TO.C,H8*%
X160336745Y-224796805D03*
X164049055Y-221084495D03*
D18*
X162192900Y-222940650D03*
D17*
X160336745Y-221084495D03*
X162192900Y-220315650D03*
X164049055Y-224796805D03*
X159567900Y-222940650D03*
X164817900Y-222940650D03*
X162192900Y-225565650D03*
%TD*%
D14*
%TO.C,R93*%
X186272900Y-205130650D03*
X192372900Y-205130650D03*
%TD*%
D16*
%TO.C,R40*%
X336022900Y-215390650D03*
X336022900Y-209290650D03*
%TD*%
D17*
%TO.C,H3*%
X335366745Y-224376805D03*
X337222900Y-225145650D03*
D18*
X337222900Y-222520650D03*
D17*
X337222900Y-219895650D03*
X339079055Y-224376805D03*
X339079055Y-220664495D03*
X339847900Y-222520650D03*
X335366745Y-220664495D03*
X334597900Y-222520650D03*
%TD*%
D13*
%TO.C,R38*%
X329522900Y-208640650D03*
X331522900Y-208640650D03*
%TD*%
%TO.C,R19*%
X375422900Y-217840650D03*
X377422900Y-217840650D03*
%TD*%
%TO.C,R18*%
X398472900Y-209380650D03*
X400472900Y-209380650D03*
%TD*%
%TO.C,R10*%
X389132900Y-217890650D03*
X391132900Y-217890650D03*
%TD*%
%TO.C,R45*%
X320122900Y-208740650D03*
X322122900Y-208740650D03*
%TD*%
D16*
%TO.C,R13*%
X405162900Y-215220650D03*
X405162900Y-209120650D03*
%TD*%
D13*
%TO.C,R62*%
X281222900Y-208840650D03*
X283222900Y-208840650D03*
%TD*%
%TO.C,R51*%
X303322900Y-217840650D03*
X305322900Y-217840650D03*
%TD*%
%TO.C,R80*%
X235122900Y-208740650D03*
X237122900Y-208740650D03*
%TD*%
D14*
%TO.C,R75*%
X230272900Y-205130650D03*
X236372900Y-205130650D03*
%TD*%
%TO.C,R12*%
X388772900Y-204880650D03*
X394872900Y-204880650D03*
%TD*%
D13*
%TO.C,R11*%
X389132900Y-209400650D03*
X391132900Y-209400650D03*
%TD*%
D10*
%TO.C,J7*%
X182827900Y-224065650D03*
D11*
X185327900Y-224065650D03*
X187827900Y-224065650D03*
X190327900Y-224065650D03*
X192827900Y-224065650D03*
X195327900Y-224065650D03*
%TD*%
D14*
%TO.C,R102*%
X163772900Y-205130650D03*
X169872900Y-205130650D03*
%TD*%
D13*
%TO.C,R79*%
X230422900Y-217840650D03*
X232422900Y-217840650D03*
%TD*%
D12*
%TO.C,R14*%
X404522900Y-204910650D03*
X398422900Y-204910650D03*
%TD*%
D13*
%TO.C,R56*%
X285922900Y-208840650D03*
X287922900Y-208840650D03*
%TD*%
%TO.C,R83*%
X218322900Y-208840650D03*
X220322900Y-208840650D03*
%TD*%
%TO.C,R9*%
X412212900Y-209390650D03*
X414212900Y-209390650D03*
%TD*%
D15*
%TO.C,Q32*%
X192872900Y-214378150D03*
X190972900Y-214378150D03*
X191922900Y-212503150D03*
%TD*%
D14*
%TO.C,R66*%
X253772900Y-205130650D03*
X259872900Y-205130650D03*
%TD*%
D13*
%TO.C,R25*%
X365752900Y-217890650D03*
X367752900Y-217890650D03*
%TD*%
D15*
%TO.C,Q13*%
X331372900Y-213878150D03*
X329472900Y-213878150D03*
X330422900Y-212003150D03*
%TD*%
D12*
%TO.C,R68*%
X269672900Y-205130650D03*
X263572900Y-205130650D03*
%TD*%
D13*
%TO.C,R7*%
X412042900Y-218313150D03*
X414042900Y-218313150D03*
%TD*%
%TO.C,R90*%
X208872900Y-208903150D03*
X210872900Y-208903150D03*
%TD*%
D15*
%TO.C,Q1*%
X423702900Y-214848150D03*
X421802900Y-214848150D03*
X422752900Y-212973150D03*
%TD*%
D14*
%TO.C,R57*%
X276272900Y-205130650D03*
X282372900Y-205130650D03*
%TD*%
D12*
%TO.C,R86*%
X224672900Y-205130650D03*
X218572900Y-205130650D03*
%TD*%
D13*
%TO.C,R99*%
X186222900Y-209040650D03*
X188222900Y-209040650D03*
%TD*%
%TO.C,R26*%
X370682900Y-209050650D03*
X372682900Y-209050650D03*
%TD*%
D15*
%TO.C,Q6*%
X400462900Y-214698150D03*
X398562900Y-214698150D03*
X399512900Y-212823150D03*
%TD*%
D10*
%TO.C,J6*%
X363087900Y-224065650D03*
D11*
X365587900Y-224065650D03*
X368087900Y-224065650D03*
X370587900Y-224065650D03*
X373087900Y-224065650D03*
X375587900Y-224065650D03*
%TD*%
D15*
%TO.C,Q9*%
X367772900Y-214288150D03*
X365872900Y-214288150D03*
X366822900Y-212413150D03*
%TD*%
%TO.C,Q16*%
X310172900Y-213978150D03*
X308272900Y-213978150D03*
X309222900Y-212103150D03*
%TD*%
D14*
%TO.C,R84*%
X208772900Y-205130650D03*
X214872900Y-205130650D03*
%TD*%
D15*
%TO.C,Q26*%
X237072900Y-213978150D03*
X235172900Y-213978150D03*
X236122900Y-212103150D03*
%TD*%
D12*
%TO.C,R5*%
X427622900Y-205040650D03*
X421522900Y-205040650D03*
%TD*%
D13*
%TO.C,R70*%
X253972900Y-217803150D03*
X255972900Y-217803150D03*
%TD*%
D15*
%TO.C,Q25*%
X241872900Y-213978150D03*
X239972900Y-213978150D03*
X240922900Y-212103150D03*
%TD*%
D16*
%TO.C,R85*%
X224822900Y-215490650D03*
X224822900Y-209390650D03*
%TD*%
D13*
%TO.C,R35*%
X348562900Y-209110650D03*
X350562900Y-209110650D03*
%TD*%
%TO.C,R74*%
X239922900Y-208740650D03*
X241922900Y-208740650D03*
%TD*%
D14*
%TO.C,R3*%
X411762900Y-205020650D03*
X417862900Y-205020650D03*
%TD*%
D16*
%TO.C,R31*%
X360272900Y-215340650D03*
X360272900Y-209240650D03*
%TD*%
D15*
%TO.C,Q30*%
X210722900Y-214140650D03*
X208822900Y-214140650D03*
X209772900Y-212265650D03*
%TD*%
D14*
%TO.C,R21*%
X365802900Y-204970650D03*
X371902900Y-204970650D03*
%TD*%
D12*
%TO.C,R41*%
X336072900Y-205030650D03*
X329972900Y-205030650D03*
%TD*%
D13*
%TO.C,R27*%
X365852900Y-209040650D03*
X367852900Y-209040650D03*
%TD*%
%TO.C,R37*%
X329522900Y-217840650D03*
X331522900Y-217840650D03*
%TD*%
D15*
%TO.C,Q5*%
X395712900Y-214638150D03*
X393812900Y-214638150D03*
X394762900Y-212763150D03*
%TD*%
D13*
%TO.C,R89*%
X213622900Y-208840650D03*
X215622900Y-208840650D03*
%TD*%
%TO.C,R61*%
X276422900Y-217840650D03*
X278422900Y-217840650D03*
%TD*%
%TO.C,R65*%
X263322900Y-208660650D03*
X265322900Y-208660650D03*
%TD*%
D15*
%TO.C,Q28*%
X220272900Y-214078150D03*
X218372900Y-214078150D03*
X219322900Y-212203150D03*
%TD*%
D13*
%TO.C,R91*%
X195822900Y-217740650D03*
X197822900Y-217740650D03*
%TD*%
D16*
%TO.C,R49*%
X314622900Y-215390650D03*
X314622900Y-209290650D03*
%TD*%
D15*
%TO.C,Q17*%
X305372900Y-213978150D03*
X303472900Y-213978150D03*
X304422900Y-212103150D03*
%TD*%
D12*
%TO.C,R50*%
X314572900Y-205130650D03*
X308472900Y-205130650D03*
%TD*%
D15*
%TO.C,Q29*%
X215472900Y-214078150D03*
X213572900Y-214078150D03*
X214522900Y-212203150D03*
%TD*%
D13*
%TO.C,R106*%
X165122900Y-217240650D03*
X167122900Y-217240650D03*
%TD*%
%TO.C,R71*%
X258610000Y-253630000D03*
X260610000Y-253630000D03*
%TD*%
%TO.C,R82*%
X218510000Y-262710000D03*
X220510000Y-262710000D03*
%TD*%
%TO.C,R42*%
X324910000Y-262730000D03*
X326910000Y-262730000D03*
%TD*%
%TO.C,R60*%
X281310000Y-262730000D03*
X283310000Y-262730000D03*
%TD*%
D10*
%TO.C,J3*%
X273115000Y-269055000D03*
D11*
X275615000Y-269055000D03*
X278115000Y-269055000D03*
X280615000Y-269055000D03*
X283115000Y-269055000D03*
X285615000Y-269055000D03*
%TD*%
D13*
%TO.C,R6*%
X417040000Y-263160000D03*
X419040000Y-263160000D03*
%TD*%
%TO.C,R2*%
X421880000Y-254250000D03*
X423880000Y-254250000D03*
%TD*%
D15*
%TO.C,Q31*%
X197760000Y-259267500D03*
X195860000Y-259267500D03*
X196810000Y-257392500D03*
%TD*%
D13*
%TO.C,R81*%
X230510000Y-253630000D03*
X232510000Y-253630000D03*
%TD*%
D15*
%TO.C,Q33*%
X188260000Y-259267500D03*
X186360000Y-259267500D03*
X187310000Y-257392500D03*
%TD*%
D13*
%TO.C,R1*%
X421910000Y-263130000D03*
X423910000Y-263130000D03*
%TD*%
D15*
%TO.C,Q19*%
X287960000Y-258967500D03*
X286060000Y-258967500D03*
X287010000Y-257092500D03*
%TD*%
D16*
%TO.C,R59*%
X292410000Y-260380000D03*
X292410000Y-254280000D03*
%TD*%
D13*
%TO.C,R29*%
X353480000Y-254010000D03*
X355480000Y-254010000D03*
%TD*%
%TO.C,R36*%
X343820000Y-253990000D03*
X345820000Y-253990000D03*
%TD*%
D15*
%TO.C,Q34*%
X176510000Y-258830000D03*
X174610000Y-258830000D03*
X175560000Y-256955000D03*
%TD*%
D13*
%TO.C,R101*%
X174560000Y-253530000D03*
X176560000Y-253530000D03*
%TD*%
%TO.C,R52*%
X298710000Y-262730000D03*
X300710000Y-262730000D03*
%TD*%
%TO.C,R108*%
X165110000Y-253530000D03*
X167110000Y-253530000D03*
%TD*%
%TO.C,R73*%
X240010000Y-262730000D03*
X242010000Y-262730000D03*
%TD*%
%TO.C,R17*%
X393880000Y-254220000D03*
X395880000Y-254220000D03*
%TD*%
D16*
%TO.C,R67*%
X270010000Y-260380000D03*
X270010000Y-254280000D03*
%TD*%
D13*
%TO.C,R64*%
X263510000Y-262730000D03*
X265510000Y-262730000D03*
%TD*%
%TO.C,R88*%
X208860000Y-262672500D03*
X210860000Y-262672500D03*
%TD*%
D12*
%TO.C,R23*%
X381650000Y-249820000D03*
X375550000Y-249820000D03*
%TD*%
D14*
%TO.C,R48*%
X298960000Y-250020000D03*
X305060000Y-250020000D03*
%TD*%
D15*
%TO.C,Q11*%
X350560000Y-259237500D03*
X348660000Y-259237500D03*
X349610000Y-257362500D03*
%TD*%
D16*
%TO.C,R22*%
X382340000Y-260070000D03*
X382340000Y-253970000D03*
%TD*%
D13*
%TO.C,R47*%
X308310000Y-253630000D03*
X310310000Y-253630000D03*
%TD*%
D15*
%TO.C,Q18*%
X300760000Y-258867500D03*
X298860000Y-258867500D03*
X299810000Y-256992500D03*
%TD*%
D17*
%TO.C,H1*%
X430216155Y-269186155D03*
X430216155Y-265473845D03*
X425735000Y-267330000D03*
X428360000Y-264705000D03*
X428360000Y-269955000D03*
X426503845Y-265473845D03*
D18*
X428360000Y-267330000D03*
D17*
X426503845Y-269186155D03*
X430985000Y-267330000D03*
%TD*%
D15*
%TO.C,Q15*%
X322060000Y-258867500D03*
X320160000Y-258867500D03*
X321110000Y-256992500D03*
%TD*%
%TO.C,Q10*%
X355370000Y-259257500D03*
X353470000Y-259257500D03*
X354420000Y-257382500D03*
%TD*%
D13*
%TO.C,R92*%
X195860000Y-253930000D03*
X197860000Y-253930000D03*
%TD*%
%TO.C,R16*%
X398620000Y-262780000D03*
X400620000Y-262780000D03*
%TD*%
%TO.C,R8*%
X417180000Y-254250000D03*
X419180000Y-254250000D03*
%TD*%
D15*
%TO.C,Q12*%
X345750000Y-259227500D03*
X343850000Y-259227500D03*
X344800000Y-257352500D03*
%TD*%
%TO.C,Q20*%
X283260000Y-258967500D03*
X281360000Y-258967500D03*
X282310000Y-257092500D03*
%TD*%
D13*
%TO.C,R54*%
X298810000Y-253630000D03*
X300810000Y-253630000D03*
%TD*%
%TO.C,R87*%
X213710000Y-262630000D03*
X215710000Y-262630000D03*
%TD*%
D15*
%TO.C,Q24*%
X255810000Y-258930000D03*
X253910000Y-258930000D03*
X254860000Y-257055000D03*
%TD*%
D12*
%TO.C,R77*%
X246260000Y-250020000D03*
X240160000Y-250020000D03*
%TD*%
D13*
%TO.C,R53*%
X303510000Y-253630000D03*
X305510000Y-253630000D03*
%TD*%
D15*
%TO.C,Q8*%
X372670000Y-259157500D03*
X370770000Y-259157500D03*
X371720000Y-257282500D03*
%TD*%
D13*
%TO.C,R69*%
X258710000Y-262730000D03*
X260710000Y-262730000D03*
%TD*%
%TO.C,R33*%
X348610000Y-262730000D03*
X350610000Y-262730000D03*
%TD*%
D16*
%TO.C,R76*%
X246310000Y-260380000D03*
X246310000Y-254280000D03*
%TD*%
D15*
%TO.C,Q36*%
X167060000Y-258867500D03*
X165160000Y-258867500D03*
X166110000Y-256992500D03*
%TD*%
D16*
%TO.C,R103*%
X180910000Y-260480000D03*
X180910000Y-254380000D03*
%TD*%
%TO.C,R4*%
X429110000Y-260180000D03*
X429110000Y-254080000D03*
%TD*%
D10*
%TO.C,J2*%
X318210000Y-269080000D03*
D11*
X320710000Y-269080000D03*
X323210000Y-269080000D03*
X325710000Y-269080000D03*
X328210000Y-269080000D03*
X330710000Y-269080000D03*
%TD*%
D15*
%TO.C,Q4*%
X391140000Y-259597500D03*
X389240000Y-259597500D03*
X390190000Y-257722500D03*
%TD*%
%TO.C,Q23*%
X260610000Y-258930000D03*
X258710000Y-258930000D03*
X259660000Y-257055000D03*
%TD*%
D13*
%TO.C,R24*%
X370760000Y-262810000D03*
X372760000Y-262810000D03*
%TD*%
%TO.C,R34*%
X343890000Y-262800000D03*
X345890000Y-262800000D03*
%TD*%
%TO.C,R97*%
X186360000Y-262630000D03*
X188360000Y-262630000D03*
%TD*%
%TO.C,R71*%
X258820000Y-163557450D03*
X260820000Y-163557450D03*
%TD*%
%TO.C,R82*%
X218720000Y-172637450D03*
X220720000Y-172637450D03*
%TD*%
%TO.C,R60*%
X281520000Y-172657450D03*
X283520000Y-172657450D03*
%TD*%
D10*
%TO.C,J3*%
X273325000Y-178982450D03*
D11*
X275825000Y-178982450D03*
X278325000Y-178982450D03*
X280825000Y-178982450D03*
X283325000Y-178982450D03*
X285825000Y-178982450D03*
%TD*%
D13*
%TO.C,R6*%
X417250000Y-173087450D03*
X419250000Y-173087450D03*
%TD*%
%TO.C,R2*%
X422090000Y-164177450D03*
X424090000Y-164177450D03*
%TD*%
D15*
%TO.C,Q31*%
X197970000Y-169194950D03*
X196070000Y-169194950D03*
X197020000Y-167319950D03*
%TD*%
D13*
%TO.C,R42*%
X325120000Y-172657450D03*
X327120000Y-172657450D03*
%TD*%
%TO.C,R81*%
X230720000Y-163557450D03*
X232720000Y-163557450D03*
%TD*%
D15*
%TO.C,Q33*%
X188470000Y-169194950D03*
X186570000Y-169194950D03*
X187520000Y-167319950D03*
%TD*%
D13*
%TO.C,R1*%
X422120000Y-173057450D03*
X424120000Y-173057450D03*
%TD*%
D15*
%TO.C,Q15*%
X322270000Y-168794950D03*
X320370000Y-168794950D03*
X321320000Y-166919950D03*
%TD*%
%TO.C,Q19*%
X288170000Y-168894950D03*
X286270000Y-168894950D03*
X287220000Y-167019950D03*
%TD*%
%TO.C,Q10*%
X355580000Y-169184950D03*
X353680000Y-169184950D03*
X354630000Y-167309950D03*
%TD*%
D16*
%TO.C,R59*%
X292620000Y-170307450D03*
X292620000Y-164207450D03*
%TD*%
D13*
%TO.C,R92*%
X196070000Y-163857450D03*
X198070000Y-163857450D03*
%TD*%
%TO.C,R29*%
X353690000Y-163937450D03*
X355690000Y-163937450D03*
%TD*%
%TO.C,R36*%
X344030000Y-163917450D03*
X346030000Y-163917450D03*
%TD*%
%TO.C,R101*%
X174770000Y-163457450D03*
X176770000Y-163457450D03*
%TD*%
%TO.C,R108*%
X165320000Y-163457450D03*
X167320000Y-163457450D03*
%TD*%
%TO.C,R73*%
X240220000Y-172657450D03*
X242220000Y-172657450D03*
%TD*%
%TO.C,R52*%
X298920000Y-172657450D03*
X300920000Y-172657450D03*
%TD*%
%TO.C,R64*%
X263720000Y-172657450D03*
X265720000Y-172657450D03*
%TD*%
%TO.C,R88*%
X209070000Y-172599950D03*
X211070000Y-172599950D03*
%TD*%
%TO.C,R47*%
X308520000Y-163557450D03*
X310520000Y-163557450D03*
%TD*%
D12*
%TO.C,R23*%
X381860000Y-159747450D03*
X375760000Y-159747450D03*
%TD*%
D14*
%TO.C,R48*%
X299170000Y-159947450D03*
X305270000Y-159947450D03*
%TD*%
D15*
%TO.C,Q18*%
X300970000Y-168794950D03*
X299070000Y-168794950D03*
X300020000Y-166919950D03*
%TD*%
D13*
%TO.C,R17*%
X394090000Y-164147450D03*
X396090000Y-164147450D03*
%TD*%
D15*
%TO.C,Q34*%
X176720000Y-168757450D03*
X174820000Y-168757450D03*
X175770000Y-166882450D03*
%TD*%
%TO.C,Q11*%
X350770000Y-169164950D03*
X348870000Y-169164950D03*
X349820000Y-167289950D03*
%TD*%
D16*
%TO.C,R67*%
X270220000Y-170307450D03*
X270220000Y-164207450D03*
%TD*%
D17*
%TO.C,H1*%
X430426155Y-179113605D03*
X430426155Y-175401295D03*
X425945000Y-177257450D03*
X428570000Y-174632450D03*
X428570000Y-179882450D03*
X426713845Y-175401295D03*
D18*
X428570000Y-177257450D03*
D17*
X426713845Y-179113605D03*
X431195000Y-177257450D03*
%TD*%
D16*
%TO.C,R22*%
X382550000Y-169997450D03*
X382550000Y-163897450D03*
%TD*%
D15*
%TO.C,Q4*%
X391350000Y-169524950D03*
X389450000Y-169524950D03*
X390400000Y-167649950D03*
%TD*%
D10*
%TO.C,J2*%
X318420000Y-179007450D03*
D11*
X320920000Y-179007450D03*
X323420000Y-179007450D03*
X325920000Y-179007450D03*
X328420000Y-179007450D03*
X330920000Y-179007450D03*
%TD*%
D13*
%TO.C,R16*%
X398830000Y-172707450D03*
X400830000Y-172707450D03*
%TD*%
%TO.C,R53*%
X303720000Y-163557450D03*
X305720000Y-163557450D03*
%TD*%
D15*
%TO.C,Q8*%
X372880000Y-169084950D03*
X370980000Y-169084950D03*
X371930000Y-167209950D03*
%TD*%
D13*
%TO.C,R8*%
X417390000Y-164177450D03*
X419390000Y-164177450D03*
%TD*%
D15*
%TO.C,Q36*%
X167270000Y-168794950D03*
X165370000Y-168794950D03*
X166320000Y-166919950D03*
%TD*%
%TO.C,Q20*%
X283470000Y-168894950D03*
X281570000Y-168894950D03*
X282520000Y-167019950D03*
%TD*%
D13*
%TO.C,R54*%
X299020000Y-163557450D03*
X301020000Y-163557450D03*
%TD*%
%TO.C,R87*%
X213920000Y-172557450D03*
X215920000Y-172557450D03*
%TD*%
D15*
%TO.C,Q12*%
X345960000Y-169154950D03*
X344060000Y-169154950D03*
X345010000Y-167279950D03*
%TD*%
D13*
%TO.C,R97*%
X186570000Y-172557450D03*
X188570000Y-172557450D03*
%TD*%
%TO.C,R69*%
X258920000Y-172657450D03*
X260920000Y-172657450D03*
%TD*%
D16*
%TO.C,R4*%
X429320000Y-170107450D03*
X429320000Y-164007450D03*
%TD*%
D15*
%TO.C,Q24*%
X256020000Y-168857450D03*
X254120000Y-168857450D03*
X255070000Y-166982450D03*
%TD*%
D16*
%TO.C,R76*%
X246520000Y-170307450D03*
X246520000Y-164207450D03*
%TD*%
D13*
%TO.C,R33*%
X348820000Y-172657450D03*
X350820000Y-172657450D03*
%TD*%
D16*
%TO.C,R103*%
X181120000Y-170407450D03*
X181120000Y-164307450D03*
%TD*%
D15*
%TO.C,Q23*%
X260820000Y-168857450D03*
X258920000Y-168857450D03*
X259870000Y-166982450D03*
%TD*%
D13*
%TO.C,R34*%
X344100000Y-172727450D03*
X346100000Y-172727450D03*
%TD*%
%TO.C,R24*%
X370970000Y-172737450D03*
X372970000Y-172737450D03*
%TD*%
D12*
%TO.C,R77*%
X246470000Y-159947450D03*
X240370000Y-159947450D03*
%TD*%
D13*
%TO.C,R28*%
X353690000Y-172667450D03*
X355690000Y-172667450D03*
%TD*%
D12*
%TO.C,R95*%
X202470000Y-159947450D03*
X196370000Y-159947450D03*
%TD*%
D17*
%TO.C,H7*%
X199695000Y-177427450D03*
X204176155Y-175571295D03*
X202320000Y-180052450D03*
X200463845Y-175571295D03*
X204945000Y-177427450D03*
X202320000Y-174802450D03*
D18*
X202320000Y-177427450D03*
D17*
X204176155Y-179283605D03*
X200463845Y-179283605D03*
%TD*%
D15*
%TO.C,Q7*%
X377670000Y-169114950D03*
X375770000Y-169114950D03*
X376720000Y-167239950D03*
%TD*%
%TO.C,Q3*%
X414410000Y-169714950D03*
X412510000Y-169714950D03*
X413460000Y-167839950D03*
%TD*%
D12*
%TO.C,R104*%
X179970000Y-159947450D03*
X173870000Y-159947450D03*
%TD*%
D17*
%TO.C,H5*%
X290563845Y-179183605D03*
X294276155Y-179183605D03*
X289795000Y-177327450D03*
X292420000Y-174702450D03*
X294276155Y-175471295D03*
X295045000Y-177327450D03*
X290563845Y-175471295D03*
X292420000Y-179952450D03*
D18*
X292420000Y-177327450D03*
%TD*%
D13*
%TO.C,R96*%
X191270000Y-172557450D03*
X193270000Y-172557450D03*
%TD*%
D16*
%TO.C,R94*%
X202720000Y-170407450D03*
X202720000Y-164307450D03*
%TD*%
D15*
%TO.C,Q21*%
X278670000Y-168857450D03*
X276770000Y-168857450D03*
X277720000Y-166982450D03*
%TD*%
D17*
%TO.C,H2*%
X384516155Y-179193605D03*
X384516155Y-175481295D03*
X385285000Y-177337450D03*
X380035000Y-177337450D03*
D18*
X382660000Y-177337450D03*
D17*
X380803845Y-175481295D03*
X382660000Y-179962450D03*
X380803845Y-179193605D03*
X382660000Y-174712450D03*
%TD*%
%TO.C,H6*%
X250145000Y-177407450D03*
X247520000Y-174782450D03*
X249376155Y-175551295D03*
X245663845Y-179263605D03*
X247520000Y-180032450D03*
X249376155Y-179263605D03*
D18*
X247520000Y-177407450D03*
D17*
X245663845Y-175551295D03*
X244895000Y-177407450D03*
%TD*%
D13*
%TO.C,R55*%
X286220000Y-172657450D03*
X288220000Y-172657450D03*
%TD*%
D12*
%TO.C,R58*%
X292470000Y-159947450D03*
X286370000Y-159947450D03*
%TD*%
D14*
%TO.C,R30*%
X344090000Y-159827450D03*
X350190000Y-159827450D03*
%TD*%
D13*
%TO.C,R105*%
X170120000Y-172057450D03*
X172120000Y-172057450D03*
%TD*%
D15*
%TO.C,Q27*%
X232670000Y-168794950D03*
X230770000Y-168794950D03*
X231720000Y-166919950D03*
%TD*%
D10*
%TO.C,J4*%
X228425000Y-178872450D03*
D11*
X230925000Y-178872450D03*
X233425000Y-178872450D03*
X235925000Y-178872450D03*
X238425000Y-178872450D03*
X240925000Y-178872450D03*
%TD*%
D13*
%TO.C,R107*%
X170020000Y-163457450D03*
X172020000Y-163457450D03*
%TD*%
D15*
%TO.C,Q14*%
X326970000Y-168794950D03*
X325070000Y-168794950D03*
X326020000Y-166919950D03*
%TD*%
D13*
%TO.C,R43*%
X320420000Y-172657450D03*
X322420000Y-172657450D03*
%TD*%
%TO.C,R63*%
X276720000Y-163657450D03*
X278720000Y-163657450D03*
%TD*%
%TO.C,R44*%
X325020000Y-163557450D03*
X327020000Y-163557450D03*
%TD*%
D15*
%TO.C,Q22*%
X265570000Y-168794950D03*
X263670000Y-168794950D03*
X264620000Y-166919950D03*
%TD*%
%TO.C,Q2*%
X419290000Y-169664950D03*
X417390000Y-169664950D03*
X418340000Y-167789950D03*
%TD*%
D13*
%TO.C,R20*%
X375730000Y-163917450D03*
X377730000Y-163917450D03*
%TD*%
%TO.C,R100*%
X174770000Y-172057450D03*
X176770000Y-172057450D03*
%TD*%
D10*
%TO.C,J1*%
X409335000Y-179022450D03*
D11*
X411835000Y-179022450D03*
X414335000Y-179022450D03*
X416835000Y-179022450D03*
X419335000Y-179022450D03*
X421835000Y-179022450D03*
%TD*%
D13*
%TO.C,R78*%
X235420000Y-172657450D03*
X237420000Y-172657450D03*
%TD*%
%TO.C,R98*%
X191320000Y-163857450D03*
X193320000Y-163857450D03*
%TD*%
D12*
%TO.C,R32*%
X359890000Y-159827450D03*
X353790000Y-159827450D03*
%TD*%
D13*
%TO.C,R72*%
X254070000Y-163519950D03*
X256070000Y-163519950D03*
%TD*%
D15*
%TO.C,Q35*%
X171970000Y-168794950D03*
X170070000Y-168794950D03*
X171020000Y-166919950D03*
%TD*%
D13*
%TO.C,R15*%
X394020000Y-172657450D03*
X396020000Y-172657450D03*
%TD*%
D15*
%TO.C,Q29*%
X215770000Y-168894950D03*
X213870000Y-168894950D03*
X214820000Y-167019950D03*
%TD*%
D13*
%TO.C,R106*%
X165420000Y-172057450D03*
X167420000Y-172057450D03*
%TD*%
D16*
%TO.C,R13*%
X405460000Y-170037450D03*
X405460000Y-163937450D03*
%TD*%
D13*
%TO.C,R62*%
X281520000Y-163657450D03*
X283520000Y-163657450D03*
%TD*%
%TO.C,R51*%
X303620000Y-172657450D03*
X305620000Y-172657450D03*
%TD*%
D14*
%TO.C,R75*%
X230570000Y-159947450D03*
X236670000Y-159947450D03*
%TD*%
D13*
%TO.C,R80*%
X235420000Y-163557450D03*
X237420000Y-163557450D03*
%TD*%
D14*
%TO.C,R12*%
X389070000Y-159697450D03*
X395170000Y-159697450D03*
%TD*%
D13*
%TO.C,R10*%
X389430000Y-172707450D03*
X391430000Y-172707450D03*
%TD*%
%TO.C,R45*%
X320420000Y-163557450D03*
X322420000Y-163557450D03*
%TD*%
%TO.C,R11*%
X389430000Y-164217450D03*
X391430000Y-164217450D03*
%TD*%
D14*
%TO.C,R57*%
X276570000Y-159947450D03*
X282670000Y-159947450D03*
%TD*%
D10*
%TO.C,J7*%
X183125000Y-178882450D03*
D11*
X185625000Y-178882450D03*
X188125000Y-178882450D03*
X190625000Y-178882450D03*
X193125000Y-178882450D03*
X195625000Y-178882450D03*
%TD*%
D12*
%TO.C,R86*%
X224970000Y-159947450D03*
X218870000Y-159947450D03*
%TD*%
D14*
%TO.C,R102*%
X164070000Y-159947450D03*
X170170000Y-159947450D03*
%TD*%
D15*
%TO.C,Q13*%
X331670000Y-168694950D03*
X329770000Y-168694950D03*
X330720000Y-166819950D03*
%TD*%
D13*
%TO.C,R99*%
X186520000Y-163857450D03*
X188520000Y-163857450D03*
%TD*%
%TO.C,R79*%
X230720000Y-172657450D03*
X232720000Y-172657450D03*
%TD*%
D12*
%TO.C,R14*%
X404820000Y-159727450D03*
X398720000Y-159727450D03*
%TD*%
D13*
%TO.C,R90*%
X209170000Y-163719950D03*
X211170000Y-163719950D03*
%TD*%
%TO.C,R26*%
X370980000Y-163867450D03*
X372980000Y-163867450D03*
%TD*%
%TO.C,R56*%
X286220000Y-163657450D03*
X288220000Y-163657450D03*
%TD*%
D12*
%TO.C,R68*%
X269970000Y-159947450D03*
X263870000Y-159947450D03*
%TD*%
D15*
%TO.C,Q1*%
X424000000Y-169664950D03*
X422100000Y-169664950D03*
X423050000Y-167789950D03*
%TD*%
D10*
%TO.C,J6*%
X363385000Y-178882450D03*
D11*
X365885000Y-178882450D03*
X368385000Y-178882450D03*
X370885000Y-178882450D03*
X373385000Y-178882450D03*
X375885000Y-178882450D03*
%TD*%
D13*
%TO.C,R9*%
X412510000Y-164207450D03*
X414510000Y-164207450D03*
%TD*%
D15*
%TO.C,Q6*%
X400760000Y-169514950D03*
X398860000Y-169514950D03*
X399810000Y-167639950D03*
%TD*%
D13*
%TO.C,R7*%
X412340000Y-173129950D03*
X414340000Y-173129950D03*
%TD*%
%TO.C,R83*%
X218620000Y-163657450D03*
X220620000Y-163657450D03*
%TD*%
D15*
%TO.C,Q32*%
X193170000Y-169194950D03*
X191270000Y-169194950D03*
X192220000Y-167319950D03*
%TD*%
D14*
%TO.C,R66*%
X254070000Y-159947450D03*
X260170000Y-159947450D03*
%TD*%
D13*
%TO.C,R25*%
X366050000Y-172707450D03*
X368050000Y-172707450D03*
%TD*%
D15*
%TO.C,Q28*%
X220570000Y-168894950D03*
X218670000Y-168894950D03*
X219620000Y-167019950D03*
%TD*%
%TO.C,Q16*%
X310470000Y-168794950D03*
X308570000Y-168794950D03*
X309520000Y-166919950D03*
%TD*%
D14*
%TO.C,R84*%
X209070000Y-159947450D03*
X215170000Y-159947450D03*
%TD*%
D15*
%TO.C,Q9*%
X368070000Y-169104950D03*
X366170000Y-169104950D03*
X367120000Y-167229950D03*
%TD*%
%TO.C,Q26*%
X237370000Y-168794950D03*
X235470000Y-168794950D03*
X236420000Y-166919950D03*
%TD*%
D12*
%TO.C,R5*%
X427920000Y-159857450D03*
X421820000Y-159857450D03*
%TD*%
D13*
%TO.C,R61*%
X276720000Y-172657450D03*
X278720000Y-172657450D03*
%TD*%
%TO.C,R70*%
X254270000Y-172619950D03*
X256270000Y-172619950D03*
%TD*%
D15*
%TO.C,Q25*%
X242170000Y-168794950D03*
X240270000Y-168794950D03*
X241220000Y-166919950D03*
%TD*%
%TO.C,Q30*%
X211020000Y-168957450D03*
X209120000Y-168957450D03*
X210070000Y-167082450D03*
%TD*%
D13*
%TO.C,R91*%
X196120000Y-172557450D03*
X198120000Y-172557450D03*
%TD*%
%TO.C,R89*%
X213920000Y-163657450D03*
X215920000Y-163657450D03*
%TD*%
%TO.C,R35*%
X348860000Y-163927450D03*
X350860000Y-163927450D03*
%TD*%
D16*
%TO.C,R49*%
X314920000Y-170207450D03*
X314920000Y-164107450D03*
%TD*%
D13*
%TO.C,R74*%
X240220000Y-163557450D03*
X242220000Y-163557450D03*
%TD*%
D15*
%TO.C,Q17*%
X305670000Y-168794950D03*
X303770000Y-168794950D03*
X304720000Y-166919950D03*
%TD*%
D14*
%TO.C,R3*%
X412060000Y-159837450D03*
X418160000Y-159837450D03*
%TD*%
D13*
%TO.C,R65*%
X263620000Y-163477450D03*
X265620000Y-163477450D03*
%TD*%
%TO.C,R27*%
X366150000Y-163857450D03*
X368150000Y-163857450D03*
%TD*%
D14*
%TO.C,R21*%
X366100000Y-159787450D03*
X372200000Y-159787450D03*
%TD*%
D13*
%TO.C,R37*%
X329820000Y-172657450D03*
X331820000Y-172657450D03*
%TD*%
D12*
%TO.C,R50*%
X314870000Y-159947450D03*
X308770000Y-159947450D03*
%TD*%
D16*
%TO.C,R85*%
X225120000Y-170307450D03*
X225120000Y-164207450D03*
%TD*%
%TO.C,R31*%
X360570000Y-170157450D03*
X360570000Y-164057450D03*
%TD*%
D15*
%TO.C,Q5*%
X396010000Y-169454950D03*
X394110000Y-169454950D03*
X395060000Y-167579950D03*
%TD*%
D12*
%TO.C,R41*%
X336370000Y-159847450D03*
X330270000Y-159847450D03*
%TD*%
D13*
%TO.C,R46*%
X308420000Y-172657450D03*
X310420000Y-172657450D03*
%TD*%
D14*
%TO.C,R93*%
X186570000Y-159947450D03*
X192670000Y-159947450D03*
%TD*%
D13*
%TO.C,R38*%
X329820000Y-163457450D03*
X331820000Y-163457450D03*
%TD*%
D14*
%TO.C,R39*%
X320570000Y-159847450D03*
X326670000Y-159847450D03*
%TD*%
D13*
%TO.C,R19*%
X375720000Y-172657450D03*
X377720000Y-172657450D03*
%TD*%
%TO.C,R18*%
X398770000Y-164197450D03*
X400770000Y-164197450D03*
%TD*%
D16*
%TO.C,R40*%
X336320000Y-170207450D03*
X336320000Y-164107450D03*
%TD*%
D17*
%TO.C,H8*%
X160633845Y-179613605D03*
X164346155Y-175901295D03*
D18*
X162490000Y-177757450D03*
D17*
X160633845Y-175901295D03*
X162490000Y-175132450D03*
X164346155Y-179613605D03*
X159865000Y-177757450D03*
X165115000Y-177757450D03*
X162490000Y-180382450D03*
%TD*%
%TO.C,H3*%
X335663845Y-179193605D03*
X337520000Y-179962450D03*
D18*
X337520000Y-177337450D03*
D17*
X337520000Y-174712450D03*
X339376155Y-179193605D03*
X339376155Y-175481295D03*
X340145000Y-177337450D03*
X335663845Y-175481295D03*
X334895000Y-177337450D03*
%TD*%
D13*
%TO.C,R71*%
X260732900Y-118668100D03*
X258732900Y-118668100D03*
%TD*%
%TO.C,R82*%
X220632900Y-127748100D03*
X218632900Y-127748100D03*
%TD*%
%TO.C,R60*%
X283432900Y-127768100D03*
X281432900Y-127768100D03*
%TD*%
D11*
%TO.C,J3*%
X285737900Y-134093100D03*
X283237900Y-134093100D03*
X280737900Y-134093100D03*
X278237900Y-134093100D03*
X275737900Y-134093100D03*
D10*
X273237900Y-134093100D03*
%TD*%
D13*
%TO.C,R6*%
X419162900Y-128198100D03*
X417162900Y-128198100D03*
%TD*%
%TO.C,R2*%
X424002900Y-119288100D03*
X422002900Y-119288100D03*
%TD*%
D15*
%TO.C,Q31*%
X196932900Y-122430600D03*
X195982900Y-124305600D03*
X197882900Y-124305600D03*
%TD*%
D13*
%TO.C,R42*%
X327032900Y-127768100D03*
X325032900Y-127768100D03*
%TD*%
%TO.C,R81*%
X232632900Y-118668100D03*
X230632900Y-118668100D03*
%TD*%
D15*
%TO.C,Q33*%
X187432900Y-122430600D03*
X186482900Y-124305600D03*
X188382900Y-124305600D03*
%TD*%
D13*
%TO.C,R1*%
X424032900Y-128168100D03*
X422032900Y-128168100D03*
%TD*%
D15*
%TO.C,Q15*%
X321232900Y-122030600D03*
X320282900Y-123905600D03*
X322182900Y-123905600D03*
%TD*%
%TO.C,Q19*%
X287132900Y-122130600D03*
X286182900Y-124005600D03*
X288082900Y-124005600D03*
%TD*%
%TO.C,Q10*%
X354542900Y-122420600D03*
X353592900Y-124295600D03*
X355492900Y-124295600D03*
%TD*%
D16*
%TO.C,R59*%
X292532900Y-119318100D03*
X292532900Y-125418100D03*
%TD*%
D13*
%TO.C,R92*%
X197982900Y-118968100D03*
X195982900Y-118968100D03*
%TD*%
%TO.C,R29*%
X355602900Y-119048100D03*
X353602900Y-119048100D03*
%TD*%
%TO.C,R36*%
X345942900Y-119028100D03*
X343942900Y-119028100D03*
%TD*%
%TO.C,R101*%
X176682900Y-118568100D03*
X174682900Y-118568100D03*
%TD*%
%TO.C,R108*%
X167232900Y-118568100D03*
X165232900Y-118568100D03*
%TD*%
%TO.C,R73*%
X242132900Y-127768100D03*
X240132900Y-127768100D03*
%TD*%
%TO.C,R52*%
X300832900Y-127768100D03*
X298832900Y-127768100D03*
%TD*%
%TO.C,R64*%
X265632900Y-127768100D03*
X263632900Y-127768100D03*
%TD*%
%TO.C,R88*%
X210982900Y-127710600D03*
X208982900Y-127710600D03*
%TD*%
%TO.C,R47*%
X310432900Y-118668100D03*
X308432900Y-118668100D03*
%TD*%
D12*
%TO.C,R23*%
X375672900Y-114858100D03*
X381772900Y-114858100D03*
%TD*%
D14*
%TO.C,R48*%
X305182900Y-115058100D03*
X299082900Y-115058100D03*
%TD*%
D15*
%TO.C,Q18*%
X299932900Y-122030600D03*
X298982900Y-123905600D03*
X300882900Y-123905600D03*
%TD*%
D13*
%TO.C,R17*%
X396002900Y-119258100D03*
X394002900Y-119258100D03*
%TD*%
D15*
%TO.C,Q34*%
X175682900Y-121993100D03*
X174732900Y-123868100D03*
X176632900Y-123868100D03*
%TD*%
%TO.C,Q11*%
X349732900Y-122400600D03*
X348782900Y-124275600D03*
X350682900Y-124275600D03*
%TD*%
D16*
%TO.C,R67*%
X270132900Y-119318100D03*
X270132900Y-125418100D03*
%TD*%
D17*
%TO.C,H1*%
X431107900Y-132368100D03*
X426626745Y-134224255D03*
D18*
X428482900Y-132368100D03*
D17*
X426626745Y-130511945D03*
X428482900Y-134993100D03*
X428482900Y-129743100D03*
X425857900Y-132368100D03*
X430339055Y-130511945D03*
X430339055Y-134224255D03*
%TD*%
D16*
%TO.C,R22*%
X382462900Y-119008100D03*
X382462900Y-125108100D03*
%TD*%
D15*
%TO.C,Q4*%
X390312900Y-122760600D03*
X389362900Y-124635600D03*
X391262900Y-124635600D03*
%TD*%
D11*
%TO.C,J2*%
X330832900Y-134118100D03*
X328332900Y-134118100D03*
X325832900Y-134118100D03*
X323332900Y-134118100D03*
X320832900Y-134118100D03*
D10*
X318332900Y-134118100D03*
%TD*%
D13*
%TO.C,R16*%
X400742900Y-127818100D03*
X398742900Y-127818100D03*
%TD*%
%TO.C,R53*%
X305632900Y-118668100D03*
X303632900Y-118668100D03*
%TD*%
D15*
%TO.C,Q8*%
X371842900Y-122320600D03*
X370892900Y-124195600D03*
X372792900Y-124195600D03*
%TD*%
D13*
%TO.C,R8*%
X419302900Y-119288100D03*
X417302900Y-119288100D03*
%TD*%
D15*
%TO.C,Q36*%
X166232900Y-122030600D03*
X165282900Y-123905600D03*
X167182900Y-123905600D03*
%TD*%
%TO.C,Q20*%
X282432900Y-122130600D03*
X281482900Y-124005600D03*
X283382900Y-124005600D03*
%TD*%
D13*
%TO.C,R54*%
X300932900Y-118668100D03*
X298932900Y-118668100D03*
%TD*%
%TO.C,R87*%
X215832900Y-127668100D03*
X213832900Y-127668100D03*
%TD*%
D15*
%TO.C,Q12*%
X344922900Y-122390600D03*
X343972900Y-124265600D03*
X345872900Y-124265600D03*
%TD*%
D13*
%TO.C,R97*%
X188482900Y-127668100D03*
X186482900Y-127668100D03*
%TD*%
%TO.C,R69*%
X260832900Y-127768100D03*
X258832900Y-127768100D03*
%TD*%
D16*
%TO.C,R4*%
X429232900Y-119118100D03*
X429232900Y-125218100D03*
%TD*%
D15*
%TO.C,Q24*%
X254982900Y-122093100D03*
X254032900Y-123968100D03*
X255932900Y-123968100D03*
%TD*%
D16*
%TO.C,R76*%
X246432900Y-119318100D03*
X246432900Y-125418100D03*
%TD*%
D13*
%TO.C,R33*%
X350732900Y-127768100D03*
X348732900Y-127768100D03*
%TD*%
D16*
%TO.C,R103*%
X181032900Y-119418100D03*
X181032900Y-125518100D03*
%TD*%
D15*
%TO.C,Q23*%
X259782900Y-122093100D03*
X258832900Y-123968100D03*
X260732900Y-123968100D03*
%TD*%
D13*
%TO.C,R34*%
X346012900Y-127838100D03*
X344012900Y-127838100D03*
%TD*%
%TO.C,R24*%
X372882900Y-127848100D03*
X370882900Y-127848100D03*
%TD*%
D12*
%TO.C,R77*%
X240282900Y-115058100D03*
X246382900Y-115058100D03*
%TD*%
D13*
%TO.C,R28*%
X355602900Y-127778100D03*
X353602900Y-127778100D03*
%TD*%
D12*
%TO.C,R95*%
X196282900Y-115058100D03*
X202382900Y-115058100D03*
%TD*%
D17*
%TO.C,H7*%
X200376745Y-134394255D03*
X204089055Y-134394255D03*
D18*
X202232900Y-132538100D03*
D17*
X202232900Y-129913100D03*
X204857900Y-132538100D03*
X200376745Y-130681945D03*
X202232900Y-135163100D03*
X204089055Y-130681945D03*
X199607900Y-132538100D03*
%TD*%
D15*
%TO.C,Q7*%
X376632900Y-122350600D03*
X375682900Y-124225600D03*
X377582900Y-124225600D03*
%TD*%
%TO.C,Q3*%
X413372900Y-122950600D03*
X412422900Y-124825600D03*
X414322900Y-124825600D03*
%TD*%
D12*
%TO.C,R104*%
X173782900Y-115058100D03*
X179882900Y-115058100D03*
%TD*%
D18*
%TO.C,H5*%
X292332900Y-132438100D03*
D17*
X292332900Y-135063100D03*
X290476745Y-130581945D03*
X294957900Y-132438100D03*
X294189055Y-130581945D03*
X292332900Y-129813100D03*
X289707900Y-132438100D03*
X294189055Y-134294255D03*
X290476745Y-134294255D03*
%TD*%
D13*
%TO.C,R96*%
X193182900Y-127668100D03*
X191182900Y-127668100D03*
%TD*%
D16*
%TO.C,R94*%
X202632900Y-119418100D03*
X202632900Y-125518100D03*
%TD*%
D15*
%TO.C,Q21*%
X277632900Y-122093100D03*
X276682900Y-123968100D03*
X278582900Y-123968100D03*
%TD*%
D17*
%TO.C,H2*%
X382572900Y-129823100D03*
X380716745Y-134304255D03*
X382572900Y-135073100D03*
X380716745Y-130591945D03*
D18*
X382572900Y-132448100D03*
D17*
X379947900Y-132448100D03*
X385197900Y-132448100D03*
X384429055Y-130591945D03*
X384429055Y-134304255D03*
%TD*%
%TO.C,H6*%
X244807900Y-132518100D03*
X245576745Y-130661945D03*
D18*
X247432900Y-132518100D03*
D17*
X249289055Y-134374255D03*
X247432900Y-135143100D03*
X245576745Y-134374255D03*
X249289055Y-130661945D03*
X247432900Y-129893100D03*
X250057900Y-132518100D03*
%TD*%
D13*
%TO.C,R55*%
X288132900Y-127768100D03*
X286132900Y-127768100D03*
%TD*%
D12*
%TO.C,R58*%
X286282900Y-115058100D03*
X292382900Y-115058100D03*
%TD*%
D14*
%TO.C,R30*%
X350102900Y-114938100D03*
X344002900Y-114938100D03*
%TD*%
D13*
%TO.C,R105*%
X172032900Y-127168100D03*
X170032900Y-127168100D03*
%TD*%
D15*
%TO.C,Q27*%
X231632900Y-122030600D03*
X230682900Y-123905600D03*
X232582900Y-123905600D03*
%TD*%
D11*
%TO.C,J4*%
X240837900Y-133983100D03*
X238337900Y-133983100D03*
X235837900Y-133983100D03*
X233337900Y-133983100D03*
X230837900Y-133983100D03*
D10*
X228337900Y-133983100D03*
%TD*%
D13*
%TO.C,R107*%
X171932900Y-118568100D03*
X169932900Y-118568100D03*
%TD*%
D15*
%TO.C,Q14*%
X325932900Y-122030600D03*
X324982900Y-123905600D03*
X326882900Y-123905600D03*
%TD*%
D13*
%TO.C,R43*%
X322332900Y-127768100D03*
X320332900Y-127768100D03*
%TD*%
%TO.C,R63*%
X278632900Y-118768100D03*
X276632900Y-118768100D03*
%TD*%
%TO.C,R44*%
X326932900Y-118668100D03*
X324932900Y-118668100D03*
%TD*%
D15*
%TO.C,Q22*%
X264532900Y-122030600D03*
X263582900Y-123905600D03*
X265482900Y-123905600D03*
%TD*%
%TO.C,Q2*%
X418252900Y-122900600D03*
X417302900Y-124775600D03*
X419202900Y-124775600D03*
%TD*%
D13*
%TO.C,R20*%
X377642900Y-119028100D03*
X375642900Y-119028100D03*
%TD*%
%TO.C,R100*%
X176682900Y-127168100D03*
X174682900Y-127168100D03*
%TD*%
D11*
%TO.C,J1*%
X421747900Y-134133100D03*
X419247900Y-134133100D03*
X416747900Y-134133100D03*
X414247900Y-134133100D03*
X411747900Y-134133100D03*
D10*
X409247900Y-134133100D03*
%TD*%
D13*
%TO.C,R78*%
X237332900Y-127768100D03*
X235332900Y-127768100D03*
%TD*%
%TO.C,R98*%
X193232900Y-118968100D03*
X191232900Y-118968100D03*
%TD*%
D12*
%TO.C,R32*%
X353702900Y-114938100D03*
X359802900Y-114938100D03*
%TD*%
D13*
%TO.C,R72*%
X255982900Y-118630600D03*
X253982900Y-118630600D03*
%TD*%
D15*
%TO.C,Q35*%
X170932900Y-122030600D03*
X169982900Y-123905600D03*
X171882900Y-123905600D03*
%TD*%
D13*
%TO.C,R15*%
X395932900Y-127768100D03*
X393932900Y-127768100D03*
%TD*%
D15*
%TO.C,Q29*%
X214732900Y-122130600D03*
X213782900Y-124005600D03*
X215682900Y-124005600D03*
%TD*%
D13*
%TO.C,R106*%
X167332900Y-127168100D03*
X165332900Y-127168100D03*
%TD*%
D16*
%TO.C,R13*%
X405372900Y-119048100D03*
X405372900Y-125148100D03*
%TD*%
D13*
%TO.C,R62*%
X283432900Y-118768100D03*
X281432900Y-118768100D03*
%TD*%
%TO.C,R51*%
X305532900Y-127768100D03*
X303532900Y-127768100D03*
%TD*%
D14*
%TO.C,R75*%
X236582900Y-115058100D03*
X230482900Y-115058100D03*
%TD*%
D13*
%TO.C,R80*%
X237332900Y-118668100D03*
X235332900Y-118668100D03*
%TD*%
D14*
%TO.C,R12*%
X395082900Y-114808100D03*
X388982900Y-114808100D03*
%TD*%
D13*
%TO.C,R10*%
X391342900Y-127818100D03*
X389342900Y-127818100D03*
%TD*%
%TO.C,R45*%
X322332900Y-118668100D03*
X320332900Y-118668100D03*
%TD*%
%TO.C,R11*%
X391342900Y-119328100D03*
X389342900Y-119328100D03*
%TD*%
D14*
%TO.C,R57*%
X282582900Y-115058100D03*
X276482900Y-115058100D03*
%TD*%
D11*
%TO.C,J7*%
X195537900Y-133993100D03*
X193037900Y-133993100D03*
X190537900Y-133993100D03*
X188037900Y-133993100D03*
X185537900Y-133993100D03*
D10*
X183037900Y-133993100D03*
%TD*%
D12*
%TO.C,R86*%
X218782900Y-115058100D03*
X224882900Y-115058100D03*
%TD*%
D14*
%TO.C,R102*%
X170082900Y-115058100D03*
X163982900Y-115058100D03*
%TD*%
D15*
%TO.C,Q13*%
X330632900Y-121930600D03*
X329682900Y-123805600D03*
X331582900Y-123805600D03*
%TD*%
D13*
%TO.C,R99*%
X188432900Y-118968100D03*
X186432900Y-118968100D03*
%TD*%
%TO.C,R79*%
X232632900Y-127768100D03*
X230632900Y-127768100D03*
%TD*%
D12*
%TO.C,R14*%
X398632900Y-114838100D03*
X404732900Y-114838100D03*
%TD*%
D13*
%TO.C,R90*%
X211082900Y-118830600D03*
X209082900Y-118830600D03*
%TD*%
%TO.C,R26*%
X372892900Y-118978100D03*
X370892900Y-118978100D03*
%TD*%
%TO.C,R56*%
X288132900Y-118768100D03*
X286132900Y-118768100D03*
%TD*%
D12*
%TO.C,R68*%
X263782900Y-115058100D03*
X269882900Y-115058100D03*
%TD*%
D15*
%TO.C,Q1*%
X422962900Y-122900600D03*
X422012900Y-124775600D03*
X423912900Y-124775600D03*
%TD*%
D11*
%TO.C,J6*%
X375797900Y-133993100D03*
X373297900Y-133993100D03*
X370797900Y-133993100D03*
X368297900Y-133993100D03*
X365797900Y-133993100D03*
D10*
X363297900Y-133993100D03*
%TD*%
D13*
%TO.C,R9*%
X414422900Y-119318100D03*
X412422900Y-119318100D03*
%TD*%
D15*
%TO.C,Q6*%
X399722900Y-122750600D03*
X398772900Y-124625600D03*
X400672900Y-124625600D03*
%TD*%
D13*
%TO.C,R7*%
X414252900Y-128240600D03*
X412252900Y-128240600D03*
%TD*%
%TO.C,R83*%
X220532900Y-118768100D03*
X218532900Y-118768100D03*
%TD*%
D15*
%TO.C,Q32*%
X192132900Y-122430600D03*
X191182900Y-124305600D03*
X193082900Y-124305600D03*
%TD*%
D14*
%TO.C,R66*%
X260082900Y-115058100D03*
X253982900Y-115058100D03*
%TD*%
D13*
%TO.C,R25*%
X367962900Y-127818100D03*
X365962900Y-127818100D03*
%TD*%
D15*
%TO.C,Q28*%
X219532900Y-122130600D03*
X218582900Y-124005600D03*
X220482900Y-124005600D03*
%TD*%
%TO.C,Q16*%
X309432900Y-122030600D03*
X308482900Y-123905600D03*
X310382900Y-123905600D03*
%TD*%
D14*
%TO.C,R84*%
X215082900Y-115058100D03*
X208982900Y-115058100D03*
%TD*%
D15*
%TO.C,Q9*%
X367032900Y-122340600D03*
X366082900Y-124215600D03*
X367982900Y-124215600D03*
%TD*%
%TO.C,Q26*%
X236332900Y-122030600D03*
X235382900Y-123905600D03*
X237282900Y-123905600D03*
%TD*%
D12*
%TO.C,R5*%
X421732900Y-114968100D03*
X427832900Y-114968100D03*
%TD*%
D13*
%TO.C,R61*%
X278632900Y-127768100D03*
X276632900Y-127768100D03*
%TD*%
%TO.C,R70*%
X256182900Y-127730600D03*
X254182900Y-127730600D03*
%TD*%
D15*
%TO.C,Q25*%
X241132900Y-122030600D03*
X240182900Y-123905600D03*
X242082900Y-123905600D03*
%TD*%
%TO.C,Q30*%
X209982900Y-122193100D03*
X209032900Y-124068100D03*
X210932900Y-124068100D03*
%TD*%
D13*
%TO.C,R91*%
X198032900Y-127668100D03*
X196032900Y-127668100D03*
%TD*%
%TO.C,R89*%
X215832900Y-118768100D03*
X213832900Y-118768100D03*
%TD*%
%TO.C,R35*%
X350772900Y-119038100D03*
X348772900Y-119038100D03*
%TD*%
D16*
%TO.C,R49*%
X314832900Y-119218100D03*
X314832900Y-125318100D03*
%TD*%
D13*
%TO.C,R74*%
X242132900Y-118668100D03*
X240132900Y-118668100D03*
%TD*%
D15*
%TO.C,Q17*%
X304632900Y-122030600D03*
X303682900Y-123905600D03*
X305582900Y-123905600D03*
%TD*%
D14*
%TO.C,R3*%
X418072900Y-114948100D03*
X411972900Y-114948100D03*
%TD*%
D13*
%TO.C,R65*%
X265532900Y-118588100D03*
X263532900Y-118588100D03*
%TD*%
%TO.C,R27*%
X368062900Y-118968100D03*
X366062900Y-118968100D03*
%TD*%
D14*
%TO.C,R21*%
X372112900Y-114898100D03*
X366012900Y-114898100D03*
%TD*%
D13*
%TO.C,R37*%
X331732900Y-127768100D03*
X329732900Y-127768100D03*
%TD*%
D12*
%TO.C,R50*%
X308682900Y-115058100D03*
X314782900Y-115058100D03*
%TD*%
D16*
%TO.C,R85*%
X225032900Y-119318100D03*
X225032900Y-125418100D03*
%TD*%
%TO.C,R31*%
X360482900Y-119168100D03*
X360482900Y-125268100D03*
%TD*%
D15*
%TO.C,Q5*%
X394972900Y-122690600D03*
X394022900Y-124565600D03*
X395922900Y-124565600D03*
%TD*%
D12*
%TO.C,R41*%
X330182900Y-114958100D03*
X336282900Y-114958100D03*
%TD*%
D13*
%TO.C,R46*%
X310332900Y-127768100D03*
X308332900Y-127768100D03*
%TD*%
D14*
%TO.C,R93*%
X192582900Y-115058100D03*
X186482900Y-115058100D03*
%TD*%
D13*
%TO.C,R38*%
X331732900Y-118568100D03*
X329732900Y-118568100D03*
%TD*%
D14*
%TO.C,R39*%
X326582900Y-114958100D03*
X320482900Y-114958100D03*
%TD*%
D13*
%TO.C,R19*%
X377632900Y-127768100D03*
X375632900Y-127768100D03*
%TD*%
%TO.C,R18*%
X400682900Y-119308100D03*
X398682900Y-119308100D03*
%TD*%
D16*
%TO.C,R40*%
X336232900Y-119218100D03*
X336232900Y-125318100D03*
%TD*%
D17*
%TO.C,H8*%
X162402900Y-135493100D03*
X165027900Y-132868100D03*
X159777900Y-132868100D03*
X164259055Y-134724255D03*
X162402900Y-130243100D03*
X160546745Y-131011945D03*
D18*
X162402900Y-132868100D03*
D17*
X164259055Y-131011945D03*
X160546745Y-134724255D03*
%TD*%
%TO.C,H3*%
X334807900Y-132448100D03*
X335576745Y-130591945D03*
X340057900Y-132448100D03*
X339289055Y-130591945D03*
X339289055Y-134304255D03*
X337432900Y-129823100D03*
D18*
X337432900Y-132448100D03*
D17*
X337432900Y-135073100D03*
X335576745Y-134304255D03*
%TD*%
D15*
%TO.C,Q31*%
X196961050Y-77326900D03*
X196011050Y-79201900D03*
X197911050Y-79201900D03*
%TD*%
D13*
%TO.C,R42*%
X327061050Y-82664400D03*
X325061050Y-82664400D03*
%TD*%
%TO.C,R60*%
X283461050Y-82664400D03*
X281461050Y-82664400D03*
%TD*%
%TO.C,R81*%
X232661050Y-73564400D03*
X230661050Y-73564400D03*
%TD*%
%TO.C,R2*%
X424031050Y-74184400D03*
X422031050Y-74184400D03*
%TD*%
%TO.C,R71*%
X260761050Y-73564400D03*
X258761050Y-73564400D03*
%TD*%
D11*
%TO.C,J3*%
X285766050Y-88989400D03*
X283266050Y-88989400D03*
X280766050Y-88989400D03*
X278266050Y-88989400D03*
X275766050Y-88989400D03*
D10*
X273266050Y-88989400D03*
%TD*%
D13*
%TO.C,R6*%
X419191050Y-83094400D03*
X417191050Y-83094400D03*
%TD*%
%TO.C,R82*%
X220661050Y-82644400D03*
X218661050Y-82644400D03*
%TD*%
D12*
%TO.C,R68*%
X263811050Y-69954400D03*
X269911050Y-69954400D03*
%TD*%
D13*
%TO.C,R9*%
X414451050Y-74214400D03*
X412451050Y-74214400D03*
%TD*%
D15*
%TO.C,Q9*%
X367061050Y-77236900D03*
X366111050Y-79111900D03*
X368011050Y-79111900D03*
%TD*%
D12*
%TO.C,R5*%
X421761050Y-69864400D03*
X427861050Y-69864400D03*
%TD*%
D13*
%TO.C,R70*%
X256211050Y-82626900D03*
X254211050Y-82626900D03*
%TD*%
D15*
%TO.C,Q6*%
X399751050Y-77646900D03*
X398801050Y-79521900D03*
X400701050Y-79521900D03*
%TD*%
%TO.C,Q25*%
X241161050Y-76926900D03*
X240211050Y-78801900D03*
X242111050Y-78801900D03*
%TD*%
D14*
%TO.C,R66*%
X260111050Y-69954400D03*
X254011050Y-69954400D03*
%TD*%
%TO.C,R84*%
X215111050Y-69954400D03*
X209011050Y-69954400D03*
%TD*%
D13*
%TO.C,R61*%
X278661050Y-82664400D03*
X276661050Y-82664400D03*
%TD*%
%TO.C,R83*%
X220561050Y-73664400D03*
X218561050Y-73664400D03*
%TD*%
%TO.C,R7*%
X414281050Y-83136900D03*
X412281050Y-83136900D03*
%TD*%
D11*
%TO.C,J6*%
X375826050Y-88889400D03*
X373326050Y-88889400D03*
X370826050Y-88889400D03*
X368326050Y-88889400D03*
X365826050Y-88889400D03*
D10*
X363326050Y-88889400D03*
%TD*%
D15*
%TO.C,Q26*%
X236361050Y-76926900D03*
X235411050Y-78801900D03*
X237311050Y-78801900D03*
%TD*%
%TO.C,Q16*%
X309461050Y-76926900D03*
X308511050Y-78801900D03*
X310411050Y-78801900D03*
%TD*%
D13*
%TO.C,R25*%
X367991050Y-82714400D03*
X365991050Y-82714400D03*
%TD*%
D15*
%TO.C,Q28*%
X219561050Y-77026900D03*
X218611050Y-78901900D03*
X220511050Y-78901900D03*
%TD*%
%TO.C,Q1*%
X422991050Y-77796900D03*
X422041050Y-79671900D03*
X423941050Y-79671900D03*
%TD*%
%TO.C,Q32*%
X192161050Y-77326900D03*
X191211050Y-79201900D03*
X193111050Y-79201900D03*
%TD*%
D13*
%TO.C,R19*%
X377661050Y-82664400D03*
X375661050Y-82664400D03*
%TD*%
D15*
%TO.C,Q30*%
X210011050Y-77089400D03*
X209061050Y-78964400D03*
X210961050Y-78964400D03*
%TD*%
D13*
%TO.C,R91*%
X198061050Y-82564400D03*
X196061050Y-82564400D03*
%TD*%
%TO.C,R18*%
X400711050Y-74204400D03*
X398711050Y-74204400D03*
%TD*%
%TO.C,R35*%
X350801050Y-73934400D03*
X348801050Y-73934400D03*
%TD*%
%TO.C,R74*%
X242161050Y-73564400D03*
X240161050Y-73564400D03*
%TD*%
D16*
%TO.C,R40*%
X336261050Y-74114400D03*
X336261050Y-80214400D03*
%TD*%
D13*
%TO.C,R38*%
X331761050Y-73464400D03*
X329761050Y-73464400D03*
%TD*%
%TO.C,R37*%
X331761050Y-82664400D03*
X329761050Y-82664400D03*
%TD*%
D16*
%TO.C,R85*%
X225061050Y-74214400D03*
X225061050Y-80314400D03*
%TD*%
D12*
%TO.C,R50*%
X308711050Y-69954400D03*
X314811050Y-69954400D03*
%TD*%
D14*
%TO.C,R39*%
X326611050Y-69854400D03*
X320511050Y-69854400D03*
%TD*%
D15*
%TO.C,Q5*%
X395001050Y-77586900D03*
X394051050Y-79461900D03*
X395951050Y-79461900D03*
%TD*%
D14*
%TO.C,R93*%
X192611050Y-69954400D03*
X186511050Y-69954400D03*
%TD*%
D16*
%TO.C,R49*%
X314861050Y-74114400D03*
X314861050Y-80214400D03*
%TD*%
D13*
%TO.C,R46*%
X310361050Y-82664400D03*
X308361050Y-82664400D03*
%TD*%
%TO.C,R27*%
X368091050Y-73864400D03*
X366091050Y-73864400D03*
%TD*%
D15*
%TO.C,Q17*%
X304661050Y-76926900D03*
X303711050Y-78801900D03*
X305611050Y-78801900D03*
%TD*%
D16*
%TO.C,R31*%
X360511050Y-74064400D03*
X360511050Y-80164400D03*
%TD*%
D14*
%TO.C,R21*%
X372141050Y-69794400D03*
X366041050Y-69794400D03*
%TD*%
D12*
%TO.C,R41*%
X330211050Y-69854400D03*
X336311050Y-69854400D03*
%TD*%
D14*
%TO.C,R3*%
X418101050Y-69844400D03*
X412001050Y-69844400D03*
%TD*%
D13*
%TO.C,R65*%
X265561050Y-73484400D03*
X263561050Y-73484400D03*
%TD*%
%TO.C,R89*%
X215861050Y-73664400D03*
X213861050Y-73664400D03*
%TD*%
D16*
%TO.C,R59*%
X292561050Y-74214400D03*
X292561050Y-80314400D03*
%TD*%
D13*
%TO.C,R92*%
X198011050Y-73864400D03*
X196011050Y-73864400D03*
%TD*%
D15*
%TO.C,Q10*%
X354571050Y-77316900D03*
X353621050Y-79191900D03*
X355521050Y-79191900D03*
%TD*%
D13*
%TO.C,R52*%
X300861050Y-82664400D03*
X298861050Y-82664400D03*
%TD*%
%TO.C,R29*%
X355631050Y-73944400D03*
X353631050Y-73944400D03*
%TD*%
%TO.C,R36*%
X345971050Y-73924400D03*
X343971050Y-73924400D03*
%TD*%
%TO.C,R108*%
X167261050Y-73464400D03*
X165261050Y-73464400D03*
%TD*%
D15*
%TO.C,Q19*%
X287161050Y-77026900D03*
X286211050Y-78901900D03*
X288111050Y-78901900D03*
%TD*%
D13*
%TO.C,R64*%
X265661050Y-82664400D03*
X263661050Y-82664400D03*
%TD*%
%TO.C,R101*%
X176711050Y-73464400D03*
X174711050Y-73464400D03*
%TD*%
D15*
%TO.C,Q33*%
X187461050Y-77326900D03*
X186511050Y-79201900D03*
X188411050Y-79201900D03*
%TD*%
D13*
%TO.C,R88*%
X211011050Y-82606900D03*
X209011050Y-82606900D03*
%TD*%
%TO.C,R73*%
X242161050Y-82664400D03*
X240161050Y-82664400D03*
%TD*%
D15*
%TO.C,Q15*%
X321261050Y-76926900D03*
X320311050Y-78801900D03*
X322211050Y-78801900D03*
%TD*%
D13*
%TO.C,R1*%
X424061050Y-83064400D03*
X422061050Y-83064400D03*
%TD*%
D15*
%TO.C,Q12*%
X344951050Y-77286900D03*
X344001050Y-79161900D03*
X345901050Y-79161900D03*
%TD*%
D13*
%TO.C,R47*%
X310461050Y-73564400D03*
X308461050Y-73564400D03*
%TD*%
D12*
%TO.C,R23*%
X375701050Y-69754400D03*
X381801050Y-69754400D03*
%TD*%
D15*
%TO.C,Q18*%
X299961050Y-76926900D03*
X299011050Y-78801900D03*
X300911050Y-78801900D03*
%TD*%
D14*
%TO.C,R48*%
X305211050Y-69954400D03*
X299111050Y-69954400D03*
%TD*%
D13*
%TO.C,R17*%
X396031050Y-74154400D03*
X394031050Y-74154400D03*
%TD*%
D15*
%TO.C,Q34*%
X175711050Y-76889400D03*
X174761050Y-78764400D03*
X176661050Y-78764400D03*
%TD*%
D16*
%TO.C,R103*%
X181061050Y-74314400D03*
X181061050Y-80414400D03*
%TD*%
D15*
%TO.C,Q11*%
X349761050Y-77296900D03*
X348811050Y-79171900D03*
X350711050Y-79171900D03*
%TD*%
D17*
%TO.C,H1*%
X431136050Y-87264400D03*
X426654895Y-89120555D03*
D18*
X428511050Y-87264400D03*
D17*
X426654895Y-85408245D03*
X428511050Y-89889400D03*
X428511050Y-84639400D03*
X425886050Y-87264400D03*
X430367205Y-85408245D03*
X430367205Y-89120555D03*
%TD*%
D13*
%TO.C,R97*%
X188511050Y-82564400D03*
X186511050Y-82564400D03*
%TD*%
%TO.C,R69*%
X260861050Y-82664400D03*
X258861050Y-82664400D03*
%TD*%
D16*
%TO.C,R4*%
X429261050Y-74014400D03*
X429261050Y-80114400D03*
%TD*%
%TO.C,R76*%
X246461050Y-74214400D03*
X246461050Y-80314400D03*
%TD*%
D11*
%TO.C,J2*%
X330861050Y-89014400D03*
X328361050Y-89014400D03*
X325861050Y-89014400D03*
X323361050Y-89014400D03*
X320861050Y-89014400D03*
D10*
X318361050Y-89014400D03*
%TD*%
D15*
%TO.C,Q24*%
X255011050Y-76989400D03*
X254061050Y-78864400D03*
X255961050Y-78864400D03*
%TD*%
D13*
%TO.C,R16*%
X400771050Y-82714400D03*
X398771050Y-82714400D03*
%TD*%
%TO.C,R87*%
X215861050Y-82564400D03*
X213861050Y-82564400D03*
%TD*%
D15*
%TO.C,Q8*%
X371871050Y-77216900D03*
X370921050Y-79091900D03*
X372821050Y-79091900D03*
%TD*%
D16*
%TO.C,R22*%
X382491050Y-73904400D03*
X382491050Y-80004400D03*
%TD*%
D15*
%TO.C,Q36*%
X166261050Y-76926900D03*
X165311050Y-78801900D03*
X167211050Y-78801900D03*
%TD*%
D13*
%TO.C,R54*%
X300961050Y-73564400D03*
X298961050Y-73564400D03*
%TD*%
%TO.C,R53*%
X305661050Y-73564400D03*
X303661050Y-73564400D03*
%TD*%
D15*
%TO.C,Q4*%
X390341050Y-77656900D03*
X389391050Y-79531900D03*
X391291050Y-79531900D03*
%TD*%
D13*
%TO.C,R8*%
X419331050Y-74184400D03*
X417331050Y-74184400D03*
%TD*%
D16*
%TO.C,R67*%
X270161050Y-74214400D03*
X270161050Y-80314400D03*
%TD*%
D13*
%TO.C,R33*%
X350761050Y-82664400D03*
X348761050Y-82664400D03*
%TD*%
D15*
%TO.C,Q20*%
X282461050Y-77026900D03*
X281511050Y-78901900D03*
X283411050Y-78901900D03*
%TD*%
%TO.C,Q14*%
X325961050Y-76926900D03*
X325011050Y-78801900D03*
X326911050Y-78801900D03*
%TD*%
D13*
%TO.C,R43*%
X322361050Y-82664400D03*
X320361050Y-82664400D03*
%TD*%
%TO.C,R100*%
X176711050Y-82064400D03*
X174711050Y-82064400D03*
%TD*%
D11*
%TO.C,J1*%
X421776050Y-89029400D03*
X419276050Y-89029400D03*
X416776050Y-89029400D03*
X414276050Y-89029400D03*
X411776050Y-89029400D03*
D10*
X409276050Y-89029400D03*
%TD*%
D13*
%TO.C,R63*%
X278661050Y-73664400D03*
X276661050Y-73664400D03*
%TD*%
%TO.C,R20*%
X377671050Y-73924400D03*
X375671050Y-73924400D03*
%TD*%
D15*
%TO.C,Q22*%
X264561050Y-76926900D03*
X263611050Y-78801900D03*
X265511050Y-78801900D03*
%TD*%
D13*
%TO.C,R44*%
X326961050Y-73564400D03*
X324961050Y-73564400D03*
%TD*%
D15*
%TO.C,Q27*%
X231661050Y-76926900D03*
X230711050Y-78801900D03*
X232611050Y-78801900D03*
%TD*%
D13*
%TO.C,R78*%
X237361050Y-82664400D03*
X235361050Y-82664400D03*
%TD*%
%TO.C,R98*%
X193261050Y-73864400D03*
X191261050Y-73864400D03*
%TD*%
D15*
%TO.C,Q2*%
X418281050Y-77796900D03*
X417331050Y-79671900D03*
X419231050Y-79671900D03*
%TD*%
D13*
%TO.C,R55*%
X288161050Y-82664400D03*
X286161050Y-82664400D03*
%TD*%
D11*
%TO.C,J4*%
X240866050Y-88879400D03*
X238366050Y-88879400D03*
X235866050Y-88879400D03*
X233366050Y-88879400D03*
X230866050Y-88879400D03*
D10*
X228366050Y-88879400D03*
%TD*%
D13*
%TO.C,R107*%
X171961050Y-73464400D03*
X169961050Y-73464400D03*
%TD*%
D14*
%TO.C,R30*%
X350131050Y-69834400D03*
X344031050Y-69834400D03*
%TD*%
D12*
%TO.C,R32*%
X353731050Y-69834400D03*
X359831050Y-69834400D03*
%TD*%
D13*
%TO.C,R105*%
X172061050Y-82064400D03*
X170061050Y-82064400D03*
%TD*%
D12*
%TO.C,R58*%
X286311050Y-69954400D03*
X292411050Y-69954400D03*
%TD*%
D13*
%TO.C,R79*%
X232661050Y-82664400D03*
X230661050Y-82664400D03*
%TD*%
%TO.C,R72*%
X256011050Y-73526900D03*
X254011050Y-73526900D03*
%TD*%
D12*
%TO.C,R14*%
X398661050Y-69734400D03*
X404761050Y-69734400D03*
%TD*%
D15*
%TO.C,Q13*%
X330661050Y-76826900D03*
X329711050Y-78701900D03*
X331611050Y-78701900D03*
%TD*%
%TO.C,Q35*%
X170961050Y-76926900D03*
X170011050Y-78801900D03*
X171911050Y-78801900D03*
%TD*%
D13*
%TO.C,R90*%
X211111050Y-73726900D03*
X209111050Y-73726900D03*
%TD*%
%TO.C,R15*%
X395961050Y-82664400D03*
X393961050Y-82664400D03*
%TD*%
%TO.C,R26*%
X372921050Y-73874400D03*
X370921050Y-73874400D03*
%TD*%
D15*
%TO.C,Q29*%
X214761050Y-77026900D03*
X213811050Y-78901900D03*
X215711050Y-78901900D03*
%TD*%
D13*
%TO.C,R99*%
X188461050Y-73864400D03*
X186461050Y-73864400D03*
%TD*%
D14*
%TO.C,R75*%
X236611050Y-69954400D03*
X230511050Y-69954400D03*
%TD*%
D13*
%TO.C,R62*%
X283461050Y-73664400D03*
X281461050Y-73664400D03*
%TD*%
%TO.C,R56*%
X288161050Y-73664400D03*
X286161050Y-73664400D03*
%TD*%
%TO.C,R10*%
X391371050Y-82714400D03*
X389371050Y-82714400D03*
%TD*%
D14*
%TO.C,R57*%
X282611050Y-69954400D03*
X276511050Y-69954400D03*
%TD*%
D13*
%TO.C,R51*%
X305561050Y-82664400D03*
X303561050Y-82664400D03*
%TD*%
D11*
%TO.C,J7*%
X195566050Y-88889400D03*
X193066050Y-88889400D03*
X190566050Y-88889400D03*
X188066050Y-88889400D03*
X185566050Y-88889400D03*
D10*
X183066050Y-88889400D03*
%TD*%
D13*
%TO.C,R45*%
X322361050Y-73564400D03*
X320361050Y-73564400D03*
%TD*%
%TO.C,R80*%
X237361050Y-73564400D03*
X235361050Y-73564400D03*
%TD*%
D12*
%TO.C,R86*%
X218811050Y-69954400D03*
X224911050Y-69954400D03*
%TD*%
D14*
%TO.C,R12*%
X395111050Y-69704400D03*
X389011050Y-69704400D03*
%TD*%
%TO.C,R102*%
X170111050Y-69954400D03*
X164011050Y-69954400D03*
%TD*%
D13*
%TO.C,R106*%
X167361050Y-82064400D03*
X165361050Y-82064400D03*
%TD*%
D16*
%TO.C,R13*%
X405401050Y-73944400D03*
X405401050Y-80044400D03*
%TD*%
D13*
%TO.C,R11*%
X391371050Y-74224400D03*
X389371050Y-74224400D03*
%TD*%
D15*
%TO.C,Q23*%
X259811050Y-76989400D03*
X258861050Y-78864400D03*
X260761050Y-78864400D03*
%TD*%
D13*
%TO.C,R34*%
X346041050Y-82734400D03*
X344041050Y-82734400D03*
%TD*%
D15*
%TO.C,Q7*%
X376661050Y-77246900D03*
X375711050Y-79121900D03*
X377611050Y-79121900D03*
%TD*%
D13*
%TO.C,R24*%
X372911050Y-82744400D03*
X370911050Y-82744400D03*
%TD*%
%TO.C,R96*%
X193211050Y-82564400D03*
X191211050Y-82564400D03*
%TD*%
D12*
%TO.C,R77*%
X240311050Y-69954400D03*
X246411050Y-69954400D03*
%TD*%
D15*
%TO.C,Q3*%
X413401050Y-77846900D03*
X412451050Y-79721900D03*
X414351050Y-79721900D03*
%TD*%
D16*
%TO.C,R94*%
X202661050Y-74314400D03*
X202661050Y-80414400D03*
%TD*%
D12*
%TO.C,R95*%
X196311050Y-69954400D03*
X202411050Y-69954400D03*
%TD*%
D17*
%TO.C,H7*%
X200404895Y-89290555D03*
X204117205Y-89290555D03*
D18*
X202261050Y-87434400D03*
D17*
X202261050Y-84809400D03*
X204886050Y-87434400D03*
X200404895Y-85578245D03*
X202261050Y-90059400D03*
X204117205Y-85578245D03*
X199636050Y-87434400D03*
%TD*%
D13*
%TO.C,R28*%
X355631050Y-82674400D03*
X353631050Y-82674400D03*
%TD*%
D12*
%TO.C,R104*%
X173811050Y-69954400D03*
X179911050Y-69954400D03*
%TD*%
D15*
%TO.C,Q21*%
X277661050Y-76989400D03*
X276711050Y-78864400D03*
X278611050Y-78864400D03*
%TD*%
D18*
%TO.C,H5*%
X292361050Y-87334400D03*
D17*
X292361050Y-89959400D03*
X290504895Y-85478245D03*
X294986050Y-87334400D03*
X294217205Y-85478245D03*
X292361050Y-84709400D03*
X289736050Y-87334400D03*
X294217205Y-89190555D03*
X290504895Y-89190555D03*
%TD*%
%TO.C,H2*%
X382601050Y-84719400D03*
X380744895Y-89200555D03*
X382601050Y-89969400D03*
X380744895Y-85488245D03*
D18*
X382601050Y-87344400D03*
D17*
X379976050Y-87344400D03*
X385226050Y-87344400D03*
X384457205Y-85488245D03*
X384457205Y-89200555D03*
%TD*%
%TO.C,H6*%
X244836050Y-87414400D03*
X245604895Y-85558245D03*
D18*
X247461050Y-87414400D03*
D17*
X249317205Y-89270555D03*
X247461050Y-90039400D03*
X245604895Y-89270555D03*
X249317205Y-85558245D03*
X247461050Y-84789400D03*
X250086050Y-87414400D03*
%TD*%
%TO.C,H3*%
X334836050Y-87344400D03*
X335604895Y-85488245D03*
X340086050Y-87344400D03*
X339317205Y-85488245D03*
X339317205Y-89200555D03*
X337461050Y-84719400D03*
D18*
X337461050Y-87344400D03*
D17*
X337461050Y-89969400D03*
X335604895Y-89200555D03*
%TD*%
%TO.C,H8*%
X162431050Y-90389400D03*
X165056050Y-87764400D03*
X159806050Y-87764400D03*
X164287205Y-89620555D03*
X162431050Y-85139400D03*
X160574895Y-85908245D03*
D18*
X162431050Y-87764400D03*
D17*
X164287205Y-85908245D03*
X160574895Y-89620555D03*
%TD*%
M02*
