%TF.GenerationSoftware,KiCad,Pcbnew,(6.0.6)*%
%TF.CreationDate,2023-03-10T08:43:37+05:30*%
%TF.ProjectId,ws2812-light,77733238-3132-42d6-9c69-6768742e6b69,rev?*%
%TF.SameCoordinates,Original*%
%TF.FileFunction,Copper,L2,Bot*%
%TF.FilePolarity,Positive*%
%FSLAX46Y46*%
G04 Gerber Fmt 4.6, Leading zero omitted, Abs format (unit mm)*
G04 Created by KiCad (PCBNEW (6.0.6)) date 2023-03-10 08:43:37*
%MOMM*%
%LPD*%
G01*
G04 APERTURE LIST*
G04 Aperture macros list*
%AMRoundRect*
0 Rectangle with rounded corners*
0 $1 Rounding radius*
0 $2 $3 $4 $5 $6 $7 $8 $9 X,Y pos of 4 corners*
0 Add a 4 corners polygon primitive as box body*
4,1,4,$2,$3,$4,$5,$6,$7,$8,$9,$2,$3,0*
0 Add four circle primitives for the rounded corners*
1,1,$1+$1,$2,$3*
1,1,$1+$1,$4,$5*
1,1,$1+$1,$6,$7*
1,1,$1+$1,$8,$9*
0 Add four rect primitives between the rounded corners*
20,1,$1+$1,$2,$3,$4,$5,0*
20,1,$1+$1,$4,$5,$6,$7,0*
20,1,$1+$1,$6,$7,$8,$9,0*
20,1,$1+$1,$8,$9,$2,$3,0*%
G04 Aperture macros list end*
%TA.AperFunction,ComponentPad*%
%ADD10C,5.700000*%
%TD*%
%TA.AperFunction,ComponentPad*%
%ADD11R,1.700000X1.700000*%
%TD*%
%TA.AperFunction,ComponentPad*%
%ADD12O,1.700000X1.700000*%
%TD*%
%TA.AperFunction,ComponentPad*%
%ADD13RoundRect,0.250000X0.725000X-0.600000X0.725000X0.600000X-0.725000X0.600000X-0.725000X-0.600000X0*%
%TD*%
%TA.AperFunction,ComponentPad*%
%ADD14O,1.950000X1.700000*%
%TD*%
%TA.AperFunction,ViaPad*%
%ADD15C,0.600000*%
%TD*%
%TA.AperFunction,ViaPad*%
%ADD16C,1.500000*%
%TD*%
%TA.AperFunction,ViaPad*%
%ADD17C,1.300000*%
%TD*%
%TA.AperFunction,ViaPad*%
%ADD18C,1.400000*%
%TD*%
%TA.AperFunction,Conductor*%
%ADD19C,0.400000*%
%TD*%
%TA.AperFunction,Conductor*%
%ADD20C,0.500000*%
%TD*%
%TA.AperFunction,Conductor*%
%ADD21C,1.500000*%
%TD*%
G04 APERTURE END LIST*
D10*
%TO.P,H2,1,1*%
%TO.N,unconnected-(H2-Pad1)*%
X164846000Y-119634000D03*
%TD*%
D11*
%TO.P,J2,1,Pin_1*%
%TO.N,+5V*%
X169175000Y-111475000D03*
D12*
%TO.P,J2,2,Pin_2*%
%TO.N,DOUT*%
X169175000Y-114015000D03*
%TO.P,J2,3,Pin_3*%
%TO.N,GND*%
X169175000Y-116555000D03*
%TD*%
D10*
%TO.P,H1,1,1*%
%TO.N,unconnected-(H1-Pad1)*%
X87200000Y-119675000D03*
%TD*%
D13*
%TO.P,J1,1,Pin_1*%
%TO.N,DOUT*%
X77750000Y-120100000D03*
D14*
%TO.P,J1,2,Pin_2*%
%TO.N,GND*%
X77750000Y-117600000D03*
%TO.P,J1,3,Pin_3*%
%TO.N,DIN*%
X77750000Y-115100000D03*
%TO.P,J1,4,Pin_4*%
%TO.N,+5V*%
X77750000Y-112600000D03*
%TD*%
D15*
%TO.N,GND*%
X123444000Y-116332000D03*
X117856000Y-116078000D03*
%TO.N,DOUT*%
X122174000Y-114808000D03*
D16*
%TO.N,+5V*%
X126777000Y-111475000D03*
X143541000Y-111475000D03*
D17*
X110000000Y-111400000D03*
D16*
X93503000Y-111475000D03*
X160051000Y-111475000D03*
D18*
X101631000Y-111475000D03*
D16*
X135159000Y-111475000D03*
X118649000Y-111475000D03*
X151415000Y-111475000D03*
%TD*%
D19*
%TO.N,GND*%
X118110000Y-116332000D02*
X117856000Y-116078000D01*
X123444000Y-116332000D02*
X118110000Y-116332000D01*
D20*
%TO.N,DOUT*%
X122651000Y-114331000D02*
X122174000Y-114808000D01*
X122651000Y-114015000D02*
X122651000Y-114331000D01*
X122651000Y-114015000D02*
X169175000Y-114015000D01*
X83835000Y-114015000D02*
X122651000Y-114015000D01*
D21*
%TO.N,+5V*%
X101631000Y-111475000D02*
X93503000Y-111475000D01*
X169175000Y-111475000D02*
X160051000Y-111475000D01*
X151415000Y-111475000D02*
X143541000Y-111475000D01*
X135159000Y-111475000D02*
X126777000Y-111475000D01*
X81000300Y-111475000D02*
X79875300Y-112600000D01*
X77750000Y-112600000D02*
X79875300Y-112600000D01*
X93503000Y-111475000D02*
X81000300Y-111475000D01*
X143541000Y-111475000D02*
X135159000Y-111475000D01*
X160051000Y-111475000D02*
X151415000Y-111475000D01*
X110013000Y-111475000D02*
X101631000Y-111475000D01*
X126777000Y-111475000D02*
X118649000Y-111475000D01*
X118649000Y-111475000D02*
X110013000Y-111475000D01*
D20*
%TO.N,DOUT*%
X77750000Y-120100000D02*
X83835000Y-114015000D01*
%TD*%
%TA.AperFunction,Conductor*%
%TO.N,GND*%
G36*
X170938125Y-110032671D02*
G01*
X171050835Y-110034224D01*
X171086697Y-110037987D01*
X171227607Y-110065861D01*
X171262208Y-110076037D01*
X171395769Y-110128888D01*
X171427968Y-110145145D01*
X171549792Y-110221235D01*
X171578523Y-110243034D01*
X171684618Y-110339873D01*
X171708940Y-110366499D01*
X171795806Y-110480891D01*
X171814927Y-110511476D01*
X171879714Y-110639664D01*
X171893000Y-110673198D01*
X171933586Y-110810983D01*
X171940600Y-110846366D01*
X171953158Y-110965585D01*
X171954253Y-110986039D01*
X171954255Y-110986973D01*
X171952272Y-111001015D01*
X171954310Y-111015047D01*
X171955404Y-111022580D01*
X171957469Y-111051296D01*
X171955788Y-113862325D01*
X171952299Y-119698481D01*
X171952152Y-119943995D01*
X171950551Y-119969064D01*
X171946956Y-119997225D01*
X171949180Y-120011228D01*
X171949277Y-120017575D01*
X171951041Y-120045277D01*
X171943491Y-120293408D01*
X171941459Y-120316351D01*
X171935689Y-120355529D01*
X171900856Y-120592026D01*
X171896187Y-120614581D01*
X171864837Y-120731467D01*
X171828977Y-120865170D01*
X171824001Y-120883721D01*
X171816758Y-120905582D01*
X171736776Y-121107080D01*
X171713951Y-121164583D01*
X171704230Y-121185460D01*
X171640141Y-121304560D01*
X171572186Y-121430843D01*
X171560115Y-121450461D01*
X171400608Y-121678930D01*
X171386352Y-121697022D01*
X171201501Y-121905542D01*
X171185250Y-121921864D01*
X171118973Y-121981139D01*
X170977542Y-122107628D01*
X170959524Y-122121954D01*
X170775635Y-122251539D01*
X170731745Y-122282468D01*
X170712181Y-122294624D01*
X170467378Y-122427743D01*
X170446541Y-122437557D01*
X170187999Y-122541494D01*
X170166173Y-122548832D01*
X169897347Y-122622198D01*
X169874813Y-122626966D01*
X169599325Y-122668775D01*
X169576390Y-122670907D01*
X169336418Y-122679262D01*
X169320919Y-122678154D01*
X169320890Y-122678977D01*
X169306726Y-122678476D01*
X169292768Y-122675971D01*
X169278670Y-122677484D01*
X169278665Y-122677484D01*
X169257852Y-122679718D01*
X169236483Y-122680855D01*
X166979931Y-122679341D01*
X166893603Y-122659576D01*
X166824398Y-122604311D01*
X166786026Y-122524492D01*
X166786085Y-122435929D01*
X166824565Y-122356162D01*
X166860582Y-122321204D01*
X167003673Y-122213768D01*
X167003678Y-122213764D01*
X167007973Y-122210539D01*
X167273592Y-121961977D01*
X167322134Y-121905542D01*
X167507305Y-121690261D01*
X167507309Y-121690256D01*
X167510813Y-121686182D01*
X167716861Y-121386381D01*
X167883872Y-121076207D01*
X167886768Y-121070829D01*
X167886768Y-121070828D01*
X167889325Y-121066080D01*
X167963373Y-120883721D01*
X168024163Y-120734015D01*
X168024165Y-120734008D01*
X168026188Y-120729027D01*
X168028758Y-120720007D01*
X168114171Y-120420164D01*
X168125850Y-120379164D01*
X168187143Y-120020583D01*
X168188712Y-119994939D01*
X168209177Y-119660326D01*
X168209351Y-119657481D01*
X168209433Y-119634000D01*
X168193789Y-119345139D01*
X168190052Y-119276136D01*
X168190051Y-119276129D01*
X168189760Y-119270751D01*
X168130972Y-118911752D01*
X168127794Y-118900290D01*
X168035198Y-118566402D01*
X168033756Y-118561202D01*
X167899249Y-118223201D01*
X167729025Y-117901704D01*
X167725442Y-117896411D01*
X167528090Y-117604924D01*
X167528089Y-117604923D01*
X167525075Y-117600471D01*
X167289785Y-117323027D01*
X167285881Y-117319322D01*
X167285876Y-117319317D01*
X167069113Y-117113617D01*
X167025908Y-117072617D01*
X166736530Y-116852170D01*
X166701005Y-116830740D01*
X167845009Y-116830740D01*
X167872906Y-116954525D01*
X167877773Y-116970054D01*
X167955637Y-117161812D01*
X167962987Y-117176363D01*
X168071126Y-117352829D01*
X168080734Y-117365958D01*
X168216257Y-117522409D01*
X168227885Y-117533796D01*
X168387134Y-117666007D01*
X168400458Y-117675337D01*
X168579171Y-117779769D01*
X168593840Y-117786797D01*
X168787206Y-117860636D01*
X168802833Y-117865176D01*
X168899028Y-117884747D01*
X168917477Y-117884310D01*
X168920736Y-117869209D01*
X169429000Y-117869209D01*
X169433330Y-117888179D01*
X169434690Y-117888834D01*
X169446404Y-117889402D01*
X169450212Y-117888915D01*
X169466132Y-117885531D01*
X169664385Y-117826052D01*
X169679534Y-117820115D01*
X169865396Y-117729061D01*
X169879392Y-117720718D01*
X170047884Y-117600534D01*
X170060321Y-117590025D01*
X170206931Y-117443925D01*
X170217474Y-117431537D01*
X170338255Y-117263454D01*
X170346643Y-117249492D01*
X170438349Y-117063941D01*
X170444336Y-117048819D01*
X170504506Y-116850776D01*
X170507946Y-116834867D01*
X170508425Y-116831228D01*
X170506608Y-116811858D01*
X170505497Y-116811130D01*
X170493633Y-116809000D01*
X169451423Y-116809000D01*
X169432453Y-116813330D01*
X169429000Y-116820500D01*
X169429000Y-117869209D01*
X168920736Y-117869209D01*
X168921000Y-117867987D01*
X168921000Y-116831423D01*
X168916670Y-116812453D01*
X168909500Y-116809000D01*
X167862533Y-116809000D01*
X167845034Y-116812994D01*
X167845009Y-116830740D01*
X166701005Y-116830740D01*
X166490367Y-116703675D01*
X166429650Y-116667048D01*
X166429645Y-116667045D01*
X166425036Y-116664265D01*
X166095071Y-116511100D01*
X166089969Y-116509373D01*
X165755594Y-116396193D01*
X165755590Y-116396192D01*
X165750494Y-116394467D01*
X165745242Y-116393303D01*
X165745236Y-116393301D01*
X165585536Y-116357897D01*
X165395336Y-116315731D01*
X165141675Y-116287726D01*
X165039097Y-116276401D01*
X165039095Y-116276401D01*
X165033752Y-116275811D01*
X164855060Y-116275499D01*
X164675353Y-116275185D01*
X164675346Y-116275185D01*
X164669972Y-116275176D01*
X164664623Y-116275748D01*
X164664616Y-116275748D01*
X164313601Y-116313261D01*
X164313598Y-116313261D01*
X164308250Y-116313833D01*
X164302997Y-116314978D01*
X164302993Y-116314979D01*
X163958089Y-116390181D01*
X163958086Y-116390182D01*
X163952820Y-116391330D01*
X163947710Y-116393040D01*
X163947702Y-116393042D01*
X163752069Y-116458500D01*
X163607838Y-116506759D01*
X163602947Y-116509009D01*
X163602941Y-116509011D01*
X163404936Y-116600084D01*
X163277340Y-116658771D01*
X162965192Y-116845588D01*
X162960904Y-116848831D01*
X162960898Y-116848835D01*
X162679336Y-117061778D01*
X162679330Y-117061783D01*
X162675046Y-117065023D01*
X162410296Y-117314511D01*
X162406796Y-117318609D01*
X162406795Y-117318610D01*
X162200889Y-117559696D01*
X162174040Y-117591132D01*
X162171015Y-117595566D01*
X162171010Y-117595573D01*
X161973215Y-117885531D01*
X161969040Y-117891651D01*
X161966501Y-117896406D01*
X161966498Y-117896411D01*
X161919043Y-117985286D01*
X161860990Y-118052169D01*
X161779667Y-118087241D01*
X161691181Y-118083554D01*
X161613057Y-118041840D01*
X161560768Y-117970360D01*
X161544500Y-117891555D01*
X161544500Y-117758741D01*
X161544504Y-117757525D01*
X161544800Y-117709102D01*
X161544976Y-117680279D01*
X161538217Y-117656630D01*
X161532566Y-117630155D01*
X161531090Y-117619847D01*
X161531090Y-117619846D01*
X161529080Y-117605813D01*
X161520696Y-117587373D01*
X161510513Y-117559696D01*
X161508845Y-117553859D01*
X161508844Y-117553857D01*
X161504949Y-117540229D01*
X161491827Y-117519432D01*
X161478970Y-117495604D01*
X161474660Y-117486125D01*
X161468792Y-117473218D01*
X161455575Y-117457879D01*
X161438030Y-117434168D01*
X161434790Y-117429033D01*
X161434788Y-117429031D01*
X161427224Y-117417042D01*
X161416598Y-117407657D01*
X161416596Y-117407655D01*
X161408783Y-117400754D01*
X161389768Y-117381505D01*
X161382969Y-117373615D01*
X161373713Y-117362873D01*
X161356716Y-117351856D01*
X161333228Y-117334027D01*
X161318049Y-117320622D01*
X161305215Y-117314596D01*
X161305210Y-117314593D01*
X161295787Y-117310169D01*
X161272132Y-117297030D01*
X161251485Y-117283648D01*
X161232081Y-117277845D01*
X161204531Y-117267326D01*
X161186200Y-117258719D01*
X161161893Y-117254934D01*
X161135502Y-117248962D01*
X161125515Y-117245975D01*
X161125512Y-117245975D01*
X161111934Y-117241914D01*
X161097762Y-117241827D01*
X161097759Y-117241827D01*
X161080907Y-117241724D01*
X161077043Y-117241701D01*
X161076853Y-117241693D01*
X161075614Y-117241500D01*
X161044741Y-117241500D01*
X161043525Y-117241496D01*
X160966279Y-117241024D01*
X160964790Y-117241450D01*
X160964050Y-117241500D01*
X91194741Y-117241500D01*
X91193525Y-117241496D01*
X91116279Y-117241024D01*
X91102652Y-117244919D01*
X91102650Y-117244919D01*
X91092630Y-117247783D01*
X91066155Y-117253434D01*
X91055847Y-117254910D01*
X91055846Y-117254910D01*
X91041813Y-117256920D01*
X91028909Y-117262787D01*
X91023373Y-117265304D01*
X90995696Y-117275487D01*
X90989859Y-117277155D01*
X90989857Y-117277156D01*
X90976229Y-117281051D01*
X90964241Y-117288615D01*
X90964239Y-117288616D01*
X90955432Y-117294173D01*
X90931605Y-117307029D01*
X90909218Y-117317208D01*
X90898478Y-117326463D01*
X90898477Y-117326463D01*
X90893879Y-117330425D01*
X90870168Y-117347970D01*
X90865033Y-117351210D01*
X90865031Y-117351212D01*
X90853042Y-117358776D01*
X90843657Y-117369402D01*
X90843655Y-117369404D01*
X90836754Y-117377217D01*
X90817505Y-117396232D01*
X90798873Y-117412287D01*
X90788019Y-117429033D01*
X90787859Y-117429280D01*
X90770027Y-117452772D01*
X90756622Y-117467951D01*
X90750596Y-117480785D01*
X90750593Y-117480790D01*
X90746169Y-117490213D01*
X90733030Y-117513868D01*
X90719648Y-117534515D01*
X90715586Y-117548098D01*
X90713846Y-117553917D01*
X90703326Y-117581469D01*
X90694719Y-117599800D01*
X90690934Y-117624107D01*
X90684962Y-117650498D01*
X90677914Y-117674066D01*
X90677827Y-117688238D01*
X90677827Y-117688241D01*
X90677701Y-117708954D01*
X90677693Y-117709147D01*
X90677500Y-117710386D01*
X90677500Y-117741259D01*
X90677496Y-117742474D01*
X90677024Y-117819721D01*
X90677450Y-117821210D01*
X90677500Y-117821950D01*
X90677500Y-118292026D01*
X90657793Y-118378369D01*
X90602574Y-118447610D01*
X90522782Y-118486037D01*
X90434218Y-118486037D01*
X90354426Y-118447610D01*
X90299207Y-118378369D01*
X90293603Y-118365606D01*
X90255240Y-118269204D01*
X90255240Y-118269203D01*
X90253249Y-118264201D01*
X90250231Y-118258500D01*
X90085545Y-117947464D01*
X90083025Y-117942704D01*
X90051683Y-117896411D01*
X89882090Y-117645924D01*
X89882089Y-117645923D01*
X89879075Y-117641471D01*
X89643785Y-117364027D01*
X89639881Y-117360322D01*
X89639876Y-117360317D01*
X89383813Y-117117323D01*
X89379908Y-117113617D01*
X89090530Y-116893170D01*
X88988171Y-116831423D01*
X88783650Y-116708048D01*
X88783645Y-116708045D01*
X88779036Y-116705265D01*
X88449071Y-116552100D01*
X88443969Y-116550373D01*
X88109594Y-116437193D01*
X88109590Y-116437192D01*
X88104494Y-116435467D01*
X88099242Y-116434303D01*
X88099236Y-116434301D01*
X87919553Y-116394467D01*
X87749336Y-116356731D01*
X87574048Y-116337379D01*
X87393097Y-116317401D01*
X87393095Y-116317401D01*
X87387752Y-116316811D01*
X87209060Y-116316499D01*
X87029353Y-116316185D01*
X87029346Y-116316185D01*
X87023972Y-116316176D01*
X87018623Y-116316748D01*
X87018616Y-116316748D01*
X86667601Y-116354261D01*
X86667598Y-116354261D01*
X86662250Y-116354833D01*
X86656997Y-116355978D01*
X86656993Y-116355979D01*
X86312089Y-116431181D01*
X86312086Y-116431182D01*
X86306820Y-116432330D01*
X86301710Y-116434040D01*
X86301702Y-116434042D01*
X86064622Y-116513368D01*
X85961838Y-116547759D01*
X85956947Y-116550009D01*
X85956941Y-116550011D01*
X85810056Y-116617571D01*
X85631340Y-116699771D01*
X85319192Y-116886588D01*
X85314904Y-116889831D01*
X85314898Y-116889835D01*
X85033336Y-117102778D01*
X85033330Y-117102783D01*
X85029046Y-117106023D01*
X84860021Y-117265304D01*
X84776709Y-117343814D01*
X84764296Y-117355511D01*
X84760796Y-117359609D01*
X84760795Y-117359610D01*
X84559264Y-117595573D01*
X84528040Y-117632132D01*
X84525015Y-117636566D01*
X84525010Y-117636573D01*
X84326074Y-117928203D01*
X84323040Y-117932651D01*
X84320503Y-117937402D01*
X84320502Y-117937404D01*
X84302905Y-117970360D01*
X84151694Y-118253552D01*
X84149691Y-118258535D01*
X84149689Y-118258539D01*
X84106649Y-118365606D01*
X84016009Y-118591081D01*
X84014554Y-118596256D01*
X84014553Y-118596260D01*
X83925872Y-118911752D01*
X83917569Y-118941290D01*
X83916683Y-118946587D01*
X83916681Y-118946594D01*
X83903277Y-119026697D01*
X83857528Y-119300082D01*
X83836587Y-119663259D01*
X83842076Y-119771609D01*
X83854689Y-120020583D01*
X83854992Y-120026574D01*
X83912527Y-120385777D01*
X83913949Y-120390975D01*
X84006430Y-120729027D01*
X84008519Y-120736664D01*
X84010494Y-120741677D01*
X84010494Y-120741678D01*
X84125695Y-121034133D01*
X84141845Y-121075133D01*
X84144344Y-121079893D01*
X84144345Y-121079895D01*
X84308265Y-121392115D01*
X84310946Y-121397222D01*
X84344749Y-121447526D01*
X84510836Y-121694691D01*
X84510842Y-121694698D01*
X84513843Y-121699165D01*
X84517313Y-121703286D01*
X84517317Y-121703291D01*
X84744699Y-121973315D01*
X84744704Y-121973320D01*
X84748163Y-121977428D01*
X84752043Y-121981136D01*
X84752046Y-121981139D01*
X84834768Y-122060190D01*
X85011165Y-122228758D01*
X85015440Y-122232038D01*
X85149130Y-122334623D01*
X85205633Y-122402820D01*
X85226951Y-122488780D01*
X85208862Y-122575476D01*
X85154948Y-122645738D01*
X85075887Y-122685649D01*
X85027986Y-122691500D01*
X75542220Y-122691500D01*
X75518746Y-122690111D01*
X75487666Y-122686419D01*
X75483467Y-122687124D01*
X75402871Y-122670754D01*
X75332323Y-122617215D01*
X75291991Y-122538369D01*
X75288153Y-122492227D01*
X75286985Y-122492297D01*
X75283856Y-122440046D01*
X75283500Y-122428150D01*
X75283500Y-110232500D01*
X75303207Y-110146157D01*
X75358426Y-110076916D01*
X75438218Y-110038489D01*
X75482500Y-110033500D01*
X80231595Y-110033500D01*
X80317938Y-110053207D01*
X80387179Y-110108426D01*
X80425606Y-110188218D01*
X80425606Y-110276782D01*
X80387179Y-110356574D01*
X80347720Y-110394105D01*
X80290657Y-110435109D01*
X80283787Y-110439830D01*
X80221523Y-110480729D01*
X80221519Y-110480732D01*
X80215425Y-110484735D01*
X80206122Y-110493024D01*
X80197500Y-110500706D01*
X80182657Y-110512597D01*
X80181843Y-110513299D01*
X80174646Y-110518471D01*
X80123251Y-110571506D01*
X80100675Y-110594803D01*
X80098482Y-110597030D01*
X79412298Y-111283214D01*
X79337310Y-111330333D01*
X79271584Y-111341500D01*
X78424513Y-111341500D01*
X78356614Y-111329558D01*
X78238099Y-111286539D01*
X78238096Y-111286538D01*
X78230175Y-111283663D01*
X78089351Y-111258198D01*
X78009768Y-111243807D01*
X78009766Y-111243807D01*
X78003308Y-111242639D01*
X77985835Y-111241815D01*
X77981512Y-111241611D01*
X77981507Y-111241611D01*
X77979156Y-111241500D01*
X77567110Y-111241500D01*
X77395280Y-111256080D01*
X77387119Y-111258198D01*
X77387120Y-111258198D01*
X77180279Y-111311883D01*
X77180275Y-111311885D01*
X77172128Y-111313999D01*
X77164457Y-111317455D01*
X77164450Y-111317457D01*
X76969610Y-111405226D01*
X76961925Y-111408688D01*
X76954932Y-111413396D01*
X76777673Y-111532733D01*
X76777668Y-111532737D01*
X76770681Y-111537441D01*
X76603865Y-111696576D01*
X76466246Y-111881542D01*
X76361760Y-112087051D01*
X76293393Y-112307227D01*
X76263102Y-112535774D01*
X76271751Y-112766158D01*
X76319093Y-112991791D01*
X76403776Y-113206221D01*
X76408148Y-113213425D01*
X76408150Y-113213430D01*
X76478806Y-113329867D01*
X76523377Y-113403317D01*
X76528908Y-113409691D01*
X76666462Y-113568208D01*
X76674477Y-113577445D01*
X76684191Y-113585410D01*
X76819088Y-113696019D01*
X76873361Y-113766005D01*
X76891893Y-113852607D01*
X76871014Y-113938674D01*
X76814860Y-114007159D01*
X76804044Y-114014980D01*
X76777675Y-114032732D01*
X76777672Y-114032734D01*
X76770681Y-114037441D01*
X76603865Y-114196576D01*
X76466246Y-114381542D01*
X76361760Y-114587051D01*
X76359260Y-114595103D01*
X76303866Y-114773500D01*
X76293393Y-114807227D01*
X76263102Y-115035774D01*
X76271751Y-115266158D01*
X76319093Y-115491791D01*
X76359288Y-115593571D01*
X76369910Y-115620466D01*
X76403776Y-115706221D01*
X76408148Y-115713425D01*
X76408150Y-115713430D01*
X76471883Y-115818458D01*
X76523377Y-115903317D01*
X76674477Y-116077445D01*
X76815569Y-116193133D01*
X76819491Y-116196349D01*
X76873763Y-116266334D01*
X76892296Y-116352937D01*
X76871417Y-116439004D01*
X76815263Y-116507489D01*
X76804451Y-116515308D01*
X76777981Y-116533129D01*
X76764901Y-116543645D01*
X76610341Y-116691090D01*
X76599207Y-116703675D01*
X76471701Y-116875050D01*
X76462857Y-116889313D01*
X76366041Y-117079734D01*
X76359728Y-117095282D01*
X76296382Y-117299289D01*
X76292777Y-117315684D01*
X76291705Y-117323774D01*
X76293504Y-117343146D01*
X76294575Y-117343849D01*
X76306527Y-117346000D01*
X77805000Y-117346000D01*
X77891343Y-117365707D01*
X77960584Y-117420926D01*
X77999011Y-117500718D01*
X78004000Y-117545000D01*
X78004000Y-117655000D01*
X77984293Y-117741343D01*
X77929074Y-117810584D01*
X77849282Y-117849011D01*
X77805000Y-117854000D01*
X76313116Y-117854000D01*
X76295265Y-117858074D01*
X76295115Y-117875076D01*
X76317843Y-117983399D01*
X76322670Y-117999487D01*
X76401127Y-118198153D01*
X76408600Y-118213208D01*
X76519407Y-118395811D01*
X76529314Y-118409397D01*
X76661366Y-118561574D01*
X76703071Y-118639703D01*
X76706746Y-118728190D01*
X76671665Y-118809509D01*
X76615782Y-118861218D01*
X76550652Y-118901522D01*
X76425695Y-119026697D01*
X76332885Y-119177262D01*
X76329247Y-119188232D01*
X76329245Y-119188235D01*
X76290364Y-119305459D01*
X76277203Y-119345139D01*
X76266500Y-119449600D01*
X76266500Y-120750400D01*
X76277474Y-120856166D01*
X76333450Y-121023946D01*
X76426522Y-121174348D01*
X76551697Y-121299305D01*
X76702262Y-121392115D01*
X76713232Y-121395753D01*
X76713235Y-121395755D01*
X76859830Y-121444378D01*
X76859833Y-121444379D01*
X76870139Y-121447797D01*
X76880939Y-121448904D01*
X76880941Y-121448904D01*
X76969550Y-121457983D01*
X76969558Y-121457983D01*
X76974600Y-121458500D01*
X78525400Y-121458500D01*
X78578133Y-121453029D01*
X78620336Y-121448650D01*
X78620339Y-121448649D01*
X78631166Y-121447526D01*
X78700962Y-121424240D01*
X78787977Y-121395210D01*
X78787980Y-121395208D01*
X78798946Y-121391550D01*
X78949348Y-121298478D01*
X79074305Y-121173303D01*
X79140399Y-121066080D01*
X79161049Y-121032579D01*
X79161049Y-121032578D01*
X79167115Y-121022738D01*
X79222797Y-120854861D01*
X79233500Y-120750400D01*
X79233500Y-119771609D01*
X79253207Y-119685266D01*
X79291786Y-119630895D01*
X84090895Y-114831786D01*
X84165883Y-114784667D01*
X84231609Y-114773500D01*
X121177752Y-114773500D01*
X121264095Y-114793207D01*
X121333336Y-114848426D01*
X121371763Y-114928218D01*
X121375802Y-114953081D01*
X121378163Y-114977160D01*
X121435418Y-115149273D01*
X121529380Y-115304424D01*
X121655382Y-115434902D01*
X121664695Y-115440997D01*
X121664696Y-115440997D01*
X121696433Y-115461765D01*
X121807159Y-115534222D01*
X121977168Y-115597448D01*
X121988187Y-115598918D01*
X121988190Y-115598919D01*
X122093340Y-115612949D01*
X122156961Y-115621438D01*
X122337600Y-115604998D01*
X122348180Y-115601560D01*
X122348182Y-115601560D01*
X122499527Y-115552385D01*
X122510108Y-115548947D01*
X122519660Y-115543253D01*
X122519662Y-115543252D01*
X122656357Y-115461765D01*
X122665912Y-115456069D01*
X122673967Y-115448398D01*
X122673970Y-115448396D01*
X122789210Y-115338654D01*
X122789211Y-115338652D01*
X122797266Y-115330982D01*
X122827803Y-115285021D01*
X122891486Y-115189169D01*
X122897643Y-115179902D01*
X122901593Y-115169504D01*
X122904708Y-115163443D01*
X122940986Y-115113695D01*
X123136010Y-114918671D01*
X123158774Y-114899108D01*
X123162505Y-114896362D01*
X123162507Y-114896360D01*
X123171818Y-114889508D01*
X123204125Y-114851480D01*
X123213506Y-114841306D01*
X123214506Y-114840183D01*
X123214610Y-114840109D01*
X123215060Y-114839621D01*
X123218660Y-114836021D01*
X123219362Y-114836723D01*
X123286636Y-114788795D01*
X123363144Y-114773500D01*
X167943731Y-114773500D01*
X168030074Y-114793207D01*
X168094145Y-114842206D01*
X168215901Y-114982764D01*
X168215907Y-114982770D01*
X168221250Y-114988938D01*
X168227528Y-114994150D01*
X168393126Y-115131632D01*
X168391885Y-115133127D01*
X168443457Y-115190110D01*
X168468509Y-115275056D01*
X168454223Y-115362460D01*
X168403429Y-115435009D01*
X168389380Y-115446600D01*
X168276827Y-115531108D01*
X168264657Y-115541913D01*
X168121658Y-115691553D01*
X168111418Y-115704199D01*
X167994782Y-115875180D01*
X167986741Y-115889335D01*
X167899597Y-116077071D01*
X167893976Y-116092350D01*
X167839793Y-116287726D01*
X167841012Y-116298028D01*
X167843207Y-116299390D01*
X167852843Y-116301000D01*
X170489036Y-116301000D01*
X170505936Y-116297143D01*
X170505730Y-116278193D01*
X170466946Y-116123788D01*
X170461697Y-116108371D01*
X170379170Y-115918570D01*
X170371473Y-115904215D01*
X170259051Y-115730436D01*
X170249123Y-115717545D01*
X170109823Y-115564457D01*
X170097917Y-115553354D01*
X169954700Y-115440249D01*
X169899154Y-115371270D01*
X169879037Y-115285021D01*
X169898335Y-115198586D01*
X169953224Y-115129084D01*
X169962443Y-115122093D01*
X170054860Y-115056173D01*
X170213096Y-114898489D01*
X170343453Y-114717077D01*
X170442430Y-114516811D01*
X170507370Y-114303069D01*
X170536529Y-114081590D01*
X170538156Y-114015000D01*
X170525522Y-113861323D01*
X170520521Y-113800497D01*
X170520521Y-113800496D01*
X170519852Y-113792361D01*
X170508541Y-113747328D01*
X170481555Y-113639893D01*
X170465431Y-113575702D01*
X170462175Y-113568213D01*
X170462173Y-113568208D01*
X170379612Y-113378333D01*
X170376354Y-113370840D01*
X170255014Y-113183277D01*
X170237377Y-113163894D01*
X170180293Y-113101159D01*
X170136759Y-113024034D01*
X170131001Y-112935658D01*
X170164157Y-112853535D01*
X170229661Y-112793931D01*
X170257630Y-112780892D01*
X170258428Y-112780593D01*
X170258432Y-112780591D01*
X170271705Y-112775615D01*
X170388261Y-112688261D01*
X170475615Y-112571705D01*
X170526745Y-112435316D01*
X170533500Y-112373134D01*
X170533500Y-110576866D01*
X170526745Y-110514684D01*
X170475615Y-110378295D01*
X170455791Y-110351844D01*
X170419780Y-110270933D01*
X170422440Y-110182410D01*
X170463246Y-110103807D01*
X170534116Y-110050694D01*
X170615033Y-110033500D01*
X170822043Y-110033500D01*
X170837450Y-110034097D01*
X170883243Y-110037653D01*
X170897119Y-110034739D01*
X170911264Y-110033822D01*
X170911306Y-110034475D01*
X170930940Y-110032572D01*
X170938125Y-110032671D01*
G37*
%TD.AperFunction*%
%TD*%
M02*
