%TF.GenerationSoftware,KiCad,Pcbnew,(6.0.6)*%
%TF.CreationDate,2023-03-10T08:43:37+05:30*%
%TF.ProjectId,ws2812-light,77733238-3132-42d6-9c69-6768742e6b69,rev?*%
%TF.SameCoordinates,Original*%
%TF.FileFunction,Legend,Top*%
%TF.FilePolarity,Positive*%
%FSLAX46Y46*%
G04 Gerber Fmt 4.6, Leading zero omitted, Abs format (unit mm)*
G04 Created by KiCad (PCBNEW (6.0.6)) date 2023-03-10 08:43:37*
%MOMM*%
%LPD*%
G01*
G04 APERTURE LIST*
%ADD10C,0.150000*%
%ADD11C,0.120000*%
G04 APERTURE END LIST*
D10*
X171069047Y-110958380D02*
X170592857Y-110958380D01*
X170545238Y-111434571D01*
X170592857Y-111386952D01*
X170688095Y-111339333D01*
X170926190Y-111339333D01*
X171021428Y-111386952D01*
X171069047Y-111434571D01*
X171116666Y-111529809D01*
X171116666Y-111767904D01*
X171069047Y-111863142D01*
X171021428Y-111910761D01*
X170926190Y-111958380D01*
X170688095Y-111958380D01*
X170592857Y-111910761D01*
X170545238Y-111863142D01*
X171545238Y-111577428D02*
X172307142Y-111577428D01*
X171926190Y-111958380D02*
X171926190Y-111196476D01*
X82050000Y-115514380D02*
X82050000Y-114514380D01*
X82288095Y-114514380D01*
X82430952Y-114562000D01*
X82526190Y-114657238D01*
X82573809Y-114752476D01*
X82621428Y-114942952D01*
X82621428Y-115085809D01*
X82573809Y-115276285D01*
X82526190Y-115371523D01*
X82430952Y-115466761D01*
X82288095Y-115514380D01*
X82050000Y-115514380D01*
X83050000Y-115514380D02*
X83050000Y-114514380D01*
X171235714Y-116086000D02*
X171140476Y-116038380D01*
X170997619Y-116038380D01*
X170854761Y-116086000D01*
X170759523Y-116181238D01*
X170711904Y-116276476D01*
X170664285Y-116466952D01*
X170664285Y-116609809D01*
X170711904Y-116800285D01*
X170759523Y-116895523D01*
X170854761Y-116990761D01*
X170997619Y-117038380D01*
X171092857Y-117038380D01*
X171235714Y-116990761D01*
X171283333Y-116943142D01*
X171283333Y-116609809D01*
X171092857Y-116609809D01*
X171950000Y-117371714D02*
X171950000Y-115943142D01*
X82018285Y-120848380D02*
X82018285Y-119848380D01*
X82256380Y-119848380D01*
X82399238Y-119896000D01*
X82494476Y-119991238D01*
X82542095Y-120086476D01*
X82589714Y-120276952D01*
X82589714Y-120419809D01*
X82542095Y-120610285D01*
X82494476Y-120705523D01*
X82399238Y-120800761D01*
X82256380Y-120848380D01*
X82018285Y-120848380D01*
X83208761Y-119848380D02*
X83399238Y-119848380D01*
X83494476Y-119896000D01*
X83589714Y-119991238D01*
X83637333Y-120181714D01*
X83637333Y-120515047D01*
X83589714Y-120705523D01*
X83494476Y-120800761D01*
X83399238Y-120848380D01*
X83208761Y-120848380D01*
X83113523Y-120800761D01*
X83018285Y-120705523D01*
X82970666Y-120515047D01*
X82970666Y-120181714D01*
X83018285Y-119991238D01*
X83113523Y-119896000D01*
X83208761Y-119848380D01*
X82550095Y-117356000D02*
X82454857Y-117308380D01*
X82312000Y-117308380D01*
X82169142Y-117356000D01*
X82073904Y-117451238D01*
X82026285Y-117546476D01*
X81978666Y-117736952D01*
X81978666Y-117879809D01*
X82026285Y-118070285D01*
X82073904Y-118165523D01*
X82169142Y-118260761D01*
X82312000Y-118308380D01*
X82407238Y-118308380D01*
X82550095Y-118260761D01*
X82597714Y-118213142D01*
X82597714Y-117879809D01*
X82407238Y-117879809D01*
X83026285Y-118308380D02*
X83026285Y-117308380D01*
X83597714Y-118308380D01*
X83597714Y-117308380D01*
X84073904Y-118308380D02*
X84073904Y-117308380D01*
X84312000Y-117308380D01*
X84454857Y-117356000D01*
X84550095Y-117451238D01*
X84597714Y-117546476D01*
X84645333Y-117736952D01*
X84645333Y-117879809D01*
X84597714Y-118070285D01*
X84550095Y-118165523D01*
X84454857Y-118260761D01*
X84312000Y-118308380D01*
X84073904Y-118308380D01*
X170664285Y-114752380D02*
X170664285Y-113752380D01*
X170902380Y-113752380D01*
X171045238Y-113800000D01*
X171140476Y-113895238D01*
X171188095Y-113990476D01*
X171235714Y-114180952D01*
X171235714Y-114323809D01*
X171188095Y-114514285D01*
X171140476Y-114609523D01*
X171045238Y-114704761D01*
X170902380Y-114752380D01*
X170664285Y-114752380D01*
X171854761Y-113752380D02*
X172045238Y-113752380D01*
X172140476Y-113800000D01*
X172235714Y-113895238D01*
X172283333Y-114085714D01*
X172283333Y-114419047D01*
X172235714Y-114609523D01*
X172140476Y-114704761D01*
X172045238Y-114752380D01*
X171854761Y-114752380D01*
X171759523Y-114704761D01*
X171664285Y-114609523D01*
X171616666Y-114419047D01*
X171616666Y-114085714D01*
X171664285Y-113895238D01*
X171759523Y-113800000D01*
X171854761Y-113752380D01*
X82613523Y-112228380D02*
X82137333Y-112228380D01*
X82089714Y-112704571D01*
X82137333Y-112656952D01*
X82232571Y-112609333D01*
X82470666Y-112609333D01*
X82565904Y-112656952D01*
X82613523Y-112704571D01*
X82661142Y-112799809D01*
X82661142Y-113037904D01*
X82613523Y-113133142D01*
X82565904Y-113180761D01*
X82470666Y-113228380D01*
X82232571Y-113228380D01*
X82137333Y-113180761D01*
X82089714Y-113133142D01*
X82946857Y-112228380D02*
X83280190Y-113228380D01*
X83613523Y-112228380D01*
%TO.C,D5*%
X121181904Y-113228380D02*
X121181904Y-112228380D01*
X121420000Y-112228380D01*
X121562857Y-112276000D01*
X121658095Y-112371238D01*
X121705714Y-112466476D01*
X121753333Y-112656952D01*
X121753333Y-112799809D01*
X121705714Y-112990285D01*
X121658095Y-113085523D01*
X121562857Y-113180761D01*
X121420000Y-113228380D01*
X121181904Y-113228380D01*
X122658095Y-112228380D02*
X122181904Y-112228380D01*
X122134285Y-112704571D01*
X122181904Y-112656952D01*
X122277142Y-112609333D01*
X122515238Y-112609333D01*
X122610476Y-112656952D01*
X122658095Y-112704571D01*
X122705714Y-112799809D01*
X122705714Y-113037904D01*
X122658095Y-113133142D01*
X122610476Y-113180761D01*
X122515238Y-113228380D01*
X122277142Y-113228380D01*
X122181904Y-113180761D01*
X122134285Y-113133142D01*
X118060714Y-111777380D02*
X117489285Y-111777380D01*
X117775000Y-111777380D02*
X117775000Y-110777380D01*
X117679761Y-110920238D01*
X117584523Y-111015476D01*
X117489285Y-111063095D01*
%TO.C,H2*%
X168402095Y-122118380D02*
X168402095Y-121118380D01*
X168402095Y-121594571D02*
X168973523Y-121594571D01*
X168973523Y-122118380D02*
X168973523Y-121118380D01*
X169402095Y-121213619D02*
X169449714Y-121166000D01*
X169544952Y-121118380D01*
X169783047Y-121118380D01*
X169878285Y-121166000D01*
X169925904Y-121213619D01*
X169973523Y-121308857D01*
X169973523Y-121404095D01*
X169925904Y-121546952D01*
X169354476Y-122118380D01*
X169973523Y-122118380D01*
%TO.C,D3*%
X104163904Y-113482380D02*
X104163904Y-112482380D01*
X104402000Y-112482380D01*
X104544857Y-112530000D01*
X104640095Y-112625238D01*
X104687714Y-112720476D01*
X104735333Y-112910952D01*
X104735333Y-113053809D01*
X104687714Y-113244285D01*
X104640095Y-113339523D01*
X104544857Y-113434761D01*
X104402000Y-113482380D01*
X104163904Y-113482380D01*
X105068666Y-112482380D02*
X105687714Y-112482380D01*
X105354380Y-112863333D01*
X105497238Y-112863333D01*
X105592476Y-112910952D01*
X105640095Y-112958571D01*
X105687714Y-113053809D01*
X105687714Y-113291904D01*
X105640095Y-113387142D01*
X105592476Y-113434761D01*
X105497238Y-113482380D01*
X105211523Y-113482380D01*
X105116285Y-113434761D01*
X105068666Y-113387142D01*
X101085714Y-111777380D02*
X100514285Y-111777380D01*
X100800000Y-111777380D02*
X100800000Y-110777380D01*
X100704761Y-110920238D01*
X100609523Y-111015476D01*
X100514285Y-111063095D01*
%TO.C,D6*%
X129461904Y-113228380D02*
X129461904Y-112228380D01*
X129700000Y-112228380D01*
X129842857Y-112276000D01*
X129938095Y-112371238D01*
X129985714Y-112466476D01*
X130033333Y-112656952D01*
X130033333Y-112799809D01*
X129985714Y-112990285D01*
X129938095Y-113085523D01*
X129842857Y-113180761D01*
X129700000Y-113228380D01*
X129461904Y-113228380D01*
X130890476Y-112228380D02*
X130700000Y-112228380D01*
X130604761Y-112276000D01*
X130557142Y-112323619D01*
X130461904Y-112466476D01*
X130414285Y-112656952D01*
X130414285Y-113037904D01*
X130461904Y-113133142D01*
X130509523Y-113180761D01*
X130604761Y-113228380D01*
X130795238Y-113228380D01*
X130890476Y-113180761D01*
X130938095Y-113133142D01*
X130985714Y-113037904D01*
X130985714Y-112799809D01*
X130938095Y-112704571D01*
X130890476Y-112656952D01*
X130795238Y-112609333D01*
X130604761Y-112609333D01*
X130509523Y-112656952D01*
X130461904Y-112704571D01*
X130414285Y-112799809D01*
X126335714Y-111777380D02*
X125764285Y-111777380D01*
X126050000Y-111777380D02*
X126050000Y-110777380D01*
X125954761Y-110920238D01*
X125859523Y-111015476D01*
X125764285Y-111063095D01*
%TO.C,J2*%
X166581269Y-115797105D02*
X166581269Y-116511391D01*
X166533650Y-116654248D01*
X166438412Y-116749486D01*
X166295555Y-116797105D01*
X166200317Y-116797105D01*
X167009841Y-115892344D02*
X167057460Y-115844725D01*
X167152698Y-115797105D01*
X167390793Y-115797105D01*
X167486031Y-115844725D01*
X167533650Y-115892344D01*
X167581269Y-115987582D01*
X167581269Y-116082820D01*
X167533650Y-116225677D01*
X166962222Y-116797105D01*
X167581269Y-116797105D01*
%TO.C,D10*%
X162035714Y-113228380D02*
X162035714Y-112228380D01*
X162273809Y-112228380D01*
X162416666Y-112276000D01*
X162511904Y-112371238D01*
X162559523Y-112466476D01*
X162607142Y-112656952D01*
X162607142Y-112799809D01*
X162559523Y-112990285D01*
X162511904Y-113085523D01*
X162416666Y-113180761D01*
X162273809Y-113228380D01*
X162035714Y-113228380D01*
X163559523Y-113228380D02*
X162988095Y-113228380D01*
X163273809Y-113228380D02*
X163273809Y-112228380D01*
X163178571Y-112371238D01*
X163083333Y-112466476D01*
X162988095Y-112514095D01*
X164178571Y-112228380D02*
X164273809Y-112228380D01*
X164369047Y-112276000D01*
X164416666Y-112323619D01*
X164464285Y-112418857D01*
X164511904Y-112609333D01*
X164511904Y-112847428D01*
X164464285Y-113037904D01*
X164416666Y-113133142D01*
X164369047Y-113180761D01*
X164273809Y-113228380D01*
X164178571Y-113228380D01*
X164083333Y-113180761D01*
X164035714Y-113133142D01*
X163988095Y-113037904D01*
X163940476Y-112847428D01*
X163940476Y-112609333D01*
X163988095Y-112418857D01*
X164035714Y-112323619D01*
X164083333Y-112276000D01*
X164178571Y-112228380D01*
X159385714Y-111777380D02*
X158814285Y-111777380D01*
X159100000Y-111777380D02*
X159100000Y-110777380D01*
X159004761Y-110920238D01*
X158909523Y-111015476D01*
X158814285Y-111063095D01*
%TO.C,H1*%
X86113095Y-114927380D02*
X86113095Y-113927380D01*
X86113095Y-114403571D02*
X86684523Y-114403571D01*
X86684523Y-114927380D02*
X86684523Y-113927380D01*
X87684523Y-114927380D02*
X87113095Y-114927380D01*
X87398809Y-114927380D02*
X87398809Y-113927380D01*
X87303571Y-114070238D01*
X87208333Y-114165476D01*
X87113095Y-114213095D01*
%TO.C,J1*%
X79208380Y-120729333D02*
X79922666Y-120729333D01*
X80065523Y-120776952D01*
X80160761Y-120872190D01*
X80208380Y-121015047D01*
X80208380Y-121110285D01*
X80208380Y-119729333D02*
X80208380Y-120300761D01*
X80208380Y-120015047D02*
X79208380Y-120015047D01*
X79351238Y-120110285D01*
X79446476Y-120205523D01*
X79494095Y-120300761D01*
%TO.C,D2*%
X95611904Y-113482380D02*
X95611904Y-112482380D01*
X95850000Y-112482380D01*
X95992857Y-112530000D01*
X96088095Y-112625238D01*
X96135714Y-112720476D01*
X96183333Y-112910952D01*
X96183333Y-113053809D01*
X96135714Y-113244285D01*
X96088095Y-113339523D01*
X95992857Y-113434761D01*
X95850000Y-113482380D01*
X95611904Y-113482380D01*
X96564285Y-112577619D02*
X96611904Y-112530000D01*
X96707142Y-112482380D01*
X96945238Y-112482380D01*
X97040476Y-112530000D01*
X97088095Y-112577619D01*
X97135714Y-112672857D01*
X97135714Y-112768095D01*
X97088095Y-112910952D01*
X96516666Y-113482380D01*
X97135714Y-113482380D01*
X92485714Y-111777380D02*
X91914285Y-111777380D01*
X92200000Y-111777380D02*
X92200000Y-110777380D01*
X92104761Y-110920238D01*
X92009523Y-111015476D01*
X91914285Y-111063095D01*
%TO.C,D1*%
X86861904Y-113482380D02*
X86861904Y-112482380D01*
X87100000Y-112482380D01*
X87242857Y-112530000D01*
X87338095Y-112625238D01*
X87385714Y-112720476D01*
X87433333Y-112910952D01*
X87433333Y-113053809D01*
X87385714Y-113244285D01*
X87338095Y-113339523D01*
X87242857Y-113434761D01*
X87100000Y-113482380D01*
X86861904Y-113482380D01*
X88385714Y-113482380D02*
X87814285Y-113482380D01*
X88100000Y-113482380D02*
X88100000Y-112482380D01*
X88004761Y-112625238D01*
X87909523Y-112720476D01*
X87814285Y-112768095D01*
X85121714Y-113228380D02*
X84550285Y-113228380D01*
X84836000Y-113228380D02*
X84836000Y-112228380D01*
X84740761Y-112371238D01*
X84645523Y-112466476D01*
X84550285Y-112514095D01*
%TO.C,D4*%
X112736904Y-113482380D02*
X112736904Y-112482380D01*
X112975000Y-112482380D01*
X113117857Y-112530000D01*
X113213095Y-112625238D01*
X113260714Y-112720476D01*
X113308333Y-112910952D01*
X113308333Y-113053809D01*
X113260714Y-113244285D01*
X113213095Y-113339523D01*
X113117857Y-113434761D01*
X112975000Y-113482380D01*
X112736904Y-113482380D01*
X114165476Y-112815714D02*
X114165476Y-113482380D01*
X113927380Y-112434761D02*
X113689285Y-113149047D01*
X114308333Y-113149047D01*
X109610714Y-111777380D02*
X109039285Y-111777380D01*
X109325000Y-111777380D02*
X109325000Y-110777380D01*
X109229761Y-110920238D01*
X109134523Y-111015476D01*
X109039285Y-111063095D01*
%TO.C,D7*%
X137761904Y-113228380D02*
X137761904Y-112228380D01*
X138000000Y-112228380D01*
X138142857Y-112276000D01*
X138238095Y-112371238D01*
X138285714Y-112466476D01*
X138333333Y-112656952D01*
X138333333Y-112799809D01*
X138285714Y-112990285D01*
X138238095Y-113085523D01*
X138142857Y-113180761D01*
X138000000Y-113228380D01*
X137761904Y-113228380D01*
X138666666Y-112228380D02*
X139333333Y-112228380D01*
X138904761Y-113228380D01*
X134635714Y-111777380D02*
X134064285Y-111777380D01*
X134350000Y-111777380D02*
X134350000Y-110777380D01*
X134254761Y-110920238D01*
X134159523Y-111015476D01*
X134064285Y-111063095D01*
%TO.C,D8*%
X145986904Y-113228380D02*
X145986904Y-112228380D01*
X146225000Y-112228380D01*
X146367857Y-112276000D01*
X146463095Y-112371238D01*
X146510714Y-112466476D01*
X146558333Y-112656952D01*
X146558333Y-112799809D01*
X146510714Y-112990285D01*
X146463095Y-113085523D01*
X146367857Y-113180761D01*
X146225000Y-113228380D01*
X145986904Y-113228380D01*
X147129761Y-112656952D02*
X147034523Y-112609333D01*
X146986904Y-112561714D01*
X146939285Y-112466476D01*
X146939285Y-112418857D01*
X146986904Y-112323619D01*
X147034523Y-112276000D01*
X147129761Y-112228380D01*
X147320238Y-112228380D01*
X147415476Y-112276000D01*
X147463095Y-112323619D01*
X147510714Y-112418857D01*
X147510714Y-112466476D01*
X147463095Y-112561714D01*
X147415476Y-112609333D01*
X147320238Y-112656952D01*
X147129761Y-112656952D01*
X147034523Y-112704571D01*
X146986904Y-112752190D01*
X146939285Y-112847428D01*
X146939285Y-113037904D01*
X146986904Y-113133142D01*
X147034523Y-113180761D01*
X147129761Y-113228380D01*
X147320238Y-113228380D01*
X147415476Y-113180761D01*
X147463095Y-113133142D01*
X147510714Y-113037904D01*
X147510714Y-112847428D01*
X147463095Y-112752190D01*
X147415476Y-112704571D01*
X147320238Y-112656952D01*
X142860714Y-111777380D02*
X142289285Y-111777380D01*
X142575000Y-111777380D02*
X142575000Y-110777380D01*
X142479761Y-110920238D01*
X142384523Y-111015476D01*
X142289285Y-111063095D01*
%TO.C,D9*%
X154201904Y-113482380D02*
X154201904Y-112482380D01*
X154440000Y-112482380D01*
X154582857Y-112530000D01*
X154678095Y-112625238D01*
X154725714Y-112720476D01*
X154773333Y-112910952D01*
X154773333Y-113053809D01*
X154725714Y-113244285D01*
X154678095Y-113339523D01*
X154582857Y-113434761D01*
X154440000Y-113482380D01*
X154201904Y-113482380D01*
X155249523Y-113482380D02*
X155440000Y-113482380D01*
X155535238Y-113434761D01*
X155582857Y-113387142D01*
X155678095Y-113244285D01*
X155725714Y-113053809D01*
X155725714Y-112672857D01*
X155678095Y-112577619D01*
X155630476Y-112530000D01*
X155535238Y-112482380D01*
X155344761Y-112482380D01*
X155249523Y-112530000D01*
X155201904Y-112577619D01*
X155154285Y-112672857D01*
X155154285Y-112910952D01*
X155201904Y-113006190D01*
X155249523Y-113053809D01*
X155344761Y-113101428D01*
X155535238Y-113101428D01*
X155630476Y-113053809D01*
X155678095Y-113006190D01*
X155725714Y-112910952D01*
X151110714Y-111777380D02*
X150539285Y-111777380D01*
X150825000Y-111777380D02*
X150825000Y-110777380D01*
X150729761Y-110920238D01*
X150634523Y-111015476D01*
X150539285Y-111063095D01*
D11*
%TO.C,D5*%
X118275000Y-110175000D02*
X125575000Y-110175000D01*
X125575000Y-115675000D02*
X125575000Y-114525000D01*
X118275000Y-115675000D02*
X125575000Y-115675000D01*
%TO.C,D3*%
X101300000Y-110175000D02*
X108600000Y-110175000D01*
X108600000Y-115675000D02*
X108600000Y-114525000D01*
X101300000Y-115675000D02*
X108600000Y-115675000D01*
%TO.C,D6*%
X126550000Y-110175000D02*
X133850000Y-110175000D01*
X126550000Y-115675000D02*
X133850000Y-115675000D01*
X133850000Y-115675000D02*
X133850000Y-114525000D01*
%TO.C,J2*%
X167845000Y-112745000D02*
X167845000Y-117885000D01*
X167845000Y-110145000D02*
X169175000Y-110145000D01*
X167845000Y-117885000D02*
X170505000Y-117885000D01*
X170505000Y-112745000D02*
X170505000Y-117885000D01*
X167845000Y-112745000D02*
X170505000Y-112745000D01*
X167845000Y-111475000D02*
X167845000Y-110145000D01*
%TO.C,D10*%
X159600000Y-110175000D02*
X166900000Y-110175000D01*
X166900000Y-115675000D02*
X166900000Y-114525000D01*
X159600000Y-115675000D02*
X166900000Y-115675000D01*
%TO.C,J1*%
X80500000Y-121900000D02*
X80500000Y-116350000D01*
X75300000Y-111850000D02*
X76050000Y-111850000D01*
X75000000Y-121700000D02*
X75000000Y-122950000D01*
X75300000Y-119350000D02*
X76050000Y-119350000D01*
X76050000Y-111850000D02*
X76050000Y-110050000D01*
X76050000Y-119350000D02*
X76050000Y-113350000D01*
X76050000Y-120850000D02*
X75300000Y-120850000D01*
X77550000Y-110800000D02*
X80500000Y-110800000D01*
X76050000Y-122650000D02*
X76050000Y-120850000D01*
X75300000Y-120850000D02*
X75300000Y-122650000D01*
X75300000Y-110050000D02*
X75300000Y-111850000D01*
X76050000Y-110050000D02*
X75300000Y-110050000D01*
X75300000Y-113350000D02*
X75300000Y-119350000D01*
X80500000Y-110800000D02*
X80500000Y-116350000D01*
X76050000Y-113350000D02*
X75300000Y-113350000D01*
X75300000Y-122650000D02*
X76050000Y-122650000D01*
X81260000Y-122660000D02*
X81260000Y-110040000D01*
X77550000Y-122650000D02*
X77550000Y-121900000D01*
X75290000Y-110040000D02*
X75290000Y-122660000D01*
X77550000Y-110050000D02*
X77550000Y-110800000D01*
X81260000Y-110040000D02*
X75290000Y-110040000D01*
X75000000Y-122950000D02*
X76250000Y-122950000D01*
X75290000Y-122660000D02*
X81260000Y-122660000D01*
X77550000Y-121900000D02*
X80500000Y-121900000D01*
%TO.C,D2*%
X92700000Y-110175000D02*
X100000000Y-110175000D01*
X100000000Y-115675000D02*
X100000000Y-114525000D01*
X92700000Y-115675000D02*
X100000000Y-115675000D01*
%TO.C,D1*%
X91250000Y-115700000D02*
X91250000Y-114550000D01*
X83950000Y-110200000D02*
X91250000Y-110200000D01*
X83950000Y-115700000D02*
X91250000Y-115700000D01*
%TO.C,D4*%
X109825000Y-110175000D02*
X117125000Y-110175000D01*
X117125000Y-115675000D02*
X117125000Y-114525000D01*
X109825000Y-115675000D02*
X117125000Y-115675000D01*
%TO.C,D7*%
X134850000Y-110175000D02*
X142150000Y-110175000D01*
X142150000Y-115675000D02*
X142150000Y-114525000D01*
X134850000Y-115675000D02*
X142150000Y-115675000D01*
%TO.C,D8*%
X150375000Y-115675000D02*
X150375000Y-114525000D01*
X143075000Y-110175000D02*
X150375000Y-110175000D01*
X143075000Y-115675000D02*
X150375000Y-115675000D01*
%TO.C,D9*%
X151325000Y-110175000D02*
X158625000Y-110175000D01*
X158625000Y-115675000D02*
X158625000Y-114525000D01*
X151325000Y-115675000D02*
X158625000Y-115675000D01*
%TD*%
M02*
