M48
; DRILL file {KiCad (6.0.6)} date Fri Jan 13 15:08:03 2023
; FORMAT={-:-/ absolute / metric / decimal}
; #@! TF.CreationDate,2023-01-13T15:08:03+05:30
; #@! TF.GenerationSoftware,Kicad,Pcbnew,(6.0.6)
; #@! TF.FileFunction,Plated,1,2,PTH
FMAT,2
METRIC
; #@! TA.AperFunction,Plated,PTH,ViaDrill
T1C0.300
; #@! TA.AperFunction,Plated,PTH,ViaDrill
T2C0.480
; #@! TA.AperFunction,Plated,PTH,ViaDrill
T3C0.550
; #@! TA.AperFunction,Plated,PTH,ComponentDrill
T4C0.650
; #@! TA.AperFunction,Plated,PTH,ComponentDrill
T5C0.700
; #@! TA.AperFunction,Plated,PTH,ComponentDrill
T6C0.750
; #@! TA.AperFunction,Plated,PTH,ComponentDrill
T7C0.800
; #@! TA.AperFunction,Plated,PTH,ViaDrill
T8C0.850
; #@! TA.AperFunction,Plated,PTH,ComponentDrill
T9C0.950
; #@! TA.AperFunction,Plated,PTH,ComponentDrill
T10C1.000
; #@! TA.AperFunction,Plated,PTH,ComponentDrill
T11C1.016
; #@! TA.AperFunction,Plated,PTH,ComponentDrill
T12C1.020
; #@! TA.AperFunction,Plated,PTH,ComponentDrill
T13C1.200
; #@! TA.AperFunction,Plated,PTH,ComponentDrill
T14C1.300
; #@! TA.AperFunction,Plated,PTH,ViaDrill
T15C1.400
; #@! TA.AperFunction,Plated,PTH,ComponentDrill
T16C3.700
; #@! TA.AperFunction,Plated,PTH,ComponentDrill
T17C4.300
%
G90
G05
T1
X96.475Y-129.333
X104.13Y-148.13
X115.889Y-159.052
X117.383Y-163.689
X122.496Y-82.404
X124.897Y-84.475
X126.25Y-158.75
X128.195Y-139.543
X129.589Y-188.801
X132.62Y-66.905
X135.19Y-64.991
X175.697Y-115.814
X181.805Y-192.069
X197.523Y-114.686
X198.27Y-180.257
X200.108Y-124.846
X209.794Y-85.226
X213.479Y-85.406
X217.748Y-92.062
X219.291Y-96.568
X220.346Y-226.319
X221.556Y-99.824
X228.495Y-182.213
X231.444Y-169.663
X236.709Y-173.999
X237.974Y-113.277
X238.424Y-105.358
X239.569Y-138.91
X240.28Y-139.789
X253.413Y-133.815
X255.369Y-180.119
X259.127Y-115.862
X260.749Y-139.789
X261.453Y-107.718
X261.536Y-183.23
X263.327Y-101.986
X264.156Y-127.741
X265.273Y-129.29
X266.337Y-110.559
X266.55Y-90.729
X267.337Y-138.91
X270.977Y-106.698
X271.677Y-104.526
X271.73Y-218.012
X272.696Y-105.434
X274.19Y-118.891
X274.338Y-150.044
X274.515Y-80.041
X275.139Y-121.996
X275.184Y-202.819
X275.551Y-95.444
X275.683Y-77.054
X276.14Y-210.439
X276.922Y-170.829
X276.969Y-212.979
X277.199Y-155.321
X277.346Y-135.508
X277.347Y-166.497
X277.382Y-152.781
X277.387Y-130.679
X277.516Y-200.279
X278.007Y-157.714
X278.17Y-131.981
X278.19Y-127.155
X278.44Y-195.199
X278.645Y-197.124
X279.279Y-207.166
X279.43Y-81.506
X280.547Y-77.056
X280.551Y-75.662
X281.235Y-160.401
X283.15Y-160.684
X283.584Y-76.691
X284.764Y-114.636
X284.875Y-118.288
X285.339Y-208.667
X286.137Y-120.978
X286.885Y-204.844
X287.353Y-162.456
X289.001Y-217.584
X289.329Y-175.387
X291.74Y-64.93
X298.601Y-170.18
X299.898Y-128.366
X299.926Y-211.836
X309.879Y-99.281
X320.18Y-74.93
T2
X83.034Y-100.953
X162.46Y-100.953
T3
X72.05Y-79.5
X83.1Y-197.1
X83.15Y-202.125
X83.15Y-207.1
X83.175Y-204.6
X83.2Y-199.6
X83.25Y-209.625
X83.25Y-212.075
X83.85Y-62.975
X84.0Y-73.2
X84.025Y-65.525
X84.025Y-67.975
X84.025Y-75.75
X84.05Y-78.35
X93.65Y-152.3
X94.475Y-156.575
X95.2Y-160.825
X105.175Y-162.15
X108.95Y-150.6
X121.15Y-151.575
X124.175Y-80.3
X133.925Y-79.875
X135.2Y-205.475
X135.925Y-140.8
X136.425Y-71.275
X136.75Y-147.85
X137.425Y-90.825
X137.925Y-200.075
X138.1Y-85.775
X138.25Y-88.275
X138.425Y-76.15
X138.425Y-155.125
X138.9Y-211.075
X149.575Y-206.225
X159.725Y-214.225
X159.75Y-167.125
X164.475Y-178.725
X164.65Y-199.575
X166.95Y-190.05
X171.35Y-199.6
X172.25Y-216.875
X173.425Y-183.9
X174.7Y-199.675
X176.0Y-183.875
X177.275Y-199.925
X178.525Y-184.0
X179.8Y-199.825
X182.35Y-199.55
X182.825Y-190.0
X191.125Y-94.7
X192.95Y-122.75
X197.575Y-90.425
X200.0Y-135.125
X200.5Y-215.9
X200.925Y-219.875
X203.075Y-192.45
X203.075Y-203.525
X209.85Y-78.3
X210.025Y-128.375
X212.725Y-91.8
X212.95Y-75.75
X213.875Y-100.7
X220.45Y-91.75
X223.075Y-91.625
X225.3Y-110.5
X225.625Y-91.85
X229.475Y-95.375
X233.65Y-112.275
X234.275Y-98.6
X234.45Y-133.05
X239.95Y-92.4
X240.4Y-100.45
X243.975Y-93.5
X245.925Y-107.225
X253.225Y-126.125
X255.05Y-151.725
X255.5Y-136.3
X256.675Y-143.0
X257.15Y-129.65
X258.95Y-201.075
X259.0Y-187.975
X264.575Y-133.15
X265.025Y-136.9
X266.0Y-107.25
X266.7Y-113.5
X267.525Y-86.45
X268.75Y-78.975
X269.4Y-184.225
X269.825Y-108.925
X276.2Y-63.125
X276.375Y-123.425
X276.7Y-71.25
X277.55Y-215.475
X288.625Y-125.2
X288.825Y-128.1
X289.025Y-133.2
X289.125Y-130.65
X289.825Y-210.275
X289.9Y-121.925
X289.925Y-119.45
X293.0Y-62.5
X296.875Y-158.575
X302.875Y-215.325
X302.975Y-131.9
X315.209Y-117.833
X315.325Y-201.4
X317.95Y-74.025
T4
X305.308Y-118.328
X305.308Y-119.598
X305.308Y-120.868
X305.308Y-122.138
X305.308Y-123.408
X305.308Y-124.678
X305.308Y-125.948
X305.308Y-127.218
X305.308Y-159.888
X305.308Y-161.158
X305.308Y-162.428
X305.308Y-163.698
X305.308Y-164.968
X305.308Y-166.238
X305.308Y-167.508
X305.308Y-168.778
X305.553Y-201.915
X305.553Y-203.185
X305.553Y-204.455
X305.553Y-205.725
X305.553Y-206.995
X305.553Y-208.265
X305.553Y-209.535
X305.553Y-210.805
X307.594Y-118.338
X307.594Y-119.608
X307.594Y-120.878
X307.594Y-122.148
X307.594Y-123.418
X307.594Y-124.688
X307.594Y-125.958
X307.594Y-127.228
X307.848Y-159.898
X307.848Y-161.168
X307.848Y-162.438
X307.848Y-163.708
X307.848Y-164.978
X307.848Y-166.248
X307.848Y-167.518
X307.848Y-168.788
X307.848Y-201.93
X307.848Y-203.2
X307.848Y-204.47
X307.848Y-205.74
X307.848Y-207.01
X307.848Y-208.28
X307.848Y-209.55
X307.848Y-210.82
T5
X89.662Y-117.084
X89.662Y-124.704
X102.108Y-120.894
X109.728Y-120.894
T6
X96.19Y-119.53
X96.19Y-120.8
X96.19Y-122.07
T7
X86.868Y-61.737
X86.868Y-64.277
X86.868Y-66.817
X86.868Y-69.357
X86.868Y-71.897
X86.868Y-74.437
X86.868Y-76.977
X86.868Y-79.517
X86.868Y-82.057
X87.376Y-138.953
X87.376Y-141.493
X87.376Y-144.033
X87.376Y-146.573
X87.376Y-149.113
X87.376Y-151.653
X87.376Y-154.193
X87.376Y-156.733
X87.376Y-159.273
X87.393Y-194.719
X87.393Y-197.259
X87.393Y-199.799
X87.393Y-202.339
X87.393Y-204.879
X87.393Y-207.419
X87.393Y-209.959
X87.393Y-212.499
X87.393Y-215.039
X143.225Y-69.4
X143.225Y-71.94
X143.225Y-74.48
X143.225Y-77.02
X143.225Y-79.56
X143.225Y-82.1
X143.225Y-84.64
X143.225Y-87.18
X143.225Y-89.72
X143.625Y-137.825
X143.625Y-140.365
X143.625Y-142.905
X143.625Y-145.445
X143.625Y-147.985
X143.625Y-150.525
X143.625Y-153.065
X143.625Y-155.605
X143.625Y-158.145
X144.196Y-195.557
X144.196Y-198.097
X144.196Y-200.637
X144.196Y-203.177
X144.196Y-205.717
X144.196Y-208.257
X144.196Y-210.797
X144.196Y-213.337
X144.196Y-215.877
X272.34Y-112.877
X272.34Y-115.417
X272.34Y-117.957
X272.34Y-120.497
X272.34Y-123.037
X272.34Y-125.577
X272.34Y-128.117
X272.34Y-130.657
X272.34Y-133.197
X272.593Y-61.229
X272.593Y-63.769
X272.593Y-66.309
X272.593Y-68.849
X272.593Y-71.389
X272.593Y-73.929
X272.593Y-76.469
X272.593Y-79.009
X272.593Y-81.549
X272.796Y-153.924
X272.796Y-156.464
X272.796Y-159.004
X272.796Y-161.544
X272.796Y-164.084
X272.796Y-166.624
X272.796Y-169.164
X272.796Y-171.704
X272.796Y-174.244
X272.796Y-196.342
X272.796Y-198.882
X272.796Y-201.422
X272.796Y-203.962
X272.796Y-206.502
X272.796Y-209.042
X272.796Y-211.582
X272.796Y-214.122
X272.796Y-216.662
X292.608Y-112.989
X292.608Y-115.529
X292.608Y-118.069
X292.608Y-120.609
X292.608Y-123.149
X292.608Y-125.689
X292.608Y-128.229
X292.608Y-130.769
X292.608Y-133.309
X292.608Y-153.67
X292.608Y-156.21
X292.608Y-158.75
X292.608Y-161.29
X292.608Y-163.83
X292.608Y-166.37
X292.608Y-168.91
X292.608Y-171.45
X292.608Y-173.99
X292.862Y-196.327
X292.862Y-198.867
X292.862Y-201.407
X292.862Y-203.947
X292.862Y-206.487
X292.862Y-209.027
X292.862Y-211.567
X292.862Y-214.107
X292.862Y-216.647
T8
X287.63Y-112.903
T9
X77.961Y-63.132
X77.961Y-65.632
X77.961Y-68.132
X77.961Y-70.632
X77.961Y-73.132
X77.961Y-75.632
X77.961Y-78.132
X77.961Y-80.632
X78.215Y-139.98
X78.215Y-142.48
X78.215Y-144.98
X78.215Y-147.48
X78.215Y-149.98
X78.215Y-152.48
X78.215Y-154.98
X78.215Y-157.48
X78.232Y-195.86
X78.232Y-198.36
X78.232Y-200.86
X78.232Y-203.36
X78.232Y-205.86
X78.232Y-208.36
X78.232Y-210.86
X78.232Y-213.36
X157.975Y-224.1
X159.825Y-209.082
X160.475Y-224.1
X162.325Y-209.082
X162.975Y-224.1
X164.825Y-209.082
X165.475Y-224.1
X167.325Y-209.082
X169.098Y-61.842
X169.098Y-64.342
X169.098Y-66.842
X169.098Y-69.342
X169.825Y-209.082
X172.325Y-209.082
X177.306Y-61.842
X177.306Y-64.342
X177.306Y-66.842
X177.306Y-69.342
X179.75Y-209.007
X182.25Y-209.007
X184.75Y-209.007
X185.608Y-61.842
X185.608Y-64.342
X185.608Y-66.842
X185.608Y-69.342
X186.717Y-224.354
X187.25Y-209.007
X189.217Y-224.354
X189.75Y-209.007
X191.717Y-224.354
X192.25Y-209.007
X194.217Y-224.354
X194.75Y-209.007
X196.717Y-224.354
X197.25Y-209.007
X199.75Y-209.007
X202.25Y-209.007
X204.725Y-224.071
X207.225Y-224.071
X209.725Y-224.071
X212.225Y-224.071
X220.225Y-224.0
X222.725Y-224.0
X225.225Y-224.0
X227.725Y-224.0
X247.396Y-62.022
X247.396Y-64.522
X247.396Y-67.022
X247.396Y-69.522
X252.516Y-223.774
X255.016Y-223.774
X255.524Y-62.096
X255.524Y-64.596
X255.524Y-67.096
X255.524Y-69.596
X257.516Y-223.774
X258.589Y-106.994
X258.589Y-109.494
X258.589Y-111.994
X258.589Y-114.494
X263.652Y-62.096
X263.652Y-64.596
X263.652Y-67.096
X263.652Y-69.596
X319.007Y-157.366
X319.007Y-159.866
X319.007Y-162.366
X319.007Y-164.866
X319.007Y-167.366
X319.007Y-169.866
X319.007Y-172.366
X319.007Y-174.866
X319.007Y-198.26
X319.007Y-200.76
X319.007Y-203.26
X319.007Y-205.76
X319.007Y-208.26
X319.007Y-210.76
X319.007Y-213.26
X319.007Y-215.76
X319.024Y-114.046
X319.024Y-116.546
X319.024Y-119.046
X319.024Y-121.546
X319.024Y-124.046
X319.024Y-126.546
X319.024Y-129.046
X319.024Y-131.546
T10
X80.518Y-116.596
X80.518Y-124.196
X104.14Y-115.814
X106.68Y-115.814
X174.799Y-225.116
X177.299Y-225.116
X238.76Y-67.26
X238.76Y-69.8
X257.065Y-120.964
X257.065Y-123.504
X290.576Y-61.209
X290.576Y-63.749
X314.701Y-60.198
X314.706Y-64.008
X317.241Y-60.198
X317.246Y-64.008
X323.139Y-69.85
X323.139Y-72.39
X323.139Y-74.93
X323.139Y-77.47
X323.139Y-80.01
X323.139Y-82.55
T11
X201.422Y-91.826
X201.422Y-94.366
X201.422Y-96.906
X201.422Y-99.446
X201.422Y-101.986
X201.422Y-104.526
X201.422Y-107.066
X201.422Y-109.606
X201.422Y-114.686
X201.422Y-117.226
X201.422Y-119.766
X201.422Y-122.306
X201.422Y-124.846
X201.422Y-127.386
X201.422Y-129.926
X201.422Y-132.466
X201.422Y-137.546
X201.422Y-140.086
X201.422Y-142.626
X201.422Y-145.166
X201.422Y-147.706
X201.422Y-150.246
X201.422Y-152.786
X201.422Y-155.326
X206.502Y-86.746
X206.502Y-89.286
X209.042Y-86.746
X209.042Y-89.286
X211.582Y-86.746
X211.582Y-89.286
X214.122Y-86.746
X214.122Y-89.286
X216.662Y-86.746
X216.662Y-89.286
X219.202Y-86.746
X219.202Y-89.286
X221.742Y-86.746
X221.742Y-89.286
X224.282Y-86.746
X224.282Y-89.286
X224.282Y-117.099
X224.282Y-119.639
X226.822Y-86.746
X226.822Y-89.286
X226.822Y-117.099
X226.822Y-119.639
X229.362Y-86.746
X229.362Y-89.286
X229.362Y-117.099
X229.362Y-119.639
X231.902Y-86.746
X231.902Y-89.286
X234.442Y-86.746
X234.442Y-89.286
X236.982Y-86.746
X236.982Y-89.286
X239.522Y-86.746
X239.522Y-89.286
X242.062Y-86.746
X242.062Y-89.286
X244.602Y-86.746
X244.602Y-89.286
X247.142Y-86.746
X247.142Y-89.286
X249.682Y-86.746
X249.682Y-89.286
X249.682Y-96.906
X249.682Y-99.446
X249.682Y-101.986
X249.682Y-104.526
X249.682Y-107.066
X249.682Y-109.606
X249.682Y-112.146
X249.682Y-114.686
X249.682Y-119.766
X249.682Y-122.306
X249.682Y-124.846
X249.682Y-127.386
X249.682Y-129.926
X249.682Y-132.466
X249.682Y-135.006
X249.682Y-137.546
X249.682Y-141.61
X249.682Y-144.15
X249.682Y-146.69
X249.682Y-149.23
X249.682Y-151.77
X249.682Y-154.31
X249.682Y-156.85
X249.682Y-159.39
X249.682Y-161.93
X249.682Y-164.47
T12
X159.475Y-203.045
X162.015Y-203.045
X164.555Y-203.045
X167.095Y-203.045
X169.635Y-187.805
X169.635Y-203.045
X172.175Y-187.805
X172.175Y-203.045
X174.715Y-187.805
X174.715Y-203.045
X177.255Y-187.805
X177.255Y-203.045
X179.795Y-187.805
X179.795Y-203.045
X182.335Y-187.805
X182.335Y-203.045
X184.875Y-187.805
X184.875Y-203.045
X187.415Y-187.805
X187.415Y-203.045
X189.955Y-203.045
X192.495Y-203.045
X195.035Y-203.045
X197.575Y-203.045
T13
X97.79Y-80.518
X97.79Y-85.09
X97.79Y-89.916
X97.79Y-94.488
X98.044Y-60.706
X98.044Y-66.04
X98.044Y-70.866
X98.044Y-75.692
X98.044Y-132.08
X98.044Y-136.906
X98.044Y-141.732
X98.044Y-146.558
X98.044Y-151.384
X98.044Y-156.464
X98.044Y-161.544
X98.044Y-166.37
X98.044Y-188.758
X98.044Y-193.33
X98.044Y-198.12
X98.044Y-202.946
X98.044Y-208.026
X98.044Y-212.852
X98.044Y-217.678
X98.044Y-222.758
X118.11Y-80.518
X118.11Y-85.09
X118.11Y-89.916
X118.11Y-94.488
X118.364Y-60.706
X118.364Y-66.04
X118.364Y-70.866
X118.364Y-75.692
X118.364Y-132.08
X118.364Y-136.906
X118.364Y-141.732
X118.364Y-146.558
X118.364Y-151.384
X118.364Y-156.464
X118.364Y-161.544
X118.364Y-166.37
X118.364Y-188.758
X118.364Y-193.33
X118.364Y-198.12
X118.364Y-202.946
X118.364Y-208.026
X118.364Y-212.852
X118.364Y-217.678
X118.364Y-222.758
X295.199Y-69.088
X295.199Y-73.66
X295.199Y-78.232
X295.199Y-82.804
X315.519Y-69.088
X315.519Y-73.66
X315.519Y-78.232
X315.519Y-82.804
T14
X68.326Y-61.24
X68.326Y-66.24
X68.326Y-71.24
X68.326Y-76.24
X68.326Y-81.24
X68.326Y-86.24
X68.326Y-91.24
X68.326Y-96.24
X68.326Y-133.35
X68.326Y-138.35
X68.326Y-143.35
X68.326Y-148.35
X68.326Y-153.35
X68.326Y-158.35
X68.326Y-163.35
X68.326Y-168.35
X68.326Y-185.42
X68.326Y-190.42
X68.326Y-195.42
X68.326Y-200.42
X68.326Y-205.42
X68.326Y-210.42
X68.326Y-215.42
X68.326Y-220.42
X68.885Y-104.145
X68.885Y-109.225
X68.885Y-114.305
X68.885Y-121.925
X68.885Y-127.005
X197.344Y-68.072
X202.344Y-68.072
X207.344Y-68.072
X212.344Y-68.072
X217.344Y-68.072
X222.344Y-68.072
X227.344Y-68.072
X232.344Y-68.072
X329.895Y-104.394
X329.895Y-109.394
X329.895Y-114.394
X329.895Y-119.394
X329.895Y-124.394
X329.895Y-129.394
X329.895Y-134.394
X329.895Y-139.394
X330.166Y-190.92
X330.166Y-195.92
X330.166Y-200.92
X330.166Y-205.92
X330.166Y-210.92
X330.166Y-215.92
X330.166Y-220.92
X330.166Y-225.92
X330.183Y-147.928
X330.183Y-152.928
X330.183Y-157.928
X330.183Y-162.928
X330.183Y-167.928
X330.183Y-172.928
X330.183Y-177.928
X330.183Y-182.928
X330.2Y-63.754
X330.2Y-68.834
X330.2Y-73.914
X330.2Y-78.994
X330.2Y-84.074
X330.2Y-89.154
T15
X196.775Y-140.475
X233.978Y-72.463
T16
X157.75Y-67.35
T17
X82.3Y-96.012
X82.3Y-223.0
X305.816Y-223.0
X330.454Y-96.774
T0
M30
