%TF.GenerationSoftware,KiCad,Pcbnew,(6.0.6)*%
%TF.CreationDate,2023-01-13T15:08:00+05:30*%
%TF.ProjectId,MegaController,4d656761-436f-46e7-9472-6f6c6c65722e,V2.0*%
%TF.SameCoordinates,Original*%
%TF.FileFunction,Legend,Bot*%
%TF.FilePolarity,Positive*%
%FSLAX46Y46*%
G04 Gerber Fmt 4.6, Leading zero omitted, Abs format (unit mm)*
G04 Created by KiCad (PCBNEW (6.0.6)) date 2023-01-13 15:08:00*
%MOMM*%
%LPD*%
G01*
G04 APERTURE LIST*
%ADD10C,0.150000*%
%ADD11C,0.300000*%
%ADD12C,0.500000*%
%ADD13C,0.400000*%
%ADD14C,0.800000*%
%ADD15C,0.075000*%
%ADD16C,0.120000*%
G04 APERTURE END LIST*
D10*
X192238380Y-134310857D02*
X192238380Y-133834666D01*
X192714571Y-133787047D01*
X192666952Y-133834666D01*
X192619333Y-133929904D01*
X192619333Y-134168000D01*
X192666952Y-134263238D01*
X192714571Y-134310857D01*
X192809809Y-134358476D01*
X193047904Y-134358476D01*
X193143142Y-134310857D01*
X193190761Y-134263238D01*
X193238380Y-134168000D01*
X193238380Y-133929904D01*
X193190761Y-133834666D01*
X193143142Y-133787047D01*
X192571714Y-134691809D02*
X193238380Y-134929904D01*
X192571714Y-135168000D01*
X193190761Y-136263238D02*
X193238380Y-136406095D01*
X193238380Y-136644190D01*
X193190761Y-136739428D01*
X193143142Y-136787047D01*
X193047904Y-136834666D01*
X192952666Y-136834666D01*
X192857428Y-136787047D01*
X192809809Y-136739428D01*
X192762190Y-136644190D01*
X192714571Y-136453714D01*
X192666952Y-136358476D01*
X192619333Y-136310857D01*
X192524095Y-136263238D01*
X192428857Y-136263238D01*
X192333619Y-136310857D01*
X192286000Y-136358476D01*
X192238380Y-136453714D01*
X192238380Y-136691809D01*
X192286000Y-136834666D01*
X192238380Y-137263238D02*
X193047904Y-137263238D01*
X193143142Y-137310857D01*
X193190761Y-137358476D01*
X193238380Y-137453714D01*
X193238380Y-137644190D01*
X193190761Y-137739428D01*
X193143142Y-137787047D01*
X193047904Y-137834666D01*
X192238380Y-137834666D01*
X193238380Y-138310857D02*
X192238380Y-138310857D01*
X192238380Y-138691809D01*
X192286000Y-138787047D01*
X192333619Y-138834666D01*
X192428857Y-138882285D01*
X192571714Y-138882285D01*
X192666952Y-138834666D01*
X192714571Y-138787047D01*
X192762190Y-138691809D01*
X192762190Y-138310857D01*
X193238380Y-139310857D02*
X192238380Y-139310857D01*
X192238380Y-139691809D01*
X192286000Y-139787047D01*
X192333619Y-139834666D01*
X192428857Y-139882285D01*
X192571714Y-139882285D01*
X192666952Y-139834666D01*
X192714571Y-139787047D01*
X192762190Y-139691809D01*
X192762190Y-139310857D01*
X193238380Y-140787047D02*
X193238380Y-140310857D01*
X192238380Y-140310857D01*
X192762190Y-141310857D02*
X193238380Y-141310857D01*
X192238380Y-140977523D02*
X192762190Y-141310857D01*
X192238380Y-141644190D01*
D11*
X183505142Y-230437428D02*
X183505142Y-230080285D01*
X183148000Y-230223142D02*
X183505142Y-230080285D01*
X183862285Y-230223142D01*
X183290857Y-229794571D02*
X183505142Y-230080285D01*
X183719428Y-229794571D01*
X186219428Y-228937428D02*
X186219428Y-230437428D01*
X186219428Y-229008857D02*
X186076571Y-228937428D01*
X185790857Y-228937428D01*
X185648000Y-229008857D01*
X185576571Y-229080285D01*
X185505142Y-229223142D01*
X185505142Y-229651714D01*
X185576571Y-229794571D01*
X185648000Y-229866000D01*
X185790857Y-229937428D01*
X186076571Y-229937428D01*
X186219428Y-229866000D01*
X187505142Y-229008857D02*
X187362285Y-228937428D01*
X187076571Y-228937428D01*
X186933714Y-229008857D01*
X186862285Y-229151714D01*
X186862285Y-229723142D01*
X186933714Y-229866000D01*
X187076571Y-229937428D01*
X187362285Y-229937428D01*
X187505142Y-229866000D01*
X187576571Y-229723142D01*
X187576571Y-229580285D01*
X186862285Y-229437428D01*
X188219428Y-229937428D02*
X188219428Y-228937428D01*
X188219428Y-229794571D02*
X188290857Y-229866000D01*
X188433714Y-229937428D01*
X188648000Y-229937428D01*
X188790857Y-229866000D01*
X188862285Y-229723142D01*
X188862285Y-228937428D01*
X189790857Y-228937428D02*
X189648000Y-229008857D01*
X189576571Y-229080285D01*
X189505142Y-229223142D01*
X189505142Y-229651714D01*
X189576571Y-229794571D01*
X189648000Y-229866000D01*
X189790857Y-229937428D01*
X190005142Y-229937428D01*
X190148000Y-229866000D01*
X190219428Y-229794571D01*
X190290857Y-229651714D01*
X190290857Y-229223142D01*
X190219428Y-229080285D01*
X190148000Y-229008857D01*
X190005142Y-228937428D01*
X189790857Y-228937428D01*
X190719428Y-229937428D02*
X191290857Y-229937428D01*
X190933714Y-230437428D02*
X190933714Y-229151714D01*
X191005142Y-229008857D01*
X191148000Y-228937428D01*
X191290857Y-228937428D01*
X192362285Y-229008857D02*
X192219428Y-228937428D01*
X191933714Y-228937428D01*
X191790857Y-229008857D01*
X191719428Y-229151714D01*
X191719428Y-229723142D01*
X191790857Y-229866000D01*
X191933714Y-229937428D01*
X192219428Y-229937428D01*
X192362285Y-229866000D01*
X192433714Y-229723142D01*
X192433714Y-229580285D01*
X191719428Y-229437428D01*
X193005142Y-229008857D02*
X193148000Y-228937428D01*
X193433714Y-228937428D01*
X193576571Y-229008857D01*
X193648000Y-229151714D01*
X193648000Y-229223142D01*
X193576571Y-229366000D01*
X193433714Y-229437428D01*
X193219428Y-229437428D01*
X193076571Y-229508857D01*
X193005142Y-229651714D01*
X193005142Y-229723142D01*
X193076571Y-229866000D01*
X193219428Y-229937428D01*
X193433714Y-229937428D01*
X193576571Y-229866000D01*
X195433714Y-229937428D02*
X195433714Y-228937428D01*
X195433714Y-229794571D02*
X195505142Y-229866000D01*
X195648000Y-229937428D01*
X195862285Y-229937428D01*
X196005142Y-229866000D01*
X196076571Y-229723142D01*
X196076571Y-228937428D01*
X197005142Y-228937428D02*
X196862285Y-229008857D01*
X196790857Y-229080285D01*
X196719428Y-229223142D01*
X196719428Y-229651714D01*
X196790857Y-229794571D01*
X196862285Y-229866000D01*
X197005142Y-229937428D01*
X197219428Y-229937428D01*
X197362285Y-229866000D01*
X197433714Y-229794571D01*
X197505142Y-229651714D01*
X197505142Y-229223142D01*
X197433714Y-229080285D01*
X197362285Y-229008857D01*
X197219428Y-228937428D01*
X197005142Y-228937428D01*
X198148000Y-229937428D02*
X198148000Y-228937428D01*
X198148000Y-229794571D02*
X198219428Y-229866000D01*
X198362285Y-229937428D01*
X198576571Y-229937428D01*
X198719428Y-229866000D01*
X198790857Y-229723142D01*
X198790857Y-228937428D01*
X199505142Y-229508857D02*
X200648000Y-229508857D01*
X201362285Y-228937428D02*
X201362285Y-230437428D01*
X202005142Y-229008857D02*
X202148000Y-228937428D01*
X202433714Y-228937428D01*
X202576571Y-229008857D01*
X202648000Y-229151714D01*
X202648000Y-229223142D01*
X202576571Y-229366000D01*
X202433714Y-229437428D01*
X202219428Y-229437428D01*
X202076571Y-229508857D01*
X202005142Y-229651714D01*
X202005142Y-229723142D01*
X202076571Y-229866000D01*
X202219428Y-229937428D01*
X202433714Y-229937428D01*
X202576571Y-229866000D01*
X203505142Y-228937428D02*
X203362285Y-229008857D01*
X203290857Y-229080285D01*
X203219428Y-229223142D01*
X203219428Y-229651714D01*
X203290857Y-229794571D01*
X203362285Y-229866000D01*
X203505142Y-229937428D01*
X203719428Y-229937428D01*
X203862285Y-229866000D01*
X203933714Y-229794571D01*
X204005142Y-229651714D01*
X204005142Y-229223142D01*
X203933714Y-229080285D01*
X203862285Y-229008857D01*
X203719428Y-228937428D01*
X203505142Y-228937428D01*
X204862285Y-228937428D02*
X204719428Y-229008857D01*
X204648000Y-229151714D01*
X204648000Y-230437428D01*
X206076571Y-228937428D02*
X206076571Y-229723142D01*
X206005142Y-229866000D01*
X205862285Y-229937428D01*
X205576571Y-229937428D01*
X205433714Y-229866000D01*
X206076571Y-229008857D02*
X205933714Y-228937428D01*
X205576571Y-228937428D01*
X205433714Y-229008857D01*
X205362285Y-229151714D01*
X205362285Y-229294571D01*
X205433714Y-229437428D01*
X205576571Y-229508857D01*
X205933714Y-229508857D01*
X206076571Y-229580285D01*
X206576571Y-229937428D02*
X207148000Y-229937428D01*
X206790857Y-230437428D02*
X206790857Y-229151714D01*
X206862285Y-229008857D01*
X207005142Y-228937428D01*
X207148000Y-228937428D01*
X208219428Y-229008857D02*
X208076571Y-228937428D01*
X207790857Y-228937428D01*
X207648000Y-229008857D01*
X207576571Y-229151714D01*
X207576571Y-229723142D01*
X207648000Y-229866000D01*
X207790857Y-229937428D01*
X208076571Y-229937428D01*
X208219428Y-229866000D01*
X208290857Y-229723142D01*
X208290857Y-229580285D01*
X207576571Y-229437428D01*
X209576571Y-228937428D02*
X209576571Y-230437428D01*
X209576571Y-229008857D02*
X209433714Y-228937428D01*
X209148000Y-228937428D01*
X209005142Y-229008857D01*
X208933714Y-229080285D01*
X208862285Y-229223142D01*
X208862285Y-229651714D01*
X208933714Y-229794571D01*
X209005142Y-229866000D01*
X209148000Y-229937428D01*
X209433714Y-229937428D01*
X209576571Y-229866000D01*
X211433714Y-228937428D02*
X211433714Y-230437428D01*
X213219428Y-230508857D02*
X211933714Y-228580285D01*
X214005142Y-230437428D02*
X214290857Y-230437428D01*
X214433714Y-230366000D01*
X214576571Y-230223142D01*
X214648000Y-229937428D01*
X214648000Y-229437428D01*
X214576571Y-229151714D01*
X214433714Y-229008857D01*
X214290857Y-228937428D01*
X214005142Y-228937428D01*
X213862285Y-229008857D01*
X213719428Y-229151714D01*
X213648000Y-229437428D01*
X213648000Y-229937428D01*
X213719428Y-230223142D01*
X213862285Y-230366000D01*
X214005142Y-230437428D01*
X215362285Y-230437428D02*
X215219428Y-230151714D01*
X215933714Y-229008857D02*
X216076571Y-228937428D01*
X216362285Y-228937428D01*
X216505142Y-229008857D01*
X216576571Y-229151714D01*
X216576571Y-229223142D01*
X216505142Y-229366000D01*
X216362285Y-229437428D01*
X216148000Y-229437428D01*
X216005142Y-229508857D01*
X215933714Y-229651714D01*
X215933714Y-229723142D01*
X216005142Y-229866000D01*
X216148000Y-229937428D01*
X216362285Y-229937428D01*
X216505142Y-229866000D01*
X194650428Y-226640000D02*
X194293285Y-226640000D01*
X194436142Y-226997142D02*
X194293285Y-226640000D01*
X194436142Y-226282857D01*
X194007571Y-226854285D02*
X194293285Y-226640000D01*
X194007571Y-226425714D01*
D12*
X335673047Y-158545428D02*
X335673047Y-159735904D01*
X338173047Y-159735904D01*
X338173047Y-157235904D02*
X338173047Y-156759714D01*
X338054000Y-156521619D01*
X337815904Y-156283523D01*
X337339714Y-156164476D01*
X336506380Y-156164476D01*
X336030190Y-156283523D01*
X335792095Y-156521619D01*
X335673047Y-156759714D01*
X335673047Y-157235904D01*
X335792095Y-157474000D01*
X336030190Y-157712095D01*
X336506380Y-157831142D01*
X337339714Y-157831142D01*
X337815904Y-157712095D01*
X338054000Y-157474000D01*
X338173047Y-157235904D01*
X336387333Y-155212095D02*
X336387333Y-154021619D01*
X335673047Y-155450190D02*
X338173047Y-154616857D01*
X335673047Y-153783523D01*
X335673047Y-152950190D02*
X338173047Y-152950190D01*
X338173047Y-152354952D01*
X338054000Y-151997809D01*
X337815904Y-151759714D01*
X337577809Y-151640666D01*
X337101619Y-151521619D01*
X336744476Y-151521619D01*
X336268285Y-151640666D01*
X336030190Y-151759714D01*
X335792095Y-151997809D01*
X335673047Y-152354952D01*
X335673047Y-152950190D01*
X335911142Y-147116857D02*
X335792095Y-147235904D01*
X335673047Y-147593047D01*
X335673047Y-147831142D01*
X335792095Y-148188285D01*
X336030190Y-148426380D01*
X336268285Y-148545428D01*
X336744476Y-148664476D01*
X337101619Y-148664476D01*
X337577809Y-148545428D01*
X337815904Y-148426380D01*
X338054000Y-148188285D01*
X338173047Y-147831142D01*
X338173047Y-147593047D01*
X338054000Y-147235904D01*
X337934952Y-147116857D01*
X338173047Y-145569238D02*
X338173047Y-145093047D01*
X338054000Y-144854952D01*
X337815904Y-144616857D01*
X337339714Y-144497809D01*
X336506380Y-144497809D01*
X336030190Y-144616857D01*
X335792095Y-144854952D01*
X335673047Y-145093047D01*
X335673047Y-145569238D01*
X335792095Y-145807333D01*
X336030190Y-146045428D01*
X336506380Y-146164476D01*
X337339714Y-146164476D01*
X337815904Y-146045428D01*
X338054000Y-145807333D01*
X338173047Y-145569238D01*
X335673047Y-143426380D02*
X338173047Y-143426380D01*
X335673047Y-141997809D01*
X338173047Y-141997809D01*
X338173047Y-141164476D02*
X338173047Y-139735904D01*
X335673047Y-140450190D02*
X338173047Y-140450190D01*
X335673047Y-137474000D02*
X336863523Y-138307333D01*
X335673047Y-138902571D02*
X338173047Y-138902571D01*
X338173047Y-137950190D01*
X338054000Y-137712095D01*
X337934952Y-137593047D01*
X337696857Y-137474000D01*
X337339714Y-137474000D01*
X337101619Y-137593047D01*
X336982571Y-137712095D01*
X336863523Y-137950190D01*
X336863523Y-138902571D01*
X338173047Y-135926380D02*
X338173047Y-135450190D01*
X338054000Y-135212095D01*
X337815904Y-134974000D01*
X337339714Y-134854952D01*
X336506380Y-134854952D01*
X336030190Y-134974000D01*
X335792095Y-135212095D01*
X335673047Y-135450190D01*
X335673047Y-135926380D01*
X335792095Y-136164476D01*
X336030190Y-136402571D01*
X336506380Y-136521619D01*
X337339714Y-136521619D01*
X337815904Y-136402571D01*
X338054000Y-136164476D01*
X338173047Y-135926380D01*
X335673047Y-132593047D02*
X335673047Y-133783523D01*
X338173047Y-133783523D01*
X335792095Y-129974000D02*
X335673047Y-129616857D01*
X335673047Y-129021619D01*
X335792095Y-128783523D01*
X335911142Y-128664476D01*
X336149238Y-128545428D01*
X336387333Y-128545428D01*
X336625428Y-128664476D01*
X336744476Y-128783523D01*
X336863523Y-129021619D01*
X336982571Y-129497809D01*
X337101619Y-129735904D01*
X337220666Y-129854952D01*
X337458761Y-129974000D01*
X337696857Y-129974000D01*
X337934952Y-129854952D01*
X338054000Y-129735904D01*
X338173047Y-129497809D01*
X338173047Y-128902571D01*
X338054000Y-128545428D01*
X335673047Y-127474000D02*
X338173047Y-127474000D01*
X335673047Y-126283523D02*
X338173047Y-126283523D01*
X338173047Y-125688285D01*
X338054000Y-125331142D01*
X337815904Y-125093047D01*
X337577809Y-124974000D01*
X337101619Y-124854952D01*
X336744476Y-124854952D01*
X336268285Y-124974000D01*
X336030190Y-125093047D01*
X335792095Y-125331142D01*
X335673047Y-125688285D01*
X335673047Y-126283523D01*
X336982571Y-123783523D02*
X336982571Y-122950190D01*
X335673047Y-122593047D02*
X335673047Y-123783523D01*
X338173047Y-123783523D01*
X338173047Y-122593047D01*
X166944047Y-168563095D02*
X164444047Y-167729761D01*
X166944047Y-166896428D01*
X165753571Y-166063095D02*
X165753571Y-165229761D01*
X164444047Y-164872619D02*
X164444047Y-166063095D01*
X166944047Y-166063095D01*
X166944047Y-164872619D01*
X164444047Y-162372619D02*
X165634523Y-163205952D01*
X164444047Y-163801190D02*
X166944047Y-163801190D01*
X166944047Y-162848809D01*
X166825000Y-162610714D01*
X166705952Y-162491666D01*
X166467857Y-162372619D01*
X166110714Y-162372619D01*
X165872619Y-162491666D01*
X165753571Y-162610714D01*
X165634523Y-162848809D01*
X165634523Y-163801190D01*
X164444047Y-161301190D02*
X166944047Y-161301190D01*
X165753571Y-159277380D02*
X165753571Y-160110714D01*
X164444047Y-160110714D02*
X166944047Y-160110714D01*
X166944047Y-158920238D01*
X165634523Y-157491666D02*
X164444047Y-157491666D01*
X166944047Y-158325000D02*
X165634523Y-157491666D01*
X166944047Y-156658333D01*
X166825000Y-154515476D02*
X166944047Y-154753571D01*
X166944047Y-155110714D01*
X166825000Y-155467857D01*
X166586904Y-155705952D01*
X166348809Y-155825000D01*
X165872619Y-155944047D01*
X165515476Y-155944047D01*
X165039285Y-155825000D01*
X164801190Y-155705952D01*
X164563095Y-155467857D01*
X164444047Y-155110714D01*
X164444047Y-154872619D01*
X164563095Y-154515476D01*
X164682142Y-154396428D01*
X165515476Y-154396428D01*
X165515476Y-154872619D01*
X164444047Y-153325000D02*
X166944047Y-153325000D01*
X164444047Y-151896428D01*
X166944047Y-151896428D01*
X166944047Y-151063095D02*
X166944047Y-149634523D01*
X164444047Y-150348809D02*
X166944047Y-150348809D01*
X165753571Y-148801190D02*
X165753571Y-147967857D01*
X164444047Y-147610714D02*
X164444047Y-148801190D01*
X166944047Y-148801190D01*
X166944047Y-147610714D01*
X164682142Y-145110714D02*
X164563095Y-145229761D01*
X164444047Y-145586904D01*
X164444047Y-145825000D01*
X164563095Y-146182142D01*
X164801190Y-146420238D01*
X165039285Y-146539285D01*
X165515476Y-146658333D01*
X165872619Y-146658333D01*
X166348809Y-146539285D01*
X166586904Y-146420238D01*
X166825000Y-146182142D01*
X166944047Y-145825000D01*
X166944047Y-145586904D01*
X166825000Y-145229761D01*
X166705952Y-145110714D01*
X164444047Y-144039285D02*
X166944047Y-144039285D01*
X165753571Y-144039285D02*
X165753571Y-142610714D01*
X164444047Y-142610714D02*
X166944047Y-142610714D01*
X164444047Y-139515476D02*
X166944047Y-139515476D01*
X166944047Y-138563095D01*
X166825000Y-138325000D01*
X166705952Y-138205952D01*
X166467857Y-138086904D01*
X166110714Y-138086904D01*
X165872619Y-138205952D01*
X165753571Y-138325000D01*
X165634523Y-138563095D01*
X165634523Y-139515476D01*
X166944047Y-137372619D02*
X164444047Y-136539285D01*
X166944047Y-135705952D01*
X166944047Y-135229761D02*
X166944047Y-133801190D01*
X164444047Y-134515476D02*
X166944047Y-134515476D01*
X164682142Y-132967857D02*
X164563095Y-132848809D01*
X164444047Y-132967857D01*
X164563095Y-133086904D01*
X164682142Y-132967857D01*
X164444047Y-132967857D01*
X164444047Y-128682142D02*
X164444047Y-129872619D01*
X166944047Y-129872619D01*
X166944047Y-128205952D02*
X166944047Y-126777380D01*
X164444047Y-127491666D02*
X166944047Y-127491666D01*
X164444047Y-125944047D02*
X166944047Y-125944047D01*
X166944047Y-125348809D01*
X166825000Y-124991666D01*
X166586904Y-124753571D01*
X166348809Y-124634523D01*
X165872619Y-124515476D01*
X165515476Y-124515476D01*
X165039285Y-124634523D01*
X164801190Y-124753571D01*
X164563095Y-124991666D01*
X164444047Y-125348809D01*
X164444047Y-125944047D01*
X164682142Y-123444047D02*
X164563095Y-123325000D01*
X164444047Y-123444047D01*
X164563095Y-123563095D01*
X164682142Y-123444047D01*
X164444047Y-123444047D01*
D11*
X255429428Y-225823000D02*
X255072285Y-225823000D01*
X255215142Y-226180142D02*
X255072285Y-225823000D01*
X255215142Y-225465857D01*
X254786571Y-226037285D02*
X255072285Y-225823000D01*
X254786571Y-225608714D01*
D13*
X160352238Y-162491857D02*
X162352238Y-162491857D01*
X162352238Y-161729952D01*
X162257000Y-161539476D01*
X162161761Y-161444238D01*
X161971285Y-161349000D01*
X161685571Y-161349000D01*
X161495095Y-161444238D01*
X161399857Y-161539476D01*
X161304619Y-161729952D01*
X161304619Y-162491857D01*
X160542714Y-159349000D02*
X160447476Y-159444238D01*
X160352238Y-159729952D01*
X160352238Y-159920428D01*
X160447476Y-160206142D01*
X160637952Y-160396619D01*
X160828428Y-160491857D01*
X161209380Y-160587095D01*
X161495095Y-160587095D01*
X161876047Y-160491857D01*
X162066523Y-160396619D01*
X162257000Y-160206142D01*
X162352238Y-159920428D01*
X162352238Y-159729952D01*
X162257000Y-159444238D01*
X162161761Y-159349000D01*
X161399857Y-157825190D02*
X161304619Y-157539476D01*
X161209380Y-157444238D01*
X161018904Y-157349000D01*
X160733190Y-157349000D01*
X160542714Y-157444238D01*
X160447476Y-157539476D01*
X160352238Y-157729952D01*
X160352238Y-158491857D01*
X162352238Y-158491857D01*
X162352238Y-157825190D01*
X162257000Y-157634714D01*
X162161761Y-157539476D01*
X161971285Y-157444238D01*
X161780809Y-157444238D01*
X161590333Y-157539476D01*
X161495095Y-157634714D01*
X161399857Y-157825190D01*
X161399857Y-158491857D01*
X160352238Y-154968047D02*
X162352238Y-154968047D01*
X160352238Y-154015666D02*
X162352238Y-154015666D01*
X162352238Y-153539476D01*
X162257000Y-153253761D01*
X162066523Y-153063285D01*
X161876047Y-152968047D01*
X161495095Y-152872809D01*
X161209380Y-152872809D01*
X160828428Y-152968047D01*
X160637952Y-153063285D01*
X160447476Y-153253761D01*
X160352238Y-153539476D01*
X160352238Y-154015666D01*
X161114142Y-150491857D02*
X161114142Y-148968047D01*
X160352238Y-145444238D02*
X160352238Y-146587095D01*
X160352238Y-146015666D02*
X162352238Y-146015666D01*
X162066523Y-146206142D01*
X161876047Y-146396619D01*
X161780809Y-146587095D01*
X160352238Y-143539476D02*
X160352238Y-144682333D01*
X160352238Y-144110904D02*
X162352238Y-144110904D01*
X162066523Y-144301380D01*
X161876047Y-144491857D01*
X161780809Y-144682333D01*
X162352238Y-142301380D02*
X162352238Y-142110904D01*
X162257000Y-141920428D01*
X162161761Y-141825190D01*
X161971285Y-141729952D01*
X161590333Y-141634714D01*
X161114142Y-141634714D01*
X160733190Y-141729952D01*
X160542714Y-141825190D01*
X160447476Y-141920428D01*
X160352238Y-142110904D01*
X160352238Y-142301380D01*
X160447476Y-142491857D01*
X160542714Y-142587095D01*
X160733190Y-142682333D01*
X161114142Y-142777571D01*
X161590333Y-142777571D01*
X161971285Y-142682333D01*
X162161761Y-142587095D01*
X162257000Y-142491857D01*
X162352238Y-142301380D01*
X160352238Y-139729952D02*
X160352238Y-140872809D01*
X160352238Y-140301380D02*
X162352238Y-140301380D01*
X162066523Y-140491857D01*
X161876047Y-140682333D01*
X161780809Y-140872809D01*
X162161761Y-138968047D02*
X162257000Y-138872809D01*
X162352238Y-138682333D01*
X162352238Y-138206142D01*
X162257000Y-138015666D01*
X162161761Y-137920428D01*
X161971285Y-137825190D01*
X161780809Y-137825190D01*
X161495095Y-137920428D01*
X160352238Y-139063285D01*
X160352238Y-137825190D01*
X162352238Y-136587095D02*
X162352238Y-136396619D01*
X162257000Y-136206142D01*
X162161761Y-136110904D01*
X161971285Y-136015666D01*
X161590333Y-135920428D01*
X161114142Y-135920428D01*
X160733190Y-136015666D01*
X160542714Y-136110904D01*
X160447476Y-136206142D01*
X160352238Y-136396619D01*
X160352238Y-136587095D01*
X160447476Y-136777571D01*
X160542714Y-136872809D01*
X160733190Y-136968047D01*
X161114142Y-137063285D01*
X161590333Y-137063285D01*
X161971285Y-136968047D01*
X162161761Y-136872809D01*
X162257000Y-136777571D01*
X162352238Y-136587095D01*
X162161761Y-135158523D02*
X162257000Y-135063285D01*
X162352238Y-134872809D01*
X162352238Y-134396619D01*
X162257000Y-134206142D01*
X162161761Y-134110904D01*
X161971285Y-134015666D01*
X161780809Y-134015666D01*
X161495095Y-134110904D01*
X160352238Y-135253761D01*
X160352238Y-134015666D01*
X162352238Y-133349000D02*
X162352238Y-132110904D01*
X161590333Y-132777571D01*
X161590333Y-132491857D01*
X161495095Y-132301380D01*
X161399857Y-132206142D01*
X161209380Y-132110904D01*
X160733190Y-132110904D01*
X160542714Y-132206142D01*
X160447476Y-132301380D01*
X160352238Y-132491857D01*
X160352238Y-133063285D01*
X160447476Y-133253761D01*
X160542714Y-133349000D01*
D11*
X210243428Y-226132000D02*
X209886285Y-226132000D01*
X210029142Y-226489142D02*
X209886285Y-226132000D01*
X210029142Y-225774857D01*
X209600571Y-226346285D02*
X209886285Y-226132000D01*
X209600571Y-225917714D01*
X158328428Y-226894000D02*
X157971285Y-226894000D01*
X158114142Y-227251142D02*
X157971285Y-226894000D01*
X158114142Y-226536857D01*
X157685571Y-227108285D02*
X157971285Y-226894000D01*
X157685571Y-226679714D01*
D12*
X60083047Y-180896476D02*
X62583047Y-180896476D01*
X60083047Y-179706000D02*
X62583047Y-179706000D01*
X60083047Y-178277428D01*
X62583047Y-178277428D01*
X60083047Y-177086952D02*
X62583047Y-177086952D01*
X62583047Y-176134571D01*
X62464000Y-175896476D01*
X62344952Y-175777428D01*
X62106857Y-175658380D01*
X61749714Y-175658380D01*
X61511619Y-175777428D01*
X61392571Y-175896476D01*
X61273523Y-176134571D01*
X61273523Y-177086952D01*
X62583047Y-174586952D02*
X60559238Y-174586952D01*
X60321142Y-174467904D01*
X60202095Y-174348857D01*
X60083047Y-174110761D01*
X60083047Y-173634571D01*
X60202095Y-173396476D01*
X60321142Y-173277428D01*
X60559238Y-173158380D01*
X62583047Y-173158380D01*
X62583047Y-172325047D02*
X62583047Y-170896476D01*
X60083047Y-171610761D02*
X62583047Y-171610761D01*
X62702095Y-168277428D02*
X59487809Y-170420285D01*
X60202095Y-167563142D02*
X60083047Y-167206000D01*
X60083047Y-166610761D01*
X60202095Y-166372666D01*
X60321142Y-166253619D01*
X60559238Y-166134571D01*
X60797333Y-166134571D01*
X61035428Y-166253619D01*
X61154476Y-166372666D01*
X61273523Y-166610761D01*
X61392571Y-167086952D01*
X61511619Y-167325047D01*
X61630666Y-167444095D01*
X61868761Y-167563142D01*
X62106857Y-167563142D01*
X62344952Y-167444095D01*
X62464000Y-167325047D01*
X62583047Y-167086952D01*
X62583047Y-166491714D01*
X62464000Y-166134571D01*
X60202095Y-164110761D02*
X60083047Y-164348857D01*
X60083047Y-164825047D01*
X60202095Y-165063142D01*
X60440190Y-165182190D01*
X61392571Y-165182190D01*
X61630666Y-165063142D01*
X61749714Y-164825047D01*
X61749714Y-164348857D01*
X61630666Y-164110761D01*
X61392571Y-163991714D01*
X61154476Y-163991714D01*
X60916380Y-165182190D01*
X61749714Y-162920285D02*
X60083047Y-162920285D01*
X61511619Y-162920285D02*
X61630666Y-162801238D01*
X61749714Y-162563142D01*
X61749714Y-162206000D01*
X61630666Y-161967904D01*
X61392571Y-161848857D01*
X60083047Y-161848857D01*
X60202095Y-160777428D02*
X60083047Y-160539333D01*
X60083047Y-160063142D01*
X60202095Y-159825047D01*
X60440190Y-159706000D01*
X60559238Y-159706000D01*
X60797333Y-159825047D01*
X60916380Y-160063142D01*
X60916380Y-160420285D01*
X61035428Y-160658380D01*
X61273523Y-160777428D01*
X61392571Y-160777428D01*
X61630666Y-160658380D01*
X61749714Y-160420285D01*
X61749714Y-160063142D01*
X61630666Y-159825047D01*
X60083047Y-158277428D02*
X60202095Y-158515523D01*
X60321142Y-158634571D01*
X60559238Y-158753619D01*
X61273523Y-158753619D01*
X61511619Y-158634571D01*
X61630666Y-158515523D01*
X61749714Y-158277428D01*
X61749714Y-157920285D01*
X61630666Y-157682190D01*
X61511619Y-157563142D01*
X61273523Y-157444095D01*
X60559238Y-157444095D01*
X60321142Y-157563142D01*
X60202095Y-157682190D01*
X60083047Y-157920285D01*
X60083047Y-158277428D01*
X60083047Y-156372666D02*
X61749714Y-156372666D01*
X61273523Y-156372666D02*
X61511619Y-156253619D01*
X61630666Y-156134571D01*
X61749714Y-155896476D01*
X61749714Y-155658380D01*
X60202095Y-153039333D02*
X60083047Y-152682190D01*
X60083047Y-152086952D01*
X60202095Y-151848857D01*
X60321142Y-151729809D01*
X60559238Y-151610761D01*
X60797333Y-151610761D01*
X61035428Y-151729809D01*
X61154476Y-151848857D01*
X61273523Y-152086952D01*
X61392571Y-152563142D01*
X61511619Y-152801238D01*
X61630666Y-152920285D01*
X61868761Y-153039333D01*
X62106857Y-153039333D01*
X62344952Y-152920285D01*
X62464000Y-152801238D01*
X62583047Y-152563142D01*
X62583047Y-151967904D01*
X62464000Y-151610761D01*
X60083047Y-150539333D02*
X62583047Y-150539333D01*
X62464000Y-148039333D02*
X62583047Y-148277428D01*
X62583047Y-148634571D01*
X62464000Y-148991714D01*
X62225904Y-149229809D01*
X61987809Y-149348857D01*
X61511619Y-149467904D01*
X61154476Y-149467904D01*
X60678285Y-149348857D01*
X60440190Y-149229809D01*
X60202095Y-148991714D01*
X60083047Y-148634571D01*
X60083047Y-148396476D01*
X60202095Y-148039333D01*
X60321142Y-147920285D01*
X61154476Y-147920285D01*
X61154476Y-148396476D01*
X60083047Y-146848857D02*
X62583047Y-146848857D01*
X60083047Y-145420285D01*
X62583047Y-145420285D01*
X60797333Y-144348857D02*
X60797333Y-143158380D01*
X60083047Y-144586952D02*
X62583047Y-143753619D01*
X60083047Y-142920285D01*
X60083047Y-140896476D02*
X60083047Y-142086952D01*
X62583047Y-142086952D01*
X60202095Y-138277428D02*
X60083047Y-137920285D01*
X60083047Y-137325047D01*
X60202095Y-137086952D01*
X60321142Y-136967904D01*
X60559238Y-136848857D01*
X60797333Y-136848857D01*
X61035428Y-136967904D01*
X61154476Y-137086952D01*
X61273523Y-137325047D01*
X61392571Y-137801238D01*
X61511619Y-138039333D01*
X61630666Y-138158380D01*
X61868761Y-138277428D01*
X62106857Y-138277428D01*
X62344952Y-138158380D01*
X62464000Y-138039333D01*
X62583047Y-137801238D01*
X62583047Y-137206000D01*
X62464000Y-136848857D01*
X60083047Y-135777428D02*
X62583047Y-135777428D01*
X60083047Y-134586952D02*
X62583047Y-134586952D01*
X62583047Y-133991714D01*
X62464000Y-133634571D01*
X62225904Y-133396476D01*
X61987809Y-133277428D01*
X61511619Y-133158380D01*
X61154476Y-133158380D01*
X60678285Y-133277428D01*
X60440190Y-133396476D01*
X60202095Y-133634571D01*
X60083047Y-133991714D01*
X60083047Y-134586952D01*
X61392571Y-132086952D02*
X61392571Y-131253619D01*
X60083047Y-130896476D02*
X60083047Y-132086952D01*
X62583047Y-132086952D01*
X62583047Y-130896476D01*
D11*
X207703428Y-226132000D02*
X207346285Y-226132000D01*
X207489142Y-226489142D02*
X207346285Y-226132000D01*
X207489142Y-225774857D01*
X207060571Y-226346285D02*
X207346285Y-226132000D01*
X207060571Y-225917714D01*
X223038428Y-226032000D02*
X222681285Y-226032000D01*
X222824142Y-226389142D02*
X222681285Y-226032000D01*
X222824142Y-225674857D01*
X222395571Y-226246285D02*
X222681285Y-226032000D01*
X222395571Y-225817714D01*
X192110428Y-226640000D02*
X191753285Y-226640000D01*
X191896142Y-226997142D02*
X191753285Y-226640000D01*
X191896142Y-226282857D01*
X191467571Y-226854285D02*
X191753285Y-226640000D01*
X191467571Y-226425714D01*
D14*
X169353476Y-180809095D02*
X173353476Y-180809095D01*
X170496333Y-179475761D01*
X173353476Y-178142428D01*
X169353476Y-178142428D01*
X171448714Y-176237666D02*
X171448714Y-174904333D01*
X169353476Y-174332904D02*
X169353476Y-176237666D01*
X173353476Y-176237666D01*
X173353476Y-174332904D01*
X173163000Y-170523380D02*
X173353476Y-170904333D01*
X173353476Y-171475761D01*
X173163000Y-172047190D01*
X172782047Y-172428142D01*
X172401095Y-172618619D01*
X171639190Y-172809095D01*
X171067761Y-172809095D01*
X170305857Y-172618619D01*
X169924904Y-172428142D01*
X169543952Y-172047190D01*
X169353476Y-171475761D01*
X169353476Y-171094809D01*
X169543952Y-170523380D01*
X169734428Y-170332904D01*
X171067761Y-170332904D01*
X171067761Y-171094809D01*
X170496333Y-168809095D02*
X170496333Y-166904333D01*
X169353476Y-169190047D02*
X173353476Y-167856714D01*
X169353476Y-166523380D01*
X169734428Y-159856714D02*
X169543952Y-160047190D01*
X169353476Y-160618619D01*
X169353476Y-160999571D01*
X169543952Y-161571000D01*
X169924904Y-161951952D01*
X170305857Y-162142428D01*
X171067761Y-162332904D01*
X171639190Y-162332904D01*
X172401095Y-162142428D01*
X172782047Y-161951952D01*
X173163000Y-161571000D01*
X173353476Y-160999571D01*
X173353476Y-160618619D01*
X173163000Y-160047190D01*
X172972523Y-159856714D01*
X173353476Y-157380523D02*
X173353476Y-156618619D01*
X173163000Y-156237666D01*
X172782047Y-155856714D01*
X172020142Y-155666238D01*
X170686809Y-155666238D01*
X169924904Y-155856714D01*
X169543952Y-156237666D01*
X169353476Y-156618619D01*
X169353476Y-157380523D01*
X169543952Y-157761476D01*
X169924904Y-158142428D01*
X170686809Y-158332904D01*
X172020142Y-158332904D01*
X172782047Y-158142428D01*
X173163000Y-157761476D01*
X173353476Y-157380523D01*
X169353476Y-153951952D02*
X173353476Y-153951952D01*
X169353476Y-151666238D01*
X173353476Y-151666238D01*
X173353476Y-150332904D02*
X173353476Y-148047190D01*
X169353476Y-149190047D02*
X173353476Y-149190047D01*
X169353476Y-144428142D02*
X171258238Y-145761476D01*
X169353476Y-146713857D02*
X173353476Y-146713857D01*
X173353476Y-145190047D01*
X173163000Y-144809095D01*
X172972523Y-144618619D01*
X172591571Y-144428142D01*
X172020142Y-144428142D01*
X171639190Y-144618619D01*
X171448714Y-144809095D01*
X171258238Y-145190047D01*
X171258238Y-146713857D01*
X173353476Y-141951952D02*
X173353476Y-141190047D01*
X173163000Y-140809095D01*
X172782047Y-140428142D01*
X172020142Y-140237666D01*
X170686809Y-140237666D01*
X169924904Y-140428142D01*
X169543952Y-140809095D01*
X169353476Y-141190047D01*
X169353476Y-141951952D01*
X169543952Y-142332904D01*
X169924904Y-142713857D01*
X170686809Y-142904333D01*
X172020142Y-142904333D01*
X172782047Y-142713857D01*
X173163000Y-142332904D01*
X173353476Y-141951952D01*
X169353476Y-136618619D02*
X169353476Y-138523380D01*
X173353476Y-138523380D01*
X169353476Y-133380523D02*
X169353476Y-135285285D01*
X173353476Y-135285285D01*
X171448714Y-132047190D02*
X171448714Y-130713857D01*
X169353476Y-130142428D02*
X169353476Y-132047190D01*
X173353476Y-132047190D01*
X173353476Y-130142428D01*
X169353476Y-126142428D02*
X171258238Y-127475761D01*
X169353476Y-128428142D02*
X173353476Y-128428142D01*
X173353476Y-126904333D01*
X173163000Y-126523380D01*
X172972523Y-126332904D01*
X172591571Y-126142428D01*
X172020142Y-126142428D01*
X171639190Y-126332904D01*
X171448714Y-126523380D01*
X171258238Y-126904333D01*
X171258238Y-128428142D01*
X173353476Y-121951952D02*
X169353476Y-120618619D01*
X173353476Y-119285285D01*
X172972523Y-118142428D02*
X173163000Y-117951952D01*
X173353476Y-117571000D01*
X173353476Y-116618619D01*
X173163000Y-116237666D01*
X172972523Y-116047190D01*
X172591571Y-115856714D01*
X172210619Y-115856714D01*
X171639190Y-116047190D01*
X169353476Y-118332904D01*
X169353476Y-115856714D01*
X169734428Y-114142428D02*
X169543952Y-113951952D01*
X169353476Y-114142428D01*
X169543952Y-114332904D01*
X169734428Y-114142428D01*
X169353476Y-114142428D01*
X173353476Y-111475761D02*
X173353476Y-111094809D01*
X173163000Y-110713857D01*
X172972523Y-110523380D01*
X172591571Y-110332904D01*
X171829666Y-110142428D01*
X170877285Y-110142428D01*
X170115380Y-110332904D01*
X169734428Y-110523380D01*
X169543952Y-110713857D01*
X169353476Y-111094809D01*
X169353476Y-111475761D01*
X169543952Y-111856714D01*
X169734428Y-112047190D01*
X170115380Y-112237666D01*
X170877285Y-112428142D01*
X171829666Y-112428142D01*
X172591571Y-112237666D01*
X172972523Y-112047190D01*
X173163000Y-111856714D01*
X173353476Y-111475761D01*
D11*
X334069428Y-69342000D02*
X333712285Y-69342000D01*
X333855142Y-69699142D02*
X333712285Y-69342000D01*
X333855142Y-68984857D01*
X333426571Y-69556285D02*
X333712285Y-69342000D01*
X333426571Y-69127714D01*
X160868428Y-226894000D02*
X160511285Y-226894000D01*
X160654142Y-227251142D02*
X160511285Y-226894000D01*
X160654142Y-226536857D01*
X160225571Y-227108285D02*
X160511285Y-226894000D01*
X160225571Y-226679714D01*
X163408428Y-226894000D02*
X163051285Y-226894000D01*
X163194142Y-227251142D02*
X163051285Y-226894000D01*
X163194142Y-226536857D01*
X162765571Y-227108285D02*
X163051285Y-226894000D01*
X162765571Y-226679714D01*
X165948428Y-226894000D02*
X165591285Y-226894000D01*
X165734142Y-227251142D02*
X165591285Y-226894000D01*
X165734142Y-226536857D01*
X165305571Y-227108285D02*
X165591285Y-226894000D01*
X165305571Y-226679714D01*
X333815428Y-64008000D02*
X333458285Y-64008000D01*
X333601142Y-64365142D02*
X333458285Y-64008000D01*
X333601142Y-63650857D01*
X333172571Y-64222285D02*
X333458285Y-64008000D01*
X333172571Y-63793714D01*
X177886428Y-227148000D02*
X177529285Y-227148000D01*
X177672142Y-227505142D02*
X177529285Y-227148000D01*
X177672142Y-226790857D01*
X177243571Y-227362285D02*
X177529285Y-227148000D01*
X177243571Y-226933714D01*
X175092428Y-227148000D02*
X174735285Y-227148000D01*
X174878142Y-227505142D02*
X174735285Y-227148000D01*
X174878142Y-226790857D01*
X174449571Y-227362285D02*
X174735285Y-227148000D01*
X174449571Y-226933714D01*
X189570428Y-226640000D02*
X189213285Y-226640000D01*
X189356142Y-226997142D02*
X189213285Y-226640000D01*
X189356142Y-226282857D01*
X188927571Y-226854285D02*
X189213285Y-226640000D01*
X188927571Y-226425714D01*
X225703428Y-225807000D02*
X225346285Y-225807000D01*
X225489142Y-226164142D02*
X225346285Y-225807000D01*
X225489142Y-225449857D01*
X225060571Y-226021285D02*
X225346285Y-225807000D01*
X225060571Y-225592714D01*
X338641428Y-92846857D02*
X338284285Y-92846857D01*
X338427142Y-93204000D02*
X338284285Y-92846857D01*
X338427142Y-92489714D01*
X337998571Y-93061142D02*
X338284285Y-92846857D01*
X337998571Y-92632571D01*
X337141428Y-90132571D02*
X338641428Y-90132571D01*
X337212857Y-90132571D02*
X337141428Y-90275428D01*
X337141428Y-90561142D01*
X337212857Y-90704000D01*
X337284285Y-90775428D01*
X337427142Y-90846857D01*
X337855714Y-90846857D01*
X337998571Y-90775428D01*
X338070000Y-90704000D01*
X338141428Y-90561142D01*
X338141428Y-90275428D01*
X338070000Y-90132571D01*
X337212857Y-88846857D02*
X337141428Y-88989714D01*
X337141428Y-89275428D01*
X337212857Y-89418285D01*
X337355714Y-89489714D01*
X337927142Y-89489714D01*
X338070000Y-89418285D01*
X338141428Y-89275428D01*
X338141428Y-88989714D01*
X338070000Y-88846857D01*
X337927142Y-88775428D01*
X337784285Y-88775428D01*
X337641428Y-89489714D01*
X338141428Y-88132571D02*
X337141428Y-88132571D01*
X337998571Y-88132571D02*
X338070000Y-88061142D01*
X338141428Y-87918285D01*
X338141428Y-87704000D01*
X338070000Y-87561142D01*
X337927142Y-87489714D01*
X337141428Y-87489714D01*
X337141428Y-86561142D02*
X337212857Y-86704000D01*
X337284285Y-86775428D01*
X337427142Y-86846857D01*
X337855714Y-86846857D01*
X337998571Y-86775428D01*
X338070000Y-86704000D01*
X338141428Y-86561142D01*
X338141428Y-86346857D01*
X338070000Y-86204000D01*
X337998571Y-86132571D01*
X337855714Y-86061142D01*
X337427142Y-86061142D01*
X337284285Y-86132571D01*
X337212857Y-86204000D01*
X337141428Y-86346857D01*
X337141428Y-86561142D01*
X338141428Y-85632571D02*
X338141428Y-85061142D01*
X338641428Y-85418285D02*
X337355714Y-85418285D01*
X337212857Y-85346857D01*
X337141428Y-85204000D01*
X337141428Y-85061142D01*
X337212857Y-83989714D02*
X337141428Y-84132571D01*
X337141428Y-84418285D01*
X337212857Y-84561142D01*
X337355714Y-84632571D01*
X337927142Y-84632571D01*
X338070000Y-84561142D01*
X338141428Y-84418285D01*
X338141428Y-84132571D01*
X338070000Y-83989714D01*
X337927142Y-83918285D01*
X337784285Y-83918285D01*
X337641428Y-84632571D01*
X337212857Y-83346857D02*
X337141428Y-83204000D01*
X337141428Y-82918285D01*
X337212857Y-82775428D01*
X337355714Y-82704000D01*
X337427142Y-82704000D01*
X337570000Y-82775428D01*
X337641428Y-82918285D01*
X337641428Y-83132571D01*
X337712857Y-83275428D01*
X337855714Y-83346857D01*
X337927142Y-83346857D01*
X338070000Y-83275428D01*
X338141428Y-83132571D01*
X338141428Y-82918285D01*
X338070000Y-82775428D01*
X338141428Y-80918285D02*
X337141428Y-80918285D01*
X337998571Y-80918285D02*
X338070000Y-80846857D01*
X338141428Y-80704000D01*
X338141428Y-80489714D01*
X338070000Y-80346857D01*
X337927142Y-80275428D01*
X337141428Y-80275428D01*
X337141428Y-79346857D02*
X337212857Y-79489714D01*
X337284285Y-79561142D01*
X337427142Y-79632571D01*
X337855714Y-79632571D01*
X337998571Y-79561142D01*
X338070000Y-79489714D01*
X338141428Y-79346857D01*
X338141428Y-79132571D01*
X338070000Y-78989714D01*
X337998571Y-78918285D01*
X337855714Y-78846857D01*
X337427142Y-78846857D01*
X337284285Y-78918285D01*
X337212857Y-78989714D01*
X337141428Y-79132571D01*
X337141428Y-79346857D01*
X338141428Y-78204000D02*
X337141428Y-78204000D01*
X337998571Y-78204000D02*
X338070000Y-78132571D01*
X338141428Y-77989714D01*
X338141428Y-77775428D01*
X338070000Y-77632571D01*
X337927142Y-77561142D01*
X337141428Y-77561142D01*
X337712857Y-76846857D02*
X337712857Y-75704000D01*
X337141428Y-74989714D02*
X338641428Y-74989714D01*
X337212857Y-74346857D02*
X337141428Y-74204000D01*
X337141428Y-73918285D01*
X337212857Y-73775428D01*
X337355714Y-73704000D01*
X337427142Y-73704000D01*
X337570000Y-73775428D01*
X337641428Y-73918285D01*
X337641428Y-74132571D01*
X337712857Y-74275428D01*
X337855714Y-74346857D01*
X337927142Y-74346857D01*
X338070000Y-74275428D01*
X338141428Y-74132571D01*
X338141428Y-73918285D01*
X338070000Y-73775428D01*
X337141428Y-72846857D02*
X337212857Y-72989714D01*
X337284285Y-73061142D01*
X337427142Y-73132571D01*
X337855714Y-73132571D01*
X337998571Y-73061142D01*
X338070000Y-72989714D01*
X338141428Y-72846857D01*
X338141428Y-72632571D01*
X338070000Y-72489714D01*
X337998571Y-72418285D01*
X337855714Y-72346857D01*
X337427142Y-72346857D01*
X337284285Y-72418285D01*
X337212857Y-72489714D01*
X337141428Y-72632571D01*
X337141428Y-72846857D01*
X337141428Y-71489714D02*
X337212857Y-71632571D01*
X337355714Y-71704000D01*
X338641428Y-71704000D01*
X337141428Y-70275428D02*
X337927142Y-70275428D01*
X338070000Y-70346857D01*
X338141428Y-70489714D01*
X338141428Y-70775428D01*
X338070000Y-70918285D01*
X337212857Y-70275428D02*
X337141428Y-70418285D01*
X337141428Y-70775428D01*
X337212857Y-70918285D01*
X337355714Y-70989714D01*
X337498571Y-70989714D01*
X337641428Y-70918285D01*
X337712857Y-70775428D01*
X337712857Y-70418285D01*
X337784285Y-70275428D01*
X338141428Y-69775428D02*
X338141428Y-69204000D01*
X338641428Y-69561142D02*
X337355714Y-69561142D01*
X337212857Y-69489714D01*
X337141428Y-69346857D01*
X337141428Y-69204000D01*
X337212857Y-68132571D02*
X337141428Y-68275428D01*
X337141428Y-68561142D01*
X337212857Y-68704000D01*
X337355714Y-68775428D01*
X337927142Y-68775428D01*
X338070000Y-68704000D01*
X338141428Y-68561142D01*
X338141428Y-68275428D01*
X338070000Y-68132571D01*
X337927142Y-68061142D01*
X337784285Y-68061142D01*
X337641428Y-68775428D01*
X337141428Y-66775428D02*
X338641428Y-66775428D01*
X337212857Y-66775428D02*
X337141428Y-66918285D01*
X337141428Y-67204000D01*
X337212857Y-67346857D01*
X337284285Y-67418285D01*
X337427142Y-67489714D01*
X337855714Y-67489714D01*
X337998571Y-67418285D01*
X338070000Y-67346857D01*
X338141428Y-67204000D01*
X338141428Y-66918285D01*
X338070000Y-66775428D01*
X337141428Y-64918285D02*
X338641428Y-64918285D01*
X338712857Y-63132571D02*
X336784285Y-64418285D01*
X338641428Y-62346857D02*
X338641428Y-62061142D01*
X338570000Y-61918285D01*
X338427142Y-61775428D01*
X338141428Y-61704000D01*
X337641428Y-61704000D01*
X337355714Y-61775428D01*
X337212857Y-61918285D01*
X337141428Y-62061142D01*
X337141428Y-62346857D01*
X337212857Y-62489714D01*
X337355714Y-62632571D01*
X337641428Y-62704000D01*
X338141428Y-62704000D01*
X338427142Y-62632571D01*
X338570000Y-62489714D01*
X338641428Y-62346857D01*
X338641428Y-60989714D02*
X338355714Y-61132571D01*
X337212857Y-60418285D02*
X337141428Y-60275428D01*
X337141428Y-59989714D01*
X337212857Y-59846857D01*
X337355714Y-59775428D01*
X337427142Y-59775428D01*
X337570000Y-59846857D01*
X337641428Y-59989714D01*
X337641428Y-60204000D01*
X337712857Y-60346857D01*
X337855714Y-60418285D01*
X337927142Y-60418285D01*
X338070000Y-60346857D01*
X338141428Y-60204000D01*
X338141428Y-59989714D01*
X338070000Y-59846857D01*
D15*
%TO.C,XA1*%
X247550809Y-120135047D02*
X248050809Y-120135047D01*
X248050809Y-120016000D01*
X248027000Y-119944571D01*
X247979380Y-119896952D01*
X247931761Y-119873142D01*
X247836523Y-119849333D01*
X247765095Y-119849333D01*
X247669857Y-119873142D01*
X247622238Y-119896952D01*
X247574619Y-119944571D01*
X247550809Y-120016000D01*
X247550809Y-120135047D01*
X248050809Y-119539809D02*
X248050809Y-119492190D01*
X248027000Y-119444571D01*
X248003190Y-119420761D01*
X247955571Y-119396952D01*
X247860333Y-119373142D01*
X247741285Y-119373142D01*
X247646047Y-119396952D01*
X247598428Y-119420761D01*
X247574619Y-119444571D01*
X247550809Y-119492190D01*
X247550809Y-119539809D01*
X247574619Y-119587428D01*
X247598428Y-119611238D01*
X247646047Y-119635047D01*
X247741285Y-119658857D01*
X247860333Y-119658857D01*
X247955571Y-119635047D01*
X248003190Y-119611238D01*
X248027000Y-119587428D01*
X248050809Y-119539809D01*
D10*
X231243142Y-120782000D02*
X231290761Y-120829619D01*
X231338380Y-120782000D01*
X231290761Y-120734380D01*
X231243142Y-120782000D01*
X231338380Y-120782000D01*
%TO.C,J5*%
X308181333Y-198842380D02*
X308181333Y-199556666D01*
X308228952Y-199699523D01*
X308324190Y-199794761D01*
X308467047Y-199842380D01*
X308562285Y-199842380D01*
X307228952Y-198842380D02*
X307705142Y-198842380D01*
X307752761Y-199318571D01*
X307705142Y-199270952D01*
X307609904Y-199223333D01*
X307371809Y-199223333D01*
X307276571Y-199270952D01*
X307228952Y-199318571D01*
X307181333Y-199413809D01*
X307181333Y-199651904D01*
X307228952Y-199747142D01*
X307276571Y-199794761D01*
X307371809Y-199842380D01*
X307609904Y-199842380D01*
X307705142Y-199794761D01*
X307752761Y-199747142D01*
%TO.C,J4*%
X308181333Y-156932380D02*
X308181333Y-157646666D01*
X308228952Y-157789523D01*
X308324190Y-157884761D01*
X308467047Y-157932380D01*
X308562285Y-157932380D01*
X307276571Y-157265714D02*
X307276571Y-157932380D01*
X307514666Y-156884761D02*
X307752761Y-157599047D01*
X307133714Y-157599047D01*
%TO.C,J2*%
X306140533Y-198959080D02*
X306140533Y-199673366D01*
X306188152Y-199816223D01*
X306283390Y-199911461D01*
X306426247Y-199959080D01*
X306521485Y-199959080D01*
X305711961Y-199054319D02*
X305664342Y-199006700D01*
X305569104Y-198959080D01*
X305331009Y-198959080D01*
X305235771Y-199006700D01*
X305188152Y-199054319D01*
X305140533Y-199149557D01*
X305140533Y-199244795D01*
X305188152Y-199387652D01*
X305759580Y-199959080D01*
X305140533Y-199959080D01*
%TO.C,J6*%
X308181333Y-115626380D02*
X308181333Y-116340666D01*
X308228952Y-116483523D01*
X308324190Y-116578761D01*
X308467047Y-116626380D01*
X308562285Y-116626380D01*
X307276571Y-115626380D02*
X307467047Y-115626380D01*
X307562285Y-115674000D01*
X307609904Y-115721619D01*
X307705142Y-115864476D01*
X307752761Y-116054952D01*
X307752761Y-116435904D01*
X307705142Y-116531142D01*
X307657523Y-116578761D01*
X307562285Y-116626380D01*
X307371809Y-116626380D01*
X307276571Y-116578761D01*
X307228952Y-116531142D01*
X307181333Y-116435904D01*
X307181333Y-116197809D01*
X307228952Y-116102571D01*
X307276571Y-116054952D01*
X307371809Y-116007333D01*
X307562285Y-116007333D01*
X307657523Y-116054952D01*
X307705142Y-116102571D01*
X307752761Y-116197809D01*
%TO.C,J3*%
X305387333Y-115626380D02*
X305387333Y-116340666D01*
X305434952Y-116483523D01*
X305530190Y-116578761D01*
X305673047Y-116626380D01*
X305768285Y-116626380D01*
X305006380Y-115626380D02*
X304387333Y-115626380D01*
X304720666Y-116007333D01*
X304577809Y-116007333D01*
X304482571Y-116054952D01*
X304434952Y-116102571D01*
X304387333Y-116197809D01*
X304387333Y-116435904D01*
X304434952Y-116531142D01*
X304482571Y-116578761D01*
X304577809Y-116626380D01*
X304863523Y-116626380D01*
X304958761Y-116578761D01*
X305006380Y-116531142D01*
%TO.C,JP1*%
X194524380Y-137088666D02*
X195238666Y-137088666D01*
X195381523Y-137041047D01*
X195476761Y-136945809D01*
X195524380Y-136802952D01*
X195524380Y-136707714D01*
X195524380Y-137564857D02*
X194524380Y-137564857D01*
X194524380Y-137945809D01*
X194572000Y-138041047D01*
X194619619Y-138088666D01*
X194714857Y-138136285D01*
X194857714Y-138136285D01*
X194952952Y-138088666D01*
X195000571Y-138041047D01*
X195048190Y-137945809D01*
X195048190Y-137564857D01*
X195524380Y-139088666D02*
X195524380Y-138517238D01*
X195524380Y-138802952D02*
X194524380Y-138802952D01*
X194667238Y-138707714D01*
X194762476Y-138612476D01*
X194810095Y-138517238D01*
%TO.C,J1*%
X305641333Y-156932380D02*
X305641333Y-157646666D01*
X305688952Y-157789523D01*
X305784190Y-157884761D01*
X305927047Y-157932380D01*
X306022285Y-157932380D01*
X304641333Y-157932380D02*
X305212761Y-157932380D01*
X304927047Y-157932380D02*
X304927047Y-156932380D01*
X305022285Y-157075238D01*
X305117523Y-157170476D01*
X305212761Y-157218095D01*
D16*
%TO.C,J5*%
X308155530Y-201235000D02*
X308958000Y-201235000D01*
X306738000Y-211580000D02*
X307848000Y-211580000D01*
X306738000Y-210820000D02*
X306738000Y-211580000D01*
X306738000Y-210060000D02*
X307284529Y-210060000D01*
X306738000Y-210060000D02*
X306738000Y-201235000D01*
X308958000Y-210060000D02*
X308958000Y-201235000D01*
X306738000Y-201235000D02*
X307540470Y-201235000D01*
X308411471Y-210060000D02*
X308958000Y-210060000D01*
%TO.C,J4*%
X306738000Y-169548000D02*
X307848000Y-169548000D01*
X306738000Y-168028000D02*
X306738000Y-159203000D01*
X308958000Y-168028000D02*
X308958000Y-159203000D01*
X306738000Y-168788000D02*
X306738000Y-169548000D01*
X308411471Y-168028000D02*
X308958000Y-168028000D01*
X308155530Y-159203000D02*
X308958000Y-159203000D01*
X306738000Y-159203000D02*
X307540470Y-159203000D01*
X306738000Y-168028000D02*
X307284529Y-168028000D01*
%TO.C,J2*%
X305245670Y-211499700D02*
X304443200Y-211499700D01*
X306663200Y-202674700D02*
X306663200Y-211499700D01*
X306663200Y-211499700D02*
X305860730Y-211499700D01*
X306663200Y-201154700D02*
X305553200Y-201154700D01*
X304989729Y-202674700D02*
X304443200Y-202674700D01*
X304443200Y-202674700D02*
X304443200Y-211499700D01*
X306663200Y-201914700D02*
X306663200Y-201154700D01*
X306663200Y-202674700D02*
X306116671Y-202674700D01*
%TO.C,J6*%
X306484000Y-126468000D02*
X306484000Y-117643000D01*
X306484000Y-127988000D02*
X307594000Y-127988000D01*
X306484000Y-117643000D02*
X307286470Y-117643000D01*
X306484000Y-126468000D02*
X307030529Y-126468000D01*
X308704000Y-126468000D02*
X308704000Y-117643000D01*
X308157471Y-126468000D02*
X308704000Y-126468000D01*
X306484000Y-127228000D02*
X306484000Y-127988000D01*
X307901530Y-117643000D02*
X308704000Y-117643000D01*
%TO.C,J3*%
X306418000Y-117568000D02*
X305308000Y-117568000D01*
X305000470Y-127913000D02*
X304198000Y-127913000D01*
X306418000Y-127913000D02*
X305615530Y-127913000D01*
X304744529Y-119088000D02*
X304198000Y-119088000D01*
X306418000Y-119088000D02*
X306418000Y-127913000D01*
X306418000Y-119088000D02*
X305871471Y-119088000D01*
X306418000Y-118328000D02*
X306418000Y-117568000D01*
X304198000Y-119088000D02*
X304198000Y-127913000D01*
%TO.C,JP1*%
X196804000Y-139322000D02*
X197404000Y-139322000D01*
X197404000Y-136522000D02*
X196804000Y-136522000D01*
X196104000Y-137222000D02*
X196104000Y-138622000D01*
X198104000Y-138622000D02*
X198104000Y-137222000D01*
X196104000Y-138622000D02*
G75*
G03*
X196804000Y-139322000I699999J-1D01*
G01*
X196804000Y-136522000D02*
G75*
G03*
X196104000Y-137222000I0J-700000D01*
G01*
X198104000Y-137222000D02*
G75*
G03*
X197404000Y-136522000I-700000J0D01*
G01*
X197404000Y-139322000D02*
G75*
G03*
X198104000Y-138622000I1J699999D01*
G01*
%TO.C,5466*%
G36*
X277837270Y-132421479D02*
G01*
X277120148Y-132421479D01*
X277120148Y-132305814D01*
X277837270Y-132305814D01*
X277837270Y-132421479D01*
G37*
G36*
X277500891Y-132653925D02*
G01*
X277623044Y-132660991D01*
X277710634Y-132676562D01*
X277770591Y-132702933D01*
X277809841Y-132742396D01*
X277835313Y-132797244D01*
X277844043Y-132832808D01*
X277839716Y-132943483D01*
X277792730Y-133065978D01*
X277783755Y-133084036D01*
X277782290Y-133101910D01*
X277802462Y-133111275D01*
X277852480Y-133114878D01*
X277940555Y-133115468D01*
X278002714Y-133115689D01*
X278066365Y-133118358D01*
X278099792Y-133126699D01*
X278112718Y-133143938D01*
X278114866Y-133173300D01*
X278114866Y-133231133D01*
X277120148Y-133231133D01*
X277120148Y-133115468D01*
X277384866Y-133115468D01*
X277439770Y-133115383D01*
X277537496Y-133114006D01*
X277601907Y-133109729D01*
X277642037Y-133101008D01*
X277666921Y-133086298D01*
X277685594Y-133064055D01*
X277692533Y-133052281D01*
X277713263Y-132988549D01*
X277721605Y-132913118D01*
X277721599Y-132910428D01*
X277716839Y-132856055D01*
X277698740Y-132817487D01*
X277660731Y-132792084D01*
X277596242Y-132777207D01*
X277498701Y-132770217D01*
X277361538Y-132768473D01*
X277120148Y-132768473D01*
X277120148Y-132652809D01*
X277398893Y-132652809D01*
X277500891Y-132653925D01*
G37*
G36*
X277311926Y-137185205D02*
G01*
X277219271Y-137133379D01*
X277162538Y-137054328D01*
X277143281Y-136949245D01*
X277143343Y-136943876D01*
X277150343Y-136892828D01*
X277259762Y-136892828D01*
X277269102Y-136975645D01*
X277304273Y-137035657D01*
X277352006Y-137064777D01*
X277441040Y-137085872D01*
X277539475Y-137083016D01*
X277629073Y-137055118D01*
X277654781Y-137039378D01*
X277714934Y-136970681D01*
X277739584Y-136882729D01*
X277724345Y-136787827D01*
X277711700Y-136759221D01*
X277693127Y-136739334D01*
X277659641Y-136728901D01*
X277600791Y-136724876D01*
X277506128Y-136724211D01*
X277429783Y-136724626D01*
X277363019Y-136727886D01*
X277323823Y-136736837D01*
X277301610Y-136754308D01*
X277285792Y-136783132D01*
X277277452Y-136803564D01*
X277259762Y-136892828D01*
X277150343Y-136892828D01*
X277154352Y-136863591D01*
X277178575Y-136792461D01*
X277213868Y-136724211D01*
X277143875Y-136724211D01*
X277117334Y-136725898D01*
X277043530Y-136756065D01*
X276997331Y-136821590D01*
X276981350Y-136919335D01*
X276981812Y-136941175D01*
X276989583Y-137020084D01*
X277003911Y-137081266D01*
X277015122Y-137116714D01*
X277005370Y-137136824D01*
X276959341Y-137140605D01*
X276912634Y-137133256D01*
X276881632Y-137100122D01*
X276871913Y-137041803D01*
X276869125Y-136940596D01*
X276878386Y-136838954D01*
X276898563Y-136759704D01*
X276920996Y-136714415D01*
X276953630Y-136674652D01*
X276999911Y-136646109D01*
X277066352Y-136627006D01*
X277159465Y-136615565D01*
X277285762Y-136610004D01*
X277451754Y-136608546D01*
X277831924Y-136608546D01*
X277835773Y-136729994D01*
X277836379Y-136749480D01*
X277838939Y-136862169D01*
X277837843Y-136939941D01*
X277832113Y-136992669D01*
X277820770Y-137030224D01*
X277802837Y-137062479D01*
X277730807Y-137139523D01*
X277621933Y-137192224D01*
X277483344Y-137209917D01*
X277441040Y-137208675D01*
X277438946Y-137208614D01*
X277311926Y-137185205D01*
G37*
G36*
X277167628Y-134651565D02*
G01*
X277122740Y-134557981D01*
X277115325Y-134511051D01*
X277120839Y-134449767D01*
X277236733Y-134449767D01*
X277242820Y-134521281D01*
X277263573Y-134568218D01*
X277308082Y-134591986D01*
X277371920Y-134589319D01*
X277428090Y-134554522D01*
X277444111Y-134527498D01*
X277466130Y-134461452D01*
X277481127Y-134381024D01*
X277496646Y-134248983D01*
X277402240Y-134248983D01*
X277375065Y-134249726D01*
X277312451Y-134263686D01*
X277271824Y-134300397D01*
X277266199Y-134309416D01*
X277244722Y-134372778D01*
X277236733Y-134449767D01*
X277120839Y-134449767D01*
X277124821Y-134405510D01*
X277163610Y-134300488D01*
X277171922Y-134284184D01*
X277178421Y-134255769D01*
X277155661Y-134248983D01*
X277132442Y-134237968D01*
X277120148Y-134191151D01*
X277120148Y-134133319D01*
X277430181Y-134133319D01*
X277545072Y-134133753D01*
X277624258Y-134136187D01*
X277677024Y-134142371D01*
X277712655Y-134154057D01*
X277740435Y-134172996D01*
X277769651Y-134200938D01*
X277806450Y-134244951D01*
X277832423Y-134303468D01*
X277842607Y-134381482D01*
X277840124Y-134491880D01*
X277833527Y-134567267D01*
X277819204Y-134627588D01*
X277794147Y-134657383D01*
X277754026Y-134665377D01*
X277715434Y-134661636D01*
X277704066Y-134641140D01*
X277713860Y-134590195D01*
X277729010Y-134509177D01*
X277732591Y-134409464D01*
X277718298Y-134329443D01*
X277687158Y-134281007D01*
X277643198Y-134257497D01*
X277613228Y-134266587D01*
X277593757Y-134313013D01*
X277580868Y-134401200D01*
X277571274Y-134472840D01*
X277538383Y-134588669D01*
X277485972Y-134666749D01*
X277412042Y-134710741D01*
X277330648Y-134725933D01*
X277308082Y-134721652D01*
X277238719Y-134708493D01*
X277167628Y-134651565D01*
G37*
G36*
X277525386Y-131497963D02*
G01*
X277629166Y-131503225D01*
X277706793Y-131511203D01*
X277748217Y-131521155D01*
X277762793Y-131529985D01*
X277818009Y-131593233D01*
X277843262Y-131681543D01*
X277837265Y-131785378D01*
X277798730Y-131895204D01*
X277782917Y-131929018D01*
X277780058Y-131953423D01*
X277801977Y-131958820D01*
X277825035Y-131969911D01*
X277837270Y-132016652D01*
X277837270Y-132074484D01*
X277120148Y-132074484D01*
X277120148Y-131958820D01*
X277651018Y-131958820D01*
X277686312Y-131890569D01*
X277710539Y-131827828D01*
X277721631Y-131746279D01*
X277710231Y-131677568D01*
X277676860Y-131635772D01*
X277648005Y-131627926D01*
X277579002Y-131619597D01*
X277484509Y-131613922D01*
X277376132Y-131611825D01*
X277120148Y-131611825D01*
X277120148Y-131496160D01*
X277410831Y-131496160D01*
X277525386Y-131497963D01*
G37*
G36*
X283479769Y-144988944D02*
G01*
X283538825Y-145010075D01*
X283573845Y-145053383D01*
X283591099Y-145124886D01*
X283596854Y-145230605D01*
X283597379Y-145376559D01*
X283597274Y-145432659D01*
X283595668Y-145551550D01*
X283591299Y-145637052D01*
X283583118Y-145698471D01*
X283570073Y-145745116D01*
X283551113Y-145786293D01*
X283540574Y-145806602D01*
X283515056Y-145862741D01*
X283504848Y-145897062D01*
X283500167Y-145912097D01*
X283476742Y-145962008D01*
X283438077Y-146035651D01*
X283389183Y-146123229D01*
X283356327Y-146181305D01*
X283313638Y-146259565D01*
X283284377Y-146316865D01*
X283273518Y-146343722D01*
X283291365Y-146356017D01*
X283343568Y-146372698D01*
X283418099Y-146389137D01*
X283504585Y-146408025D01*
X283571335Y-146434691D01*
X283613023Y-146475286D01*
X283634286Y-146537780D01*
X283639759Y-146630141D01*
X283634079Y-146760338D01*
X283629038Y-146824145D01*
X283616142Y-146935067D01*
X283600133Y-147030779D01*
X283583357Y-147095766D01*
X283577523Y-147111917D01*
X283549474Y-147196559D01*
X283527669Y-147272226D01*
X283516501Y-147310185D01*
X283488205Y-147364375D01*
X283445208Y-147394506D01*
X283380493Y-147402178D01*
X283287047Y-147388989D01*
X283157853Y-147356539D01*
X283116847Y-147345977D01*
X283037703Y-147329677D01*
X282944424Y-147315527D01*
X282833440Y-147303341D01*
X282701181Y-147292932D01*
X282544078Y-147284114D01*
X282358561Y-147276699D01*
X282141059Y-147270502D01*
X281888003Y-147265335D01*
X281595823Y-147261012D01*
X281260950Y-147257346D01*
X281194507Y-147256705D01*
X280922269Y-147253851D01*
X280692066Y-147250961D01*
X280500435Y-147247917D01*
X280343913Y-147244599D01*
X280219037Y-147240889D01*
X280122344Y-147236669D01*
X280050373Y-147231818D01*
X279999659Y-147226219D01*
X279966740Y-147219753D01*
X279948154Y-147212300D01*
X279937381Y-147205129D01*
X279922348Y-147190951D01*
X279911494Y-147169122D01*
X279904140Y-147133205D01*
X279899604Y-147076766D01*
X279897206Y-146993368D01*
X279896266Y-146876575D01*
X279896104Y-146719953D01*
X279896105Y-146712404D01*
X279896741Y-146551141D01*
X279898827Y-146430116D01*
X279902762Y-146343552D01*
X279908943Y-146285668D01*
X279917768Y-146250688D01*
X279929636Y-146232831D01*
X279952619Y-146222648D01*
X279996867Y-146217241D01*
X280068158Y-146217052D01*
X280172804Y-146222071D01*
X280317113Y-146232291D01*
X280332783Y-146233452D01*
X280455580Y-146240570D01*
X280613363Y-146247184D01*
X280796402Y-146253018D01*
X280994966Y-146257795D01*
X281199325Y-146261238D01*
X281399747Y-146263070D01*
X281532508Y-146263534D01*
X281742363Y-146263053D01*
X281913638Y-146260277D01*
X282051296Y-146254529D01*
X282160294Y-146245128D01*
X282245595Y-146231399D01*
X282312156Y-146212662D01*
X282364939Y-146188240D01*
X282408904Y-146157455D01*
X282449011Y-146119627D01*
X282470626Y-146095130D01*
X282501454Y-146047767D01*
X282524022Y-145989105D01*
X282539537Y-145912161D01*
X282549208Y-145809952D01*
X282554241Y-145675497D01*
X282555844Y-145501811D01*
X282556046Y-145449392D01*
X282558582Y-145301439D01*
X282564190Y-145194776D01*
X282573145Y-145125627D01*
X282585721Y-145090217D01*
X282602251Y-145075232D01*
X282651431Y-145054030D01*
X282731824Y-145035798D01*
X282847191Y-145019940D01*
X283001295Y-145005857D01*
X283197900Y-144992951D01*
X283264478Y-144989134D01*
X283390410Y-144983971D01*
X283479769Y-144988944D01*
G37*
G36*
X278035916Y-138206378D02*
G01*
X278062375Y-138224523D01*
X278068600Y-138274120D01*
X278067219Y-138304299D01*
X278052099Y-138336050D01*
X278010767Y-138343519D01*
X277985618Y-138341862D01*
X277959159Y-138323718D01*
X277952935Y-138274120D01*
X277954316Y-138243941D01*
X277969436Y-138212190D01*
X278010767Y-138204721D01*
X278035916Y-138206378D01*
G37*
G36*
X281993940Y-151175293D02*
G01*
X281735776Y-151183816D01*
X281664650Y-151182957D01*
X281414942Y-151167753D01*
X281193642Y-151131890D01*
X280989376Y-151073020D01*
X280790770Y-150988795D01*
X280576620Y-150865426D01*
X280362198Y-150696257D01*
X280182195Y-150499894D01*
X280167463Y-150480347D01*
X280086096Y-150357784D01*
X280007055Y-150217099D01*
X279936981Y-150071859D01*
X279882515Y-149935626D01*
X279850298Y-149821967D01*
X279839978Y-149770613D01*
X279819190Y-149675308D01*
X279800389Y-149597708D01*
X279791869Y-149561997D01*
X279774284Y-149470856D01*
X279760424Y-149377945D01*
X279753020Y-149293997D01*
X279757297Y-149095518D01*
X279791677Y-148915286D01*
X279810578Y-148847833D01*
X279836381Y-148749142D01*
X279860994Y-148649257D01*
X279902079Y-148513028D01*
X279972734Y-148344167D01*
X280061255Y-148176712D01*
X280161105Y-148021691D01*
X280265743Y-147890132D01*
X280368633Y-147793063D01*
X280430043Y-147754350D01*
X280505570Y-147731840D01*
X280591649Y-147735770D01*
X280696971Y-147766747D01*
X280830230Y-147825380D01*
X280935204Y-147880359D01*
X281026516Y-147943813D01*
X281076945Y-148007373D01*
X281088833Y-148076769D01*
X281064526Y-148157734D01*
X281006367Y-148255996D01*
X281000239Y-148265059D01*
X280913218Y-148412462D01*
X280832773Y-148581291D01*
X280763057Y-148759798D01*
X280708225Y-148936234D01*
X280672433Y-149098849D01*
X280659834Y-149235897D01*
X280660534Y-149261528D01*
X280673062Y-149374656D01*
X280697906Y-149499864D01*
X280730660Y-149617706D01*
X280766921Y-149708737D01*
X280788527Y-149747942D01*
X280863434Y-149858954D01*
X280952008Y-149964199D01*
X281043347Y-150051545D01*
X281126544Y-150108859D01*
X281169114Y-150129557D01*
X281227331Y-150154666D01*
X281260181Y-150164466D01*
X281263833Y-150163487D01*
X281278244Y-150135532D01*
X281284083Y-150081057D01*
X281286396Y-150041495D01*
X281294945Y-149980951D01*
X282085867Y-149980951D01*
X282085912Y-150082586D01*
X282089481Y-150149920D01*
X282091035Y-150162207D01*
X282101488Y-150198067D01*
X282128484Y-150209413D01*
X282186514Y-150204380D01*
X282317919Y-150171755D01*
X282472970Y-150097399D01*
X282615774Y-149992172D01*
X282735711Y-149864141D01*
X282822162Y-149721377D01*
X282828223Y-149707772D01*
X282858391Y-149632364D01*
X282874297Y-149567082D01*
X282878964Y-149493226D01*
X282875418Y-149392096D01*
X282866180Y-149292526D01*
X282833798Y-149155118D01*
X282774179Y-149034719D01*
X282680692Y-148915083D01*
X282662082Y-148896223D01*
X282592473Y-148839830D01*
X282506285Y-148782898D01*
X282416574Y-148732936D01*
X282336397Y-148697452D01*
X282278808Y-148683956D01*
X282276205Y-148684064D01*
X282252233Y-148697089D01*
X282230043Y-148734385D01*
X282208825Y-148799601D01*
X282187774Y-148896386D01*
X282166082Y-149028390D01*
X282142941Y-149199259D01*
X282117543Y-149412645D01*
X282111948Y-149467291D01*
X282102386Y-149588185D01*
X282094553Y-149721956D01*
X282088897Y-149856810D01*
X282085867Y-149980951D01*
X281294945Y-149980951D01*
X281298449Y-149956133D01*
X281317350Y-149867077D01*
X281325832Y-149825269D01*
X281339246Y-149732631D01*
X281352832Y-149612201D01*
X281365398Y-149474907D01*
X281375752Y-149331679D01*
X281379143Y-149278198D01*
X281393872Y-149066300D01*
X281410413Y-148855415D01*
X281428048Y-148653075D01*
X281446058Y-148466811D01*
X281463726Y-148304152D01*
X281480332Y-148172631D01*
X281495159Y-148079778D01*
X281515275Y-147993469D01*
X281565793Y-147865603D01*
X281638365Y-147772690D01*
X281737914Y-147710972D01*
X281869367Y-147676696D01*
X282037648Y-147666105D01*
X282069311Y-147666336D01*
X282182386Y-147670259D01*
X282287932Y-147678029D01*
X282366588Y-147688339D01*
X282401622Y-147695748D01*
X282546579Y-147737825D01*
X282704846Y-147797857D01*
X282857769Y-147868232D01*
X282986695Y-147941340D01*
X283022797Y-147966212D01*
X283134377Y-148057187D01*
X283252669Y-148170872D01*
X283370484Y-148298726D01*
X283480635Y-148432207D01*
X283575934Y-148562773D01*
X283649194Y-148681882D01*
X283693228Y-148780993D01*
X283696984Y-148796532D01*
X283706447Y-148862502D01*
X283715649Y-148959993D01*
X283723697Y-149078562D01*
X283729701Y-149207766D01*
X283729890Y-149213141D01*
X283731215Y-149498046D01*
X283713814Y-149741474D01*
X283677532Y-149944309D01*
X283622209Y-150107436D01*
X283547689Y-150231741D01*
X283529977Y-150254298D01*
X283477112Y-150324213D01*
X283423882Y-150397299D01*
X283421302Y-150400885D01*
X283353997Y-150480231D01*
X283259159Y-150574768D01*
X283147597Y-150675161D01*
X283030126Y-150772072D01*
X282917557Y-150856167D01*
X282820702Y-150918110D01*
X282638855Y-151011167D01*
X282432849Y-151092062D01*
X282222088Y-151145740D01*
X282128484Y-151157865D01*
X281993940Y-151175293D01*
G37*
G36*
X277837270Y-138320386D02*
G01*
X277120148Y-138320386D01*
X277120148Y-138204721D01*
X277837270Y-138204721D01*
X277837270Y-138320386D01*
G37*
G36*
X277357743Y-130001358D02*
G01*
X277393480Y-130010987D01*
X277458070Y-130051836D01*
X277504078Y-130124613D01*
X277536688Y-130236120D01*
X277552942Y-130301986D01*
X277586411Y-130381005D01*
X277627332Y-130416013D01*
X277676673Y-130408197D01*
X277715927Y-130372227D01*
X277737684Y-130296751D01*
X277726635Y-130188657D01*
X277682781Y-130047942D01*
X277687342Y-130023638D01*
X277731269Y-130015650D01*
X277769554Y-130023819D01*
X277809794Y-130065977D01*
X277833064Y-130146502D01*
X277840563Y-130268166D01*
X277835848Y-130333473D01*
X277804160Y-130434699D01*
X277746848Y-130506099D01*
X277668864Y-130542615D01*
X277575157Y-130539192D01*
X277568283Y-130537319D01*
X277523595Y-130514167D01*
X277487455Y-130469194D01*
X277455078Y-130394373D01*
X277421682Y-130281679D01*
X277421014Y-130279152D01*
X277399374Y-130203905D01*
X277379969Y-130163057D01*
X277354880Y-130146189D01*
X277316187Y-130142881D01*
X277271565Y-130147960D01*
X277244642Y-130172760D01*
X277225763Y-130230397D01*
X277216425Y-130288594D01*
X277223650Y-130351953D01*
X277252689Y-130432810D01*
X277301232Y-130547708D01*
X277233077Y-130547708D01*
X277177803Y-130536863D01*
X277144002Y-130495659D01*
X277134591Y-130457363D01*
X277125642Y-130383131D01*
X277121614Y-130296716D01*
X277121597Y-130294899D01*
X277122824Y-130212694D01*
X277132524Y-130159080D01*
X277156760Y-130116744D01*
X277201595Y-130068374D01*
X277212198Y-130057882D01*
X277263879Y-130013764D01*
X277306707Y-129997363D01*
X277357743Y-130001358D01*
G37*
G36*
X283416646Y-143607268D02*
G01*
X283471268Y-143612323D01*
X283496735Y-143620703D01*
X283499078Y-143623430D01*
X283510521Y-143663559D01*
X283519463Y-143740125D01*
X283525934Y-143844866D01*
X283529967Y-143969522D01*
X283531594Y-144105828D01*
X283530845Y-144245524D01*
X283527752Y-144380347D01*
X283522348Y-144502035D01*
X283514663Y-144602326D01*
X283504730Y-144672958D01*
X283492580Y-144705667D01*
X283479873Y-144713037D01*
X283447884Y-144720415D01*
X283394889Y-144723312D01*
X283314628Y-144721718D01*
X283200842Y-144715627D01*
X283047270Y-144705027D01*
X282976453Y-144700591D01*
X282830180Y-144693984D01*
X282645174Y-144687905D01*
X282426038Y-144682448D01*
X282177374Y-144677709D01*
X281903785Y-144673784D01*
X281609873Y-144670768D01*
X281300241Y-144668757D01*
X281234602Y-144668440D01*
X280940710Y-144666703D01*
X280690005Y-144664611D01*
X280479930Y-144662101D01*
X280307931Y-144659109D01*
X280171452Y-144655571D01*
X280067936Y-144651425D01*
X279994828Y-144646606D01*
X279949572Y-144641052D01*
X279929613Y-144634698D01*
X279919084Y-144620115D01*
X279909672Y-144587245D01*
X279903095Y-144531788D01*
X279898927Y-144447826D01*
X279896739Y-144329445D01*
X279896104Y-144170728D01*
X279896118Y-144111201D01*
X279896521Y-143974048D01*
X279898043Y-143874159D01*
X279901417Y-143804910D01*
X279907380Y-143759676D01*
X279916667Y-143731831D01*
X279930013Y-143714751D01*
X279948154Y-143701810D01*
X279960525Y-143696298D01*
X279990817Y-143689316D01*
X280039190Y-143683217D01*
X280109165Y-143677865D01*
X280204267Y-143673121D01*
X280328019Y-143668849D01*
X280483943Y-143664910D01*
X280675563Y-143661168D01*
X280906403Y-143657484D01*
X281179984Y-143653721D01*
X281395481Y-143650694D01*
X281653369Y-143646537D01*
X281910057Y-143641873D01*
X282158034Y-143636863D01*
X282389791Y-143631667D01*
X282597816Y-143626448D01*
X282774598Y-143621366D01*
X282912628Y-143616581D01*
X283041253Y-143611802D01*
X283205300Y-143607034D01*
X283329211Y-143605514D01*
X283416646Y-143607268D01*
G37*
G36*
X277537068Y-131309744D02*
G01*
X277423144Y-131308561D01*
X277315028Y-131281029D01*
X277223831Y-131227710D01*
X277160667Y-131149166D01*
X277139229Y-131089416D01*
X277122610Y-130979552D01*
X277124439Y-130862440D01*
X277145544Y-130759357D01*
X277156673Y-130731475D01*
X277187113Y-130695527D01*
X277238670Y-130686506D01*
X277306400Y-130686506D01*
X277267039Y-130761688D01*
X277235862Y-130848568D01*
X277226336Y-130950781D01*
X277242425Y-131044343D01*
X277283413Y-131113857D01*
X277341352Y-131157293D01*
X277403527Y-131184955D01*
X277467143Y-131200447D01*
X277467143Y-130998801D01*
X277559675Y-130998801D01*
X277559683Y-131005387D01*
X277562822Y-131108415D01*
X277571285Y-131173039D01*
X277584587Y-131195432D01*
X277591640Y-131193805D01*
X277629035Y-131170321D01*
X277677119Y-131127812D01*
X277703275Y-131096280D01*
X277736617Y-131020194D01*
X277741112Y-130941567D01*
X277719203Y-130871573D01*
X277673332Y-130821384D01*
X277605940Y-130802171D01*
X277590479Y-130803435D01*
X277573809Y-130814557D01*
X277564537Y-130844795D01*
X277560535Y-130903194D01*
X277559675Y-130998801D01*
X277467143Y-130998801D01*
X277467143Y-130686506D01*
X277569466Y-130686506D01*
X277602418Y-130688303D01*
X277701848Y-130719095D01*
X277778490Y-130781607D01*
X277828691Y-130867432D01*
X277848800Y-130968160D01*
X277835164Y-131075385D01*
X277784132Y-131180699D01*
X277737892Y-131230814D01*
X277645688Y-131284015D01*
X277584587Y-131298488D01*
X277537068Y-131309744D01*
G37*
G36*
X277762088Y-139249951D02*
G01*
X277792559Y-139257164D01*
X277826271Y-139288651D01*
X277830467Y-139346285D01*
X277805022Y-139433121D01*
X277749814Y-139552217D01*
X277754434Y-139562798D01*
X277789076Y-139569566D01*
X277789405Y-139569567D01*
X277826737Y-139582373D01*
X277837270Y-139627399D01*
X277837270Y-139685231D01*
X277120148Y-139685231D01*
X277120148Y-139569566D01*
X277371950Y-139569566D01*
X277429715Y-139569485D01*
X277522227Y-139568106D01*
X277582262Y-139563568D01*
X277619181Y-139554027D01*
X277642345Y-139537635D01*
X277661112Y-139512548D01*
X277669356Y-139497395D01*
X277690183Y-139428795D01*
X277698472Y-139349080D01*
X277698899Y-139306693D01*
X277704714Y-139263556D01*
X277723313Y-139248480D01*
X277762088Y-139249951D01*
G37*
G36*
X278110619Y-141506952D02*
G01*
X278103299Y-141570568D01*
X277641292Y-141576858D01*
X277618336Y-141577156D01*
X277477288Y-141578339D01*
X277352370Y-141578318D01*
X277251114Y-141577170D01*
X277181053Y-141574971D01*
X277149717Y-141571800D01*
X277130539Y-141550365D01*
X277120148Y-141501895D01*
X277120148Y-141443337D01*
X278117939Y-141443337D01*
X278110619Y-141506952D01*
G37*
G36*
X278035916Y-132307471D02*
G01*
X278062375Y-132325616D01*
X278068600Y-132375213D01*
X278067219Y-132405392D01*
X278052099Y-132437143D01*
X278010767Y-132444612D01*
X277985618Y-132442955D01*
X277959159Y-132424810D01*
X277952935Y-132375213D01*
X277954316Y-132345034D01*
X277969436Y-132313283D01*
X278010767Y-132305814D01*
X278035916Y-132307471D01*
G37*
G36*
X281548071Y-137617663D02*
G01*
X281330501Y-137574535D01*
X281142459Y-137512674D01*
X280953608Y-137415663D01*
X280767607Y-137286241D01*
X280595677Y-137133656D01*
X280445683Y-136965755D01*
X280325489Y-136790381D01*
X280242961Y-136615382D01*
X280236563Y-136596696D01*
X280192448Y-136416716D01*
X280167524Y-136210541D01*
X280162221Y-135992600D01*
X280165232Y-135948650D01*
X280961782Y-135948650D01*
X280971144Y-136004726D01*
X280998102Y-136096047D01*
X281034299Y-136187207D01*
X281071639Y-136255588D01*
X281137453Y-136331752D01*
X281262382Y-136433288D01*
X281413653Y-136521899D01*
X281579649Y-136592048D01*
X281748749Y-136638198D01*
X281909334Y-136654812D01*
X281960047Y-136652451D01*
X282110905Y-136624619D01*
X282271678Y-136570443D01*
X282428325Y-136496213D01*
X282566805Y-136408216D01*
X282673075Y-136312742D01*
X282679121Y-136305807D01*
X282737422Y-136227828D01*
X282776703Y-136146035D01*
X282799530Y-136050025D01*
X282808472Y-135929392D01*
X282806096Y-135773733D01*
X282804057Y-135727832D01*
X282796831Y-135622598D01*
X282785872Y-135548016D01*
X282768999Y-135492505D01*
X282744028Y-135444486D01*
X282742869Y-135442622D01*
X282643154Y-135321772D01*
X282508243Y-135214808D01*
X282348129Y-135126328D01*
X282172809Y-135060930D01*
X281992274Y-135023212D01*
X281816521Y-135017773D01*
X281805636Y-135018657D01*
X281648578Y-135050115D01*
X281483393Y-135112988D01*
X281325609Y-135200161D01*
X281190752Y-135304519D01*
X281118687Y-135375606D01*
X281063159Y-135444956D01*
X281026868Y-135517873D01*
X281002939Y-135608583D01*
X280984496Y-135731312D01*
X280980635Y-135762572D01*
X280970507Y-135849859D01*
X280963792Y-135916008D01*
X280961782Y-135948650D01*
X280165232Y-135948650D01*
X280176968Y-135777319D01*
X280212191Y-135579129D01*
X280221187Y-135547377D01*
X280268292Y-135430369D01*
X280334894Y-135305935D01*
X280410904Y-135191550D01*
X280486227Y-135104685D01*
X280490792Y-135100327D01*
X280528398Y-135057874D01*
X280543828Y-135028133D01*
X280536079Y-135020521D01*
X280493945Y-135014281D01*
X280425774Y-135015105D01*
X280343670Y-135021862D01*
X280259736Y-135033418D01*
X280186075Y-135048641D01*
X280134790Y-135066400D01*
X280123865Y-135072388D01*
X280061242Y-135115800D01*
X279994455Y-135173285D01*
X279933889Y-135234512D01*
X279889932Y-135289146D01*
X279872971Y-135326855D01*
X279863806Y-135368705D01*
X279839138Y-135425196D01*
X279793196Y-135530261D01*
X279753641Y-135683291D01*
X279735479Y-135845519D01*
X279740261Y-136001132D01*
X279769540Y-136134320D01*
X279775105Y-136150640D01*
X279795003Y-136226921D01*
X279803224Y-136290089D01*
X279803640Y-136296201D01*
X279815481Y-136348313D01*
X279841183Y-136430933D01*
X279877432Y-136533999D01*
X279920915Y-136647451D01*
X279963362Y-136756376D01*
X280005811Y-136876402D01*
X280030034Y-136965616D01*
X280037165Y-137030311D01*
X280028343Y-137076781D01*
X280004704Y-137111318D01*
X279981496Y-137124824D01*
X279917534Y-137146924D01*
X279827216Y-137170543D01*
X279721962Y-137193279D01*
X279613192Y-137212727D01*
X279512325Y-137226482D01*
X279430781Y-137232142D01*
X279425977Y-137232161D01*
X279346737Y-137218871D01*
X279276952Y-137176823D01*
X279212905Y-137101721D01*
X279150873Y-136989266D01*
X279087137Y-136835162D01*
X279078898Y-136812684D01*
X279028221Y-136657141D01*
X278982686Y-136489865D01*
X278946829Y-136328866D01*
X278925185Y-136192153D01*
X278923219Y-136173296D01*
X278912975Y-136027762D01*
X278907745Y-135860030D01*
X278907584Y-135687142D01*
X278912544Y-135526140D01*
X278922678Y-135394065D01*
X278950123Y-135222636D01*
X279012339Y-134992533D01*
X279099075Y-134780172D01*
X279206513Y-134594434D01*
X279330839Y-134444197D01*
X279336531Y-134438651D01*
X279467665Y-134333376D01*
X279633414Y-134233757D01*
X279822708Y-134145686D01*
X280024477Y-134075053D01*
X280066710Y-134062857D01*
X280115745Y-134049884D01*
X280164975Y-134039220D01*
X280219518Y-134030506D01*
X280284491Y-134023382D01*
X280365013Y-134017490D01*
X280466202Y-134012469D01*
X280593176Y-134007961D01*
X280751052Y-134003605D01*
X280944949Y-133999043D01*
X281179984Y-133993915D01*
X281373786Y-133990005D01*
X281630846Y-133985455D01*
X281896405Y-133981365D01*
X282159512Y-133977877D01*
X282409217Y-133975135D01*
X282634570Y-133973281D01*
X282824623Y-133972459D01*
X282951664Y-133972328D01*
X283124934Y-133972564D01*
X283260103Y-133973599D01*
X283362237Y-133975705D01*
X283436399Y-133979155D01*
X283487654Y-133984224D01*
X283521067Y-133991183D01*
X283541701Y-134000308D01*
X283554622Y-134011871D01*
X283580741Y-134047960D01*
X283609878Y-134106286D01*
X283635978Y-134185243D01*
X283661716Y-134293285D01*
X283689768Y-134438867D01*
X283712295Y-134569899D01*
X283731531Y-134712662D01*
X283735655Y-134819798D01*
X283722433Y-134896638D01*
X283689633Y-134948510D01*
X283635021Y-134980745D01*
X283556364Y-134998672D01*
X283451427Y-135007621D01*
X283252172Y-135018079D01*
X283363219Y-135148240D01*
X283456296Y-135261530D01*
X283542317Y-135381807D01*
X283604693Y-135495980D01*
X283646984Y-135614447D01*
X283672751Y-135747610D01*
X283685555Y-135905867D01*
X283688958Y-136099621D01*
X283688917Y-136125550D01*
X283686758Y-136271080D01*
X283679471Y-136383814D01*
X283664487Y-136475389D01*
X283639236Y-136557441D01*
X283601148Y-136641608D01*
X283547653Y-136739524D01*
X283537864Y-136756454D01*
X283375002Y-136990225D01*
X283179402Y-137193892D01*
X282955521Y-137364032D01*
X282707813Y-137497223D01*
X282440731Y-137590042D01*
X282246833Y-137626838D01*
X282019350Y-137644596D01*
X281909334Y-137643058D01*
X281782059Y-137641278D01*
X281548071Y-137617663D01*
G37*
G36*
X284621756Y-143626699D02*
G01*
X284644045Y-143637295D01*
X284729625Y-143692168D01*
X284815081Y-143764458D01*
X284886642Y-143841502D01*
X284930535Y-143910634D01*
X284949517Y-143979625D01*
X284960872Y-144090322D01*
X284959282Y-144212123D01*
X284945166Y-144326749D01*
X284918943Y-144415923D01*
X284914551Y-144425038D01*
X284858324Y-144509063D01*
X284776402Y-144598766D01*
X284682627Y-144680453D01*
X284590844Y-144740433D01*
X284589375Y-144741185D01*
X284489781Y-144767800D01*
X284374409Y-144761426D01*
X284253534Y-144727106D01*
X284137426Y-144669884D01*
X284036360Y-144594805D01*
X283960607Y-144506913D01*
X283920440Y-144411251D01*
X283919572Y-144406654D01*
X283907726Y-144310146D01*
X283902086Y-144194005D01*
X283902604Y-144074608D01*
X283909236Y-143968332D01*
X283921932Y-143891551D01*
X283950859Y-143826669D01*
X284024473Y-143742656D01*
X284126655Y-143673888D01*
X284247439Y-143624137D01*
X284376860Y-143597175D01*
X284504955Y-143596771D01*
X284621756Y-143626699D01*
G37*
G36*
X277419084Y-138555661D02*
G01*
X277511863Y-138558288D01*
X277608375Y-138562656D01*
X277674075Y-138569257D01*
X277717978Y-138579668D01*
X277749096Y-138595469D01*
X277776445Y-138618236D01*
X277789611Y-138631306D01*
X277840280Y-138710573D01*
X277849151Y-138801270D01*
X277817025Y-138909135D01*
X277808685Y-138928226D01*
X277788009Y-138982591D01*
X277787275Y-139008055D01*
X277805408Y-139014375D01*
X277829826Y-139028411D01*
X277833023Y-139077991D01*
X277825704Y-139141606D01*
X277502956Y-139148073D01*
X277466605Y-139148725D01*
X277350838Y-139149748D01*
X277253281Y-139149048D01*
X277183279Y-139146759D01*
X277150178Y-139143016D01*
X277130706Y-139121475D01*
X277120148Y-139072934D01*
X277120148Y-139014375D01*
X277384866Y-139014375D01*
X277439770Y-139014290D01*
X277537496Y-139012913D01*
X277601907Y-139008636D01*
X277642037Y-138999915D01*
X277666921Y-138985205D01*
X277685594Y-138962962D01*
X277710090Y-138908069D01*
X277720583Y-138832078D01*
X277712225Y-138760436D01*
X277685059Y-138712114D01*
X277676961Y-138707094D01*
X277620231Y-138691678D01*
X277521585Y-138679722D01*
X277384330Y-138671671D01*
X277288834Y-138667840D01*
X277207052Y-138663081D01*
X277157188Y-138656397D01*
X277131346Y-138645787D01*
X277121632Y-138629254D01*
X277120148Y-138604799D01*
X277120148Y-138548039D01*
X277419084Y-138555661D01*
G37*
G36*
X277761174Y-133398538D02*
G01*
X277804778Y-133433640D01*
X277829479Y-133504638D01*
X277837270Y-133615482D01*
X277832120Y-133686998D01*
X277795119Y-133799130D01*
X277723684Y-133880950D01*
X277619272Y-133931086D01*
X277483344Y-133948168D01*
X277458519Y-133947812D01*
X277331163Y-133929608D01*
X277235329Y-133882033D01*
X277165478Y-133802551D01*
X277145305Y-133758993D01*
X277123611Y-133658744D01*
X277122278Y-133549368D01*
X277142709Y-133452402D01*
X277146529Y-133443032D01*
X277178521Y-133403690D01*
X277235774Y-133393064D01*
X277281012Y-133395162D01*
X277292734Y-133408882D01*
X277273316Y-133445113D01*
X277229433Y-133546519D01*
X277225196Y-133644130D01*
X277257874Y-133727775D01*
X277322719Y-133790432D01*
X277414985Y-133825082D01*
X277529926Y-133824701D01*
X277593239Y-133809136D01*
X277680624Y-133759559D01*
X277729664Y-133686289D01*
X277738159Y-133593615D01*
X277703906Y-133485826D01*
X277658011Y-133393064D01*
X277725080Y-133393064D01*
X277761174Y-133398538D01*
G37*
G36*
X280115062Y-129955986D02*
G01*
X280145424Y-129958551D01*
X280220909Y-129962346D01*
X280333429Y-129966666D01*
X280477867Y-129971358D01*
X280649109Y-129976268D01*
X280842041Y-129981243D01*
X281051548Y-129986128D01*
X281272516Y-129990770D01*
X281431194Y-129994047D01*
X281653880Y-129999063D01*
X281865768Y-130004301D01*
X282060950Y-130009591D01*
X282233514Y-130014762D01*
X282377549Y-130019644D01*
X282487147Y-130024066D01*
X282556396Y-130027857D01*
X282690264Y-130041121D01*
X282906985Y-130079485D01*
X283095100Y-130135428D01*
X283246790Y-130206921D01*
X283344915Y-130279329D01*
X283462087Y-130402049D01*
X283559682Y-130545295D01*
X283626464Y-130694632D01*
X283642233Y-130749762D01*
X283672178Y-130915744D01*
X283685136Y-131100015D01*
X283681665Y-131290111D01*
X283662324Y-131473567D01*
X283627672Y-131637918D01*
X283578266Y-131770699D01*
X283560111Y-131806694D01*
X283519218Y-131884736D01*
X283480794Y-131950813D01*
X283437048Y-132016990D01*
X283380192Y-132095333D01*
X283302434Y-132197906D01*
X283238039Y-132283872D01*
X283184353Y-132359016D01*
X283148056Y-132413835D01*
X283134720Y-132440281D01*
X283144331Y-132450576D01*
X283188417Y-132466733D01*
X283256168Y-132479889D01*
X283341417Y-132495060D01*
X283449266Y-132526358D01*
X283530351Y-132565244D01*
X283574921Y-132607804D01*
X283593045Y-132665728D01*
X283592738Y-132761888D01*
X283565235Y-132863963D01*
X283549627Y-132912966D01*
X283530642Y-132999340D01*
X283516883Y-133092335D01*
X283507039Y-133177499D01*
X283483790Y-133324020D01*
X283452693Y-133430447D01*
X283408504Y-133500959D01*
X283345978Y-133539736D01*
X283259869Y-133550958D01*
X283144932Y-133538804D01*
X282995922Y-133507453D01*
X282900071Y-133488841D01*
X282730755Y-133467026D01*
X282518952Y-133449436D01*
X282266738Y-133436152D01*
X281976190Y-133427251D01*
X281649385Y-133422812D01*
X281288400Y-133422915D01*
X280895312Y-133427639D01*
X280786963Y-133429481D01*
X280577784Y-133432744D01*
X280408291Y-133434780D01*
X280273955Y-133435485D01*
X280170248Y-133434754D01*
X280092641Y-133432483D01*
X280036605Y-133428568D01*
X279997613Y-133422903D01*
X279971135Y-133415385D01*
X279952643Y-133405910D01*
X279896104Y-133368864D01*
X279896104Y-132925909D01*
X279896156Y-132866618D01*
X279897050Y-132723604D01*
X279899450Y-132618084D01*
X279903870Y-132543544D01*
X279910824Y-132493468D01*
X279920825Y-132461341D01*
X279934389Y-132440650D01*
X279941018Y-132434226D01*
X279954717Y-132425779D01*
X279976225Y-132418768D01*
X280009388Y-132413061D01*
X280058051Y-132408525D01*
X280126060Y-132405025D01*
X280217261Y-132402429D01*
X280335500Y-132400604D01*
X280484621Y-132399416D01*
X280668472Y-132398733D01*
X280890897Y-132398420D01*
X281155742Y-132398346D01*
X282338810Y-132398346D01*
X282427825Y-132307186D01*
X282429043Y-132305938D01*
X282468216Y-132264376D01*
X282502806Y-132223085D01*
X282538309Y-132173972D01*
X282580226Y-132108943D01*
X282634053Y-132019905D01*
X282705290Y-131898764D01*
X282734001Y-131848435D01*
X282763477Y-131787096D01*
X282779603Y-131729055D01*
X282786358Y-131657797D01*
X282787726Y-131556810D01*
X282780296Y-131405992D01*
X282754312Y-131286359D01*
X282705407Y-131194789D01*
X282629217Y-131123203D01*
X282521381Y-131063521D01*
X282512858Y-131059855D01*
X282487626Y-131051157D01*
X282455354Y-131043772D01*
X282412117Y-131037544D01*
X282353995Y-131032313D01*
X282277065Y-131027921D01*
X282177404Y-131024212D01*
X282051089Y-131021026D01*
X281894200Y-131018207D01*
X281702812Y-131015596D01*
X281473004Y-131013036D01*
X281200853Y-131010368D01*
X281156510Y-131009946D01*
X280885740Y-131007161D01*
X280657235Y-131004341D01*
X280467513Y-131001366D01*
X280313093Y-130998114D01*
X280190494Y-130994462D01*
X280096236Y-130990289D01*
X280026837Y-130985472D01*
X279978816Y-130979891D01*
X279948693Y-130973422D01*
X279932986Y-130965943D01*
X279922583Y-130955177D01*
X279911688Y-130933307D01*
X279904259Y-130897335D01*
X279899864Y-130840832D01*
X279898069Y-130757369D01*
X279898442Y-130640516D01*
X279900551Y-130483846D01*
X279902061Y-130390493D01*
X279904658Y-130259240D01*
X279907928Y-130163745D01*
X279912737Y-130097318D01*
X279919952Y-130053267D01*
X279930440Y-130024903D01*
X279945066Y-130005535D01*
X279964697Y-129988474D01*
X279984786Y-129973765D01*
X280040260Y-129952879D01*
X280115062Y-129955986D01*
G37*
G36*
X277500891Y-137396184D02*
G01*
X277623044Y-137403249D01*
X277710634Y-137418821D01*
X277770591Y-137445192D01*
X277809841Y-137484655D01*
X277835313Y-137539503D01*
X277844043Y-137575066D01*
X277839716Y-137685742D01*
X277792730Y-137808236D01*
X277786196Y-137820961D01*
X277778889Y-137850509D01*
X277801757Y-137857727D01*
X277824977Y-137868742D01*
X277837270Y-137915559D01*
X277837270Y-137973391D01*
X277120148Y-137973391D01*
X277120148Y-137857727D01*
X277384866Y-137857727D01*
X277439770Y-137857641D01*
X277537496Y-137856265D01*
X277601907Y-137851988D01*
X277642037Y-137843267D01*
X277666921Y-137828557D01*
X277685594Y-137806313D01*
X277692533Y-137794539D01*
X277713263Y-137730808D01*
X277721605Y-137655377D01*
X277721599Y-137652687D01*
X277716839Y-137598314D01*
X277698740Y-137559746D01*
X277660731Y-137534343D01*
X277596242Y-137519466D01*
X277498701Y-137512476D01*
X277361538Y-137510732D01*
X277120148Y-137510732D01*
X277120148Y-137395067D01*
X277398893Y-137395067D01*
X277500891Y-137396184D01*
G37*
G36*
X285913154Y-138044649D02*
G01*
X286028712Y-138105148D01*
X286123589Y-138205104D01*
X286199293Y-138345816D01*
X286257331Y-138528583D01*
X286263507Y-138552775D01*
X286286530Y-138634717D01*
X286312518Y-138719444D01*
X286314534Y-138725938D01*
X286332118Y-138795920D01*
X286353219Y-138897395D01*
X286375361Y-139017772D01*
X286396070Y-139144457D01*
X286400815Y-139175117D01*
X286419925Y-139290628D01*
X286438113Y-139389239D01*
X286453517Y-139461315D01*
X286464273Y-139497220D01*
X286466785Y-139503193D01*
X286476896Y-139555045D01*
X286485640Y-139643098D01*
X286492814Y-139759190D01*
X286498214Y-139895158D01*
X286501636Y-140042838D01*
X286502876Y-140194067D01*
X286501731Y-140340682D01*
X286497998Y-140474519D01*
X286491472Y-140587417D01*
X286472821Y-140761808D01*
X286410027Y-141083050D01*
X286311405Y-141377442D01*
X286175430Y-141648316D01*
X286000579Y-141899008D01*
X285785330Y-142132849D01*
X285717086Y-142196190D01*
X285617125Y-142283014D01*
X285522099Y-142359608D01*
X285445745Y-142414577D01*
X285388245Y-142448625D01*
X285266145Y-142510325D01*
X285122368Y-142573966D01*
X284971320Y-142633656D01*
X284827405Y-142683500D01*
X284705026Y-142717607D01*
X284687968Y-142720500D01*
X284640129Y-142725061D01*
X284566791Y-142729230D01*
X284466065Y-142733032D01*
X284336063Y-142736495D01*
X284174897Y-142739644D01*
X283980680Y-142742506D01*
X283751525Y-142745106D01*
X283485542Y-142747472D01*
X283180845Y-142749630D01*
X282835545Y-142751606D01*
X282447755Y-142753426D01*
X282015588Y-142755117D01*
X279450644Y-142764334D01*
X279297464Y-142838042D01*
X279251211Y-142862379D01*
X279126353Y-142946027D01*
X279006891Y-143048849D01*
X278905505Y-143159138D01*
X278834872Y-143265187D01*
X278806718Y-143332086D01*
X278771010Y-143440992D01*
X278735117Y-143571122D01*
X278702380Y-143709285D01*
X278676137Y-143842291D01*
X278659729Y-143956949D01*
X278655892Y-144012881D01*
X278658327Y-144156868D01*
X278675613Y-144335654D01*
X278708077Y-144552128D01*
X278756047Y-144809184D01*
X278787242Y-144980507D01*
X278812913Y-145183455D01*
X278818163Y-145347530D01*
X278803016Y-145474256D01*
X278767494Y-145565157D01*
X278766688Y-145566443D01*
X278697942Y-145641392D01*
X278600329Y-145706283D01*
X278490955Y-145751944D01*
X278386928Y-145769202D01*
X278365618Y-145768592D01*
X278311228Y-145757413D01*
X278257392Y-145726168D01*
X278189057Y-145667091D01*
X278061656Y-145522554D01*
X277957717Y-145340814D01*
X277885916Y-145127872D01*
X277872073Y-145069541D01*
X277854170Y-144984887D01*
X277837717Y-144892574D01*
X277821188Y-144783010D01*
X277803055Y-144646602D01*
X277781792Y-144473756D01*
X277780325Y-144459662D01*
X277776019Y-144369476D01*
X277775487Y-144246830D01*
X277778252Y-144102913D01*
X277783841Y-143948914D01*
X277791779Y-143796024D01*
X277801592Y-143655433D01*
X277812806Y-143538330D01*
X277824946Y-143455905D01*
X277841541Y-143379235D01*
X277887866Y-143201154D01*
X277941225Y-143035825D01*
X277997814Y-142894351D01*
X278053830Y-142787832D01*
X278132696Y-142665332D01*
X278197626Y-142568005D01*
X278249742Y-142495584D01*
X278294783Y-142440564D01*
X278338490Y-142395441D01*
X278386600Y-142352709D01*
X278426101Y-142320328D01*
X278602505Y-142193073D01*
X278794959Y-142077594D01*
X278988677Y-141982165D01*
X279168872Y-141915057D01*
X279185210Y-141910540D01*
X279212207Y-141904587D01*
X279245610Y-141899258D01*
X279288076Y-141894501D01*
X279342263Y-141890262D01*
X279410828Y-141886485D01*
X279496428Y-141883118D01*
X279601721Y-141880106D01*
X279729363Y-141877396D01*
X279882013Y-141874932D01*
X280062327Y-141872662D01*
X280272962Y-141870531D01*
X280516577Y-141868484D01*
X280795828Y-141866470D01*
X281113373Y-141864432D01*
X281471869Y-141862317D01*
X281873973Y-141860071D01*
X282190848Y-141858362D01*
X282566305Y-141856354D01*
X282900276Y-141854461D01*
X283195468Y-141852531D01*
X283454589Y-141850412D01*
X283680346Y-141847949D01*
X283875448Y-141844992D01*
X284042600Y-141841387D01*
X284184511Y-141836981D01*
X284303888Y-141831621D01*
X284403439Y-141825156D01*
X284485871Y-141817432D01*
X284553891Y-141808296D01*
X284610208Y-141797597D01*
X284657527Y-141785181D01*
X284698557Y-141770895D01*
X284736006Y-141754587D01*
X284772580Y-141736104D01*
X284810987Y-141715293D01*
X284853935Y-141692002D01*
X284857770Y-141689933D01*
X284933806Y-141641702D01*
X285022908Y-141574886D01*
X285116640Y-141497085D01*
X285206563Y-141415899D01*
X285284239Y-141338926D01*
X285341230Y-141273767D01*
X285369099Y-141228021D01*
X285389279Y-141182508D01*
X285426299Y-141124385D01*
X285429436Y-141120017D01*
X285454815Y-141066856D01*
X285481882Y-140985977D01*
X285505287Y-140893055D01*
X285506404Y-140887768D01*
X285528069Y-140785919D01*
X285549027Y-140688526D01*
X285564886Y-140616001D01*
X285579784Y-140516747D01*
X285588157Y-140365741D01*
X285587423Y-140186586D01*
X285578458Y-139988399D01*
X285562139Y-139780300D01*
X285539342Y-139571408D01*
X285510945Y-139370840D01*
X285477823Y-139187717D01*
X285440854Y-139031156D01*
X285400913Y-138910277D01*
X285386710Y-138874291D01*
X285344058Y-138745525D01*
X285312558Y-138617710D01*
X285295151Y-138504442D01*
X285294775Y-138419313D01*
X285300900Y-138382871D01*
X285348664Y-138245750D01*
X285429285Y-138138453D01*
X285539356Y-138064491D01*
X285675467Y-138027371D01*
X285775409Y-138022309D01*
X285913154Y-138044649D01*
G37*
G36*
X277170590Y-140429988D02*
G01*
X277129263Y-140357898D01*
X277119233Y-140314966D01*
X277121433Y-140233010D01*
X277236733Y-140233010D01*
X277242820Y-140304524D01*
X277263573Y-140351461D01*
X277265095Y-140352948D01*
X277320440Y-140378000D01*
X277382386Y-140367477D01*
X277432653Y-140324314D01*
X277444590Y-140301218D01*
X277467378Y-140231566D01*
X277482675Y-140150816D01*
X277496720Y-140032226D01*
X277402278Y-140032226D01*
X277375012Y-140032972D01*
X277312432Y-140046937D01*
X277271824Y-140083639D01*
X277266199Y-140092659D01*
X277244722Y-140156021D01*
X277236733Y-140233010D01*
X277121433Y-140233010D01*
X277122323Y-140199847D01*
X277163610Y-140083731D01*
X277171922Y-140067426D01*
X277178421Y-140039011D01*
X277155661Y-140032226D01*
X277132442Y-140021211D01*
X277120148Y-139974393D01*
X277120148Y-139916561D01*
X277717493Y-139916561D01*
X277777381Y-139987735D01*
X277796892Y-140013319D01*
X277828176Y-140078257D01*
X277841611Y-140161053D01*
X277840124Y-140275122D01*
X277833527Y-140350509D01*
X277819204Y-140410830D01*
X277794147Y-140440626D01*
X277754026Y-140448619D01*
X277715434Y-140444878D01*
X277704066Y-140424383D01*
X277713860Y-140373437D01*
X277721386Y-140339942D01*
X277732521Y-140237259D01*
X277725608Y-140147895D01*
X277702918Y-140079870D01*
X277666724Y-140041200D01*
X277619301Y-140039903D01*
X277607364Y-140047267D01*
X277588409Y-140087233D01*
X277582299Y-140164514D01*
X277577875Y-140235664D01*
X277548637Y-140351375D01*
X277495884Y-140437751D01*
X277424109Y-140490642D01*
X277337803Y-140505900D01*
X277320440Y-140501120D01*
X277241459Y-140479375D01*
X277170590Y-140429988D01*
G37*
G36*
X282787726Y-137782795D02*
G01*
X282834496Y-137785586D01*
X283060444Y-137802835D01*
X283240550Y-137823725D01*
X283375056Y-137848299D01*
X283464201Y-137876599D01*
X283508226Y-137908667D01*
X283513196Y-137930261D01*
X283518858Y-137992827D01*
X283523400Y-138086993D01*
X283526446Y-138204528D01*
X283527626Y-138337202D01*
X283527981Y-138735713D01*
X283468589Y-138774628D01*
X283461884Y-138778775D01*
X283439180Y-138789097D01*
X283407731Y-138796832D01*
X283362180Y-138802156D01*
X283297168Y-138805248D01*
X283207340Y-138806282D01*
X283087337Y-138805437D01*
X282931803Y-138802888D01*
X282735380Y-138798813D01*
X282061562Y-138784083D01*
X281748004Y-138949205D01*
X281747193Y-138949632D01*
X281585112Y-139037981D01*
X281424432Y-139130967D01*
X281273160Y-139223546D01*
X281139302Y-139310671D01*
X281030864Y-139387299D01*
X280955852Y-139448383D01*
X280949563Y-139454244D01*
X280913801Y-139492693D01*
X280908618Y-139522114D01*
X280929696Y-139561124D01*
X280940409Y-139574547D01*
X280987948Y-139620772D01*
X281059901Y-139682430D01*
X281146831Y-139751878D01*
X281239302Y-139821475D01*
X281327877Y-139883578D01*
X281331420Y-139885945D01*
X281454822Y-139966409D01*
X281553900Y-140026999D01*
X281624342Y-140065199D01*
X281661835Y-140078492D01*
X281692734Y-140089840D01*
X281734989Y-140124551D01*
X281755236Y-140143774D01*
X281813516Y-140188749D01*
X281883155Y-140234433D01*
X281989638Y-140298255D01*
X282720617Y-140309821D01*
X282778483Y-140310762D01*
X282981934Y-140314615D01*
X283144399Y-140318806D01*
X283270104Y-140323571D01*
X283363272Y-140329149D01*
X283428126Y-140335777D01*
X283468890Y-140343694D01*
X283489788Y-140353137D01*
X283495319Y-140358396D01*
X283507489Y-140378656D01*
X283516268Y-140413033D01*
X283522180Y-140467953D01*
X283525753Y-140549846D01*
X283527511Y-140665141D01*
X283527981Y-140820267D01*
X283527970Y-140870600D01*
X283527582Y-141010060D01*
X283526089Y-141111946D01*
X283522765Y-141182942D01*
X283516879Y-141229730D01*
X283507703Y-141258991D01*
X283494509Y-141277407D01*
X283476567Y-141291661D01*
X283474688Y-141292938D01*
X283451153Y-141304050D01*
X283414833Y-141312542D01*
X283360150Y-141318722D01*
X283281523Y-141322899D01*
X283173374Y-141325382D01*
X283030124Y-141326477D01*
X282846194Y-141326494D01*
X282752867Y-141326080D01*
X282575590Y-141324178D01*
X282403778Y-141321018D01*
X282247632Y-141316848D01*
X282117350Y-141311917D01*
X282023134Y-141306473D01*
X282012101Y-141305616D01*
X281901351Y-141295614D01*
X281819899Y-141283116D01*
X281752128Y-141263763D01*
X281682425Y-141233200D01*
X281595174Y-141187070D01*
X281532552Y-141150756D01*
X281420392Y-141079619D01*
X281301012Y-140998309D01*
X281191551Y-140918242D01*
X281138867Y-140877894D01*
X281027504Y-140792578D01*
X280898600Y-140693795D01*
X280764202Y-140590778D01*
X280636359Y-140492761D01*
X280540768Y-140420338D01*
X280431526Y-140339681D01*
X280335106Y-140270705D01*
X280259377Y-140219021D01*
X280212209Y-140190242D01*
X280175397Y-140173081D01*
X280058549Y-140144009D01*
X279947954Y-140159599D01*
X279837458Y-140220346D01*
X279796621Y-140250654D01*
X279726096Y-140302993D01*
X279672589Y-140342703D01*
X279641981Y-140370466D01*
X279582980Y-140457512D01*
X279542043Y-140566185D01*
X279526342Y-140679949D01*
X279525499Y-140702325D01*
X279513220Y-140784430D01*
X279491135Y-140850307D01*
X279490633Y-140851278D01*
X279466462Y-140922530D01*
X279456237Y-141000671D01*
X279447329Y-141080048D01*
X279408649Y-141169375D01*
X279343220Y-141226757D01*
X279304583Y-141239786D01*
X279250190Y-141238639D01*
X279170178Y-141219120D01*
X279130723Y-141206825D01*
X279017142Y-141165114D01*
X278905154Y-141116168D01*
X278805397Y-141065260D01*
X278728507Y-141017663D01*
X278685122Y-140978652D01*
X278677738Y-140966499D01*
X278658144Y-140905787D01*
X278648842Y-140814805D01*
X278649818Y-140689841D01*
X278661057Y-140527181D01*
X278682545Y-140323115D01*
X278695445Y-140221973D01*
X278719323Y-140081044D01*
X278748631Y-139971703D01*
X278786894Y-139884701D01*
X278837634Y-139810786D01*
X278904374Y-139740711D01*
X278914533Y-139731606D01*
X278968451Y-139687450D01*
X279050208Y-139623758D01*
X279152342Y-139546059D01*
X279267393Y-139459882D01*
X279387900Y-139370756D01*
X279506402Y-139284210D01*
X279615437Y-139205773D01*
X279707545Y-139140973D01*
X279775265Y-139095340D01*
X279781181Y-139091520D01*
X279874872Y-139029937D01*
X279967401Y-138967385D01*
X280049355Y-138910402D01*
X280111322Y-138865526D01*
X280143889Y-138839294D01*
X280170129Y-138819271D01*
X280224807Y-138793075D01*
X280259166Y-138778337D01*
X280307478Y-138745104D01*
X280335375Y-138723267D01*
X280396319Y-138680155D01*
X280483233Y-138620608D01*
X280589494Y-138548998D01*
X280708481Y-138469700D01*
X280833570Y-138387084D01*
X280958140Y-138305526D01*
X281075569Y-138229396D01*
X281179234Y-138163069D01*
X281262512Y-138110917D01*
X281318782Y-138077313D01*
X281362978Y-138051609D01*
X281444752Y-138000860D01*
X281509646Y-137956849D01*
X281538910Y-137936653D01*
X281663972Y-137872520D01*
X281818302Y-137824323D01*
X282004870Y-137791657D01*
X282226650Y-137774117D01*
X282486611Y-137771298D01*
X282787726Y-137782795D01*
G37*
G36*
X282486997Y-151495121D02*
G01*
X282555624Y-151495212D01*
X282771846Y-151496236D01*
X282947979Y-151498763D01*
X283088838Y-151503325D01*
X283199239Y-151510457D01*
X283283997Y-151520693D01*
X283347930Y-151534568D01*
X283395852Y-151552616D01*
X283432580Y-151575370D01*
X283462929Y-151603364D01*
X283527981Y-151673002D01*
X283527981Y-152063283D01*
X283527994Y-152088890D01*
X283527818Y-152241399D01*
X283523781Y-152353963D01*
X283511149Y-152432085D01*
X283485187Y-152481267D01*
X283441161Y-152507010D01*
X283374337Y-152514816D01*
X283279979Y-152510189D01*
X283153352Y-152498629D01*
X283078134Y-152493095D01*
X282939458Y-152486679D01*
X282778784Y-152482485D01*
X282610465Y-152480850D01*
X282448857Y-152482111D01*
X282345014Y-152484104D01*
X282212607Y-152487699D01*
X282112140Y-152493316D01*
X282034826Y-152502654D01*
X281971884Y-152517411D01*
X281914528Y-152539287D01*
X281853975Y-152569979D01*
X281781441Y-152611188D01*
X281776363Y-152614114D01*
X281718147Y-152647304D01*
X281637447Y-152692939D01*
X281550112Y-152742054D01*
X281486251Y-152778963D01*
X281374270Y-152847033D01*
X281253486Y-152923454D01*
X281136100Y-153000326D01*
X281034314Y-153069752D01*
X280960331Y-153123833D01*
X280902608Y-153168944D01*
X280971897Y-153241385D01*
X281002164Y-153270004D01*
X281080456Y-153333802D01*
X281184191Y-153410446D01*
X281304222Y-153493280D01*
X281431401Y-153575652D01*
X281441556Y-153582132D01*
X281488392Y-153615733D01*
X281511329Y-153638586D01*
X281525603Y-153652974D01*
X281574859Y-153685688D01*
X281649046Y-153728166D01*
X281738025Y-153775111D01*
X281831654Y-153821228D01*
X281919793Y-153861220D01*
X281992302Y-153889791D01*
X282108406Y-153921032D01*
X282289811Y-153948958D01*
X282508116Y-153964481D01*
X282758994Y-153967321D01*
X283038115Y-153957201D01*
X283073698Y-153955183D01*
X283213173Y-153947909D01*
X283314870Y-153944254D01*
X283385672Y-153944410D01*
X283432464Y-153948572D01*
X283462127Y-153956933D01*
X283481547Y-153969688D01*
X283482692Y-153970750D01*
X283498995Y-153994581D01*
X283511435Y-154035534D01*
X283521113Y-154100896D01*
X283529128Y-154197951D01*
X283536582Y-154333984D01*
X283538808Y-154376820D01*
X283546680Y-154491863D01*
X283555958Y-154587596D01*
X283565666Y-154655044D01*
X283574826Y-154685228D01*
X283575466Y-154685898D01*
X283590965Y-154724350D01*
X283597379Y-154783587D01*
X283597287Y-154791785D01*
X283591275Y-154836630D01*
X283571941Y-154871593D01*
X283533801Y-154898626D01*
X283471371Y-154919680D01*
X283379165Y-154936708D01*
X283251699Y-154951661D01*
X283083488Y-154966493D01*
X282984752Y-154975009D01*
X282851374Y-154988140D01*
X282734262Y-155001501D01*
X282643379Y-155013930D01*
X282588684Y-155024263D01*
X282537796Y-155035122D01*
X282468266Y-155034890D01*
X282385462Y-155012885D01*
X282351484Y-155002151D01*
X282277277Y-154983503D01*
X282223190Y-154976124D01*
X282205988Y-154975784D01*
X282100667Y-154965045D01*
X281974116Y-154942111D01*
X281843176Y-154910904D01*
X281724688Y-154875342D01*
X281635494Y-154839345D01*
X281593265Y-154816903D01*
X281481429Y-154751502D01*
X281349720Y-154668564D01*
X281209468Y-154575520D01*
X281072003Y-154479802D01*
X280948654Y-154388841D01*
X280938035Y-154380779D01*
X280868328Y-154330983D01*
X280812009Y-154295790D01*
X280780424Y-154282378D01*
X280759777Y-154274535D01*
X280711722Y-154242475D01*
X280653192Y-154194154D01*
X280647744Y-154189289D01*
X280581099Y-154132649D01*
X280488322Y-154057094D01*
X280379303Y-153970418D01*
X280263930Y-153880417D01*
X280152093Y-153794886D01*
X280053683Y-153721619D01*
X279968066Y-153647352D01*
X279908951Y-153559464D01*
X279873274Y-153446566D01*
X279869713Y-153427458D01*
X279860283Y-153333491D01*
X279857765Y-153219903D01*
X279861506Y-153099845D01*
X279870854Y-152986463D01*
X279885155Y-152892906D01*
X279903759Y-152832322D01*
X279935679Y-152786884D01*
X279993549Y-152723294D01*
X280062279Y-152659527D01*
X280077570Y-152646686D01*
X280195226Y-152552472D01*
X280337457Y-152444862D01*
X280498114Y-152327982D01*
X280671047Y-152205961D01*
X280850105Y-152082926D01*
X281029139Y-151963004D01*
X281201998Y-151850323D01*
X281362533Y-151749010D01*
X281504595Y-151663193D01*
X281622032Y-151596998D01*
X281708696Y-151554554D01*
X281710291Y-151553882D01*
X281753009Y-151536316D01*
X281792059Y-151522621D01*
X281833682Y-151512321D01*
X281884120Y-151504939D01*
X281949614Y-151499999D01*
X282036408Y-151497024D01*
X282150741Y-151495537D01*
X282298857Y-151495062D01*
X282486997Y-151495121D01*
G37*
G36*
X277469629Y-134897468D02*
G01*
X277601943Y-134904244D01*
X277698112Y-134919747D01*
X277764632Y-134946046D01*
X277807999Y-134985210D01*
X277834707Y-135039306D01*
X277846571Y-135104423D01*
X277832650Y-135214900D01*
X277781378Y-135324951D01*
X277765727Y-135351035D01*
X277761659Y-135383413D01*
X277790833Y-135417043D01*
X277839885Y-135489396D01*
X277849105Y-135582608D01*
X277817025Y-135693653D01*
X277812874Y-135703099D01*
X277789671Y-135762450D01*
X277787053Y-135791315D01*
X277803871Y-135798892D01*
X277825632Y-135810820D01*
X277837270Y-135856725D01*
X277837270Y-135914557D01*
X277120148Y-135914557D01*
X277120148Y-135798892D01*
X277384866Y-135798892D01*
X277439770Y-135798807D01*
X277537496Y-135797430D01*
X277601907Y-135793154D01*
X277642037Y-135784433D01*
X277666921Y-135769723D01*
X277685594Y-135747479D01*
X277708201Y-135697170D01*
X277720221Y-135622890D01*
X277715659Y-135551464D01*
X277693846Y-135502790D01*
X277687194Y-135498202D01*
X277634329Y-135485341D01*
X277535727Y-135477611D01*
X277391581Y-135475031D01*
X277117075Y-135475031D01*
X277131715Y-135347799D01*
X277395286Y-135345473D01*
X277489988Y-135344451D01*
X277572872Y-135341956D01*
X277625565Y-135336282D01*
X277656974Y-135325484D01*
X277676004Y-135307616D01*
X277691560Y-135280731D01*
X277693242Y-135277390D01*
X277712998Y-135208988D01*
X277717151Y-135132797D01*
X277715985Y-135120731D01*
X277707066Y-135081018D01*
X277686170Y-135053045D01*
X277646441Y-135034640D01*
X277581022Y-135023630D01*
X277483059Y-135017844D01*
X277345695Y-135015108D01*
X277301234Y-135014544D01*
X277213234Y-135012480D01*
X277159679Y-135007745D01*
X277132015Y-134998041D01*
X277121689Y-134981071D01*
X277120148Y-134954539D01*
X277120148Y-134896707D01*
X277386920Y-134896707D01*
X277469629Y-134897468D01*
G37*
G36*
X277480794Y-141263197D02*
G01*
X277350835Y-141247827D01*
X277243119Y-141197282D01*
X277165478Y-141112569D01*
X277163161Y-141108663D01*
X277134023Y-141031744D01*
X277120284Y-140938011D01*
X277121016Y-140839826D01*
X277135292Y-140749551D01*
X277162185Y-140679549D01*
X277200766Y-140642182D01*
X277219083Y-140637029D01*
X277263779Y-140638966D01*
X277291279Y-140657748D01*
X277287073Y-140686006D01*
X277281277Y-140694588D01*
X277258423Y-140743692D01*
X277235429Y-140809997D01*
X277224295Y-140860958D01*
X277226898Y-140963859D01*
X277262919Y-141049741D01*
X277329123Y-141108311D01*
X277382320Y-141133977D01*
X277422172Y-141143885D01*
X277447087Y-141129829D01*
X277460558Y-141086236D01*
X277466079Y-141007532D01*
X277466628Y-140945978D01*
X277559675Y-140945978D01*
X277559679Y-140951193D01*
X277563149Y-141057739D01*
X277574955Y-141121469D01*
X277597854Y-141145391D01*
X277634602Y-141132508D01*
X277687957Y-141085827D01*
X277728239Y-141027817D01*
X277747670Y-140944256D01*
X277732781Y-140862460D01*
X277683786Y-140797293D01*
X277681215Y-140795292D01*
X277630187Y-140762775D01*
X277591254Y-140749348D01*
X277579360Y-140754568D01*
X277567671Y-140783932D01*
X277561486Y-140845393D01*
X277559675Y-140945978D01*
X277466628Y-140945978D01*
X277467143Y-140888146D01*
X277467143Y-140633683D01*
X277556254Y-140633683D01*
X277657175Y-140650961D01*
X277748078Y-140704694D01*
X277812700Y-140787162D01*
X277845062Y-140890478D01*
X277839183Y-141006758D01*
X277800572Y-141107656D01*
X277725430Y-141192482D01*
X277618368Y-141244665D01*
X277597854Y-141247428D01*
X277480794Y-141263197D01*
G37*
%TO.C,J1*%
X306418000Y-160648000D02*
X305871471Y-160648000D01*
X304198000Y-160648000D02*
X304198000Y-169473000D01*
X306418000Y-160648000D02*
X306418000Y-169473000D01*
X306418000Y-169473000D02*
X305615530Y-169473000D01*
X306418000Y-159888000D02*
X306418000Y-159128000D01*
X306418000Y-159128000D02*
X305308000Y-159128000D01*
X305000470Y-169473000D02*
X304198000Y-169473000D01*
X304744529Y-160648000D02*
X304198000Y-160648000D01*
%TD*%
M02*
