%TF.GenerationSoftware,KiCad,Pcbnew,(6.0.6)*%
%TF.CreationDate,2023-01-13T15:08:00+05:30*%
%TF.ProjectId,MegaController,4d656761-436f-46e7-9472-6f6c6c65722e,V2.0*%
%TF.SameCoordinates,Original*%
%TF.FileFunction,Soldermask,Bot*%
%TF.FilePolarity,Negative*%
%FSLAX46Y46*%
G04 Gerber Fmt 4.6, Leading zero omitted, Abs format (unit mm)*
G04 Created by KiCad (PCBNEW (6.0.6)) date 2023-01-13 15:08:00*
%MOMM*%
%LPD*%
G01*
G04 APERTURE LIST*
G04 Aperture macros list*
%AMRoundRect*
0 Rectangle with rounded corners*
0 $1 Rounding radius*
0 $2 $3 $4 $5 $6 $7 $8 $9 X,Y pos of 4 corners*
0 Add a 4 corners polygon primitive as box body*
4,1,4,$2,$3,$4,$5,$6,$7,$8,$9,$2,$3,0*
0 Add four circle primitives for the rounded corners*
1,1,$1+$1,$2,$3*
1,1,$1+$1,$4,$5*
1,1,$1+$1,$6,$7*
1,1,$1+$1,$8,$9*
0 Add four rect primitives between the rounded corners*
20,1,$1+$1,$2,$3,$4,$5,0*
20,1,$1+$1,$4,$5,$6,$7,0*
20,1,$1+$1,$6,$7,$8,$9,0*
20,1,$1+$1,$8,$9,$2,$3,0*%
%AMFreePoly0*
4,1,22,0.500000,-0.750000,0.000000,-0.750000,0.000000,-0.745033,-0.079941,-0.743568,-0.215256,-0.701293,-0.333266,-0.622738,-0.424486,-0.514219,-0.481581,-0.384460,-0.499164,-0.250000,-0.500000,-0.250000,-0.500000,0.250000,-0.499164,0.250000,-0.499963,0.256109,-0.478152,0.396186,-0.417904,0.524511,-0.324060,0.630769,-0.204165,0.706417,-0.067858,0.745374,0.000000,0.744959,0.000000,0.750000,
0.500000,0.750000,0.500000,-0.750000,0.500000,-0.750000,$1*%
%AMFreePoly1*
4,1,20,0.000000,0.744959,0.073905,0.744508,0.209726,0.703889,0.328688,0.626782,0.421226,0.519385,0.479903,0.390333,0.500000,0.250000,0.500000,-0.250000,0.499851,-0.262216,0.476331,-0.402017,0.414519,-0.529596,0.319384,-0.634700,0.198574,-0.708877,0.061801,-0.746166,0.000000,-0.745033,0.000000,-0.750000,-0.500000,-0.750000,-0.500000,0.750000,0.000000,0.750000,0.000000,0.744959,
0.000000,0.744959,$1*%
G04 Aperture macros list end*
%ADD10O,1.700000X1.950000*%
%ADD11RoundRect,0.250000X-0.600000X-0.725000X0.600000X-0.725000X0.600000X0.725000X-0.600000X0.725000X0*%
%ADD12R,1.530000X1.530000*%
%ADD13C,1.530000*%
%ADD14R,1.600000X1.600000*%
%ADD15O,1.600000X1.600000*%
%ADD16R,1.500000X1.050000*%
%ADD17O,1.500000X1.050000*%
%ADD18C,2.400000*%
%ADD19O,2.400000X2.400000*%
%ADD20RoundRect,0.250000X0.725000X-0.600000X0.725000X0.600000X-0.725000X0.600000X-0.725000X-0.600000X0*%
%ADD21O,1.950000X1.700000*%
%ADD22C,1.400000*%
%ADD23O,1.400000X1.400000*%
%ADD24C,7.400000*%
%ADD25R,1.700000X1.700000*%
%ADD26O,1.700000X1.700000*%
%ADD27C,7.500000*%
%ADD28R,2.600000X2.600000*%
%ADD29C,2.600000*%
%ADD30O,1.700000X2.000000*%
%ADD31RoundRect,0.250000X0.600000X0.750000X-0.600000X0.750000X-0.600000X-0.750000X0.600000X-0.750000X0*%
%ADD32RoundRect,0.250000X-0.725000X0.600000X-0.725000X-0.600000X0.725000X-0.600000X0.725000X0.600000X0*%
%ADD33R,2.000000X2.000000*%
%ADD34C,2.000000*%
%ADD35O,1.727200X1.727200*%
%ADD36C,3.200000*%
%ADD37R,1.727200X1.727200*%
%ADD38R,1.000000X1.000000*%
%ADD39O,1.000000X1.000000*%
%ADD40FreePoly0,90.000000*%
%ADD41FreePoly1,90.000000*%
G04 APERTURE END LIST*
D10*
%TO.C,J39*%
X202250000Y-209007500D03*
X199750000Y-209007500D03*
X197250000Y-209007500D03*
X194750000Y-209007500D03*
X192250000Y-209007500D03*
X189750000Y-209007500D03*
X187250000Y-209007500D03*
X184750000Y-209007500D03*
X182250000Y-209007500D03*
D11*
X179750000Y-209007500D03*
%TD*%
%TO.C,J38*%
X159825000Y-209082500D03*
D10*
X162325000Y-209082500D03*
X164825000Y-209082500D03*
X167325000Y-209082500D03*
X169825000Y-209082500D03*
X172325000Y-209082500D03*
%TD*%
D12*
%TO.C,TB1*%
X187415000Y-187805000D03*
D13*
X184875000Y-187805000D03*
X182335000Y-187805000D03*
X179795000Y-187805000D03*
X177255000Y-187805000D03*
X174715000Y-187805000D03*
X172175000Y-187805000D03*
X169635000Y-187805000D03*
X197575000Y-203045000D03*
X195035000Y-203045000D03*
X192495000Y-203045000D03*
X189955000Y-203045000D03*
X187415000Y-203045000D03*
X184875000Y-203045000D03*
X182335000Y-203045000D03*
X179795000Y-203045000D03*
X177255000Y-203045000D03*
X174715000Y-203045000D03*
X172175000Y-203045000D03*
X169635000Y-203045000D03*
X167095000Y-203045000D03*
X164555000Y-203045000D03*
X162015000Y-203045000D03*
X159475000Y-203045000D03*
%TD*%
D14*
%TO.C,RN4*%
X272340000Y-133197000D03*
D15*
X272340000Y-130657000D03*
X272340000Y-128117000D03*
X272340000Y-125577000D03*
X272340000Y-123037000D03*
X272340000Y-120497000D03*
X272340000Y-117957000D03*
X272340000Y-115417000D03*
X272340000Y-112877000D03*
%TD*%
D14*
%TO.C,RN3*%
X292862000Y-196327000D03*
D15*
X292862000Y-198867000D03*
X292862000Y-201407000D03*
X292862000Y-203947000D03*
X292862000Y-206487000D03*
X292862000Y-209027000D03*
X292862000Y-211567000D03*
X292862000Y-214107000D03*
X292862000Y-216647000D03*
%TD*%
D16*
%TO.C,Q1*%
X96190000Y-119530000D03*
D17*
X96190000Y-120800000D03*
X96190000Y-122070000D03*
%TD*%
D18*
%TO.C,R6*%
X98044000Y-193330000D03*
D19*
X118364000Y-193330000D03*
%TD*%
D18*
%TO.C,R27*%
X97790000Y-80518000D03*
D19*
X118110000Y-80518000D03*
%TD*%
D20*
%TO.C,J37*%
X247396000Y-69522000D03*
D21*
X247396000Y-67022000D03*
X247396000Y-64522000D03*
X247396000Y-62022000D03*
%TD*%
D14*
%TO.C,RN1*%
X292608000Y-112989000D03*
D15*
X292608000Y-115529000D03*
X292608000Y-118069000D03*
X292608000Y-120609000D03*
X292608000Y-123149000D03*
X292608000Y-125689000D03*
X292608000Y-128229000D03*
X292608000Y-130769000D03*
X292608000Y-133309000D03*
%TD*%
D22*
%TO.C,R17*%
X109728000Y-120894000D03*
D23*
X102108000Y-120894000D03*
%TD*%
D18*
%TO.C,R4*%
X315519000Y-69088000D03*
D19*
X295199000Y-69088000D03*
%TD*%
D24*
%TO.C,H3*%
X157750000Y-67350000D03*
%TD*%
D25*
%TO.C,JP7*%
X314701000Y-60198000D03*
D26*
X317241000Y-60198000D03*
%TD*%
D14*
%TO.C,RN8*%
X144196000Y-195557000D03*
D15*
X144196000Y-198097000D03*
X144196000Y-200637000D03*
X144196000Y-203177000D03*
X144196000Y-205717000D03*
X144196000Y-208257000D03*
X144196000Y-210797000D03*
X144196000Y-213337000D03*
X144196000Y-215877000D03*
%TD*%
D20*
%TO.C,J36*%
X255524000Y-69596000D03*
D21*
X255524000Y-67096000D03*
X255524000Y-64596000D03*
X255524000Y-62096000D03*
%TD*%
D18*
%TO.C,R10*%
X98044000Y-212852000D03*
D19*
X118364000Y-212852000D03*
%TD*%
D20*
%TO.C,J35*%
X263652000Y-69596000D03*
D21*
X263652000Y-67096000D03*
X263652000Y-64596000D03*
X263652000Y-62096000D03*
%TD*%
D27*
%TO.C,H1*%
X305816000Y-223000000D03*
%TD*%
D20*
%TO.C,J15*%
X77961000Y-80632000D03*
D21*
X77961000Y-78132000D03*
X77961000Y-75632000D03*
X77961000Y-73132000D03*
X77961000Y-70632000D03*
X77961000Y-68132000D03*
X77961000Y-65632000D03*
X77961000Y-63132000D03*
%TD*%
D28*
%TO.C,J12*%
X68885000Y-127005000D03*
D29*
X68885000Y-121925000D03*
%TD*%
D18*
%TO.C,R15*%
X98044000Y-141732000D03*
D19*
X118364000Y-141732000D03*
%TD*%
D14*
%TO.C,RN9*%
X143625000Y-137825000D03*
D15*
X143625000Y-140365000D03*
X143625000Y-142905000D03*
X143625000Y-145445000D03*
X143625000Y-147985000D03*
X143625000Y-150525000D03*
X143625000Y-153065000D03*
X143625000Y-155605000D03*
X143625000Y-158145000D03*
%TD*%
D25*
%TO.C,J10*%
X323139000Y-82550000D03*
D26*
X323139000Y-80010000D03*
X323139000Y-77470000D03*
X323139000Y-74930000D03*
X323139000Y-72390000D03*
X323139000Y-69850000D03*
%TD*%
D18*
%TO.C,R29*%
X97790000Y-89916000D03*
D19*
X118110000Y-89916000D03*
%TD*%
D14*
%TO.C,RN12*%
X87376000Y-159273000D03*
D15*
X87376000Y-156733000D03*
X87376000Y-154193000D03*
X87376000Y-151653000D03*
X87376000Y-149113000D03*
X87376000Y-146573000D03*
X87376000Y-144033000D03*
X87376000Y-141493000D03*
X87376000Y-138953000D03*
%TD*%
D18*
%TO.C,R30*%
X97790000Y-94488000D03*
D19*
X118110000Y-94488000D03*
%TD*%
D18*
%TO.C,R14*%
X98044000Y-136906000D03*
D19*
X118364000Y-136906000D03*
%TD*%
D14*
%TO.C,RN11*%
X87393000Y-215039000D03*
D15*
X87393000Y-212499000D03*
X87393000Y-209959000D03*
X87393000Y-207419000D03*
X87393000Y-204879000D03*
X87393000Y-202339000D03*
X87393000Y-199799000D03*
X87393000Y-197259000D03*
X87393000Y-194719000D03*
%TD*%
D20*
%TO.C,J19*%
X319024000Y-131546000D03*
D21*
X319024000Y-129046000D03*
X319024000Y-126546000D03*
X319024000Y-124046000D03*
X319024000Y-121546000D03*
X319024000Y-119046000D03*
X319024000Y-116546000D03*
X319024000Y-114046000D03*
%TD*%
D25*
%TO.C,JP2*%
X106680000Y-115814000D03*
D26*
X104140000Y-115814000D03*
%TD*%
D30*
%TO.C,J28*%
X174799000Y-225116000D03*
D31*
X177299000Y-225116000D03*
%TD*%
D28*
%TO.C,J31*%
X68326000Y-185420000D03*
D29*
X68326000Y-190420000D03*
X68326000Y-195420000D03*
X68326000Y-200420000D03*
X68326000Y-205420000D03*
X68326000Y-210420000D03*
X68326000Y-215420000D03*
X68326000Y-220420000D03*
%TD*%
D20*
%TO.C,J33*%
X177306000Y-69342000D03*
D21*
X177306000Y-66842000D03*
X177306000Y-64342000D03*
X177306000Y-61842000D03*
%TD*%
D18*
%TO.C,R19*%
X118364000Y-151384000D03*
D19*
X98044000Y-151384000D03*
%TD*%
D18*
%TO.C,R21*%
X118364000Y-161544000D03*
D19*
X98044000Y-161544000D03*
%TD*%
D11*
%TO.C,J24*%
X204725000Y-224071000D03*
D10*
X207225000Y-224071000D03*
X209725000Y-224071000D03*
X212225000Y-224071000D03*
%TD*%
D25*
%TO.C,JP6*%
X314706000Y-64008000D03*
D26*
X317246000Y-64008000D03*
%TD*%
D20*
%TO.C,J32*%
X185608000Y-69342000D03*
D21*
X185608000Y-66842000D03*
X185608000Y-64342000D03*
X185608000Y-61842000D03*
%TD*%
D28*
%TO.C,J29*%
X68326000Y-133350000D03*
D29*
X68326000Y-138350000D03*
X68326000Y-143350000D03*
X68326000Y-148350000D03*
X68326000Y-153350000D03*
X68326000Y-158350000D03*
X68326000Y-163350000D03*
X68326000Y-168350000D03*
%TD*%
D14*
%TO.C,RN6*%
X272796000Y-216662000D03*
D15*
X272796000Y-214122000D03*
X272796000Y-211582000D03*
X272796000Y-209042000D03*
X272796000Y-206502000D03*
X272796000Y-203962000D03*
X272796000Y-201422000D03*
X272796000Y-198882000D03*
X272796000Y-196342000D03*
%TD*%
D27*
%TO.C,H2*%
X82300000Y-223000000D03*
%TD*%
D32*
%TO.C,J11*%
X258589000Y-106994000D03*
D21*
X258589000Y-109494000D03*
X258589000Y-111994000D03*
X258589000Y-114494000D03*
%TD*%
D28*
%TO.C,J18*%
X329895000Y-104394000D03*
D29*
X329895000Y-109394000D03*
X329895000Y-114394000D03*
X329895000Y-119394000D03*
X329895000Y-124394000D03*
X329895000Y-129394000D03*
X329895000Y-134394000D03*
X329895000Y-139394000D03*
%TD*%
D22*
%TO.C,R18*%
X89662000Y-124704000D03*
D23*
X89662000Y-117084000D03*
%TD*%
D25*
%TO.C,J8*%
X257065000Y-123504000D03*
D26*
X257065000Y-120964000D03*
%TD*%
D18*
%TO.C,R8*%
X98044000Y-202946000D03*
D19*
X118364000Y-202946000D03*
%TD*%
D25*
%TO.C,JP4*%
X238760000Y-67260000D03*
D26*
X238760000Y-69800000D03*
%TD*%
D14*
%TO.C,RN13*%
X86868000Y-82057000D03*
D15*
X86868000Y-79517000D03*
X86868000Y-76977000D03*
X86868000Y-74437000D03*
X86868000Y-71897000D03*
X86868000Y-69357000D03*
X86868000Y-66817000D03*
X86868000Y-64277000D03*
X86868000Y-61737000D03*
%TD*%
D18*
%TO.C,R1*%
X315519000Y-82804000D03*
D19*
X295199000Y-82804000D03*
%TD*%
D20*
%TO.C,J34*%
X169098000Y-69342000D03*
D21*
X169098000Y-66842000D03*
X169098000Y-64342000D03*
X169098000Y-61842000D03*
%TD*%
D11*
%TO.C,J26*%
X252516000Y-223774000D03*
D10*
X255016000Y-223774000D03*
X257516000Y-223774000D03*
%TD*%
D28*
%TO.C,J20*%
X330166000Y-190920000D03*
D29*
X330166000Y-195920000D03*
X330166000Y-200920000D03*
X330166000Y-205920000D03*
X330166000Y-210920000D03*
X330166000Y-215920000D03*
X330166000Y-220920000D03*
X330166000Y-225920000D03*
%TD*%
D18*
%TO.C,R28*%
X97790000Y-85090000D03*
D19*
X118110000Y-85090000D03*
%TD*%
D27*
%TO.C,H5*%
X82300000Y-96012000D03*
%TD*%
D14*
%TO.C,RN5*%
X272796000Y-174244000D03*
D15*
X272796000Y-171704000D03*
X272796000Y-169164000D03*
X272796000Y-166624000D03*
X272796000Y-164084000D03*
X272796000Y-161544000D03*
X272796000Y-159004000D03*
X272796000Y-156464000D03*
X272796000Y-153924000D03*
%TD*%
D20*
%TO.C,J13*%
X78232000Y-213360000D03*
D21*
X78232000Y-210860000D03*
X78232000Y-208360000D03*
X78232000Y-205860000D03*
X78232000Y-203360000D03*
X78232000Y-200860000D03*
X78232000Y-198360000D03*
X78232000Y-195860000D03*
%TD*%
D28*
%TO.C,J30*%
X68326000Y-61240000D03*
D29*
X68326000Y-66240000D03*
X68326000Y-71240000D03*
X68326000Y-76240000D03*
X68326000Y-81240000D03*
X68326000Y-86240000D03*
X68326000Y-91240000D03*
X68326000Y-96240000D03*
%TD*%
D11*
%TO.C,J25*%
X220225000Y-224000000D03*
D10*
X222725000Y-224000000D03*
X225225000Y-224000000D03*
X227725000Y-224000000D03*
%TD*%
D18*
%TO.C,R12*%
X98044000Y-222758000D03*
D19*
X118364000Y-222758000D03*
%TD*%
D33*
%TO.C,BZ1*%
X80518000Y-124196000D03*
D34*
X80518000Y-116596000D03*
%TD*%
D28*
%TO.C,J17*%
X68885000Y-114305000D03*
D29*
X68885000Y-109225000D03*
X68885000Y-104145000D03*
%TD*%
D18*
%TO.C,R11*%
X98044000Y-217678000D03*
D19*
X118364000Y-217678000D03*
%TD*%
D18*
%TO.C,R24*%
X98044000Y-66040000D03*
D19*
X118364000Y-66040000D03*
%TD*%
D14*
%TO.C,RN2*%
X292608000Y-153670000D03*
D15*
X292608000Y-156210000D03*
X292608000Y-158750000D03*
X292608000Y-161290000D03*
X292608000Y-163830000D03*
X292608000Y-166370000D03*
X292608000Y-168910000D03*
X292608000Y-171450000D03*
X292608000Y-173990000D03*
%TD*%
D18*
%TO.C,R9*%
X98044000Y-208026000D03*
D19*
X118364000Y-208026000D03*
%TD*%
D18*
%TO.C,R3*%
X315519000Y-73660000D03*
D19*
X295199000Y-73660000D03*
%TD*%
D14*
%TO.C,RN7*%
X272593000Y-81549000D03*
D15*
X272593000Y-79009000D03*
X272593000Y-76469000D03*
X272593000Y-73929000D03*
X272593000Y-71389000D03*
X272593000Y-68849000D03*
X272593000Y-66309000D03*
X272593000Y-63769000D03*
X272593000Y-61229000D03*
%TD*%
D25*
%TO.C,JP5*%
X290576000Y-61209000D03*
D26*
X290576000Y-63749000D03*
%TD*%
D20*
%TO.C,J23*%
X319007000Y-174866000D03*
D21*
X319007000Y-172366000D03*
X319007000Y-169866000D03*
X319007000Y-167366000D03*
X319007000Y-164866000D03*
X319007000Y-162366000D03*
X319007000Y-159866000D03*
X319007000Y-157366000D03*
%TD*%
D27*
%TO.C,H4*%
X330454000Y-96774000D03*
%TD*%
D18*
%TO.C,R23*%
X98044000Y-60706000D03*
D19*
X118364000Y-60706000D03*
%TD*%
D20*
%TO.C,J14*%
X78215000Y-157480000D03*
D21*
X78215000Y-154980000D03*
X78215000Y-152480000D03*
X78215000Y-149980000D03*
X78215000Y-147480000D03*
X78215000Y-144980000D03*
X78215000Y-142480000D03*
X78215000Y-139980000D03*
%TD*%
D18*
%TO.C,R25*%
X98044000Y-70866000D03*
D19*
X118364000Y-70866000D03*
%TD*%
D18*
%TO.C,R5*%
X98044000Y-188758000D03*
D19*
X118364000Y-188758000D03*
%TD*%
D20*
%TO.C,J22*%
X319007000Y-215760000D03*
D21*
X319007000Y-213260000D03*
X319007000Y-210760000D03*
X319007000Y-208260000D03*
X319007000Y-205760000D03*
X319007000Y-203260000D03*
X319007000Y-200760000D03*
X319007000Y-198260000D03*
%TD*%
D28*
%TO.C,J21*%
X330183000Y-147928000D03*
D29*
X330183000Y-152928000D03*
X330183000Y-157928000D03*
X330183000Y-162928000D03*
X330183000Y-167928000D03*
X330183000Y-172928000D03*
X330183000Y-177928000D03*
X330183000Y-182928000D03*
%TD*%
D18*
%TO.C,R26*%
X98044000Y-75692000D03*
D19*
X118364000Y-75692000D03*
%TD*%
D18*
%TO.C,R20*%
X118364000Y-156464000D03*
D19*
X98044000Y-156464000D03*
%TD*%
D15*
%TO.C,RN10*%
X143225000Y-89720000D03*
X143225000Y-87180000D03*
X143225000Y-84640000D03*
X143225000Y-82100000D03*
X143225000Y-79560000D03*
X143225000Y-77020000D03*
X143225000Y-74480000D03*
X143225000Y-71940000D03*
D14*
X143225000Y-69400000D03*
%TD*%
D18*
%TO.C,R16*%
X98044000Y-146558000D03*
D19*
X118364000Y-146558000D03*
%TD*%
D28*
%TO.C,J9*%
X330200000Y-63754000D03*
D29*
X330200000Y-68834000D03*
X330200000Y-73914000D03*
X330200000Y-78994000D03*
X330200000Y-84074000D03*
X330200000Y-89154000D03*
%TD*%
D28*
%TO.C,J27*%
X232344000Y-68072000D03*
D29*
X227344000Y-68072000D03*
X222344000Y-68072000D03*
X217344000Y-68072000D03*
X212344000Y-68072000D03*
X207344000Y-68072000D03*
X202344000Y-68072000D03*
X197344000Y-68072000D03*
%TD*%
D18*
%TO.C,R13*%
X98044000Y-132080000D03*
D19*
X118364000Y-132080000D03*
%TD*%
D18*
%TO.C,R22*%
X118364000Y-166370000D03*
D19*
X98044000Y-166370000D03*
%TD*%
D18*
%TO.C,R2*%
X315519000Y-78232000D03*
D19*
X295199000Y-78232000D03*
%TD*%
D18*
%TO.C,R7*%
X98044000Y-198120000D03*
D19*
X118364000Y-198120000D03*
%TD*%
D11*
%TO.C,J7*%
X186717000Y-224354000D03*
D10*
X189217000Y-224354000D03*
X191717000Y-224354000D03*
X194217000Y-224354000D03*
X196717000Y-224354000D03*
%TD*%
%TO.C,J16*%
X165475000Y-224100000D03*
X162975000Y-224100000D03*
X160475000Y-224100000D03*
D11*
X157975000Y-224100000D03*
%TD*%
D35*
%TO.C,XA1*%
X201422000Y-155326000D03*
D36*
X249682000Y-168026000D03*
X206502000Y-117226000D03*
X249682000Y-93096000D03*
X201422000Y-169296000D03*
X234442000Y-117226000D03*
X201422000Y-86746000D03*
D35*
X201422000Y-147706000D03*
X201422000Y-145166000D03*
X229362000Y-117099000D03*
X249682000Y-89286000D03*
X249682000Y-86746000D03*
X201422000Y-132466000D03*
X201422000Y-129926000D03*
X201422000Y-127386000D03*
X201422000Y-124846000D03*
X201422000Y-122306000D03*
X201422000Y-119766000D03*
X201422000Y-117226000D03*
X201422000Y-114686000D03*
X201422000Y-109606000D03*
X201422000Y-107066000D03*
X201422000Y-104526000D03*
X201422000Y-101986000D03*
X201422000Y-99446000D03*
X201422000Y-96906000D03*
X201422000Y-94366000D03*
X201422000Y-91826000D03*
X249682000Y-159390000D03*
X249682000Y-119766000D03*
X249682000Y-122306000D03*
X249682000Y-124846000D03*
X249682000Y-127386000D03*
X249682000Y-129926000D03*
X249682000Y-132466000D03*
X249682000Y-135006000D03*
X249682000Y-137546000D03*
X249682000Y-141610000D03*
X249682000Y-144150000D03*
X249682000Y-146690000D03*
X249682000Y-149230000D03*
X249682000Y-151770000D03*
X249682000Y-154310000D03*
X249682000Y-114686000D03*
X249682000Y-112146000D03*
X249682000Y-109606000D03*
X249682000Y-107066000D03*
X249682000Y-104526000D03*
X249682000Y-101986000D03*
X249682000Y-99446000D03*
X249682000Y-96906000D03*
X247142000Y-89286000D03*
X247142000Y-86746000D03*
X244602000Y-89286000D03*
X244602000Y-86746000D03*
X242062000Y-89286000D03*
X242062000Y-86746000D03*
X239522000Y-89286000D03*
X239522000Y-86746000D03*
X236982000Y-89286000D03*
X236982000Y-86746000D03*
X234442000Y-89286000D03*
X234442000Y-86746000D03*
X231902000Y-89286000D03*
X231902000Y-86746000D03*
X229362000Y-89286000D03*
X229362000Y-86746000D03*
X226822000Y-89286000D03*
X226822000Y-86746000D03*
X224282000Y-89286000D03*
X224282000Y-86746000D03*
X221742000Y-89286000D03*
X221742000Y-86746000D03*
X219202000Y-89286000D03*
X219202000Y-86746000D03*
X216662000Y-89286000D03*
X216662000Y-86746000D03*
X214122000Y-89286000D03*
X214122000Y-86746000D03*
X211582000Y-89286000D03*
X211582000Y-86746000D03*
X209042000Y-89286000D03*
X209042000Y-86746000D03*
D37*
X249682000Y-156850000D03*
X201422000Y-142626000D03*
X201422000Y-140086000D03*
X224282000Y-117099000D03*
X206502000Y-89286000D03*
X206502000Y-86746000D03*
D35*
X201422000Y-152786000D03*
X229362000Y-119639000D03*
X226822000Y-117099000D03*
X201422000Y-150246000D03*
X224282000Y-119639000D03*
X226822000Y-119639000D03*
X249682000Y-164470000D03*
X249682000Y-161930000D03*
X201422000Y-137546000D03*
%TD*%
D38*
%TO.C,J5*%
X307848000Y-210820000D03*
D39*
X307848000Y-209550000D03*
X307848000Y-208280000D03*
X307848000Y-207010000D03*
X307848000Y-205740000D03*
X307848000Y-204470000D03*
X307848000Y-203200000D03*
X307848000Y-201930000D03*
%TD*%
D38*
%TO.C,J4*%
X307848000Y-168788000D03*
D39*
X307848000Y-167518000D03*
X307848000Y-166248000D03*
X307848000Y-164978000D03*
X307848000Y-163708000D03*
X307848000Y-162438000D03*
X307848000Y-161168000D03*
X307848000Y-159898000D03*
%TD*%
D38*
%TO.C,J2*%
X305553200Y-201914700D03*
D39*
X305553200Y-203184700D03*
X305553200Y-204454700D03*
X305553200Y-205724700D03*
X305553200Y-206994700D03*
X305553200Y-208264700D03*
X305553200Y-209534700D03*
X305553200Y-210804700D03*
%TD*%
D38*
%TO.C,J6*%
X307594000Y-127228000D03*
D39*
X307594000Y-125958000D03*
X307594000Y-124688000D03*
X307594000Y-123418000D03*
X307594000Y-122148000D03*
X307594000Y-120878000D03*
X307594000Y-119608000D03*
X307594000Y-118338000D03*
%TD*%
D38*
%TO.C,J3*%
X305308000Y-118328000D03*
D39*
X305308000Y-119598000D03*
X305308000Y-120868000D03*
X305308000Y-122138000D03*
X305308000Y-123408000D03*
X305308000Y-124678000D03*
X305308000Y-125948000D03*
X305308000Y-127218000D03*
%TD*%
D40*
%TO.C,JP1*%
X197104000Y-138572000D03*
D41*
X197104000Y-137272000D03*
%TD*%
D38*
%TO.C,J1*%
X305308000Y-159888000D03*
D39*
X305308000Y-161158000D03*
X305308000Y-162428000D03*
X305308000Y-163698000D03*
X305308000Y-164968000D03*
X305308000Y-166238000D03*
X305308000Y-167508000D03*
X305308000Y-168778000D03*
%TD*%
M02*
