%TF.GenerationSoftware,KiCad,Pcbnew,(6.0.6)*%
%TF.CreationDate,2023-01-13T16:31:05+05:30*%
%TF.ProjectId,ws2812-light,77733238-3132-42d6-9c69-6768742e6b69,rev?*%
%TF.SameCoordinates,Original*%
%TF.FileFunction,Paste,Top*%
%TF.FilePolarity,Positive*%
%FSLAX46Y46*%
G04 Gerber Fmt 4.6, Leading zero omitted, Abs format (unit mm)*
G04 Created by KiCad (PCBNEW (6.0.6)) date 2023-01-13 16:31:05*
%MOMM*%
%LPD*%
G01*
G04 APERTURE LIST*
%ADD10R,1.500000X1.000000*%
G04 APERTURE END LIST*
D10*
%TO.C,D10*%
X160800000Y-111325000D03*
X160800000Y-114525000D03*
X165700000Y-114525000D03*
X165700000Y-111325000D03*
%TD*%
%TO.C,D9*%
X152525000Y-111325000D03*
X152525000Y-114525000D03*
X157425000Y-114525000D03*
X157425000Y-111325000D03*
%TD*%
%TO.C,D8*%
X144275000Y-111325000D03*
X144275000Y-114525000D03*
X149175000Y-114525000D03*
X149175000Y-111325000D03*
%TD*%
%TO.C,D7*%
X136050000Y-111325000D03*
X136050000Y-114525000D03*
X140950000Y-114525000D03*
X140950000Y-111325000D03*
%TD*%
%TO.C,D6*%
X127750000Y-111325000D03*
X127750000Y-114525000D03*
X132650000Y-114525000D03*
X132650000Y-111325000D03*
%TD*%
%TO.C,D5*%
X119475000Y-111325000D03*
X119475000Y-114525000D03*
X124375000Y-114525000D03*
X124375000Y-111325000D03*
%TD*%
%TO.C,D4*%
X111025000Y-111325000D03*
X111025000Y-114525000D03*
X115925000Y-114525000D03*
X115925000Y-111325000D03*
%TD*%
%TO.C,D3*%
X102500000Y-111325000D03*
X102500000Y-114525000D03*
X107400000Y-114525000D03*
X107400000Y-111325000D03*
%TD*%
%TO.C,D2*%
X93900000Y-111325000D03*
X93900000Y-114525000D03*
X98800000Y-114525000D03*
X98800000Y-111325000D03*
%TD*%
%TO.C,D1*%
X85150000Y-111350000D03*
X85150000Y-114550000D03*
X90050000Y-114550000D03*
X90050000Y-111350000D03*
%TD*%
M02*
