%TF.GenerationSoftware,KiCad,Pcbnew,(6.0.6)*%
%TF.CreationDate,2023-01-13T16:31:05+05:30*%
%TF.ProjectId,ws2812-light,77733238-3132-42d6-9c69-6768742e6b69,rev?*%
%TF.SameCoordinates,Original*%
%TF.FileFunction,Copper,L2,Bot*%
%TF.FilePolarity,Positive*%
%FSLAX46Y46*%
G04 Gerber Fmt 4.6, Leading zero omitted, Abs format (unit mm)*
G04 Created by KiCad (PCBNEW (6.0.6)) date 2023-01-13 16:31:05*
%MOMM*%
%LPD*%
G01*
G04 APERTURE LIST*
G04 Aperture macros list*
%AMRoundRect*
0 Rectangle with rounded corners*
0 $1 Rounding radius*
0 $2 $3 $4 $5 $6 $7 $8 $9 X,Y pos of 4 corners*
0 Add a 4 corners polygon primitive as box body*
4,1,4,$2,$3,$4,$5,$6,$7,$8,$9,$2,$3,0*
0 Add four circle primitives for the rounded corners*
1,1,$1+$1,$2,$3*
1,1,$1+$1,$4,$5*
1,1,$1+$1,$6,$7*
1,1,$1+$1,$8,$9*
0 Add four rect primitives between the rounded corners*
20,1,$1+$1,$2,$3,$4,$5,0*
20,1,$1+$1,$4,$5,$6,$7,0*
20,1,$1+$1,$6,$7,$8,$9,0*
20,1,$1+$1,$8,$9,$2,$3,0*%
G04 Aperture macros list end*
%TA.AperFunction,ComponentPad*%
%ADD10R,1.700000X1.700000*%
%TD*%
%TA.AperFunction,ComponentPad*%
%ADD11O,1.700000X1.700000*%
%TD*%
%TA.AperFunction,ComponentPad*%
%ADD12C,5.700000*%
%TD*%
%TA.AperFunction,ComponentPad*%
%ADD13RoundRect,0.250000X0.725000X-0.600000X0.725000X0.600000X-0.725000X0.600000X-0.725000X-0.600000X0*%
%TD*%
%TA.AperFunction,ComponentPad*%
%ADD14O,1.950000X1.700000*%
%TD*%
%TA.AperFunction,ViaPad*%
%ADD15C,1.300000*%
%TD*%
%TA.AperFunction,ViaPad*%
%ADD16C,1.400000*%
%TD*%
%TA.AperFunction,ViaPad*%
%ADD17C,1.500000*%
%TD*%
%TA.AperFunction,Conductor*%
%ADD18C,1.500000*%
%TD*%
%TA.AperFunction,Conductor*%
%ADD19C,0.500000*%
%TD*%
G04 APERTURE END LIST*
D10*
%TO.P,J2,1,Pin_1*%
%TO.N,+5V*%
X169175000Y-111475000D03*
D11*
%TO.P,J2,2,Pin_2*%
%TO.N,DOUT*%
X169175000Y-114015000D03*
%TO.P,J2,3,Pin_3*%
%TO.N,GND*%
X169175000Y-116555000D03*
%TD*%
D12*
%TO.P,H1,1,1*%
%TO.N,unconnected-(H1-Pad1)*%
X87200000Y-119675000D03*
%TD*%
D13*
%TO.P,J1,1,Pin_1*%
%TO.N,DOUT*%
X77750000Y-120100000D03*
D14*
%TO.P,J1,2,Pin_2*%
%TO.N,GND*%
X77750000Y-117600000D03*
%TO.P,J1,3,Pin_3*%
%TO.N,DIN*%
X77750000Y-115100000D03*
%TO.P,J1,4,Pin_4*%
%TO.N,+5V*%
X77750000Y-112600000D03*
%TD*%
D15*
%TO.N,+5V*%
X110000000Y-111400000D03*
D16*
X101631000Y-111475000D03*
D17*
X160051000Y-111475000D03*
X151415000Y-111475000D03*
X143541000Y-111475000D03*
X135159000Y-111475000D03*
X126777000Y-111475000D03*
X118649000Y-111475000D03*
X93503000Y-111475000D03*
%TD*%
D18*
%TO.N,+5V*%
X118649000Y-111475000D02*
X110013000Y-111475000D01*
X110013000Y-111475000D02*
X101631000Y-111475000D01*
X101631000Y-111475000D02*
X93503000Y-111475000D01*
X160051000Y-111475000D02*
X151415000Y-111475000D01*
X151415000Y-111475000D02*
X143541000Y-111475000D01*
X143541000Y-111475000D02*
X135159000Y-111475000D01*
X135159000Y-111475000D02*
X126777000Y-111475000D01*
X126777000Y-111475000D02*
X118649000Y-111475000D01*
X93503000Y-111475000D02*
X81000300Y-111475000D01*
D19*
%TO.N,DOUT*%
X83835000Y-114015000D02*
X169175000Y-114015000D01*
X77750000Y-120100000D02*
X83835000Y-114015000D01*
D18*
%TO.N,+5V*%
X81000300Y-111475000D02*
X79875300Y-112600000D01*
X169175000Y-111475000D02*
X160051000Y-111475000D01*
X77750000Y-112600000D02*
X79875300Y-112600000D01*
%TD*%
%TA.AperFunction,Conductor*%
%TO.N,GND*%
G36*
X170938125Y-110032671D02*
G01*
X171050835Y-110034224D01*
X171086697Y-110037987D01*
X171227607Y-110065861D01*
X171262208Y-110076037D01*
X171395769Y-110128888D01*
X171427968Y-110145145D01*
X171549792Y-110221235D01*
X171578523Y-110243034D01*
X171684618Y-110339873D01*
X171708940Y-110366499D01*
X171795806Y-110480891D01*
X171814927Y-110511476D01*
X171879714Y-110639664D01*
X171893000Y-110673198D01*
X171933586Y-110810983D01*
X171940600Y-110846366D01*
X171953158Y-110965585D01*
X171954253Y-110986039D01*
X171954255Y-110986973D01*
X171952272Y-111001015D01*
X171954310Y-111015048D01*
X171954310Y-111015049D01*
X171955434Y-111022788D01*
X171957500Y-111051388D01*
X171957500Y-117296884D01*
X171955456Y-117325333D01*
X171952271Y-117347383D01*
X171954264Y-117361419D01*
X171954247Y-117375600D01*
X171953708Y-117375599D01*
X171954346Y-117395289D01*
X171943910Y-117531879D01*
X171938263Y-117566102D01*
X171898215Y-117722435D01*
X171886710Y-117755162D01*
X171820120Y-117902170D01*
X171803108Y-117932400D01*
X171712003Y-118065610D01*
X171690001Y-118092425D01*
X171577150Y-118207791D01*
X171550824Y-118230380D01*
X171419654Y-118324396D01*
X171389806Y-118342070D01*
X171244301Y-118411881D01*
X171211839Y-118424103D01*
X171056424Y-118467587D01*
X171022337Y-118473986D01*
X170886882Y-118487342D01*
X170867116Y-118488302D01*
X170864655Y-118488299D01*
X170850617Y-118486271D01*
X170836581Y-118488264D01*
X170836578Y-118488264D01*
X170827707Y-118489524D01*
X170799732Y-118491500D01*
X168057228Y-118491500D01*
X168025386Y-118488936D01*
X168024415Y-118488779D01*
X168023474Y-118488626D01*
X168023473Y-118488626D01*
X168009482Y-118486358D01*
X167995414Y-118488108D01*
X167981240Y-118487847D01*
X167981260Y-118486776D01*
X167961364Y-118486920D01*
X167914413Y-118481765D01*
X167894956Y-118479629D01*
X167854919Y-118470993D01*
X167770988Y-118443593D01*
X167733569Y-118426942D01*
X167720472Y-118419412D01*
X167657039Y-118382944D01*
X167623817Y-118358982D01*
X167557913Y-118300244D01*
X167530301Y-118269986D01*
X167477821Y-118199000D01*
X167456988Y-118163729D01*
X167448434Y-118145097D01*
X167420154Y-118083498D01*
X167406990Y-118044725D01*
X167391613Y-117977292D01*
X167388249Y-117957281D01*
X167388687Y-117944177D01*
X167386765Y-117936683D01*
X167386500Y-117931827D01*
X167386500Y-117008741D01*
X167386504Y-117007525D01*
X167386800Y-116959102D01*
X167386976Y-116930279D01*
X167380217Y-116906630D01*
X167374566Y-116880155D01*
X167373090Y-116869847D01*
X167373090Y-116869846D01*
X167371080Y-116855813D01*
X167362696Y-116837373D01*
X167360256Y-116830740D01*
X167845009Y-116830740D01*
X167872906Y-116954525D01*
X167877773Y-116970054D01*
X167955637Y-117161812D01*
X167962987Y-117176363D01*
X168071126Y-117352829D01*
X168080734Y-117365958D01*
X168216257Y-117522409D01*
X168227885Y-117533796D01*
X168387134Y-117666007D01*
X168400458Y-117675337D01*
X168579171Y-117779769D01*
X168593840Y-117786797D01*
X168787206Y-117860636D01*
X168802833Y-117865176D01*
X168899028Y-117884747D01*
X168917477Y-117884310D01*
X168920736Y-117869209D01*
X169429000Y-117869209D01*
X169433330Y-117888179D01*
X169434690Y-117888834D01*
X169446404Y-117889402D01*
X169450212Y-117888915D01*
X169466132Y-117885531D01*
X169664385Y-117826052D01*
X169679534Y-117820115D01*
X169865396Y-117729061D01*
X169879392Y-117720718D01*
X170047884Y-117600534D01*
X170060321Y-117590025D01*
X170206931Y-117443925D01*
X170217474Y-117431537D01*
X170338255Y-117263454D01*
X170346643Y-117249492D01*
X170438349Y-117063941D01*
X170444336Y-117048819D01*
X170504506Y-116850776D01*
X170507946Y-116834867D01*
X170508425Y-116831228D01*
X170506608Y-116811858D01*
X170505497Y-116811130D01*
X170493633Y-116809000D01*
X169451423Y-116809000D01*
X169432453Y-116813330D01*
X169429000Y-116820500D01*
X169429000Y-117869209D01*
X168920736Y-117869209D01*
X168921000Y-117867987D01*
X168921000Y-116831423D01*
X168916670Y-116812453D01*
X168909500Y-116809000D01*
X167862533Y-116809000D01*
X167845034Y-116812994D01*
X167845009Y-116830740D01*
X167360256Y-116830740D01*
X167352513Y-116809696D01*
X167350845Y-116803859D01*
X167350844Y-116803857D01*
X167346949Y-116790229D01*
X167333827Y-116769432D01*
X167320970Y-116745604D01*
X167316660Y-116736125D01*
X167310792Y-116723218D01*
X167297575Y-116707879D01*
X167280030Y-116684168D01*
X167276790Y-116679033D01*
X167276788Y-116679031D01*
X167269224Y-116667042D01*
X167258598Y-116657657D01*
X167258596Y-116657655D01*
X167250783Y-116650754D01*
X167231768Y-116631505D01*
X167224969Y-116623615D01*
X167215713Y-116612873D01*
X167198716Y-116601856D01*
X167175228Y-116584027D01*
X167160049Y-116570622D01*
X167147215Y-116564596D01*
X167147210Y-116564593D01*
X167137787Y-116560169D01*
X167114132Y-116547030D01*
X167093485Y-116533648D01*
X167074081Y-116527845D01*
X167046531Y-116517326D01*
X167028200Y-116508719D01*
X167003893Y-116504934D01*
X166977502Y-116498962D01*
X166967515Y-116495975D01*
X166967512Y-116495975D01*
X166953934Y-116491914D01*
X166939762Y-116491827D01*
X166939759Y-116491827D01*
X166922907Y-116491724D01*
X166919043Y-116491701D01*
X166918853Y-116491693D01*
X166917614Y-116491500D01*
X166886741Y-116491500D01*
X166885525Y-116491496D01*
X166808279Y-116491024D01*
X166806790Y-116491450D01*
X166806050Y-116491500D01*
X91194741Y-116491500D01*
X91193525Y-116491496D01*
X91116279Y-116491024D01*
X91102652Y-116494919D01*
X91102650Y-116494919D01*
X91092630Y-116497783D01*
X91066155Y-116503434D01*
X91055847Y-116504910D01*
X91055846Y-116504910D01*
X91041813Y-116506920D01*
X91028909Y-116512787D01*
X91023373Y-116515304D01*
X90995696Y-116525487D01*
X90989859Y-116527155D01*
X90989857Y-116527156D01*
X90976229Y-116531051D01*
X90964241Y-116538615D01*
X90964239Y-116538616D01*
X90955432Y-116544173D01*
X90931605Y-116557029D01*
X90909218Y-116567208D01*
X90898478Y-116576463D01*
X90898477Y-116576463D01*
X90893879Y-116580425D01*
X90870168Y-116597970D01*
X90865033Y-116601210D01*
X90865031Y-116601212D01*
X90853042Y-116608776D01*
X90843657Y-116619402D01*
X90843655Y-116619404D01*
X90836754Y-116627217D01*
X90817505Y-116646232D01*
X90798873Y-116662287D01*
X90788019Y-116679033D01*
X90787859Y-116679280D01*
X90770027Y-116702772D01*
X90756622Y-116717951D01*
X90750596Y-116730785D01*
X90750593Y-116730790D01*
X90746169Y-116740213D01*
X90733030Y-116763868D01*
X90719648Y-116784515D01*
X90715586Y-116798098D01*
X90713846Y-116803917D01*
X90703326Y-116831469D01*
X90694719Y-116849800D01*
X90690934Y-116874107D01*
X90684962Y-116900498D01*
X90677914Y-116924066D01*
X90677827Y-116938238D01*
X90677827Y-116938241D01*
X90677701Y-116958954D01*
X90677693Y-116959147D01*
X90677500Y-116960386D01*
X90677500Y-116991259D01*
X90677496Y-116992474D01*
X90677024Y-117069721D01*
X90677450Y-117071210D01*
X90677500Y-117071950D01*
X90677500Y-118292026D01*
X90657793Y-118378369D01*
X90602574Y-118447610D01*
X90522782Y-118486037D01*
X90434218Y-118486037D01*
X90354426Y-118447610D01*
X90299207Y-118378369D01*
X90293603Y-118365606D01*
X90255240Y-118269204D01*
X90255240Y-118269203D01*
X90253249Y-118264201D01*
X90245100Y-118248809D01*
X90139612Y-118049579D01*
X90083025Y-117942704D01*
X90078251Y-117935652D01*
X89882090Y-117645924D01*
X89882089Y-117645923D01*
X89879075Y-117641471D01*
X89643785Y-117364027D01*
X89639881Y-117360322D01*
X89639876Y-117360317D01*
X89383813Y-117117323D01*
X89379908Y-117113617D01*
X89090530Y-116893170D01*
X88988171Y-116831423D01*
X88783650Y-116708048D01*
X88783645Y-116708045D01*
X88779036Y-116705265D01*
X88449071Y-116552100D01*
X88443969Y-116550373D01*
X88109594Y-116437193D01*
X88109590Y-116437192D01*
X88104494Y-116435467D01*
X88099242Y-116434303D01*
X88099236Y-116434301D01*
X87969392Y-116405516D01*
X87749336Y-116356731D01*
X87574048Y-116337379D01*
X87393097Y-116317401D01*
X87393095Y-116317401D01*
X87387752Y-116316811D01*
X87209060Y-116316499D01*
X87029353Y-116316185D01*
X87029346Y-116316185D01*
X87023972Y-116316176D01*
X87018623Y-116316748D01*
X87018616Y-116316748D01*
X86667601Y-116354261D01*
X86667598Y-116354261D01*
X86662250Y-116354833D01*
X86656997Y-116355978D01*
X86656993Y-116355979D01*
X86312089Y-116431181D01*
X86312086Y-116431182D01*
X86306820Y-116432330D01*
X86301710Y-116434040D01*
X86301702Y-116434042D01*
X86060507Y-116514745D01*
X85961838Y-116547759D01*
X85956947Y-116550009D01*
X85956941Y-116550011D01*
X85796915Y-116623615D01*
X85631340Y-116699771D01*
X85319192Y-116886588D01*
X85314904Y-116889831D01*
X85314898Y-116889835D01*
X85033336Y-117102778D01*
X85033330Y-117102783D01*
X85029046Y-117106023D01*
X84764296Y-117355511D01*
X84760796Y-117359609D01*
X84760795Y-117359610D01*
X84598840Y-117549236D01*
X84528040Y-117632132D01*
X84525015Y-117636566D01*
X84525010Y-117636573D01*
X84333015Y-117918028D01*
X84323040Y-117932651D01*
X84320503Y-117937402D01*
X84320502Y-117937404D01*
X84311934Y-117953451D01*
X84151694Y-118253552D01*
X84149691Y-118258535D01*
X84149689Y-118258539D01*
X84085165Y-118419050D01*
X84016009Y-118591081D01*
X84014554Y-118596256D01*
X84014553Y-118596260D01*
X83976706Y-118730906D01*
X83917569Y-118941290D01*
X83916683Y-118946587D01*
X83916681Y-118946594D01*
X83903277Y-119026697D01*
X83857528Y-119300082D01*
X83857218Y-119305459D01*
X83845210Y-119513719D01*
X83836587Y-119663259D01*
X83854992Y-120026574D01*
X83912527Y-120385777D01*
X83913949Y-120390975D01*
X84003416Y-120718009D01*
X84008519Y-120736664D01*
X84010494Y-120741677D01*
X84010494Y-120741678D01*
X84125083Y-121032579D01*
X84141845Y-121075133D01*
X84144344Y-121079893D01*
X84144345Y-121079895D01*
X84308265Y-121392115D01*
X84310946Y-121397222D01*
X84344749Y-121447526D01*
X84510836Y-121694691D01*
X84510842Y-121694698D01*
X84513843Y-121699165D01*
X84517313Y-121703286D01*
X84517317Y-121703291D01*
X84744699Y-121973315D01*
X84744704Y-121973320D01*
X84748163Y-121977428D01*
X84752043Y-121981136D01*
X84752046Y-121981139D01*
X84834768Y-122060190D01*
X85011165Y-122228758D01*
X85015440Y-122232038D01*
X85149130Y-122334623D01*
X85205633Y-122402820D01*
X85226951Y-122488780D01*
X85208862Y-122575476D01*
X85154948Y-122645738D01*
X85075887Y-122685649D01*
X85027986Y-122691500D01*
X75542220Y-122691500D01*
X75518746Y-122690111D01*
X75487666Y-122686419D01*
X75483467Y-122687124D01*
X75402871Y-122670754D01*
X75332323Y-122617215D01*
X75291991Y-122538369D01*
X75288153Y-122492227D01*
X75286985Y-122492297D01*
X75283856Y-122440046D01*
X75283500Y-122428150D01*
X75283500Y-110232500D01*
X75303207Y-110146157D01*
X75358426Y-110076916D01*
X75438218Y-110038489D01*
X75482500Y-110033500D01*
X80231595Y-110033500D01*
X80317938Y-110053207D01*
X80387179Y-110108426D01*
X80425606Y-110188218D01*
X80425606Y-110276782D01*
X80387179Y-110356574D01*
X80347720Y-110394105D01*
X80290657Y-110435109D01*
X80283787Y-110439830D01*
X80221523Y-110480729D01*
X80221519Y-110480732D01*
X80215425Y-110484735D01*
X80206122Y-110493024D01*
X80197500Y-110500706D01*
X80182657Y-110512597D01*
X80181843Y-110513299D01*
X80174646Y-110518471D01*
X80123251Y-110571506D01*
X80100675Y-110594803D01*
X80098482Y-110597030D01*
X79412298Y-111283214D01*
X79337310Y-111330333D01*
X79271584Y-111341500D01*
X78424513Y-111341500D01*
X78356614Y-111329558D01*
X78238099Y-111286539D01*
X78238096Y-111286538D01*
X78230175Y-111283663D01*
X78089351Y-111258198D01*
X78009768Y-111243807D01*
X78009766Y-111243807D01*
X78003308Y-111242639D01*
X77985835Y-111241815D01*
X77981512Y-111241611D01*
X77981507Y-111241611D01*
X77979156Y-111241500D01*
X77567110Y-111241500D01*
X77395280Y-111256080D01*
X77387119Y-111258198D01*
X77387120Y-111258198D01*
X77180279Y-111311883D01*
X77180275Y-111311885D01*
X77172128Y-111313999D01*
X77164457Y-111317455D01*
X77164450Y-111317457D01*
X76969610Y-111405226D01*
X76961925Y-111408688D01*
X76954932Y-111413396D01*
X76777673Y-111532733D01*
X76777668Y-111532737D01*
X76770681Y-111537441D01*
X76603865Y-111696576D01*
X76466246Y-111881542D01*
X76361760Y-112087051D01*
X76293393Y-112307227D01*
X76263102Y-112535774D01*
X76271751Y-112766158D01*
X76319093Y-112991791D01*
X76403776Y-113206221D01*
X76408148Y-113213425D01*
X76408150Y-113213430D01*
X76478806Y-113329867D01*
X76523377Y-113403317D01*
X76528908Y-113409691D01*
X76666462Y-113568208D01*
X76674477Y-113577445D01*
X76684191Y-113585410D01*
X76819088Y-113696019D01*
X76873361Y-113766005D01*
X76891893Y-113852607D01*
X76871014Y-113938674D01*
X76814860Y-114007159D01*
X76804044Y-114014980D01*
X76777675Y-114032732D01*
X76777672Y-114032734D01*
X76770681Y-114037441D01*
X76603865Y-114196576D01*
X76466246Y-114381542D01*
X76361760Y-114587051D01*
X76359260Y-114595103D01*
X76303866Y-114773500D01*
X76293393Y-114807227D01*
X76263102Y-115035774D01*
X76271751Y-115266158D01*
X76319093Y-115491791D01*
X76361435Y-115599006D01*
X76369910Y-115620466D01*
X76403776Y-115706221D01*
X76408148Y-115713425D01*
X76408150Y-115713430D01*
X76471883Y-115818458D01*
X76523377Y-115903317D01*
X76674477Y-116077445D01*
X76815569Y-116193133D01*
X76819491Y-116196349D01*
X76873763Y-116266334D01*
X76892296Y-116352937D01*
X76871417Y-116439004D01*
X76815263Y-116507489D01*
X76804451Y-116515308D01*
X76777981Y-116533129D01*
X76764901Y-116543645D01*
X76610341Y-116691090D01*
X76599207Y-116703675D01*
X76471701Y-116875050D01*
X76462857Y-116889313D01*
X76366041Y-117079734D01*
X76359728Y-117095282D01*
X76296382Y-117299289D01*
X76292777Y-117315684D01*
X76291705Y-117323774D01*
X76293504Y-117343146D01*
X76294575Y-117343849D01*
X76306527Y-117346000D01*
X77805000Y-117346000D01*
X77891343Y-117365707D01*
X77960584Y-117420926D01*
X77999011Y-117500718D01*
X78004000Y-117545000D01*
X78004000Y-117655000D01*
X77984293Y-117741343D01*
X77929074Y-117810584D01*
X77849282Y-117849011D01*
X77805000Y-117854000D01*
X76313116Y-117854000D01*
X76295265Y-117858074D01*
X76295115Y-117875076D01*
X76317843Y-117983399D01*
X76322670Y-117999487D01*
X76401127Y-118198153D01*
X76408600Y-118213208D01*
X76519407Y-118395811D01*
X76529314Y-118409397D01*
X76661366Y-118561574D01*
X76703071Y-118639703D01*
X76706746Y-118728190D01*
X76671665Y-118809509D01*
X76615782Y-118861218D01*
X76550652Y-118901522D01*
X76542488Y-118909700D01*
X76542487Y-118909701D01*
X76516118Y-118936116D01*
X76425695Y-119026697D01*
X76332885Y-119177262D01*
X76329247Y-119188232D01*
X76329245Y-119188235D01*
X76290364Y-119305459D01*
X76277203Y-119345139D01*
X76266500Y-119449600D01*
X76266500Y-120750400D01*
X76277474Y-120856166D01*
X76333450Y-121023946D01*
X76426522Y-121174348D01*
X76551697Y-121299305D01*
X76702262Y-121392115D01*
X76713232Y-121395753D01*
X76713235Y-121395755D01*
X76859830Y-121444378D01*
X76859833Y-121444379D01*
X76870139Y-121447797D01*
X76880939Y-121448904D01*
X76880941Y-121448904D01*
X76969550Y-121457983D01*
X76969558Y-121457983D01*
X76974600Y-121458500D01*
X78525400Y-121458500D01*
X78578133Y-121453029D01*
X78620336Y-121448650D01*
X78620339Y-121448649D01*
X78631166Y-121447526D01*
X78700962Y-121424240D01*
X78787977Y-121395210D01*
X78787980Y-121395208D01*
X78798946Y-121391550D01*
X78949348Y-121298478D01*
X79074305Y-121173303D01*
X79160311Y-121033777D01*
X79161049Y-121032579D01*
X79161049Y-121032578D01*
X79167115Y-121022738D01*
X79222797Y-120854861D01*
X79233500Y-120750400D01*
X79233500Y-119771609D01*
X79253207Y-119685266D01*
X79291786Y-119630895D01*
X84090895Y-114831786D01*
X84165883Y-114784667D01*
X84231609Y-114773500D01*
X167943731Y-114773500D01*
X168030074Y-114793207D01*
X168094145Y-114842206D01*
X168215901Y-114982764D01*
X168215907Y-114982770D01*
X168221250Y-114988938D01*
X168227528Y-114994150D01*
X168393126Y-115131632D01*
X168391885Y-115133127D01*
X168443457Y-115190110D01*
X168468509Y-115275056D01*
X168454223Y-115362460D01*
X168403429Y-115435009D01*
X168389380Y-115446600D01*
X168276827Y-115531108D01*
X168264657Y-115541913D01*
X168121658Y-115691553D01*
X168111418Y-115704199D01*
X167994782Y-115875180D01*
X167986741Y-115889335D01*
X167899597Y-116077071D01*
X167893976Y-116092350D01*
X167839793Y-116287726D01*
X167841012Y-116298028D01*
X167843207Y-116299390D01*
X167852843Y-116301000D01*
X170489036Y-116301000D01*
X170505936Y-116297143D01*
X170505730Y-116278193D01*
X170466946Y-116123788D01*
X170461697Y-116108371D01*
X170379170Y-115918570D01*
X170371473Y-115904215D01*
X170259051Y-115730436D01*
X170249123Y-115717545D01*
X170109823Y-115564457D01*
X170097917Y-115553354D01*
X169954700Y-115440249D01*
X169899154Y-115371270D01*
X169879037Y-115285021D01*
X169898335Y-115198586D01*
X169953224Y-115129084D01*
X169962443Y-115122093D01*
X170054860Y-115056173D01*
X170213096Y-114898489D01*
X170343453Y-114717077D01*
X170442430Y-114516811D01*
X170507370Y-114303069D01*
X170536529Y-114081590D01*
X170538156Y-114015000D01*
X170525522Y-113861323D01*
X170520521Y-113800497D01*
X170520521Y-113800496D01*
X170519852Y-113792361D01*
X170508541Y-113747328D01*
X170481555Y-113639893D01*
X170465431Y-113575702D01*
X170462175Y-113568213D01*
X170462173Y-113568208D01*
X170379612Y-113378333D01*
X170376354Y-113370840D01*
X170255014Y-113183277D01*
X170237377Y-113163894D01*
X170180293Y-113101159D01*
X170136759Y-113024034D01*
X170131001Y-112935658D01*
X170164157Y-112853535D01*
X170229661Y-112793931D01*
X170257630Y-112780892D01*
X170258428Y-112780593D01*
X170258432Y-112780591D01*
X170271705Y-112775615D01*
X170388261Y-112688261D01*
X170475615Y-112571705D01*
X170526745Y-112435316D01*
X170533500Y-112373134D01*
X170533500Y-110576866D01*
X170526745Y-110514684D01*
X170475615Y-110378295D01*
X170455791Y-110351844D01*
X170419780Y-110270933D01*
X170422440Y-110182410D01*
X170463246Y-110103807D01*
X170534116Y-110050694D01*
X170615033Y-110033500D01*
X170822043Y-110033500D01*
X170837450Y-110034097D01*
X170883243Y-110037653D01*
X170897119Y-110034739D01*
X170911264Y-110033822D01*
X170911306Y-110034475D01*
X170930940Y-110032572D01*
X170938125Y-110032671D01*
G37*
%TD.AperFunction*%
%TD*%
M02*
