%TF.GenerationSoftware,KiCad,Pcbnew,(6.0.6)*%
%TF.CreationDate,2023-01-13T16:31:05+05:30*%
%TF.ProjectId,ws2812-light,77733238-3132-42d6-9c69-6768742e6b69,rev?*%
%TF.SameCoordinates,Original*%
%TF.FileFunction,Copper,L1,Top*%
%TF.FilePolarity,Positive*%
%FSLAX46Y46*%
G04 Gerber Fmt 4.6, Leading zero omitted, Abs format (unit mm)*
G04 Created by KiCad (PCBNEW (6.0.6)) date 2023-01-13 16:31:05*
%MOMM*%
%LPD*%
G01*
G04 APERTURE LIST*
G04 Aperture macros list*
%AMRoundRect*
0 Rectangle with rounded corners*
0 $1 Rounding radius*
0 $2 $3 $4 $5 $6 $7 $8 $9 X,Y pos of 4 corners*
0 Add a 4 corners polygon primitive as box body*
4,1,4,$2,$3,$4,$5,$6,$7,$8,$9,$2,$3,0*
0 Add four circle primitives for the rounded corners*
1,1,$1+$1,$2,$3*
1,1,$1+$1,$4,$5*
1,1,$1+$1,$6,$7*
1,1,$1+$1,$8,$9*
0 Add four rect primitives between the rounded corners*
20,1,$1+$1,$2,$3,$4,$5,0*
20,1,$1+$1,$4,$5,$6,$7,0*
20,1,$1+$1,$6,$7,$8,$9,0*
20,1,$1+$1,$8,$9,$2,$3,0*%
G04 Aperture macros list end*
%TA.AperFunction,ComponentPad*%
%ADD10R,1.700000X1.700000*%
%TD*%
%TA.AperFunction,ComponentPad*%
%ADD11O,1.700000X1.700000*%
%TD*%
%TA.AperFunction,ComponentPad*%
%ADD12C,5.700000*%
%TD*%
%TA.AperFunction,ComponentPad*%
%ADD13RoundRect,0.250000X0.725000X-0.600000X0.725000X0.600000X-0.725000X0.600000X-0.725000X-0.600000X0*%
%TD*%
%TA.AperFunction,ComponentPad*%
%ADD14O,1.950000X1.700000*%
%TD*%
%TA.AperFunction,SMDPad,CuDef*%
%ADD15R,1.500000X1.000000*%
%TD*%
%TA.AperFunction,ViaPad*%
%ADD16C,1.300000*%
%TD*%
%TA.AperFunction,ViaPad*%
%ADD17C,1.400000*%
%TD*%
%TA.AperFunction,ViaPad*%
%ADD18C,1.500000*%
%TD*%
%TA.AperFunction,Conductor*%
%ADD19C,1.500000*%
%TD*%
%TA.AperFunction,Conductor*%
%ADD20C,0.500000*%
%TD*%
%TA.AperFunction,Conductor*%
%ADD21C,0.400000*%
%TD*%
G04 APERTURE END LIST*
D10*
%TO.P,J2,1,Pin_1*%
%TO.N,+5V*%
X169175000Y-111475000D03*
D11*
%TO.P,J2,2,Pin_2*%
%TO.N,DOUT*%
X169175000Y-114015000D03*
%TO.P,J2,3,Pin_3*%
%TO.N,GND*%
X169175000Y-116555000D03*
%TD*%
D12*
%TO.P,H1,1,1*%
%TO.N,unconnected-(H1-Pad1)*%
X87200000Y-119675000D03*
%TD*%
D13*
%TO.P,J1,1,Pin_1*%
%TO.N,DOUT*%
X77750000Y-120100000D03*
D14*
%TO.P,J1,2,Pin_2*%
%TO.N,GND*%
X77750000Y-117600000D03*
%TO.P,J1,3,Pin_3*%
%TO.N,DIN*%
X77750000Y-115100000D03*
%TO.P,J1,4,Pin_4*%
%TO.N,+5V*%
X77750000Y-112600000D03*
%TD*%
D15*
%TO.P,D10,1,VDD*%
%TO.N,+5V*%
X160800000Y-111325000D03*
%TO.P,D10,2,DOUT*%
%TO.N,DOUT*%
X160800000Y-114525000D03*
%TO.P,D10,3,VSS*%
%TO.N,GND*%
X165700000Y-114525000D03*
%TO.P,D10,4,DIN*%
%TO.N,Net-(D10-Pad4)*%
X165700000Y-111325000D03*
%TD*%
%TO.P,D9,1,VDD*%
%TO.N,+5V*%
X152525000Y-111325000D03*
%TO.P,D9,2,DOUT*%
%TO.N,Net-(D10-Pad4)*%
X152525000Y-114525000D03*
%TO.P,D9,3,VSS*%
%TO.N,GND*%
X157425000Y-114525000D03*
%TO.P,D9,4,DIN*%
%TO.N,Net-(D8-Pad2)*%
X157425000Y-111325000D03*
%TD*%
%TO.P,D8,1,VDD*%
%TO.N,+5V*%
X144275000Y-111325000D03*
%TO.P,D8,2,DOUT*%
%TO.N,Net-(D8-Pad2)*%
X144275000Y-114525000D03*
%TO.P,D8,3,VSS*%
%TO.N,GND*%
X149175000Y-114525000D03*
%TO.P,D8,4,DIN*%
%TO.N,Net-(D7-Pad2)*%
X149175000Y-111325000D03*
%TD*%
%TO.P,D7,1,VDD*%
%TO.N,+5V*%
X136050000Y-111325000D03*
%TO.P,D7,2,DOUT*%
%TO.N,Net-(D7-Pad2)*%
X136050000Y-114525000D03*
%TO.P,D7,3,VSS*%
%TO.N,GND*%
X140950000Y-114525000D03*
%TO.P,D7,4,DIN*%
%TO.N,Net-(D6-Pad2)*%
X140950000Y-111325000D03*
%TD*%
%TO.P,D6,1,VDD*%
%TO.N,+5V*%
X127750000Y-111325000D03*
%TO.P,D6,2,DOUT*%
%TO.N,Net-(D6-Pad2)*%
X127750000Y-114525000D03*
%TO.P,D6,3,VSS*%
%TO.N,GND*%
X132650000Y-114525000D03*
%TO.P,D6,4,DIN*%
%TO.N,Net-(D5-Pad2)*%
X132650000Y-111325000D03*
%TD*%
%TO.P,D5,1,VDD*%
%TO.N,+5V*%
X119475000Y-111325000D03*
%TO.P,D5,2,DOUT*%
%TO.N,Net-(D5-Pad2)*%
X119475000Y-114525000D03*
%TO.P,D5,3,VSS*%
%TO.N,GND*%
X124375000Y-114525000D03*
%TO.P,D5,4,DIN*%
%TO.N,Net-(D4-Pad2)*%
X124375000Y-111325000D03*
%TD*%
%TO.P,D4,1,VDD*%
%TO.N,+5V*%
X111025000Y-111325000D03*
%TO.P,D4,2,DOUT*%
%TO.N,Net-(D4-Pad2)*%
X111025000Y-114525000D03*
%TO.P,D4,3,VSS*%
%TO.N,GND*%
X115925000Y-114525000D03*
%TO.P,D4,4,DIN*%
%TO.N,Net-(D3-Pad2)*%
X115925000Y-111325000D03*
%TD*%
%TO.P,D3,1,VDD*%
%TO.N,+5V*%
X102500000Y-111325000D03*
%TO.P,D3,2,DOUT*%
%TO.N,Net-(D3-Pad2)*%
X102500000Y-114525000D03*
%TO.P,D3,3,VSS*%
%TO.N,GND*%
X107400000Y-114525000D03*
%TO.P,D3,4,DIN*%
%TO.N,Net-(D2-Pad2)*%
X107400000Y-111325000D03*
%TD*%
%TO.P,D2,1,VDD*%
%TO.N,+5V*%
X93900000Y-111325000D03*
%TO.P,D2,2,DOUT*%
%TO.N,Net-(D2-Pad2)*%
X93900000Y-114525000D03*
%TO.P,D2,3,VSS*%
%TO.N,GND*%
X98800000Y-114525000D03*
%TO.P,D2,4,DIN*%
%TO.N,Net-(D1-Pad2)*%
X98800000Y-111325000D03*
%TD*%
%TO.P,D1,1,VDD*%
%TO.N,+5V*%
X85150000Y-111350000D03*
%TO.P,D1,2,DOUT*%
%TO.N,Net-(D1-Pad2)*%
X85150000Y-114550000D03*
%TO.P,D1,3,VSS*%
%TO.N,GND*%
X90050000Y-114550000D03*
%TO.P,D1,4,DIN*%
%TO.N,DIN*%
X90050000Y-111350000D03*
%TD*%
D16*
%TO.N,+5V*%
X110000000Y-111400000D03*
D17*
X101631000Y-111475000D03*
D18*
X160051000Y-111475000D03*
X151415000Y-111475000D03*
X143541000Y-111475000D03*
X135159000Y-111475000D03*
X126777000Y-111475000D03*
X118649000Y-111475000D03*
X93503000Y-111475000D03*
%TD*%
D19*
%TO.N,+5V*%
X160201000Y-111325000D02*
X160051000Y-111475000D01*
X160800000Y-111325000D02*
X160201000Y-111325000D01*
X151565000Y-111325000D02*
X151415000Y-111475000D01*
X152525000Y-111325000D02*
X151565000Y-111325000D01*
X143691000Y-111325000D02*
X143541000Y-111475000D01*
X144275000Y-111325000D02*
X143691000Y-111325000D01*
X135309000Y-111325000D02*
X135159000Y-111475000D01*
X136050000Y-111325000D02*
X135309000Y-111325000D01*
X126927000Y-111325000D02*
X126777000Y-111475000D01*
X127750000Y-111325000D02*
X126927000Y-111325000D01*
X118799000Y-111325000D02*
X118649000Y-111475000D01*
X119475000Y-111325000D02*
X118799000Y-111325000D01*
X110937700Y-111412300D02*
X110013000Y-111412300D01*
X111025000Y-111325000D02*
X110937700Y-111412300D01*
X102350700Y-111474300D02*
X101631000Y-111474300D01*
X102500000Y-111325000D02*
X102350700Y-111474300D01*
X93653000Y-111325000D02*
X93503000Y-111475000D01*
X93900000Y-111325000D02*
X93653000Y-111325000D01*
D20*
%TO.N,DOUT*%
X166985500Y-113325800D02*
X167674700Y-114015000D01*
X163681500Y-113325800D02*
X166985500Y-113325800D01*
X162482300Y-114525000D02*
X163681500Y-113325800D01*
X160800000Y-114525000D02*
X162482300Y-114525000D01*
X169175000Y-114015000D02*
X167674700Y-114015000D01*
D21*
%TO.N,Net-(D10-Pad4)*%
X165700000Y-111325000D02*
X164449700Y-111325000D01*
X154222000Y-114525000D02*
X152525000Y-114525000D01*
X155322400Y-113424600D02*
X154222000Y-114525000D01*
X162350100Y-113424600D02*
X155322400Y-113424600D01*
X164449700Y-111325000D02*
X162350100Y-113424600D01*
%TO.N,Net-(D8-Pad2)*%
X153975100Y-113524600D02*
X156174700Y-111325000D01*
X147072400Y-113524600D02*
X153975100Y-113524600D01*
X146072000Y-114525000D02*
X147072400Y-113524600D01*
X144275000Y-114525000D02*
X146072000Y-114525000D01*
X157425000Y-111325000D02*
X156174700Y-111325000D01*
%TO.N,Net-(D7-Pad2)*%
X145725100Y-113524600D02*
X147924700Y-111325000D01*
X138847400Y-113524600D02*
X145725100Y-113524600D01*
X137847000Y-114525000D02*
X138847400Y-113524600D01*
X136050000Y-114525000D02*
X137847000Y-114525000D01*
X149175000Y-111325000D02*
X147924700Y-111325000D01*
%TO.N,Net-(D6-Pad2)*%
X137500100Y-113524600D02*
X139699700Y-111325000D01*
X130547400Y-113524600D02*
X137500100Y-113524600D01*
X129547000Y-114525000D02*
X130547400Y-113524600D01*
X127750000Y-114525000D02*
X129547000Y-114525000D01*
X140950000Y-111325000D02*
X139699700Y-111325000D01*
%TO.N,Net-(D5-Pad2)*%
X129200100Y-113524600D02*
X131399700Y-111325000D01*
X122272400Y-113524600D02*
X129200100Y-113524600D01*
X121272000Y-114525000D02*
X122272400Y-113524600D01*
X119475000Y-114525000D02*
X121272000Y-114525000D01*
X132650000Y-111325000D02*
X131399700Y-111325000D01*
%TO.N,Net-(D4-Pad2)*%
X120925000Y-113524700D02*
X123124700Y-111325000D01*
X113275600Y-113524700D02*
X120925000Y-113524700D01*
X112275300Y-114525000D02*
X113275600Y-113524700D01*
X124375000Y-111325000D02*
X123124700Y-111325000D01*
X111025000Y-114525000D02*
X112275300Y-114525000D01*
%TO.N,Net-(D3-Pad2)*%
X113237400Y-112762300D02*
X114674700Y-111325000D01*
X106202100Y-112762300D02*
X113237400Y-112762300D01*
X104439400Y-114525000D02*
X106202100Y-112762300D01*
X102500000Y-114525000D02*
X104439400Y-114525000D01*
X115925000Y-111325000D02*
X114674700Y-111325000D01*
%TO.N,Net-(D2-Pad2)*%
X107400000Y-111325000D02*
X106149700Y-111325000D01*
X95697000Y-114525000D02*
X93900000Y-114525000D01*
X97397700Y-112824300D02*
X95697000Y-114525000D01*
X104650400Y-112824300D02*
X97397700Y-112824300D01*
X106149700Y-111325000D02*
X104650400Y-112824300D01*
D20*
%TO.N,DIN*%
X90050000Y-111350000D02*
X88649700Y-111350000D01*
X87499400Y-112500300D02*
X88649700Y-111350000D01*
X85980100Y-112500300D02*
X87499400Y-112500300D01*
X85730100Y-112750300D02*
X85980100Y-112500300D01*
X80099700Y-112750300D02*
X85730100Y-112750300D01*
X77750000Y-115100000D02*
X80099700Y-112750300D01*
D21*
%TO.N,GND*%
X90050000Y-114550000D02*
X88799700Y-114550000D01*
X88799700Y-114550000D02*
X88799700Y-115525400D01*
X79799700Y-115550300D02*
X77750000Y-117600000D01*
X88774800Y-115550300D02*
X79799700Y-115550300D01*
X88799700Y-115525400D02*
X88774800Y-115550300D01*
X98800000Y-114525000D02*
X97549700Y-114525000D01*
X115925000Y-114525000D02*
X117175300Y-114525000D01*
X124375000Y-114525000D02*
X123124700Y-114525000D01*
X132650000Y-114525000D02*
X131399700Y-114525000D01*
X123124700Y-115525300D02*
X123124700Y-114525000D01*
X140950000Y-114525000D02*
X139699700Y-114525000D01*
X131399700Y-115525300D02*
X131399700Y-114525000D01*
X123124700Y-115525300D02*
X131399700Y-115525300D01*
X149175000Y-114525000D02*
X147924700Y-114525000D01*
X139699700Y-115525300D02*
X139699700Y-114525000D01*
X131399700Y-115525300D02*
X139699700Y-115525300D01*
X157425000Y-114525000D02*
X156174700Y-114525000D01*
X147924700Y-115525300D02*
X147924700Y-114525000D01*
X139699700Y-115525300D02*
X147924700Y-115525300D01*
X169175000Y-116555000D02*
X167824700Y-116555000D01*
X155174400Y-115525300D02*
X156174700Y-114525000D01*
X147924700Y-115525300D02*
X155174400Y-115525300D01*
X165700000Y-114525000D02*
X164449700Y-114525000D01*
X157331100Y-115681400D02*
X164449700Y-115681400D01*
X156174700Y-114525000D02*
X157331100Y-115681400D01*
X164449700Y-114525000D02*
X164449700Y-115681400D01*
X166951100Y-115681400D02*
X167824700Y-116555000D01*
X164449700Y-115681400D02*
X166951100Y-115681400D01*
X118175600Y-115525300D02*
X123124700Y-115525300D01*
X117175300Y-114525000D02*
X118175600Y-115525300D01*
X107400000Y-114525000D02*
X108650300Y-114525000D01*
X97549700Y-114525000D02*
X96549300Y-115525400D01*
X88799700Y-115525400D02*
X96549300Y-115525400D01*
X116175000Y-115525300D02*
X117175300Y-114525000D01*
X109650600Y-115525300D02*
X116175000Y-115525300D01*
X108650300Y-114525000D02*
X109650600Y-115525300D01*
X107649900Y-115525400D02*
X108650300Y-114525000D01*
X96549300Y-115525400D02*
X107649900Y-115525400D01*
%TO.N,Net-(D1-Pad2)*%
X85150000Y-114550000D02*
X86400300Y-114550000D01*
X98800000Y-111325000D02*
X97549700Y-111325000D01*
X87425700Y-113524600D02*
X86400300Y-114550000D01*
X95350100Y-113524600D02*
X87425700Y-113524600D01*
X97549700Y-111325000D02*
X95350100Y-113524600D01*
D19*
%TO.N,+5V*%
X79000000Y-111350000D02*
X85150000Y-111350000D01*
X77750000Y-112600000D02*
X79000000Y-111350000D01*
%TD*%
%TA.AperFunction,Conductor*%
%TO.N,GND*%
G36*
X170938125Y-110032671D02*
G01*
X171050835Y-110034224D01*
X171086697Y-110037987D01*
X171227607Y-110065861D01*
X171262208Y-110076037D01*
X171395769Y-110128888D01*
X171427968Y-110145145D01*
X171549792Y-110221235D01*
X171578523Y-110243034D01*
X171684618Y-110339873D01*
X171708940Y-110366499D01*
X171795806Y-110480891D01*
X171814927Y-110511476D01*
X171879714Y-110639664D01*
X171893000Y-110673198D01*
X171933586Y-110810983D01*
X171940600Y-110846366D01*
X171953158Y-110965585D01*
X171954253Y-110986039D01*
X171954255Y-110986973D01*
X171952272Y-111001015D01*
X171954310Y-111015048D01*
X171954310Y-111015049D01*
X171955434Y-111022788D01*
X171957500Y-111051388D01*
X171957500Y-117296884D01*
X171955456Y-117325333D01*
X171952271Y-117347383D01*
X171954264Y-117361419D01*
X171954247Y-117375600D01*
X171953708Y-117375599D01*
X171954346Y-117395289D01*
X171943910Y-117531879D01*
X171938263Y-117566102D01*
X171898215Y-117722435D01*
X171886710Y-117755162D01*
X171820120Y-117902170D01*
X171803108Y-117932400D01*
X171712003Y-118065610D01*
X171690001Y-118092425D01*
X171577150Y-118207791D01*
X171550824Y-118230380D01*
X171419654Y-118324396D01*
X171389806Y-118342070D01*
X171244301Y-118411881D01*
X171211839Y-118424103D01*
X171056424Y-118467587D01*
X171022337Y-118473986D01*
X170886882Y-118487342D01*
X170867116Y-118488302D01*
X170864655Y-118488299D01*
X170850617Y-118486271D01*
X170836581Y-118488264D01*
X170836578Y-118488264D01*
X170827707Y-118489524D01*
X170799732Y-118491500D01*
X168057228Y-118491500D01*
X168025386Y-118488936D01*
X168024415Y-118488779D01*
X168023474Y-118488626D01*
X168023473Y-118488626D01*
X168009482Y-118486358D01*
X167995414Y-118488108D01*
X167981240Y-118487847D01*
X167981260Y-118486776D01*
X167961364Y-118486920D01*
X167914413Y-118481765D01*
X167894956Y-118479629D01*
X167854919Y-118470993D01*
X167770988Y-118443593D01*
X167733569Y-118426942D01*
X167720472Y-118419412D01*
X167657039Y-118382944D01*
X167623817Y-118358982D01*
X167557913Y-118300244D01*
X167530301Y-118269986D01*
X167477821Y-118199000D01*
X167456988Y-118163729D01*
X167448434Y-118145097D01*
X167420154Y-118083498D01*
X167406990Y-118044725D01*
X167391613Y-117977292D01*
X167388249Y-117957281D01*
X167388687Y-117944177D01*
X167386765Y-117936683D01*
X167386500Y-117931827D01*
X167386500Y-117008741D01*
X167386504Y-117007525D01*
X167386800Y-116959102D01*
X167386976Y-116930279D01*
X167380217Y-116906630D01*
X167374566Y-116880155D01*
X167373090Y-116869847D01*
X167373090Y-116869846D01*
X167371080Y-116855813D01*
X167362696Y-116837373D01*
X167360256Y-116830740D01*
X167845009Y-116830740D01*
X167872906Y-116954525D01*
X167877773Y-116970054D01*
X167955637Y-117161812D01*
X167962987Y-117176363D01*
X168071126Y-117352829D01*
X168080734Y-117365958D01*
X168216257Y-117522409D01*
X168227885Y-117533796D01*
X168387134Y-117666007D01*
X168400458Y-117675337D01*
X168579171Y-117779769D01*
X168593840Y-117786797D01*
X168787206Y-117860636D01*
X168802833Y-117865176D01*
X168899028Y-117884747D01*
X168917477Y-117884310D01*
X168920736Y-117869209D01*
X169429000Y-117869209D01*
X169433330Y-117888179D01*
X169434690Y-117888834D01*
X169446404Y-117889402D01*
X169450212Y-117888915D01*
X169466132Y-117885531D01*
X169664385Y-117826052D01*
X169679534Y-117820115D01*
X169865396Y-117729061D01*
X169879392Y-117720718D01*
X170047884Y-117600534D01*
X170060321Y-117590025D01*
X170206931Y-117443925D01*
X170217474Y-117431537D01*
X170338255Y-117263454D01*
X170346643Y-117249492D01*
X170438349Y-117063941D01*
X170444336Y-117048819D01*
X170504506Y-116850776D01*
X170507946Y-116834867D01*
X170508425Y-116831228D01*
X170506608Y-116811858D01*
X170505497Y-116811130D01*
X170493633Y-116809000D01*
X169451423Y-116809000D01*
X169432453Y-116813330D01*
X169429000Y-116820500D01*
X169429000Y-117869209D01*
X168920736Y-117869209D01*
X168921000Y-117867987D01*
X168921000Y-116831423D01*
X168916670Y-116812453D01*
X168909500Y-116809000D01*
X167862533Y-116809000D01*
X167845034Y-116812994D01*
X167845009Y-116830740D01*
X167360256Y-116830740D01*
X167352513Y-116809696D01*
X167350845Y-116803859D01*
X167350844Y-116803857D01*
X167346949Y-116790229D01*
X167333827Y-116769432D01*
X167320970Y-116745604D01*
X167316660Y-116736125D01*
X167310792Y-116723218D01*
X167297575Y-116707879D01*
X167280030Y-116684168D01*
X167276790Y-116679033D01*
X167276788Y-116679031D01*
X167269224Y-116667042D01*
X167258598Y-116657657D01*
X167258596Y-116657655D01*
X167250783Y-116650754D01*
X167231768Y-116631505D01*
X167224969Y-116623615D01*
X167215713Y-116612873D01*
X167198716Y-116601856D01*
X167175228Y-116584027D01*
X167160049Y-116570622D01*
X167147215Y-116564596D01*
X167147210Y-116564593D01*
X167137787Y-116560169D01*
X167114132Y-116547030D01*
X167093485Y-116533648D01*
X167074081Y-116527845D01*
X167046531Y-116517326D01*
X167028200Y-116508719D01*
X167003893Y-116504934D01*
X166977502Y-116498962D01*
X166967515Y-116495975D01*
X166967512Y-116495975D01*
X166953934Y-116491914D01*
X166939762Y-116491827D01*
X166939759Y-116491827D01*
X166922907Y-116491724D01*
X166919043Y-116491701D01*
X166918853Y-116491693D01*
X166917614Y-116491500D01*
X166886741Y-116491500D01*
X166885525Y-116491496D01*
X166808279Y-116491024D01*
X166806790Y-116491450D01*
X166806050Y-116491500D01*
X91194741Y-116491500D01*
X91193525Y-116491496D01*
X91116279Y-116491024D01*
X91102652Y-116494919D01*
X91102650Y-116494919D01*
X91092630Y-116497783D01*
X91066155Y-116503434D01*
X91055847Y-116504910D01*
X91055846Y-116504910D01*
X91041813Y-116506920D01*
X91028909Y-116512787D01*
X91023373Y-116515304D01*
X90995696Y-116525487D01*
X90989859Y-116527155D01*
X90989857Y-116527156D01*
X90976229Y-116531051D01*
X90964241Y-116538615D01*
X90964239Y-116538616D01*
X90955432Y-116544173D01*
X90931605Y-116557029D01*
X90909218Y-116567208D01*
X90898478Y-116576463D01*
X90898477Y-116576463D01*
X90893879Y-116580425D01*
X90870168Y-116597970D01*
X90865033Y-116601210D01*
X90865031Y-116601212D01*
X90853042Y-116608776D01*
X90843657Y-116619402D01*
X90843655Y-116619404D01*
X90836754Y-116627217D01*
X90817505Y-116646232D01*
X90798873Y-116662287D01*
X90788019Y-116679033D01*
X90787859Y-116679280D01*
X90770027Y-116702772D01*
X90756622Y-116717951D01*
X90750596Y-116730785D01*
X90750593Y-116730790D01*
X90746169Y-116740213D01*
X90733030Y-116763868D01*
X90719648Y-116784515D01*
X90715586Y-116798098D01*
X90713846Y-116803917D01*
X90703326Y-116831469D01*
X90694719Y-116849800D01*
X90690934Y-116874107D01*
X90684962Y-116900498D01*
X90677914Y-116924066D01*
X90677827Y-116938238D01*
X90677827Y-116938241D01*
X90677701Y-116958954D01*
X90677693Y-116959147D01*
X90677500Y-116960386D01*
X90677500Y-116991259D01*
X90677496Y-116992474D01*
X90677024Y-117069721D01*
X90677450Y-117071210D01*
X90677500Y-117071950D01*
X90677500Y-118292026D01*
X90657793Y-118378369D01*
X90602574Y-118447610D01*
X90522782Y-118486037D01*
X90434218Y-118486037D01*
X90354426Y-118447610D01*
X90299207Y-118378369D01*
X90293603Y-118365606D01*
X90255240Y-118269204D01*
X90255240Y-118269203D01*
X90253249Y-118264201D01*
X90245100Y-118248809D01*
X90139612Y-118049579D01*
X90083025Y-117942704D01*
X90078251Y-117935652D01*
X89882090Y-117645924D01*
X89882089Y-117645923D01*
X89879075Y-117641471D01*
X89643785Y-117364027D01*
X89639881Y-117360322D01*
X89639876Y-117360317D01*
X89383813Y-117117323D01*
X89379908Y-117113617D01*
X89090530Y-116893170D01*
X88988171Y-116831423D01*
X88783650Y-116708048D01*
X88783645Y-116708045D01*
X88779036Y-116705265D01*
X88449071Y-116552100D01*
X88443969Y-116550373D01*
X88109594Y-116437193D01*
X88109590Y-116437192D01*
X88104494Y-116435467D01*
X88099242Y-116434303D01*
X88099236Y-116434301D01*
X87969392Y-116405516D01*
X87749336Y-116356731D01*
X87574048Y-116337379D01*
X87393097Y-116317401D01*
X87393095Y-116317401D01*
X87387752Y-116316811D01*
X87209060Y-116316499D01*
X87029353Y-116316185D01*
X87029346Y-116316185D01*
X87023972Y-116316176D01*
X87018623Y-116316748D01*
X87018616Y-116316748D01*
X86667601Y-116354261D01*
X86667598Y-116354261D01*
X86662250Y-116354833D01*
X86656997Y-116355978D01*
X86656993Y-116355979D01*
X86312089Y-116431181D01*
X86312086Y-116431182D01*
X86306820Y-116432330D01*
X86301710Y-116434040D01*
X86301702Y-116434042D01*
X86060507Y-116514745D01*
X85961838Y-116547759D01*
X85956947Y-116550009D01*
X85956941Y-116550011D01*
X85796915Y-116623615D01*
X85631340Y-116699771D01*
X85319192Y-116886588D01*
X85314904Y-116889831D01*
X85314898Y-116889835D01*
X85033336Y-117102778D01*
X85033330Y-117102783D01*
X85029046Y-117106023D01*
X84764296Y-117355511D01*
X84760796Y-117359609D01*
X84760795Y-117359610D01*
X84633631Y-117508500D01*
X84528040Y-117632132D01*
X84525015Y-117636566D01*
X84525010Y-117636573D01*
X84333015Y-117918028D01*
X84323040Y-117932651D01*
X84320503Y-117937402D01*
X84320502Y-117937404D01*
X84311934Y-117953451D01*
X84151694Y-118253552D01*
X84149691Y-118258535D01*
X84149689Y-118258539D01*
X84085165Y-118419050D01*
X84016009Y-118591081D01*
X84014554Y-118596256D01*
X84014553Y-118596260D01*
X83926685Y-118908860D01*
X83917569Y-118941290D01*
X83916683Y-118946587D01*
X83916681Y-118946594D01*
X83903277Y-119026697D01*
X83857528Y-119300082D01*
X83857218Y-119305459D01*
X83845210Y-119513719D01*
X83836587Y-119663259D01*
X83854992Y-120026574D01*
X83912527Y-120385777D01*
X83913949Y-120390975D01*
X84003416Y-120718009D01*
X84008519Y-120736664D01*
X84010494Y-120741677D01*
X84010494Y-120741678D01*
X84125083Y-121032579D01*
X84141845Y-121075133D01*
X84144344Y-121079893D01*
X84144345Y-121079895D01*
X84308265Y-121392115D01*
X84310946Y-121397222D01*
X84344749Y-121447526D01*
X84510836Y-121694691D01*
X84510842Y-121694698D01*
X84513843Y-121699165D01*
X84517313Y-121703286D01*
X84517317Y-121703291D01*
X84744699Y-121973315D01*
X84744704Y-121973320D01*
X84748163Y-121977428D01*
X84752043Y-121981136D01*
X84752046Y-121981139D01*
X84834768Y-122060190D01*
X85011165Y-122228758D01*
X85015440Y-122232038D01*
X85149130Y-122334623D01*
X85205633Y-122402820D01*
X85226951Y-122488780D01*
X85208862Y-122575476D01*
X85154948Y-122645738D01*
X85075887Y-122685649D01*
X85027986Y-122691500D01*
X75542220Y-122691500D01*
X75518746Y-122690111D01*
X75487666Y-122686419D01*
X75483467Y-122687124D01*
X75402871Y-122670754D01*
X75332323Y-122617215D01*
X75291991Y-122538369D01*
X75288153Y-122492227D01*
X75286985Y-122492297D01*
X75283856Y-122440046D01*
X75283500Y-122428150D01*
X75283500Y-120750400D01*
X76266500Y-120750400D01*
X76277474Y-120856166D01*
X76333450Y-121023946D01*
X76426522Y-121174348D01*
X76551697Y-121299305D01*
X76702262Y-121392115D01*
X76713232Y-121395753D01*
X76713235Y-121395755D01*
X76859830Y-121444378D01*
X76859833Y-121444379D01*
X76870139Y-121447797D01*
X76880939Y-121448904D01*
X76880941Y-121448904D01*
X76969550Y-121457983D01*
X76969558Y-121457983D01*
X76974600Y-121458500D01*
X78525400Y-121458500D01*
X78578133Y-121453029D01*
X78620336Y-121448650D01*
X78620339Y-121448649D01*
X78631166Y-121447526D01*
X78700962Y-121424240D01*
X78787977Y-121395210D01*
X78787980Y-121395208D01*
X78798946Y-121391550D01*
X78949348Y-121298478D01*
X79074305Y-121173303D01*
X79160311Y-121033777D01*
X79161049Y-121032579D01*
X79161049Y-121032578D01*
X79167115Y-121022738D01*
X79222797Y-120854861D01*
X79233500Y-120750400D01*
X79233500Y-119449600D01*
X79222526Y-119343834D01*
X79199442Y-119274642D01*
X79170210Y-119187023D01*
X79170208Y-119187020D01*
X79166550Y-119176054D01*
X79073478Y-119025652D01*
X78948303Y-118900695D01*
X78884260Y-118861218D01*
X78882768Y-118860298D01*
X78819608Y-118798215D01*
X78789640Y-118714876D01*
X78798799Y-118626787D01*
X78849830Y-118546906D01*
X78889654Y-118508916D01*
X78900793Y-118496325D01*
X79028299Y-118324950D01*
X79037143Y-118310687D01*
X79133959Y-118120266D01*
X79140272Y-118104718D01*
X79203618Y-117900711D01*
X79207223Y-117884316D01*
X79208295Y-117876226D01*
X79206496Y-117856854D01*
X79205425Y-117856151D01*
X79193473Y-117854000D01*
X76313116Y-117854000D01*
X76295265Y-117858074D01*
X76295115Y-117875076D01*
X76317843Y-117983399D01*
X76322670Y-117999487D01*
X76401127Y-118198153D01*
X76408600Y-118213208D01*
X76519407Y-118395811D01*
X76529314Y-118409397D01*
X76661366Y-118561574D01*
X76703071Y-118639703D01*
X76706746Y-118728190D01*
X76671665Y-118809509D01*
X76615782Y-118861218D01*
X76550652Y-118901522D01*
X76542488Y-118909700D01*
X76542487Y-118909701D01*
X76516118Y-118936116D01*
X76425695Y-119026697D01*
X76419631Y-119036535D01*
X76419630Y-119036536D01*
X76338951Y-119167421D01*
X76332885Y-119177262D01*
X76329247Y-119188232D01*
X76329245Y-119188235D01*
X76290364Y-119305459D01*
X76277203Y-119345139D01*
X76266500Y-119449600D01*
X76266500Y-120750400D01*
X75283500Y-120750400D01*
X75283500Y-110232500D01*
X75303207Y-110146157D01*
X75358426Y-110076916D01*
X75438218Y-110038489D01*
X75482500Y-110033500D01*
X78057488Y-110033500D01*
X78143831Y-110053207D01*
X78213072Y-110108426D01*
X78251499Y-110188218D01*
X78251499Y-110276782D01*
X78213072Y-110356574D01*
X78187516Y-110383145D01*
X78181551Y-110388294D01*
X78174346Y-110393471D01*
X78168175Y-110399839D01*
X78100345Y-110469834D01*
X78098152Y-110472061D01*
X77323986Y-111246227D01*
X77248998Y-111293346D01*
X77233268Y-111298130D01*
X77172128Y-111313999D01*
X77164447Y-111317459D01*
X76995757Y-111393448D01*
X76961925Y-111408688D01*
X76954932Y-111413396D01*
X76777673Y-111532733D01*
X76777668Y-111532737D01*
X76770681Y-111537441D01*
X76603865Y-111696576D01*
X76598831Y-111703342D01*
X76472502Y-111873134D01*
X76466246Y-111881542D01*
X76462425Y-111889058D01*
X76462424Y-111889059D01*
X76426195Y-111960316D01*
X76361760Y-112087051D01*
X76339348Y-112159228D01*
X76298087Y-112292111D01*
X76293393Y-112307227D01*
X76263102Y-112535774D01*
X76263418Y-112544192D01*
X76263418Y-112544193D01*
X76264335Y-112568617D01*
X76271751Y-112766158D01*
X76319093Y-112991791D01*
X76403776Y-113206221D01*
X76408148Y-113213425D01*
X76408150Y-113213430D01*
X76492780Y-113352895D01*
X76523377Y-113403317D01*
X76528908Y-113409691D01*
X76666462Y-113568208D01*
X76674477Y-113577445D01*
X76693343Y-113592914D01*
X76819088Y-113696019D01*
X76873361Y-113766005D01*
X76891893Y-113852607D01*
X76871014Y-113938674D01*
X76814860Y-114007159D01*
X76804044Y-114014980D01*
X76777675Y-114032732D01*
X76777672Y-114032734D01*
X76770681Y-114037441D01*
X76603865Y-114196576D01*
X76598831Y-114203342D01*
X76520944Y-114308026D01*
X76466246Y-114381542D01*
X76361760Y-114587051D01*
X76359260Y-114595103D01*
X76301086Y-114782453D01*
X76293393Y-114807227D01*
X76263102Y-115035774D01*
X76263418Y-115044192D01*
X76263418Y-115044193D01*
X76264302Y-115067744D01*
X76271751Y-115266158D01*
X76319093Y-115491791D01*
X76361435Y-115599006D01*
X76369910Y-115620466D01*
X76403776Y-115706221D01*
X76408148Y-115713425D01*
X76408150Y-115713430D01*
X76471883Y-115818458D01*
X76523377Y-115903317D01*
X76674477Y-116077445D01*
X76815569Y-116193133D01*
X76819491Y-116196349D01*
X76873763Y-116266334D01*
X76892296Y-116352937D01*
X76871417Y-116439004D01*
X76815263Y-116507489D01*
X76804451Y-116515308D01*
X76777981Y-116533129D01*
X76764901Y-116543645D01*
X76610341Y-116691090D01*
X76599207Y-116703675D01*
X76471701Y-116875050D01*
X76462857Y-116889313D01*
X76366041Y-117079734D01*
X76359728Y-117095282D01*
X76296382Y-117299289D01*
X76292777Y-117315684D01*
X76291705Y-117323774D01*
X76293504Y-117343146D01*
X76294575Y-117343849D01*
X76306527Y-117346000D01*
X79186884Y-117346000D01*
X79204735Y-117341926D01*
X79204885Y-117324924D01*
X79182157Y-117216601D01*
X79177330Y-117200513D01*
X79098873Y-117001847D01*
X79091400Y-116986792D01*
X78980593Y-116804189D01*
X78970691Y-116790609D01*
X78830695Y-116629279D01*
X78818655Y-116617571D01*
X78680479Y-116504273D01*
X78626206Y-116434287D01*
X78607674Y-116347685D01*
X78628553Y-116261618D01*
X78684707Y-116193133D01*
X78695521Y-116185313D01*
X78722327Y-116167266D01*
X78729319Y-116162559D01*
X78896135Y-116003424D01*
X79033754Y-115818458D01*
X79138240Y-115612949D01*
X79173426Y-115499632D01*
X79204108Y-115400822D01*
X79204109Y-115400819D01*
X79206607Y-115392773D01*
X79236898Y-115164226D01*
X79236282Y-115147804D01*
X79233019Y-115060911D01*
X79228249Y-114933842D01*
X79208846Y-114841367D01*
X79210403Y-114752819D01*
X79250226Y-114673714D01*
X79262891Y-114659790D01*
X80355595Y-113567086D01*
X80430583Y-113519967D01*
X80496309Y-113508800D01*
X83777086Y-113508800D01*
X83863429Y-113528507D01*
X83932670Y-113583726D01*
X83971097Y-113663518D01*
X83971097Y-113752082D01*
X83954002Y-113797135D01*
X83949385Y-113803295D01*
X83898255Y-113939684D01*
X83891500Y-114001866D01*
X83891500Y-115098134D01*
X83898255Y-115160316D01*
X83949385Y-115296705D01*
X84036739Y-115413261D01*
X84153295Y-115500615D01*
X84289684Y-115551745D01*
X84327760Y-115555881D01*
X84346506Y-115557918D01*
X84346511Y-115557918D01*
X84351866Y-115558500D01*
X85948134Y-115558500D01*
X85953489Y-115557918D01*
X85953494Y-115557918D01*
X85972240Y-115555881D01*
X86010316Y-115551745D01*
X86146705Y-115500615D01*
X86263261Y-115413261D01*
X86319505Y-115338216D01*
X86387055Y-115280943D01*
X86444533Y-115261524D01*
X86498705Y-115252070D01*
X86509010Y-115250548D01*
X86570542Y-115243102D01*
X86581773Y-115238858D01*
X86588336Y-115237246D01*
X86594760Y-115235306D01*
X86606584Y-115233243D01*
X86663348Y-115208325D01*
X86672972Y-115204398D01*
X86719732Y-115186729D01*
X86719738Y-115186726D01*
X86730956Y-115182487D01*
X86740842Y-115175693D01*
X86746816Y-115172570D01*
X86752619Y-115169138D01*
X86763605Y-115164315D01*
X86796185Y-115139315D01*
X86812779Y-115126582D01*
X86821208Y-115120458D01*
X86835253Y-115110805D01*
X86861602Y-115092696D01*
X88792001Y-115092696D01*
X88792584Y-115103453D01*
X88797400Y-115147799D01*
X88803128Y-115171890D01*
X88844853Y-115283191D01*
X88858328Y-115307804D01*
X88928595Y-115401561D01*
X88948439Y-115421405D01*
X89042196Y-115491672D01*
X89066809Y-115505147D01*
X89178113Y-115546873D01*
X89202196Y-115552599D01*
X89246551Y-115557418D01*
X89257301Y-115558000D01*
X89773577Y-115558000D01*
X89792547Y-115553670D01*
X89796000Y-115546500D01*
X89796000Y-115535576D01*
X90304000Y-115535576D01*
X90308330Y-115554546D01*
X90315500Y-115557999D01*
X90842696Y-115557999D01*
X90853453Y-115557416D01*
X90897799Y-115552600D01*
X90921890Y-115546872D01*
X91033191Y-115505147D01*
X91057804Y-115491672D01*
X91151561Y-115421405D01*
X91171405Y-115401561D01*
X91241672Y-115307804D01*
X91255147Y-115283191D01*
X91296873Y-115171887D01*
X91302599Y-115147804D01*
X91307418Y-115103449D01*
X91308000Y-115092699D01*
X91308000Y-114826423D01*
X91303670Y-114807453D01*
X91296500Y-114804000D01*
X90326423Y-114804000D01*
X90307453Y-114808330D01*
X90304000Y-114815500D01*
X90304000Y-115535576D01*
X89796000Y-115535576D01*
X89796000Y-114826423D01*
X89791670Y-114807453D01*
X89784500Y-114804000D01*
X88814424Y-114804000D01*
X88795454Y-114808330D01*
X88792001Y-114815500D01*
X88792001Y-115092696D01*
X86861602Y-115092696D01*
X86872281Y-115085357D01*
X86912338Y-115040398D01*
X86920205Y-115032065D01*
X87660884Y-114291386D01*
X87735872Y-114244267D01*
X87801598Y-114233100D01*
X88652388Y-114233100D01*
X88738731Y-114252807D01*
X88776723Y-114283105D01*
X88803500Y-114296000D01*
X91285576Y-114296000D01*
X91305778Y-114291389D01*
X91324427Y-114276517D01*
X91404219Y-114238090D01*
X91448503Y-114233100D01*
X92442500Y-114233100D01*
X92528843Y-114252807D01*
X92598084Y-114308026D01*
X92636511Y-114387818D01*
X92641500Y-114432100D01*
X92641500Y-115073134D01*
X92648255Y-115135316D01*
X92699385Y-115271705D01*
X92786739Y-115388261D01*
X92903295Y-115475615D01*
X93039684Y-115526745D01*
X93077760Y-115530881D01*
X93096506Y-115532918D01*
X93096511Y-115532918D01*
X93101866Y-115533500D01*
X94698134Y-115533500D01*
X94703489Y-115532918D01*
X94703494Y-115532918D01*
X94722240Y-115530881D01*
X94760316Y-115526745D01*
X94896705Y-115475615D01*
X95013261Y-115388261D01*
X95069550Y-115313155D01*
X95137102Y-115255882D01*
X95228791Y-115233500D01*
X95665602Y-115233500D01*
X95679136Y-115233961D01*
X95697414Y-115235207D01*
X95734352Y-115237725D01*
X95795404Y-115227070D01*
X95805710Y-115225548D01*
X95867242Y-115218102D01*
X95878473Y-115213858D01*
X95885036Y-115212246D01*
X95891460Y-115210306D01*
X95903284Y-115208243D01*
X95960048Y-115183325D01*
X95969672Y-115179398D01*
X96016432Y-115161729D01*
X96016438Y-115161726D01*
X96027656Y-115157487D01*
X96037542Y-115150693D01*
X96043516Y-115147570D01*
X96049319Y-115144138D01*
X96060305Y-115139315D01*
X96106987Y-115103494D01*
X96109479Y-115101582D01*
X96117908Y-115095458D01*
X96132605Y-115085357D01*
X96158302Y-115067696D01*
X97542001Y-115067696D01*
X97542584Y-115078453D01*
X97547400Y-115122799D01*
X97553128Y-115146890D01*
X97594853Y-115258191D01*
X97608328Y-115282804D01*
X97678595Y-115376561D01*
X97698439Y-115396405D01*
X97792196Y-115466672D01*
X97816809Y-115480147D01*
X97928113Y-115521873D01*
X97952196Y-115527599D01*
X97996551Y-115532418D01*
X98007301Y-115533000D01*
X98523577Y-115533000D01*
X98542547Y-115528670D01*
X98546000Y-115521500D01*
X98546000Y-115510576D01*
X99054000Y-115510576D01*
X99058330Y-115529546D01*
X99065500Y-115532999D01*
X99592696Y-115532999D01*
X99603453Y-115532416D01*
X99647799Y-115527600D01*
X99671890Y-115521872D01*
X99783191Y-115480147D01*
X99807804Y-115466672D01*
X99901561Y-115396405D01*
X99921405Y-115376561D01*
X99991672Y-115282804D01*
X100005147Y-115258191D01*
X100046873Y-115146887D01*
X100052599Y-115122804D01*
X100057418Y-115078449D01*
X100058000Y-115067699D01*
X100058000Y-114801423D01*
X100053670Y-114782453D01*
X100046500Y-114779000D01*
X99076423Y-114779000D01*
X99057453Y-114783330D01*
X99054000Y-114790500D01*
X99054000Y-115510576D01*
X98546000Y-115510576D01*
X98546000Y-114801423D01*
X98541670Y-114782453D01*
X98534500Y-114779000D01*
X97564424Y-114779000D01*
X97545454Y-114783330D01*
X97542001Y-114790500D01*
X97542001Y-115067696D01*
X96158302Y-115067696D01*
X96168981Y-115060357D01*
X96209038Y-115015398D01*
X96216905Y-115007065D01*
X97202286Y-114021684D01*
X97277274Y-113974565D01*
X97365281Y-113964649D01*
X97448874Y-113993900D01*
X97511498Y-114056524D01*
X97540749Y-114140117D01*
X97542000Y-114162398D01*
X97542000Y-114248577D01*
X97546330Y-114267547D01*
X97553500Y-114271000D01*
X100035576Y-114271000D01*
X100054546Y-114266670D01*
X100057999Y-114259500D01*
X100057999Y-113982304D01*
X100057416Y-113971547D01*
X100052600Y-113927201D01*
X100046870Y-113903103D01*
X100008839Y-113801655D01*
X99996983Y-113713889D01*
X100024381Y-113629670D01*
X100085608Y-113565680D01*
X100168535Y-113534591D01*
X100195175Y-113532800D01*
X101104291Y-113532800D01*
X101190634Y-113552507D01*
X101259875Y-113607726D01*
X101298302Y-113687518D01*
X101298302Y-113776082D01*
X101290627Y-113801655D01*
X101252635Y-113902997D01*
X101252633Y-113903006D01*
X101248255Y-113914684D01*
X101241500Y-113976866D01*
X101241500Y-115073134D01*
X101248255Y-115135316D01*
X101299385Y-115271705D01*
X101386739Y-115388261D01*
X101503295Y-115475615D01*
X101639684Y-115526745D01*
X101677760Y-115530881D01*
X101696506Y-115532918D01*
X101696511Y-115532918D01*
X101701866Y-115533500D01*
X103298134Y-115533500D01*
X103303489Y-115532918D01*
X103303494Y-115532918D01*
X103322240Y-115530881D01*
X103360316Y-115526745D01*
X103496705Y-115475615D01*
X103613261Y-115388261D01*
X103669550Y-115313155D01*
X103737102Y-115255882D01*
X103828791Y-115233500D01*
X104408002Y-115233500D01*
X104421536Y-115233961D01*
X104439814Y-115235207D01*
X104476752Y-115237725D01*
X104537804Y-115227070D01*
X104548110Y-115225548D01*
X104609642Y-115218102D01*
X104620873Y-115213858D01*
X104627436Y-115212246D01*
X104633860Y-115210306D01*
X104645684Y-115208243D01*
X104702448Y-115183325D01*
X104712072Y-115179398D01*
X104758832Y-115161729D01*
X104758838Y-115161726D01*
X104770056Y-115157487D01*
X104779942Y-115150693D01*
X104785916Y-115147570D01*
X104791719Y-115144138D01*
X104802705Y-115139315D01*
X104849387Y-115103494D01*
X104851879Y-115101582D01*
X104860308Y-115095458D01*
X104875005Y-115085357D01*
X104900702Y-115067696D01*
X106142001Y-115067696D01*
X106142584Y-115078453D01*
X106147400Y-115122799D01*
X106153128Y-115146890D01*
X106194853Y-115258191D01*
X106208328Y-115282804D01*
X106278595Y-115376561D01*
X106298439Y-115396405D01*
X106392196Y-115466672D01*
X106416809Y-115480147D01*
X106528113Y-115521873D01*
X106552196Y-115527599D01*
X106596551Y-115532418D01*
X106607301Y-115533000D01*
X107123577Y-115533000D01*
X107142547Y-115528670D01*
X107146000Y-115521500D01*
X107146000Y-115510576D01*
X107654000Y-115510576D01*
X107658330Y-115529546D01*
X107665500Y-115532999D01*
X108192696Y-115532999D01*
X108203453Y-115532416D01*
X108247799Y-115527600D01*
X108271890Y-115521872D01*
X108383191Y-115480147D01*
X108407804Y-115466672D01*
X108501561Y-115396405D01*
X108521405Y-115376561D01*
X108591672Y-115282804D01*
X108605147Y-115258191D01*
X108646873Y-115146887D01*
X108652599Y-115122804D01*
X108657418Y-115078449D01*
X108658000Y-115067699D01*
X108658000Y-114801423D01*
X108653670Y-114782453D01*
X108646500Y-114779000D01*
X107676423Y-114779000D01*
X107657453Y-114783330D01*
X107654000Y-114790500D01*
X107654000Y-115510576D01*
X107146000Y-115510576D01*
X107146000Y-114801423D01*
X107141670Y-114782453D01*
X107134500Y-114779000D01*
X106164424Y-114779000D01*
X106145454Y-114783330D01*
X106142001Y-114790500D01*
X106142001Y-115067696D01*
X104900702Y-115067696D01*
X104911381Y-115060357D01*
X104951438Y-115015398D01*
X104959305Y-115007065D01*
X105808567Y-114157804D01*
X105883556Y-114110685D01*
X105971562Y-114100769D01*
X106055155Y-114130020D01*
X106117779Y-114192644D01*
X106143292Y-114254238D01*
X106146330Y-114267547D01*
X106153500Y-114271000D01*
X108635576Y-114271000D01*
X108654546Y-114266670D01*
X108657999Y-114259500D01*
X108657999Y-113982304D01*
X108657416Y-113971547D01*
X108652600Y-113927201D01*
X108646872Y-113903110D01*
X108605148Y-113791811D01*
X108590669Y-113765365D01*
X108566491Y-113680166D01*
X108581674Y-113592914D01*
X108633211Y-113520890D01*
X108710893Y-113478359D01*
X108765221Y-113470800D01*
X109659204Y-113470800D01*
X109745547Y-113490507D01*
X109814788Y-113545726D01*
X109853215Y-113625518D01*
X109853215Y-113714082D01*
X109833754Y-113765369D01*
X109832890Y-113766946D01*
X109824385Y-113778295D01*
X109773255Y-113914684D01*
X109766500Y-113976866D01*
X109766500Y-115073134D01*
X109773255Y-115135316D01*
X109824385Y-115271705D01*
X109911739Y-115388261D01*
X110028295Y-115475615D01*
X110164684Y-115526745D01*
X110202760Y-115530881D01*
X110221506Y-115532918D01*
X110221511Y-115532918D01*
X110226866Y-115533500D01*
X111823134Y-115533500D01*
X111828489Y-115532918D01*
X111828494Y-115532918D01*
X111847240Y-115530881D01*
X111885316Y-115526745D01*
X112021705Y-115475615D01*
X112138261Y-115388261D01*
X112194505Y-115313216D01*
X112262055Y-115255943D01*
X112319533Y-115236524D01*
X112319843Y-115236470D01*
X112334219Y-115233961D01*
X112373705Y-115227070D01*
X112384010Y-115225548D01*
X112445542Y-115218102D01*
X112456773Y-115213858D01*
X112463336Y-115212246D01*
X112469760Y-115210306D01*
X112481584Y-115208243D01*
X112538348Y-115183325D01*
X112547972Y-115179398D01*
X112594732Y-115161729D01*
X112594738Y-115161726D01*
X112605956Y-115157487D01*
X112615842Y-115150693D01*
X112621816Y-115147570D01*
X112627619Y-115144138D01*
X112638605Y-115139315D01*
X112685287Y-115103494D01*
X112687779Y-115101582D01*
X112696208Y-115095458D01*
X112710905Y-115085357D01*
X112736602Y-115067696D01*
X114667001Y-115067696D01*
X114667584Y-115078453D01*
X114672400Y-115122799D01*
X114678128Y-115146890D01*
X114719853Y-115258191D01*
X114733328Y-115282804D01*
X114803595Y-115376561D01*
X114823439Y-115396405D01*
X114917196Y-115466672D01*
X114941809Y-115480147D01*
X115053113Y-115521873D01*
X115077196Y-115527599D01*
X115121551Y-115532418D01*
X115132301Y-115533000D01*
X115648577Y-115533000D01*
X115667547Y-115528670D01*
X115671000Y-115521500D01*
X115671000Y-115510576D01*
X116179000Y-115510576D01*
X116183330Y-115529546D01*
X116190500Y-115532999D01*
X116717696Y-115532999D01*
X116728453Y-115532416D01*
X116772799Y-115527600D01*
X116796890Y-115521872D01*
X116908191Y-115480147D01*
X116932804Y-115466672D01*
X117026561Y-115396405D01*
X117046405Y-115376561D01*
X117116672Y-115282804D01*
X117130147Y-115258191D01*
X117171873Y-115146887D01*
X117177599Y-115122804D01*
X117182418Y-115078449D01*
X117183000Y-115067699D01*
X117183000Y-114801423D01*
X117178670Y-114782453D01*
X117171500Y-114779000D01*
X116201423Y-114779000D01*
X116182453Y-114783330D01*
X116179000Y-114790500D01*
X116179000Y-115510576D01*
X115671000Y-115510576D01*
X115671000Y-114801423D01*
X115666670Y-114782453D01*
X115659500Y-114779000D01*
X114689424Y-114779000D01*
X114670454Y-114783330D01*
X114667001Y-114790500D01*
X114667001Y-115067696D01*
X112736602Y-115067696D01*
X112747281Y-115060357D01*
X112787338Y-115015398D01*
X112795205Y-115007065D01*
X113510784Y-114291486D01*
X113585772Y-114244367D01*
X113651498Y-114233200D01*
X114554587Y-114233200D01*
X114640932Y-114252908D01*
X114678499Y-114271000D01*
X117160576Y-114271000D01*
X117196770Y-114262739D01*
X117247744Y-114238190D01*
X117292029Y-114233200D01*
X118017500Y-114233200D01*
X118103843Y-114252907D01*
X118173084Y-114308126D01*
X118211511Y-114387918D01*
X118216500Y-114432200D01*
X118216500Y-115073134D01*
X118223255Y-115135316D01*
X118274385Y-115271705D01*
X118361739Y-115388261D01*
X118478295Y-115475615D01*
X118614684Y-115526745D01*
X118652760Y-115530881D01*
X118671506Y-115532918D01*
X118671511Y-115532918D01*
X118676866Y-115533500D01*
X120273134Y-115533500D01*
X120278489Y-115532918D01*
X120278494Y-115532918D01*
X120297240Y-115530881D01*
X120335316Y-115526745D01*
X120471705Y-115475615D01*
X120588261Y-115388261D01*
X120644550Y-115313155D01*
X120712102Y-115255882D01*
X120803791Y-115233500D01*
X121240602Y-115233500D01*
X121254136Y-115233961D01*
X121272414Y-115235207D01*
X121309352Y-115237725D01*
X121370404Y-115227070D01*
X121380710Y-115225548D01*
X121442242Y-115218102D01*
X121453473Y-115213858D01*
X121460036Y-115212246D01*
X121466460Y-115210306D01*
X121478284Y-115208243D01*
X121535048Y-115183325D01*
X121544672Y-115179398D01*
X121591432Y-115161729D01*
X121591438Y-115161726D01*
X121602656Y-115157487D01*
X121612542Y-115150693D01*
X121618516Y-115147570D01*
X121624319Y-115144138D01*
X121635305Y-115139315D01*
X121681987Y-115103494D01*
X121684479Y-115101582D01*
X121692908Y-115095458D01*
X121707605Y-115085357D01*
X121733302Y-115067696D01*
X123117001Y-115067696D01*
X123117584Y-115078453D01*
X123122400Y-115122799D01*
X123128128Y-115146890D01*
X123169853Y-115258191D01*
X123183328Y-115282804D01*
X123253595Y-115376561D01*
X123273439Y-115396405D01*
X123367196Y-115466672D01*
X123391809Y-115480147D01*
X123503113Y-115521873D01*
X123527196Y-115527599D01*
X123571551Y-115532418D01*
X123582301Y-115533000D01*
X124098577Y-115533000D01*
X124117547Y-115528670D01*
X124121000Y-115521500D01*
X124121000Y-115510576D01*
X124629000Y-115510576D01*
X124633330Y-115529546D01*
X124640500Y-115532999D01*
X125167696Y-115532999D01*
X125178453Y-115532416D01*
X125222799Y-115527600D01*
X125246890Y-115521872D01*
X125358191Y-115480147D01*
X125382804Y-115466672D01*
X125476561Y-115396405D01*
X125496405Y-115376561D01*
X125566672Y-115282804D01*
X125580147Y-115258191D01*
X125621873Y-115146887D01*
X125627599Y-115122804D01*
X125632418Y-115078449D01*
X125633000Y-115067699D01*
X125633000Y-114801423D01*
X125628670Y-114782453D01*
X125621500Y-114779000D01*
X124651423Y-114779000D01*
X124632453Y-114783330D01*
X124629000Y-114790500D01*
X124629000Y-115510576D01*
X124121000Y-115510576D01*
X124121000Y-114801423D01*
X124116670Y-114782453D01*
X124109500Y-114779000D01*
X123139424Y-114779000D01*
X123120454Y-114783330D01*
X123117001Y-114790500D01*
X123117001Y-115067696D01*
X121733302Y-115067696D01*
X121743981Y-115060357D01*
X121784038Y-115015398D01*
X121791905Y-115007065D01*
X122507585Y-114291386D01*
X122582574Y-114244267D01*
X122648299Y-114233100D01*
X123004380Y-114233100D01*
X123090725Y-114252808D01*
X123128500Y-114271000D01*
X125610576Y-114271000D01*
X125646614Y-114262775D01*
X125697872Y-114238090D01*
X125742155Y-114233100D01*
X126292500Y-114233100D01*
X126378843Y-114252807D01*
X126448084Y-114308026D01*
X126486511Y-114387818D01*
X126491500Y-114432100D01*
X126491500Y-115073134D01*
X126498255Y-115135316D01*
X126549385Y-115271705D01*
X126636739Y-115388261D01*
X126753295Y-115475615D01*
X126889684Y-115526745D01*
X126927760Y-115530881D01*
X126946506Y-115532918D01*
X126946511Y-115532918D01*
X126951866Y-115533500D01*
X128548134Y-115533500D01*
X128553489Y-115532918D01*
X128553494Y-115532918D01*
X128572240Y-115530881D01*
X128610316Y-115526745D01*
X128746705Y-115475615D01*
X128863261Y-115388261D01*
X128919550Y-115313155D01*
X128987102Y-115255882D01*
X129078791Y-115233500D01*
X129515602Y-115233500D01*
X129529136Y-115233961D01*
X129547414Y-115235207D01*
X129584352Y-115237725D01*
X129645404Y-115227070D01*
X129655710Y-115225548D01*
X129717242Y-115218102D01*
X129728473Y-115213858D01*
X129735036Y-115212246D01*
X129741460Y-115210306D01*
X129753284Y-115208243D01*
X129810048Y-115183325D01*
X129819672Y-115179398D01*
X129866432Y-115161729D01*
X129866438Y-115161726D01*
X129877656Y-115157487D01*
X129887542Y-115150693D01*
X129893516Y-115147570D01*
X129899319Y-115144138D01*
X129910305Y-115139315D01*
X129956987Y-115103494D01*
X129959479Y-115101582D01*
X129967908Y-115095458D01*
X129982605Y-115085357D01*
X130008302Y-115067696D01*
X131392001Y-115067696D01*
X131392584Y-115078453D01*
X131397400Y-115122799D01*
X131403128Y-115146890D01*
X131444853Y-115258191D01*
X131458328Y-115282804D01*
X131528595Y-115376561D01*
X131548439Y-115396405D01*
X131642196Y-115466672D01*
X131666809Y-115480147D01*
X131778113Y-115521873D01*
X131802196Y-115527599D01*
X131846551Y-115532418D01*
X131857301Y-115533000D01*
X132373577Y-115533000D01*
X132392547Y-115528670D01*
X132396000Y-115521500D01*
X132396000Y-115510576D01*
X132904000Y-115510576D01*
X132908330Y-115529546D01*
X132915500Y-115532999D01*
X133442696Y-115532999D01*
X133453453Y-115532416D01*
X133497799Y-115527600D01*
X133521890Y-115521872D01*
X133633191Y-115480147D01*
X133657804Y-115466672D01*
X133751561Y-115396405D01*
X133771405Y-115376561D01*
X133841672Y-115282804D01*
X133855147Y-115258191D01*
X133896873Y-115146887D01*
X133902599Y-115122804D01*
X133907418Y-115078449D01*
X133908000Y-115067699D01*
X133908000Y-114801423D01*
X133903670Y-114782453D01*
X133896500Y-114779000D01*
X132926423Y-114779000D01*
X132907453Y-114783330D01*
X132904000Y-114790500D01*
X132904000Y-115510576D01*
X132396000Y-115510576D01*
X132396000Y-114801423D01*
X132391670Y-114782453D01*
X132384500Y-114779000D01*
X131414424Y-114779000D01*
X131395454Y-114783330D01*
X131392001Y-114790500D01*
X131392001Y-115067696D01*
X130008302Y-115067696D01*
X130018981Y-115060357D01*
X130059038Y-115015398D01*
X130066905Y-115007065D01*
X130782585Y-114291386D01*
X130857574Y-114244267D01*
X130923299Y-114233100D01*
X131279380Y-114233100D01*
X131365725Y-114252808D01*
X131403500Y-114271000D01*
X133885576Y-114271000D01*
X133921614Y-114262775D01*
X133972872Y-114238090D01*
X134017155Y-114233100D01*
X134592500Y-114233100D01*
X134678843Y-114252807D01*
X134748084Y-114308026D01*
X134786511Y-114387818D01*
X134791500Y-114432100D01*
X134791500Y-115073134D01*
X134798255Y-115135316D01*
X134849385Y-115271705D01*
X134936739Y-115388261D01*
X135053295Y-115475615D01*
X135189684Y-115526745D01*
X135227760Y-115530881D01*
X135246506Y-115532918D01*
X135246511Y-115532918D01*
X135251866Y-115533500D01*
X136848134Y-115533500D01*
X136853489Y-115532918D01*
X136853494Y-115532918D01*
X136872240Y-115530881D01*
X136910316Y-115526745D01*
X137046705Y-115475615D01*
X137163261Y-115388261D01*
X137219550Y-115313155D01*
X137287102Y-115255882D01*
X137378791Y-115233500D01*
X137815602Y-115233500D01*
X137829136Y-115233961D01*
X137847414Y-115235207D01*
X137884352Y-115237725D01*
X137945404Y-115227070D01*
X137955710Y-115225548D01*
X138017242Y-115218102D01*
X138028473Y-115213858D01*
X138035036Y-115212246D01*
X138041460Y-115210306D01*
X138053284Y-115208243D01*
X138110048Y-115183325D01*
X138119672Y-115179398D01*
X138166432Y-115161729D01*
X138166438Y-115161726D01*
X138177656Y-115157487D01*
X138187542Y-115150693D01*
X138193516Y-115147570D01*
X138199319Y-115144138D01*
X138210305Y-115139315D01*
X138256987Y-115103494D01*
X138259479Y-115101582D01*
X138267908Y-115095458D01*
X138282605Y-115085357D01*
X138308302Y-115067696D01*
X139692001Y-115067696D01*
X139692584Y-115078453D01*
X139697400Y-115122799D01*
X139703128Y-115146890D01*
X139744853Y-115258191D01*
X139758328Y-115282804D01*
X139828595Y-115376561D01*
X139848439Y-115396405D01*
X139942196Y-115466672D01*
X139966809Y-115480147D01*
X140078113Y-115521873D01*
X140102196Y-115527599D01*
X140146551Y-115532418D01*
X140157301Y-115533000D01*
X140673577Y-115533000D01*
X140692547Y-115528670D01*
X140696000Y-115521500D01*
X140696000Y-115510576D01*
X141204000Y-115510576D01*
X141208330Y-115529546D01*
X141215500Y-115532999D01*
X141742696Y-115532999D01*
X141753453Y-115532416D01*
X141797799Y-115527600D01*
X141821890Y-115521872D01*
X141933191Y-115480147D01*
X141957804Y-115466672D01*
X142051561Y-115396405D01*
X142071405Y-115376561D01*
X142141672Y-115282804D01*
X142155147Y-115258191D01*
X142196873Y-115146887D01*
X142202599Y-115122804D01*
X142207418Y-115078449D01*
X142208000Y-115067699D01*
X142208000Y-114801423D01*
X142203670Y-114782453D01*
X142196500Y-114779000D01*
X141226423Y-114779000D01*
X141207453Y-114783330D01*
X141204000Y-114790500D01*
X141204000Y-115510576D01*
X140696000Y-115510576D01*
X140696000Y-114801423D01*
X140691670Y-114782453D01*
X140684500Y-114779000D01*
X139714424Y-114779000D01*
X139695454Y-114783330D01*
X139692001Y-114790500D01*
X139692001Y-115067696D01*
X138308302Y-115067696D01*
X138318981Y-115060357D01*
X138359038Y-115015398D01*
X138366905Y-115007065D01*
X139082585Y-114291386D01*
X139157574Y-114244267D01*
X139223299Y-114233100D01*
X139579380Y-114233100D01*
X139665725Y-114252808D01*
X139703500Y-114271000D01*
X142185576Y-114271000D01*
X142221614Y-114262775D01*
X142272872Y-114238090D01*
X142317155Y-114233100D01*
X142817500Y-114233100D01*
X142903843Y-114252807D01*
X142973084Y-114308026D01*
X143011511Y-114387818D01*
X143016500Y-114432100D01*
X143016500Y-115073134D01*
X143023255Y-115135316D01*
X143074385Y-115271705D01*
X143161739Y-115388261D01*
X143278295Y-115475615D01*
X143414684Y-115526745D01*
X143452760Y-115530881D01*
X143471506Y-115532918D01*
X143471511Y-115532918D01*
X143476866Y-115533500D01*
X145073134Y-115533500D01*
X145078489Y-115532918D01*
X145078494Y-115532918D01*
X145097240Y-115530881D01*
X145135316Y-115526745D01*
X145271705Y-115475615D01*
X145388261Y-115388261D01*
X145444550Y-115313155D01*
X145512102Y-115255882D01*
X145603791Y-115233500D01*
X146040602Y-115233500D01*
X146054136Y-115233961D01*
X146072414Y-115235207D01*
X146109352Y-115237725D01*
X146170404Y-115227070D01*
X146180710Y-115225548D01*
X146242242Y-115218102D01*
X146253473Y-115213858D01*
X146260036Y-115212246D01*
X146266460Y-115210306D01*
X146278284Y-115208243D01*
X146335048Y-115183325D01*
X146344672Y-115179398D01*
X146391432Y-115161729D01*
X146391438Y-115161726D01*
X146402656Y-115157487D01*
X146412542Y-115150693D01*
X146418516Y-115147570D01*
X146424319Y-115144138D01*
X146435305Y-115139315D01*
X146481987Y-115103494D01*
X146484479Y-115101582D01*
X146492908Y-115095458D01*
X146507605Y-115085357D01*
X146533302Y-115067696D01*
X147917001Y-115067696D01*
X147917584Y-115078453D01*
X147922400Y-115122799D01*
X147928128Y-115146890D01*
X147969853Y-115258191D01*
X147983328Y-115282804D01*
X148053595Y-115376561D01*
X148073439Y-115396405D01*
X148167196Y-115466672D01*
X148191809Y-115480147D01*
X148303113Y-115521873D01*
X148327196Y-115527599D01*
X148371551Y-115532418D01*
X148382301Y-115533000D01*
X148898577Y-115533000D01*
X148917547Y-115528670D01*
X148921000Y-115521500D01*
X148921000Y-115510576D01*
X149429000Y-115510576D01*
X149433330Y-115529546D01*
X149440500Y-115532999D01*
X149967696Y-115532999D01*
X149978453Y-115532416D01*
X150022799Y-115527600D01*
X150046890Y-115521872D01*
X150158191Y-115480147D01*
X150182804Y-115466672D01*
X150276561Y-115396405D01*
X150296405Y-115376561D01*
X150366672Y-115282804D01*
X150380147Y-115258191D01*
X150421873Y-115146887D01*
X150427599Y-115122804D01*
X150432418Y-115078449D01*
X150433000Y-115067699D01*
X150433000Y-114801423D01*
X150428670Y-114782453D01*
X150421500Y-114779000D01*
X149451423Y-114779000D01*
X149432453Y-114783330D01*
X149429000Y-114790500D01*
X149429000Y-115510576D01*
X148921000Y-115510576D01*
X148921000Y-114801423D01*
X148916670Y-114782453D01*
X148909500Y-114779000D01*
X147939424Y-114779000D01*
X147920454Y-114783330D01*
X147917001Y-114790500D01*
X147917001Y-115067696D01*
X146533302Y-115067696D01*
X146543981Y-115060357D01*
X146584038Y-115015398D01*
X146591905Y-115007065D01*
X147307585Y-114291386D01*
X147382574Y-114244267D01*
X147448299Y-114233100D01*
X147804380Y-114233100D01*
X147890725Y-114252808D01*
X147928500Y-114271000D01*
X150410576Y-114271000D01*
X150446614Y-114262775D01*
X150497872Y-114238090D01*
X150542155Y-114233100D01*
X151067500Y-114233100D01*
X151153843Y-114252807D01*
X151223084Y-114308026D01*
X151261511Y-114387818D01*
X151266500Y-114432100D01*
X151266500Y-115073134D01*
X151273255Y-115135316D01*
X151324385Y-115271705D01*
X151411739Y-115388261D01*
X151528295Y-115475615D01*
X151664684Y-115526745D01*
X151702760Y-115530881D01*
X151721506Y-115532918D01*
X151721511Y-115532918D01*
X151726866Y-115533500D01*
X153323134Y-115533500D01*
X153328489Y-115532918D01*
X153328494Y-115532918D01*
X153347240Y-115530881D01*
X153385316Y-115526745D01*
X153521705Y-115475615D01*
X153638261Y-115388261D01*
X153694550Y-115313155D01*
X153762102Y-115255882D01*
X153853791Y-115233500D01*
X154190602Y-115233500D01*
X154204136Y-115233961D01*
X154222414Y-115235207D01*
X154259352Y-115237725D01*
X154320404Y-115227070D01*
X154330710Y-115225548D01*
X154392242Y-115218102D01*
X154403473Y-115213858D01*
X154410036Y-115212246D01*
X154416460Y-115210306D01*
X154428284Y-115208243D01*
X154485048Y-115183325D01*
X154494672Y-115179398D01*
X154541432Y-115161729D01*
X154541438Y-115161726D01*
X154552656Y-115157487D01*
X154562542Y-115150693D01*
X154568516Y-115147570D01*
X154574319Y-115144138D01*
X154585305Y-115139315D01*
X154631987Y-115103494D01*
X154634479Y-115101582D01*
X154642908Y-115095458D01*
X154657605Y-115085357D01*
X154683302Y-115067696D01*
X156167001Y-115067696D01*
X156167584Y-115078453D01*
X156172400Y-115122799D01*
X156178128Y-115146890D01*
X156219853Y-115258191D01*
X156233328Y-115282804D01*
X156303595Y-115376561D01*
X156323439Y-115396405D01*
X156417196Y-115466672D01*
X156441809Y-115480147D01*
X156553113Y-115521873D01*
X156577196Y-115527599D01*
X156621551Y-115532418D01*
X156632301Y-115533000D01*
X157148577Y-115533000D01*
X157167547Y-115528670D01*
X157171000Y-115521500D01*
X157171000Y-115510576D01*
X157679000Y-115510576D01*
X157683330Y-115529546D01*
X157690500Y-115532999D01*
X158217696Y-115532999D01*
X158228453Y-115532416D01*
X158272799Y-115527600D01*
X158296890Y-115521872D01*
X158408191Y-115480147D01*
X158432804Y-115466672D01*
X158526561Y-115396405D01*
X158546405Y-115376561D01*
X158616672Y-115282804D01*
X158630147Y-115258191D01*
X158671873Y-115146887D01*
X158677599Y-115122804D01*
X158682418Y-115078449D01*
X158683000Y-115067699D01*
X158683000Y-114801423D01*
X158678670Y-114782453D01*
X158671500Y-114779000D01*
X157701423Y-114779000D01*
X157682453Y-114783330D01*
X157679000Y-114790500D01*
X157679000Y-115510576D01*
X157171000Y-115510576D01*
X157171000Y-114801423D01*
X157166670Y-114782453D01*
X157159500Y-114779000D01*
X156189424Y-114779000D01*
X156170454Y-114783330D01*
X156167001Y-114790500D01*
X156167001Y-115067696D01*
X154683302Y-115067696D01*
X154693981Y-115060357D01*
X154734038Y-115015398D01*
X154741905Y-115007065D01*
X155557584Y-114191386D01*
X155632572Y-114144267D01*
X155698298Y-114133100D01*
X155981946Y-114133100D01*
X156068289Y-114152807D01*
X156137530Y-114208026D01*
X156159435Y-114253512D01*
X156170190Y-114266998D01*
X156178500Y-114271000D01*
X158660576Y-114271000D01*
X158679547Y-114266670D01*
X158689620Y-114245754D01*
X158744839Y-114176513D01*
X158824633Y-114138089D01*
X158868911Y-114133100D01*
X159342500Y-114133100D01*
X159428843Y-114152807D01*
X159498084Y-114208026D01*
X159536511Y-114287818D01*
X159541500Y-114332100D01*
X159541500Y-115073134D01*
X159548255Y-115135316D01*
X159599385Y-115271705D01*
X159686739Y-115388261D01*
X159803295Y-115475615D01*
X159939684Y-115526745D01*
X159977760Y-115530881D01*
X159996506Y-115532918D01*
X159996511Y-115532918D01*
X160001866Y-115533500D01*
X161598134Y-115533500D01*
X161603489Y-115532918D01*
X161603494Y-115532918D01*
X161622240Y-115530881D01*
X161660316Y-115526745D01*
X161796705Y-115475615D01*
X161913261Y-115388261D01*
X161932077Y-115363155D01*
X161999629Y-115305882D01*
X162091318Y-115283500D01*
X162409707Y-115283500D01*
X162439636Y-115285763D01*
X162455649Y-115288199D01*
X162467170Y-115287262D01*
X162467172Y-115287262D01*
X162502909Y-115284355D01*
X162505367Y-115284155D01*
X162519224Y-115283592D01*
X162520809Y-115283500D01*
X162526593Y-115283500D01*
X162532330Y-115282831D01*
X162532333Y-115282831D01*
X162541154Y-115281802D01*
X162553548Y-115280358D01*
X162560437Y-115279676D01*
X162631937Y-115273860D01*
X162642041Y-115270587D01*
X162647428Y-115269412D01*
X162657981Y-115268182D01*
X162706562Y-115250548D01*
X162725384Y-115243716D01*
X162731953Y-115241460D01*
X162789198Y-115222915D01*
X162789199Y-115222915D01*
X162800199Y-115219351D01*
X162809283Y-115213839D01*
X162814257Y-115211455D01*
X162824237Y-115207833D01*
X162856426Y-115186729D01*
X162884205Y-115168517D01*
X162890079Y-115164811D01*
X162943831Y-115132193D01*
X162943837Y-115132188D01*
X162951407Y-115127595D01*
X162959784Y-115120197D01*
X162961737Y-115118244D01*
X162964158Y-115116097D01*
X162972152Y-115110856D01*
X162980938Y-115101582D01*
X163013038Y-115067696D01*
X164442001Y-115067696D01*
X164442584Y-115078453D01*
X164447400Y-115122799D01*
X164453128Y-115146890D01*
X164494853Y-115258191D01*
X164508328Y-115282804D01*
X164578595Y-115376561D01*
X164598439Y-115396405D01*
X164692196Y-115466672D01*
X164716809Y-115480147D01*
X164828113Y-115521873D01*
X164852196Y-115527599D01*
X164896551Y-115532418D01*
X164907301Y-115533000D01*
X165423577Y-115533000D01*
X165442547Y-115528670D01*
X165446000Y-115521500D01*
X165446000Y-114801423D01*
X165441670Y-114782453D01*
X165434500Y-114779000D01*
X164464424Y-114779000D01*
X164445454Y-114783330D01*
X164442001Y-114790500D01*
X164442001Y-115067696D01*
X163013038Y-115067696D01*
X163024727Y-115055357D01*
X163028481Y-115051500D01*
X163937395Y-114142586D01*
X164012383Y-114095467D01*
X164078109Y-114084300D01*
X164245807Y-114084300D01*
X164332150Y-114104007D01*
X164401391Y-114159226D01*
X164439818Y-114239018D01*
X164446330Y-114267547D01*
X164453500Y-114271000D01*
X165755000Y-114271000D01*
X165841343Y-114290707D01*
X165910584Y-114345926D01*
X165949011Y-114425718D01*
X165954000Y-114470000D01*
X165954000Y-115510576D01*
X165958330Y-115529546D01*
X165965500Y-115532999D01*
X166492696Y-115532999D01*
X166503453Y-115532416D01*
X166547799Y-115527600D01*
X166571890Y-115521872D01*
X166683191Y-115480147D01*
X166707804Y-115466672D01*
X166801561Y-115396405D01*
X166821405Y-115376561D01*
X166891672Y-115282804D01*
X166905147Y-115258191D01*
X166946873Y-115146887D01*
X166952599Y-115122804D01*
X166957418Y-115078449D01*
X166958000Y-115067699D01*
X166958000Y-114825240D01*
X166977707Y-114738897D01*
X167032926Y-114669656D01*
X167112718Y-114631229D01*
X167201282Y-114631229D01*
X167249998Y-114652189D01*
X167250954Y-114650317D01*
X167250984Y-114650333D01*
X167250985Y-114650333D01*
X167253366Y-114651549D01*
X167265093Y-114658150D01*
X167273416Y-114664734D01*
X167292630Y-114673714D01*
X167338382Y-114695097D01*
X167344623Y-114698148D01*
X167381694Y-114717077D01*
X167408508Y-114730769D01*
X167418832Y-114733295D01*
X167424037Y-114735129D01*
X167433650Y-114739622D01*
X167444966Y-114741976D01*
X167444970Y-114741977D01*
X167503862Y-114754226D01*
X167510608Y-114755752D01*
X167580310Y-114772808D01*
X167591464Y-114773500D01*
X167594234Y-114773500D01*
X167597457Y-114773694D01*
X167606815Y-114775640D01*
X167683222Y-114773573D01*
X167688604Y-114773500D01*
X167943731Y-114773500D01*
X168030074Y-114793207D01*
X168094145Y-114842206D01*
X168215901Y-114982764D01*
X168215907Y-114982770D01*
X168221250Y-114988938D01*
X168329121Y-115078494D01*
X168393126Y-115131632D01*
X168391885Y-115133127D01*
X168443457Y-115190110D01*
X168468509Y-115275056D01*
X168454223Y-115362460D01*
X168403429Y-115435009D01*
X168389380Y-115446600D01*
X168276827Y-115531108D01*
X168264657Y-115541913D01*
X168121658Y-115691553D01*
X168111418Y-115704199D01*
X167994782Y-115875180D01*
X167986741Y-115889335D01*
X167899597Y-116077071D01*
X167893976Y-116092350D01*
X167839793Y-116287726D01*
X167841012Y-116298028D01*
X167843207Y-116299390D01*
X167852843Y-116301000D01*
X170489036Y-116301000D01*
X170505936Y-116297143D01*
X170505730Y-116278193D01*
X170466946Y-116123788D01*
X170461697Y-116108371D01*
X170379170Y-115918570D01*
X170371473Y-115904215D01*
X170259051Y-115730436D01*
X170249123Y-115717545D01*
X170109823Y-115564457D01*
X170097917Y-115553354D01*
X169954700Y-115440249D01*
X169899154Y-115371270D01*
X169879037Y-115285021D01*
X169898335Y-115198586D01*
X169953224Y-115129084D01*
X169962443Y-115122093D01*
X170054860Y-115056173D01*
X170213096Y-114898489D01*
X170343453Y-114717077D01*
X170375523Y-114652189D01*
X170409886Y-114582660D01*
X170442430Y-114516811D01*
X170507370Y-114303069D01*
X170530153Y-114130020D01*
X170535838Y-114086839D01*
X170535838Y-114086838D01*
X170536529Y-114081590D01*
X170538156Y-114015000D01*
X170534580Y-113971506D01*
X170520521Y-113800497D01*
X170520521Y-113800496D01*
X170519852Y-113792361D01*
X170502587Y-113723624D01*
X170473475Y-113607726D01*
X170465431Y-113575702D01*
X170462175Y-113568213D01*
X170462173Y-113568208D01*
X170379612Y-113378333D01*
X170376354Y-113370840D01*
X170255014Y-113183277D01*
X170249520Y-113177239D01*
X170180293Y-113101159D01*
X170136759Y-113024034D01*
X170131001Y-112935658D01*
X170164157Y-112853535D01*
X170229661Y-112793931D01*
X170257630Y-112780892D01*
X170258428Y-112780593D01*
X170258432Y-112780591D01*
X170271705Y-112775615D01*
X170388261Y-112688261D01*
X170475615Y-112571705D01*
X170526745Y-112435316D01*
X170533500Y-112373134D01*
X170533500Y-110576866D01*
X170532659Y-110569118D01*
X170529146Y-110536784D01*
X170526745Y-110514684D01*
X170475615Y-110378295D01*
X170455791Y-110351844D01*
X170419780Y-110270933D01*
X170422440Y-110182410D01*
X170463246Y-110103807D01*
X170534116Y-110050694D01*
X170615033Y-110033500D01*
X170822043Y-110033500D01*
X170837450Y-110034097D01*
X170883243Y-110037653D01*
X170897119Y-110034739D01*
X170911264Y-110033822D01*
X170911306Y-110034475D01*
X170930940Y-110032572D01*
X170938125Y-110032671D01*
G37*
%TD.AperFunction*%
%TD*%
M02*
