%TF.GenerationSoftware,KiCad,Pcbnew,(6.0.6)*%
%TF.CreationDate,2022-10-06T19:19:23+05:30*%
%TF.ProjectId,ESPNOW-FK,4553504e-4f57-42d4-964b-2e6b69636164,V1.0*%
%TF.SameCoordinates,PX6885d00PY822d320*%
%TF.FileFunction,Soldermask,Top*%
%TF.FilePolarity,Negative*%
%FSLAX46Y46*%
G04 Gerber Fmt 4.6, Leading zero omitted, Abs format (unit mm)*
G04 Created by KiCad (PCBNEW (6.0.6)) date 2022-10-06 19:19:23*
%MOMM*%
%LPD*%
G01*
G04 APERTURE LIST*
G04 Aperture macros list*
%AMRoundRect*
0 Rectangle with rounded corners*
0 $1 Rounding radius*
0 $2 $3 $4 $5 $6 $7 $8 $9 X,Y pos of 4 corners*
0 Add a 4 corners polygon primitive as box body*
4,1,4,$2,$3,$4,$5,$6,$7,$8,$9,$2,$3,0*
0 Add four circle primitives for the rounded corners*
1,1,$1+$1,$2,$3*
1,1,$1+$1,$4,$5*
1,1,$1+$1,$6,$7*
1,1,$1+$1,$8,$9*
0 Add four rect primitives between the rounded corners*
20,1,$1+$1,$2,$3,$4,$5,0*
20,1,$1+$1,$4,$5,$6,$7,0*
20,1,$1+$1,$6,$7,$8,$9,0*
20,1,$1+$1,$8,$9,$2,$3,0*%
G04 Aperture macros list end*
%ADD10C,1.600000*%
%ADD11O,1.600000X1.600000*%
%ADD12C,7.400000*%
%ADD13R,2.200000X2.200000*%
%ADD14O,2.200000X2.200000*%
%ADD15C,3.000000*%
%ADD16R,2.000000X2.000000*%
%ADD17C,2.000000*%
%ADD18RoundRect,0.250000X-0.600000X-0.725000X0.600000X-0.725000X0.600000X0.725000X-0.600000X0.725000X0*%
%ADD19O,1.700000X1.950000*%
%ADD20R,1.600000X1.600000*%
%ADD21RoundRect,0.250000X0.750000X-0.600000X0.750000X0.600000X-0.750000X0.600000X-0.750000X-0.600000X0*%
%ADD22O,2.000000X1.700000*%
%ADD23R,2.600000X2.600000*%
%ADD24C,2.600000*%
%ADD25RoundRect,0.250000X0.725000X-0.600000X0.725000X0.600000X-0.725000X0.600000X-0.725000X-0.600000X0*%
%ADD26O,1.950000X1.700000*%
%ADD27RoundRect,0.250000X0.600000X0.725000X-0.600000X0.725000X-0.600000X-0.725000X0.600000X-0.725000X0*%
%ADD28R,1.905000X2.000000*%
%ADD29O,1.905000X2.000000*%
G04 APERTURE END LIST*
D10*
%TO.C,R7*%
X55880000Y34580000D03*
D11*
X55880000Y44740000D03*
%TD*%
D12*
%TO.C,H1*%
X60000000Y85300000D03*
%TD*%
D13*
%TO.C,D1*%
X15240000Y63940000D03*
D14*
X15240000Y74100000D03*
%TD*%
D10*
%TO.C,C1*%
X53600000Y77400000D03*
X53600000Y82400000D03*
%TD*%
%TO.C,R1*%
X20250000Y26510000D03*
D11*
X20250000Y36670000D03*
%TD*%
D12*
%TO.C,H3*%
X5000000Y85300000D03*
%TD*%
D15*
%TO.C,U3*%
X27520000Y23725000D03*
X52030000Y70675000D03*
D16*
X27100000Y62715000D03*
D17*
X27100000Y60175000D03*
X27100000Y57635000D03*
X27100000Y55095000D03*
X27100000Y52555000D03*
X27100000Y50015000D03*
X27100000Y47475000D03*
X27100000Y44935000D03*
X27100000Y42395000D03*
X27100000Y39855000D03*
X27100000Y37315000D03*
X27100000Y34775000D03*
X27100000Y32235000D03*
X27100000Y29695000D03*
X27100000Y27155000D03*
X52500000Y27155000D03*
X52500000Y29695000D03*
X52500000Y32235000D03*
X52500000Y34775000D03*
X52500000Y37315000D03*
X52500000Y39855000D03*
X52500000Y42395000D03*
X52500000Y44935000D03*
X52500000Y47475000D03*
X52500000Y50015000D03*
X52500000Y52555000D03*
X52500000Y55095000D03*
X52500000Y57635000D03*
X52500000Y60175000D03*
X52500000Y62715000D03*
%TD*%
D12*
%TO.C,H2*%
X5000000Y5300000D03*
%TD*%
D10*
%TO.C,R4*%
X20340000Y64090000D03*
D11*
X20340000Y74250000D03*
%TD*%
D18*
%TO.C,J8*%
X37930000Y93415000D03*
D19*
X40430000Y93415000D03*
X42930000Y93415000D03*
X45430000Y93415000D03*
%TD*%
D20*
%TO.C,C2*%
X57797300Y76100000D03*
D10*
X62797300Y76100000D03*
%TD*%
D21*
%TO.C,J3*%
X6122500Y50140000D03*
D22*
X6122500Y52640000D03*
%TD*%
D21*
%TO.C,J4*%
X6107500Y39720000D03*
D22*
X6107500Y42220000D03*
%TD*%
D10*
%TO.C,R3*%
X15250000Y49740000D03*
D11*
X15250000Y59900000D03*
%TD*%
D23*
%TO.C,J5*%
X49240000Y9585000D03*
D24*
X44160000Y9585000D03*
X39080000Y9585000D03*
X34000000Y9585000D03*
%TD*%
D23*
%TO.C,J7*%
X34200000Y89405000D03*
D24*
X39280000Y89405000D03*
X44360000Y89405000D03*
X49440000Y89405000D03*
%TD*%
D20*
%TO.C,U1*%
X22130000Y41565000D03*
D11*
X22130000Y44105000D03*
X14510000Y44105000D03*
X14510000Y41565000D03*
%TD*%
D13*
%TO.C,D2*%
X15760000Y36600000D03*
D14*
X15760000Y26440000D03*
%TD*%
D25*
%TO.C,J9*%
X5600000Y19100000D03*
D26*
X5600000Y21600000D03*
X5600000Y24100000D03*
X5600000Y26600000D03*
X5600000Y29100000D03*
X5600000Y31600000D03*
%TD*%
D12*
%TO.C,H4*%
X60000000Y5300000D03*
%TD*%
D18*
%TO.C,J12*%
X4800000Y93500000D03*
D19*
X7300000Y93500000D03*
X9800000Y93500000D03*
X12300000Y93500000D03*
X14800000Y93500000D03*
X17300000Y93500000D03*
X19800000Y93500000D03*
X22300000Y93500000D03*
X24800000Y93500000D03*
X27300000Y93500000D03*
%TD*%
D25*
%TO.C,J10*%
X5900000Y61700000D03*
D26*
X5900000Y64200000D03*
X5900000Y66700000D03*
X5900000Y69200000D03*
X5900000Y71700000D03*
X5900000Y74200000D03*
%TD*%
D10*
%TO.C,R5*%
X12240000Y22960000D03*
D11*
X22400000Y22960000D03*
%TD*%
D18*
%TO.C,J11*%
X5550000Y13125000D03*
D19*
X8050000Y13125000D03*
X10550000Y13125000D03*
X13050000Y13125000D03*
X15550000Y13125000D03*
X18050000Y13125000D03*
X20550000Y13125000D03*
X23050000Y13125000D03*
X25550000Y13125000D03*
X28050000Y13125000D03*
%TD*%
D27*
%TO.C,J6*%
X44850000Y5375000D03*
D19*
X42350000Y5375000D03*
X39850000Y5375000D03*
X37350000Y5375000D03*
%TD*%
D10*
%TO.C,R2*%
X20450000Y49840000D03*
D11*
X20450000Y60000000D03*
%TD*%
D28*
%TO.C,Q1*%
X15220000Y79345000D03*
D29*
X17760000Y79345000D03*
X20300000Y79345000D03*
%TD*%
D10*
%TO.C,R6*%
X55860000Y57620000D03*
D11*
X55860000Y47460000D03*
%TD*%
M02*
