M48
; DRILL file {KiCad (6.0.6)} date Thu Oct  6 19:19:26 2022
; FORMAT={-:-/ absolute / metric / decimal}
; #@! TF.CreationDate,2022-10-06T19:19:26+05:30
; #@! TF.GenerationSoftware,Kicad,Pcbnew,(6.0.6)
; #@! TF.FileFunction,Plated,1,2,PTH
FMAT,2
METRIC
; #@! TA.AperFunction,Plated,PTH,ViaDrill
T1C0.450
; #@! TA.AperFunction,Plated,PTH,ViaDrill
T2C0.500
; #@! TA.AperFunction,Plated,PTH,ViaDrill
T3C0.650
; #@! TA.AperFunction,Plated,PTH,ComponentDrill
T4C0.800
; #@! TA.AperFunction,Plated,PTH,ComponentDrill
T5C0.950
; #@! TA.AperFunction,Plated,PTH,ComponentDrill
T6C1.000
; #@! TA.AperFunction,Plated,PTH,ComponentDrill
T7C1.020
; #@! TA.AperFunction,Plated,PTH,ComponentDrill
T8C1.100
; #@! TA.AperFunction,Plated,PTH,ComponentDrill
T9C1.300
; #@! TA.AperFunction,Plated,PTH,ComponentDrill
T10C3.700
%
G90
G05
T1
X8.13Y42.6
X9.64Y69.01
X10.54Y75.55
X12.35Y70.01
X12.37Y90.77
X12.68Y66.44
X13.31Y84.04
X14.823Y68.739
X16.05Y91.89
X17.72Y53.36
X17.98Y47.13
X18.37Y69.93
X19.033Y39.923
X22.29Y19.49
X24.658Y48.675
X25.64Y77.85
X25.73Y15.61
X25.78Y81.56
X27.56Y19.73
X28.87Y64.492
X30.381Y78.446
X30.77Y56.2
X31.75Y79.84
X36.375Y31.35
X38.76Y74.66
X42.36Y28.33
X42.43Y52.2
X46.4Y69.46
X47.194Y56.964
X49.053Y46.524
X49.87Y55.43
T2
X36.344Y58.301
X42.36Y66.345
T3
X8.97Y63.01
T4
X12.24Y22.96
X14.51Y44.105
X14.51Y41.565
X15.25Y59.9
X15.25Y49.74
X20.25Y36.67
X20.25Y26.51
X20.34Y74.25
X20.34Y64.09
X20.45Y60.0
X20.45Y49.84
X22.13Y44.105
X22.13Y41.565
X22.4Y22.96
X53.6Y82.4
X53.6Y77.4
X55.86Y57.62
X55.86Y47.46
X55.88Y44.74
X55.88Y34.58
X57.797Y76.1
X62.797Y76.1
T5
X4.8Y93.5
X5.55Y13.125
X5.6Y31.6
X5.6Y29.1
X5.6Y26.6
X5.6Y24.1
X5.6Y21.6
X5.6Y19.1
X5.9Y74.2
X5.9Y71.7
X5.9Y69.2
X5.9Y66.7
X5.9Y64.2
X5.9Y61.7
X7.3Y93.5
X8.05Y13.125
X9.8Y93.5
X10.55Y13.125
X12.3Y93.5
X13.05Y13.125
X14.8Y93.5
X15.55Y13.125
X17.3Y93.5
X18.05Y13.125
X19.8Y93.5
X20.55Y13.125
X22.3Y93.5
X23.05Y13.125
X24.8Y93.5
X25.55Y13.125
X27.3Y93.5
X28.05Y13.125
X37.35Y5.375
X37.93Y93.415
X39.85Y5.375
X40.43Y93.415
X42.35Y5.375
X42.93Y93.415
X44.85Y5.375
X45.43Y93.415
T6
X6.107Y42.22
X6.107Y39.72
X6.122Y52.64
X6.122Y50.14
T7
X27.1Y62.715
X27.1Y60.175
X27.1Y57.635
X27.1Y55.095
X27.1Y52.555
X27.1Y50.015
X27.1Y47.475
X27.1Y44.935
X27.1Y42.395
X27.1Y39.855
X27.1Y37.315
X27.1Y34.775
X27.1Y32.235
X27.1Y29.695
X27.1Y27.155
X52.5Y62.715
X52.5Y60.175
X52.5Y57.635
X52.5Y55.095
X52.5Y52.555
X52.5Y50.015
X52.5Y47.475
X52.5Y44.935
X52.5Y42.395
X52.5Y39.855
X52.5Y37.315
X52.5Y34.775
X52.5Y32.235
X52.5Y29.695
X52.5Y27.155
T8
X15.22Y79.345
X15.24Y74.1
X15.24Y63.94
X15.76Y36.6
X15.76Y26.44
X17.76Y79.345
X20.3Y79.345
T9
X34.0Y9.585
X34.2Y89.405
X39.08Y9.585
X39.28Y89.405
X44.16Y9.585
X44.36Y89.405
X49.24Y9.585
X49.44Y89.405
T10
X5.0Y85.3
X5.0Y5.3
X60.0Y85.3
X60.0Y5.3
T0
M30
