%TF.GenerationSoftware,KiCad,Pcbnew,(6.0.6)*%
%TF.CreationDate,2022-10-06T19:19:23+05:30*%
%TF.ProjectId,ESPNOW-FK,4553504e-4f57-42d4-964b-2e6b69636164,V1.0*%
%TF.SameCoordinates,PX6885d00PY822d320*%
%TF.FileFunction,Legend,Bot*%
%TF.FilePolarity,Positive*%
%FSLAX46Y46*%
G04 Gerber Fmt 4.6, Leading zero omitted, Abs format (unit mm)*
G04 Created by KiCad (PCBNEW (6.0.6)) date 2022-10-06 19:19:23*
%MOMM*%
%LPD*%
G01*
G04 APERTURE LIST*
%ADD10C,0.300000*%
G04 APERTURE END LIST*
D10*
X13521428Y16250000D02*
X13664285Y16321429D01*
X13878571Y16321429D01*
X14092857Y16250000D01*
X14235714Y16107143D01*
X14307142Y15964286D01*
X14378571Y15678572D01*
X14378571Y15464286D01*
X14307142Y15178572D01*
X14235714Y15035715D01*
X14092857Y14892858D01*
X13878571Y14821429D01*
X13735714Y14821429D01*
X13521428Y14892858D01*
X13450000Y14964286D01*
X13450000Y15464286D01*
X13735714Y15464286D01*
X12021428Y14821429D02*
X12878571Y14821429D01*
X12450000Y14821429D02*
X12450000Y16321429D01*
X12592857Y16107143D01*
X12735714Y15964286D01*
X12878571Y15892858D01*
X14092857Y90542858D02*
X14307142Y90614286D01*
X14378571Y90685715D01*
X14450000Y90828572D01*
X14450000Y91042858D01*
X14378571Y91185715D01*
X14307142Y91257143D01*
X14164285Y91328572D01*
X13592857Y91328572D01*
X13592857Y89828572D01*
X14092857Y89828572D01*
X14235714Y89900000D01*
X14307142Y89971429D01*
X14378571Y90114286D01*
X14378571Y90257143D01*
X14307142Y90400000D01*
X14235714Y90471429D01*
X14092857Y90542858D01*
X13592857Y90542858D01*
X15021428Y89971429D02*
X15092857Y89900000D01*
X15235714Y89828572D01*
X15592857Y89828572D01*
X15735714Y89900000D01*
X15807142Y89971429D01*
X15878571Y90114286D01*
X15878571Y90257143D01*
X15807142Y90471429D01*
X14950000Y91328572D01*
X15878571Y91328572D01*
X7150000Y97478572D02*
X6435714Y97478572D01*
X6435714Y95978572D01*
X7578571Y96121429D02*
X7650000Y96050000D01*
X7792857Y95978572D01*
X8150000Y95978572D01*
X8292857Y96050000D01*
X8364285Y96121429D01*
X8435714Y96264286D01*
X8435714Y96407143D01*
X8364285Y96621429D01*
X7507142Y97478572D01*
X8435714Y97478572D01*
X9664285Y87557143D02*
X9878571Y87628572D01*
X10235714Y87628572D01*
X10378571Y87557143D01*
X10450000Y87485715D01*
X10521428Y87342858D01*
X10521428Y87200000D01*
X10450000Y87057143D01*
X10378571Y86985715D01*
X10235714Y86914286D01*
X9950000Y86842858D01*
X9807142Y86771429D01*
X9735714Y86700000D01*
X9664285Y86557143D01*
X9664285Y86414286D01*
X9735714Y86271429D01*
X9807142Y86200000D01*
X9950000Y86128572D01*
X10307142Y86128572D01*
X10521428Y86200000D01*
X11164285Y87628572D02*
X11164285Y86628572D01*
X11164285Y86128572D02*
X11092857Y86200000D01*
X11164285Y86271429D01*
X11235714Y86200000D01*
X11164285Y86128572D01*
X11164285Y86271429D01*
X12521428Y86628572D02*
X12521428Y87842858D01*
X12450000Y87985715D01*
X12378571Y88057143D01*
X12235714Y88128572D01*
X12021428Y88128572D01*
X11878571Y88057143D01*
X12521428Y87557143D02*
X12378571Y87628572D01*
X12092857Y87628572D01*
X11950000Y87557143D01*
X11878571Y87485715D01*
X11807142Y87342858D01*
X11807142Y86914286D01*
X11878571Y86771429D01*
X11950000Y86700000D01*
X12092857Y86628572D01*
X12378571Y86628572D01*
X12521428Y86700000D01*
X13235714Y86628572D02*
X13235714Y87628572D01*
X13235714Y86771429D02*
X13307142Y86700000D01*
X13450000Y86628572D01*
X13664285Y86628572D01*
X13807142Y86700000D01*
X13878571Y86842858D01*
X13878571Y87628572D01*
X15235714Y87628572D02*
X15235714Y86842858D01*
X15164285Y86700000D01*
X15021428Y86628572D01*
X14735714Y86628572D01*
X14592857Y86700000D01*
X15235714Y87557143D02*
X15092857Y87628572D01*
X14735714Y87628572D01*
X14592857Y87557143D01*
X14521428Y87414286D01*
X14521428Y87271429D01*
X14592857Y87128572D01*
X14735714Y87057143D01*
X15092857Y87057143D01*
X15235714Y86985715D01*
X16164285Y87628572D02*
X16021428Y87557143D01*
X15949999Y87414286D01*
X15949999Y86128572D01*
X18378571Y86842858D02*
X18592857Y86914286D01*
X18664285Y86985715D01*
X18735714Y87128572D01*
X18735714Y87342858D01*
X18664285Y87485715D01*
X18592857Y87557143D01*
X18450000Y87628572D01*
X17878571Y87628572D01*
X17878571Y86128572D01*
X18378571Y86128572D01*
X18521428Y86200000D01*
X18592857Y86271429D01*
X18664285Y86414286D01*
X18664285Y86557143D01*
X18592857Y86700000D01*
X18521428Y86771429D01*
X18378571Y86842858D01*
X17878571Y86842858D01*
X20021428Y86628572D02*
X20021428Y87628572D01*
X19378571Y86628572D02*
X19378571Y87414286D01*
X19449999Y87557143D01*
X19592857Y87628572D01*
X19807142Y87628572D01*
X19950000Y87557143D01*
X20021428Y87485715D01*
X20664285Y87557143D02*
X20807142Y87628572D01*
X21092857Y87628572D01*
X21235714Y87557143D01*
X21307142Y87414286D01*
X21307142Y87342858D01*
X21235714Y87200000D01*
X21092857Y87128572D01*
X20878571Y87128572D01*
X20735714Y87057143D01*
X20664285Y86914286D01*
X20664285Y86842858D01*
X20735714Y86700000D01*
X20878571Y86628572D01*
X21092857Y86628572D01*
X21235714Y86700000D01*
X23378571Y86128572D02*
X23664285Y86128572D01*
X23807142Y86200000D01*
X23949999Y86342858D01*
X24021428Y86628572D01*
X24021428Y87128572D01*
X23949999Y87414286D01*
X23807142Y87557143D01*
X23664285Y87628572D01*
X23378571Y87628572D01*
X23235714Y87557143D01*
X23092857Y87414286D01*
X23021428Y87128572D01*
X23021428Y86628572D01*
X23092857Y86342858D01*
X23235714Y86200000D01*
X23378571Y86128572D01*
X24664285Y86128572D02*
X24664285Y87342858D01*
X24735714Y87485715D01*
X24807142Y87557143D01*
X24950000Y87628572D01*
X25235714Y87628572D01*
X25378571Y87557143D01*
X25450000Y87485715D01*
X25521428Y87342858D01*
X25521428Y86128572D01*
X26021428Y86128572D02*
X26878571Y86128572D01*
X26450000Y87628572D02*
X26450000Y86128572D01*
X26692857Y96542858D02*
X26907142Y96614286D01*
X26978571Y96685715D01*
X27050000Y96828572D01*
X27050000Y97042858D01*
X26978571Y97185715D01*
X26907142Y97257143D01*
X26764285Y97328572D01*
X26192857Y97328572D01*
X26192857Y95828572D01*
X26692857Y95828572D01*
X26835714Y95900000D01*
X26907142Y95971429D01*
X26978571Y96114286D01*
X26978571Y96257143D01*
X26907142Y96400000D01*
X26835714Y96471429D01*
X26692857Y96542858D01*
X26192857Y96542858D01*
X28478571Y97328572D02*
X27621428Y97328572D01*
X28050000Y97328572D02*
X28050000Y95828572D01*
X27907142Y96042858D01*
X27764285Y96185715D01*
X27621428Y96257143D01*
X22050000Y97378572D02*
X21550000Y96664286D01*
X21192857Y97378572D02*
X21192857Y95878572D01*
X21764285Y95878572D01*
X21907142Y95950000D01*
X21978571Y96021429D01*
X22050000Y96164286D01*
X22050000Y96378572D01*
X21978571Y96521429D01*
X21907142Y96592858D01*
X21764285Y96664286D01*
X21192857Y96664286D01*
X23478571Y97378572D02*
X22621428Y97378572D01*
X23050000Y97378572D02*
X23050000Y95878572D01*
X22907142Y96092858D01*
X22764285Y96235715D01*
X22621428Y96307143D01*
X25307142Y11400000D02*
X25450000Y11471429D01*
X25664285Y11471429D01*
X25878571Y11400000D01*
X26021428Y11257143D01*
X26092857Y11114286D01*
X26164285Y10828572D01*
X26164285Y10614286D01*
X26092857Y10328572D01*
X26021428Y10185715D01*
X25878571Y10042858D01*
X25664285Y9971429D01*
X25521428Y9971429D01*
X25307142Y10042858D01*
X25235714Y10114286D01*
X25235714Y10614286D01*
X25521428Y10614286D01*
X27992857Y15657143D02*
X27778571Y15585715D01*
X27707142Y15514286D01*
X27635714Y15371429D01*
X27635714Y15157143D01*
X27707142Y15014286D01*
X27778571Y14942858D01*
X27921428Y14871429D01*
X28492857Y14871429D01*
X28492857Y16371429D01*
X27992857Y16371429D01*
X27850000Y16300000D01*
X27778571Y16228572D01*
X27707142Y16085715D01*
X27707142Y15942858D01*
X27778571Y15800000D01*
X27850000Y15728572D01*
X27992857Y15657143D01*
X28492857Y15657143D01*
X16307142Y10757143D02*
X16092857Y10685715D01*
X16021428Y10614286D01*
X15950000Y10471429D01*
X15950000Y10257143D01*
X16021428Y10114286D01*
X16092857Y10042858D01*
X16235714Y9971429D01*
X16807142Y9971429D01*
X16807142Y11471429D01*
X16307142Y11471429D01*
X16164285Y11400000D01*
X16092857Y11328572D01*
X16021428Y11185715D01*
X16021428Y11042858D01*
X16092857Y10900000D01*
X16164285Y10828572D01*
X16307142Y10757143D01*
X16807142Y10757143D01*
X14521428Y9971429D02*
X15378571Y9971429D01*
X14950000Y9971429D02*
X14950000Y11471429D01*
X15092857Y11257143D01*
X15235714Y11114286D01*
X15378571Y11042858D01*
X22585714Y14821429D02*
X23085714Y15535715D01*
X23442857Y14821429D02*
X23442857Y16321429D01*
X22871428Y16321429D01*
X22728571Y16250000D01*
X22657142Y16178572D01*
X22585714Y16035715D01*
X22585714Y15821429D01*
X22657142Y15678572D01*
X22728571Y15607143D01*
X22871428Y15535715D01*
X23442857Y15535715D01*
X11878571Y96050000D02*
X11735714Y95978572D01*
X11521428Y95978572D01*
X11307142Y96050000D01*
X11164285Y96192858D01*
X11092857Y96335715D01*
X11021428Y96621429D01*
X11021428Y96835715D01*
X11092857Y97121429D01*
X11164285Y97264286D01*
X11307142Y97407143D01*
X11521428Y97478572D01*
X11664285Y97478572D01*
X11878571Y97407143D01*
X11950000Y97335715D01*
X11950000Y96835715D01*
X11664285Y96835715D01*
X12521428Y96121429D02*
X12592857Y96050000D01*
X12735714Y95978572D01*
X13092857Y95978572D01*
X13235714Y96050000D01*
X13307142Y96121429D01*
X13378571Y96264286D01*
X13378571Y96407143D01*
X13307142Y96621429D01*
X12450000Y97478572D01*
X13378571Y97478572D01*
X17835714Y15657143D02*
X18335714Y15657143D01*
X18335714Y14871429D02*
X18335714Y16371429D01*
X17621428Y16371429D01*
X5900000Y10707143D02*
X6400000Y10707143D01*
X6400000Y9921429D02*
X6400000Y11421429D01*
X5685714Y11421429D01*
X4328571Y9921429D02*
X5185714Y9921429D01*
X4757142Y9921429D02*
X4757142Y11421429D01*
X4900000Y11207143D01*
X5042857Y11064286D01*
X5185714Y10992858D01*
X4400000Y90642858D02*
X3900000Y90642858D01*
X3900000Y91428572D02*
X3900000Y89928572D01*
X4614285Y89928572D01*
X5114285Y90071429D02*
X5185714Y90000000D01*
X5328571Y89928572D01*
X5685714Y89928572D01*
X5828571Y90000000D01*
X5900000Y90071429D01*
X5971428Y90214286D01*
X5971428Y90357143D01*
X5900000Y90571429D01*
X5042857Y91428572D01*
X5971428Y91428572D01*
X45378571Y721429D02*
X45378571Y2221429D01*
X44807142Y2221429D01*
X44664285Y2150000D01*
X44592857Y2078572D01*
X44521428Y1935715D01*
X44521428Y1721429D01*
X44592857Y1578572D01*
X44664285Y1507143D01*
X44807142Y1435715D01*
X45378571Y1435715D01*
X43664285Y721429D02*
X43807142Y792858D01*
X43878571Y864286D01*
X43950000Y1007143D01*
X43950000Y1435715D01*
X43878571Y1578572D01*
X43807142Y1650000D01*
X43664285Y1721429D01*
X43450000Y1721429D01*
X43307142Y1650000D01*
X43235714Y1578572D01*
X43164285Y1435715D01*
X43164285Y1007143D01*
X43235714Y864286D01*
X43307142Y792858D01*
X43450000Y721429D01*
X43664285Y721429D01*
X42664285Y1721429D02*
X42378571Y721429D01*
X42092857Y1435715D01*
X41807142Y721429D01*
X41521428Y1721429D01*
X40378571Y792858D02*
X40521428Y721429D01*
X40807142Y721429D01*
X40950000Y792858D01*
X41021428Y935715D01*
X41021428Y1507143D01*
X40950000Y1650000D01*
X40807142Y1721429D01*
X40521428Y1721429D01*
X40378571Y1650000D01*
X40307142Y1507143D01*
X40307142Y1364286D01*
X41021428Y1221429D01*
X39664285Y721429D02*
X39664285Y1721429D01*
X39664285Y1435715D02*
X39592857Y1578572D01*
X39521428Y1650000D01*
X39378571Y1721429D01*
X39235714Y1721429D01*
X37592857Y721429D02*
X37592857Y2221429D01*
X36878571Y721429D02*
X36878571Y2221429D01*
X36021428Y721429D01*
X36021428Y2221429D01*
X24378571Y89900000D02*
X24235714Y89828572D01*
X24021428Y89828572D01*
X23807142Y89900000D01*
X23664285Y90042858D01*
X23592857Y90185715D01*
X23521428Y90471429D01*
X23521428Y90685715D01*
X23592857Y90971429D01*
X23664285Y91114286D01*
X23807142Y91257143D01*
X24021428Y91328572D01*
X24164285Y91328572D01*
X24378571Y91257143D01*
X24450000Y91185715D01*
X24450000Y90685715D01*
X24164285Y90685715D01*
X25878571Y91328572D02*
X25021428Y91328572D01*
X25450000Y91328572D02*
X25450000Y89828572D01*
X25307142Y90042858D01*
X25164285Y90185715D01*
X25021428Y90257143D01*
X10750000Y9971429D02*
X11250000Y10685715D01*
X11607142Y9971429D02*
X11607142Y11471429D01*
X11035714Y11471429D01*
X10892857Y11400000D01*
X10821428Y11328572D01*
X10750000Y11185715D01*
X10750000Y10971429D01*
X10821428Y10828572D01*
X10892857Y10757143D01*
X11035714Y10685715D01*
X11607142Y10685715D01*
X9321428Y9971429D02*
X10178571Y9971429D01*
X9750000Y9971429D02*
X9750000Y11471429D01*
X9892857Y11257143D01*
X10035714Y11114286D01*
X10178571Y11042858D01*
X16850000Y96692858D02*
X16350000Y96692858D01*
X16350000Y97478572D02*
X16350000Y95978572D01*
X17064285Y95978572D01*
X18421428Y97478572D02*
X17564285Y97478572D01*
X17992857Y97478572D02*
X17992857Y95978572D01*
X17850000Y96192858D01*
X17707142Y96335715D01*
X17564285Y96407143D01*
X19500000Y91378572D02*
X18785714Y91378572D01*
X18785714Y89878572D01*
X20785714Y91378572D02*
X19928571Y91378572D01*
X20357142Y91378572D02*
X20357142Y89878572D01*
X20214285Y90092858D01*
X20071428Y90235715D01*
X19928571Y90307143D01*
X9600000Y91378572D02*
X9100000Y90664286D01*
X8742857Y91378572D02*
X8742857Y89878572D01*
X9314285Y89878572D01*
X9457142Y89950000D01*
X9528571Y90021429D01*
X9600000Y90164286D01*
X9600000Y90378572D01*
X9528571Y90521429D01*
X9457142Y90592858D01*
X9314285Y90664286D01*
X8742857Y90664286D01*
X10171428Y90021429D02*
X10242857Y89950000D01*
X10385714Y89878572D01*
X10742857Y89878572D01*
X10885714Y89950000D01*
X10957142Y90021429D01*
X11028571Y90164286D01*
X11028571Y90307143D01*
X10957142Y90521429D01*
X10100000Y91378572D01*
X11028571Y91378572D01*
X47528571Y96871429D02*
X47528571Y98371429D01*
X46957142Y98371429D01*
X46814285Y98300000D01*
X46742857Y98228572D01*
X46671428Y98085715D01*
X46671428Y97871429D01*
X46742857Y97728572D01*
X46814285Y97657143D01*
X46957142Y97585715D01*
X47528571Y97585715D01*
X45814285Y96871429D02*
X45957142Y96942858D01*
X46028571Y97014286D01*
X46100000Y97157143D01*
X46100000Y97585715D01*
X46028571Y97728572D01*
X45957142Y97800000D01*
X45814285Y97871429D01*
X45600000Y97871429D01*
X45457142Y97800000D01*
X45385714Y97728572D01*
X45314285Y97585715D01*
X45314285Y97157143D01*
X45385714Y97014286D01*
X45457142Y96942858D01*
X45600000Y96871429D01*
X45814285Y96871429D01*
X44814285Y97871429D02*
X44528571Y96871429D01*
X44242857Y97585715D01*
X43957142Y96871429D01*
X43671428Y97871429D01*
X42528571Y96942858D02*
X42671428Y96871429D01*
X42957142Y96871429D01*
X43100000Y96942858D01*
X43171428Y97085715D01*
X43171428Y97657143D01*
X43100000Y97800000D01*
X42957142Y97871429D01*
X42671428Y97871429D01*
X42528571Y97800000D01*
X42457142Y97657143D01*
X42457142Y97514286D01*
X43171428Y97371429D01*
X41814285Y96871429D02*
X41814285Y97871429D01*
X41814285Y97585715D02*
X41742857Y97728572D01*
X41671428Y97800000D01*
X41528571Y97871429D01*
X41385714Y97871429D01*
X39457142Y98371429D02*
X39171428Y98371429D01*
X39028571Y98300000D01*
X38885714Y98157143D01*
X38814285Y97871429D01*
X38814285Y97371429D01*
X38885714Y97085715D01*
X39028571Y96942858D01*
X39171428Y96871429D01*
X39457142Y96871429D01*
X39600000Y96942858D01*
X39742857Y97085715D01*
X39814285Y97371429D01*
X39814285Y97871429D01*
X39742857Y98157143D01*
X39600000Y98300000D01*
X39457142Y98371429D01*
X38171428Y98371429D02*
X38171428Y97157143D01*
X38100000Y97014286D01*
X38028571Y96942858D01*
X37885714Y96871429D01*
X37600000Y96871429D01*
X37457142Y96942858D01*
X37385714Y97014286D01*
X37314285Y97157143D01*
X37314285Y98371429D01*
X36814285Y98371429D02*
X35957142Y98371429D01*
X36385714Y96871429D02*
X36385714Y98371429D01*
X20035714Y10021429D02*
X20750000Y10021429D01*
X20750000Y11521429D01*
X8400000Y14871429D02*
X9114285Y14871429D01*
X9114285Y16371429D01*
X7114285Y14871429D02*
X7971428Y14871429D01*
X7542857Y14871429D02*
X7542857Y16371429D01*
X7685714Y16157143D01*
X7828571Y16014286D01*
X7971428Y15942858D01*
X25935714Y5392858D02*
X25721428Y5321429D01*
X25364285Y5321429D01*
X25221428Y5392858D01*
X25150000Y5464286D01*
X25078571Y5607143D01*
X25078571Y5750000D01*
X25150000Y5892858D01*
X25221428Y5964286D01*
X25364285Y6035715D01*
X25650000Y6107143D01*
X25792857Y6178572D01*
X25864285Y6250000D01*
X25935714Y6392858D01*
X25935714Y6535715D01*
X25864285Y6678572D01*
X25792857Y6750000D01*
X25650000Y6821429D01*
X25292857Y6821429D01*
X25078571Y6750000D01*
X24435714Y5321429D02*
X24435714Y6321429D01*
X24435714Y6821429D02*
X24507142Y6750000D01*
X24435714Y6678572D01*
X24364285Y6750000D01*
X24435714Y6821429D01*
X24435714Y6678572D01*
X23078571Y6321429D02*
X23078571Y5107143D01*
X23150000Y4964286D01*
X23221428Y4892858D01*
X23364285Y4821429D01*
X23578571Y4821429D01*
X23721428Y4892858D01*
X23078571Y5392858D02*
X23221428Y5321429D01*
X23507142Y5321429D01*
X23650000Y5392858D01*
X23721428Y5464286D01*
X23792857Y5607143D01*
X23792857Y6035715D01*
X23721428Y6178572D01*
X23650000Y6250000D01*
X23507142Y6321429D01*
X23221428Y6321429D01*
X23078571Y6250000D01*
X22364285Y6321429D02*
X22364285Y5321429D01*
X22364285Y6178572D02*
X22292857Y6250000D01*
X22150000Y6321429D01*
X21935714Y6321429D01*
X21792857Y6250000D01*
X21721428Y6107143D01*
X21721428Y5321429D01*
X20364285Y5321429D02*
X20364285Y6107143D01*
X20435714Y6250000D01*
X20578571Y6321429D01*
X20864285Y6321429D01*
X21007142Y6250000D01*
X20364285Y5392858D02*
X20507142Y5321429D01*
X20864285Y5321429D01*
X21007142Y5392858D01*
X21078571Y5535715D01*
X21078571Y5678572D01*
X21007142Y5821429D01*
X20864285Y5892858D01*
X20507142Y5892858D01*
X20364285Y5964286D01*
X19435714Y5321429D02*
X19578571Y5392858D01*
X19650000Y5535715D01*
X19650000Y6821429D01*
X17221428Y6107143D02*
X17007142Y6035715D01*
X16935714Y5964286D01*
X16864285Y5821429D01*
X16864285Y5607143D01*
X16935714Y5464286D01*
X17007142Y5392858D01*
X17150000Y5321429D01*
X17721428Y5321429D01*
X17721428Y6821429D01*
X17221428Y6821429D01*
X17078571Y6750000D01*
X17007142Y6678572D01*
X16935714Y6535715D01*
X16935714Y6392858D01*
X17007142Y6250000D01*
X17078571Y6178572D01*
X17221428Y6107143D01*
X17721428Y6107143D01*
X15578571Y6321429D02*
X15578571Y5321429D01*
X16221428Y6321429D02*
X16221428Y5535715D01*
X16150000Y5392858D01*
X16007142Y5321429D01*
X15792857Y5321429D01*
X15650000Y5392858D01*
X15578571Y5464286D01*
X14935714Y5392858D02*
X14792857Y5321429D01*
X14507142Y5321429D01*
X14364285Y5392858D01*
X14292857Y5535715D01*
X14292857Y5607143D01*
X14364285Y5750000D01*
X14507142Y5821429D01*
X14721428Y5821429D01*
X14864285Y5892858D01*
X14935714Y6035715D01*
X14935714Y6107143D01*
X14864285Y6250000D01*
X14721428Y6321429D01*
X14507142Y6321429D01*
X14364285Y6250000D01*
X12507142Y5321429D02*
X12507142Y6821429D01*
X11792857Y5321429D02*
X11792857Y6821429D01*
X10935714Y5321429D01*
X10935714Y6821429D01*
%TO.C,G\u002A3e2*%
G36*
X37283556Y50420333D02*
G01*
X37412750Y50387883D01*
X37453756Y50377321D01*
X37532900Y50361021D01*
X37626179Y50346871D01*
X37737163Y50334685D01*
X37869422Y50324276D01*
X38026525Y50315458D01*
X38212042Y50308043D01*
X38429544Y50301846D01*
X38682600Y50296679D01*
X38974780Y50292356D01*
X39309653Y50288690D01*
X39376096Y50288049D01*
X39648334Y50285195D01*
X39878537Y50282305D01*
X40070168Y50279261D01*
X40226690Y50275943D01*
X40351566Y50272233D01*
X40448259Y50268013D01*
X40520230Y50263162D01*
X40570944Y50257563D01*
X40603863Y50251097D01*
X40622449Y50243644D01*
X40633222Y50236473D01*
X40648255Y50222295D01*
X40659109Y50200466D01*
X40666463Y50164549D01*
X40670999Y50108110D01*
X40673397Y50024712D01*
X40674337Y49907919D01*
X40674499Y49751297D01*
X40674498Y49743748D01*
X40673862Y49582485D01*
X40671776Y49461460D01*
X40667841Y49374896D01*
X40661660Y49317012D01*
X40652835Y49282032D01*
X40640967Y49264175D01*
X40617984Y49253992D01*
X40573736Y49248585D01*
X40502445Y49248396D01*
X40397799Y49253415D01*
X40253490Y49263635D01*
X40237820Y49264796D01*
X40115023Y49271914D01*
X39957240Y49278528D01*
X39774201Y49284362D01*
X39575637Y49289139D01*
X39371278Y49292582D01*
X39170856Y49294414D01*
X39038095Y49294878D01*
X38828240Y49294397D01*
X38656965Y49291621D01*
X38519307Y49285873D01*
X38410309Y49276472D01*
X38325008Y49262743D01*
X38258447Y49244006D01*
X38205664Y49219584D01*
X38161699Y49188799D01*
X38121592Y49150971D01*
X38099977Y49126474D01*
X38069149Y49079111D01*
X38046581Y49020449D01*
X38031066Y48943505D01*
X38021395Y48841296D01*
X38016362Y48706841D01*
X38014759Y48533155D01*
X38014557Y48480736D01*
X38012021Y48332783D01*
X38006413Y48226120D01*
X37997458Y48156971D01*
X37984882Y48121561D01*
X37968352Y48106576D01*
X37919172Y48085374D01*
X37838779Y48067142D01*
X37723412Y48051284D01*
X37569308Y48037201D01*
X37372703Y48024295D01*
X37306125Y48020478D01*
X37180193Y48015315D01*
X37090834Y48020288D01*
X37031778Y48041419D01*
X36996758Y48084727D01*
X36979504Y48156230D01*
X36973749Y48261949D01*
X36973224Y48407903D01*
X36973329Y48464003D01*
X36974935Y48582894D01*
X36979304Y48668396D01*
X36987485Y48729815D01*
X37000530Y48776460D01*
X37019490Y48817637D01*
X37030029Y48837946D01*
X37055547Y48894085D01*
X37065755Y48928406D01*
X37070436Y48943441D01*
X37093861Y48993352D01*
X37132526Y49066995D01*
X37181420Y49154573D01*
X37214276Y49212649D01*
X37256965Y49290909D01*
X37286226Y49348209D01*
X37297085Y49375066D01*
X37279238Y49387361D01*
X37227035Y49404042D01*
X37152504Y49420481D01*
X37066018Y49439369D01*
X36999268Y49466035D01*
X36957580Y49506630D01*
X36936317Y49569124D01*
X36930844Y49661485D01*
X36936524Y49791682D01*
X36941565Y49855489D01*
X36954461Y49966411D01*
X36970470Y50062123D01*
X36987246Y50127110D01*
X36993080Y50143261D01*
X37021129Y50227903D01*
X37042934Y50303570D01*
X37054102Y50341529D01*
X37082398Y50395719D01*
X37125395Y50425850D01*
X37190110Y50433522D01*
X37283556Y50420333D01*
G37*
G36*
X43450455Y41236065D02*
G01*
X42733333Y41236065D01*
X42733333Y41351730D01*
X43450455Y41351730D01*
X43450455Y41236065D01*
G37*
G36*
X37817736Y44357424D02*
G01*
X37995013Y44355522D01*
X38166825Y44352362D01*
X38322971Y44348192D01*
X38453253Y44343261D01*
X38547469Y44337817D01*
X38558502Y44336960D01*
X38669252Y44326958D01*
X38750704Y44314460D01*
X38818475Y44295107D01*
X38888178Y44264544D01*
X38975429Y44218414D01*
X39038051Y44182100D01*
X39150211Y44110963D01*
X39269591Y44029653D01*
X39379052Y43949586D01*
X39431736Y43909238D01*
X39543099Y43823922D01*
X39672003Y43725139D01*
X39806401Y43622122D01*
X39934244Y43524105D01*
X40029835Y43451682D01*
X40139077Y43371025D01*
X40235497Y43302049D01*
X40311226Y43250365D01*
X40358394Y43221586D01*
X40395206Y43204425D01*
X40512054Y43175353D01*
X40622649Y43190943D01*
X40733145Y43251690D01*
X40773982Y43281998D01*
X40844507Y43334337D01*
X40898014Y43374047D01*
X40928622Y43401810D01*
X40987623Y43488856D01*
X41028560Y43597529D01*
X41044261Y43711293D01*
X41045104Y43733669D01*
X41057383Y43815774D01*
X41079468Y43881651D01*
X41079970Y43882622D01*
X41104141Y43953874D01*
X41114366Y44032015D01*
X41123274Y44111392D01*
X41161954Y44200719D01*
X41227383Y44258101D01*
X41266020Y44271130D01*
X41320413Y44269983D01*
X41400425Y44250464D01*
X41439880Y44238169D01*
X41553461Y44196458D01*
X41665449Y44147512D01*
X41765206Y44096604D01*
X41842096Y44049007D01*
X41885481Y44009996D01*
X41892865Y43997843D01*
X41912459Y43937131D01*
X41921761Y43846149D01*
X41920785Y43721185D01*
X41909546Y43558525D01*
X41888058Y43354459D01*
X41875158Y43253317D01*
X41851280Y43112388D01*
X41821972Y43003047D01*
X41783709Y42916045D01*
X41732969Y42842130D01*
X41666229Y42772055D01*
X41656070Y42762950D01*
X41602152Y42718794D01*
X41520395Y42655102D01*
X41418261Y42577403D01*
X41303210Y42491226D01*
X41182703Y42402100D01*
X41064201Y42315554D01*
X40955166Y42237117D01*
X40863058Y42172317D01*
X40795338Y42126684D01*
X40789422Y42122864D01*
X40695731Y42061281D01*
X40603202Y41998729D01*
X40521248Y41941746D01*
X40459281Y41896870D01*
X40426714Y41870638D01*
X40400474Y41850615D01*
X40345796Y41824419D01*
X40311437Y41809681D01*
X40263125Y41776448D01*
X40235228Y41754611D01*
X40174284Y41711499D01*
X40087370Y41651952D01*
X39981109Y41580342D01*
X39862122Y41501044D01*
X39737033Y41418428D01*
X39612463Y41336870D01*
X39495034Y41260740D01*
X39391369Y41194413D01*
X39308091Y41142261D01*
X39251821Y41108657D01*
X39207625Y41082953D01*
X39125851Y41032204D01*
X39060957Y40988193D01*
X39031693Y40967997D01*
X38906631Y40903864D01*
X38752301Y40855667D01*
X38565733Y40823001D01*
X38343953Y40805461D01*
X38083992Y40802642D01*
X37782877Y40814139D01*
X37736107Y40816930D01*
X37510159Y40834179D01*
X37330053Y40855069D01*
X37195547Y40879643D01*
X37106402Y40907943D01*
X37062377Y40940011D01*
X37057407Y40961605D01*
X37051745Y41024171D01*
X37047203Y41118337D01*
X37044157Y41235872D01*
X37042977Y41368546D01*
X37042622Y41767057D01*
X37102014Y41805972D01*
X37108719Y41810119D01*
X37131423Y41820441D01*
X37162872Y41828176D01*
X37208423Y41833500D01*
X37273435Y41836592D01*
X37363263Y41837626D01*
X37483266Y41836781D01*
X37638800Y41834232D01*
X37835223Y41830157D01*
X38509041Y41815427D01*
X38822599Y41980549D01*
X38823410Y41980976D01*
X38985491Y42069325D01*
X39146171Y42162311D01*
X39297443Y42254890D01*
X39431301Y42342015D01*
X39539739Y42418643D01*
X39614751Y42479727D01*
X39621040Y42485588D01*
X39656802Y42524037D01*
X39661985Y42553458D01*
X39640907Y42592468D01*
X39630194Y42605891D01*
X39582655Y42652116D01*
X39510702Y42713774D01*
X39423772Y42783222D01*
X39331301Y42852819D01*
X39242726Y42914922D01*
X39239183Y42917289D01*
X39115781Y42997753D01*
X39016703Y43058343D01*
X38946261Y43096543D01*
X38908768Y43109836D01*
X38877869Y43121184D01*
X38835614Y43155895D01*
X38815367Y43175118D01*
X38757087Y43220093D01*
X38687448Y43265777D01*
X38580965Y43329599D01*
X37849986Y43341165D01*
X37792120Y43342106D01*
X37588669Y43345959D01*
X37426204Y43350150D01*
X37300499Y43354915D01*
X37207331Y43360493D01*
X37142477Y43367121D01*
X37101713Y43375038D01*
X37080815Y43384481D01*
X37075284Y43389740D01*
X37063114Y43410000D01*
X37054335Y43444377D01*
X37048423Y43499297D01*
X37044850Y43581190D01*
X37043092Y43696485D01*
X37042622Y43851611D01*
X37042633Y43901944D01*
X37043021Y44041404D01*
X37044514Y44143290D01*
X37047838Y44214286D01*
X37053724Y44261074D01*
X37062900Y44290335D01*
X37076094Y44308751D01*
X37094036Y44323005D01*
X37095915Y44324282D01*
X37119450Y44335394D01*
X37155770Y44343886D01*
X37210453Y44350066D01*
X37289080Y44354243D01*
X37397229Y44356726D01*
X37540479Y44357821D01*
X37724409Y44357838D01*
X37817736Y44357424D01*
G37*
G36*
X38102337Y58066234D02*
G01*
X38185141Y58044229D01*
X38219119Y58033495D01*
X38293326Y58014847D01*
X38347413Y58007468D01*
X38364615Y58007128D01*
X38469936Y57996389D01*
X38596487Y57973455D01*
X38727427Y57942248D01*
X38845915Y57906686D01*
X38935109Y57870689D01*
X38977338Y57848247D01*
X39089174Y57782846D01*
X39220883Y57699908D01*
X39361135Y57606864D01*
X39498600Y57511146D01*
X39621949Y57420185D01*
X39632568Y57412123D01*
X39702275Y57362327D01*
X39758594Y57327134D01*
X39790179Y57313722D01*
X39810826Y57305879D01*
X39858881Y57273819D01*
X39917411Y57225498D01*
X39922859Y57220633D01*
X39989504Y57163993D01*
X40082281Y57088438D01*
X40191300Y57001762D01*
X40306673Y56911761D01*
X40418510Y56826230D01*
X40516920Y56752963D01*
X40602537Y56678696D01*
X40661652Y56590808D01*
X40697329Y56477910D01*
X40700890Y56458802D01*
X40710320Y56364835D01*
X40712838Y56251247D01*
X40709097Y56131189D01*
X40699749Y56017807D01*
X40685448Y55924250D01*
X40666844Y55863666D01*
X40634924Y55818228D01*
X40577054Y55754638D01*
X40508324Y55690871D01*
X40493033Y55678030D01*
X40375377Y55583816D01*
X40233146Y55476206D01*
X40072489Y55359326D01*
X39899556Y55237305D01*
X39720498Y55114270D01*
X39541464Y54994348D01*
X39368605Y54881667D01*
X39208070Y54780354D01*
X39066008Y54694537D01*
X38948571Y54628342D01*
X38861907Y54585898D01*
X38860312Y54585226D01*
X38817594Y54567660D01*
X38778544Y54553965D01*
X38736921Y54543665D01*
X38686483Y54536283D01*
X38620989Y54531343D01*
X38534195Y54528368D01*
X38419862Y54526881D01*
X38271746Y54526406D01*
X38083606Y54526465D01*
X38014979Y54526556D01*
X37798757Y54527580D01*
X37622624Y54530107D01*
X37481765Y54534669D01*
X37371364Y54541801D01*
X37286606Y54552037D01*
X37222673Y54565912D01*
X37174751Y54583960D01*
X37138023Y54606714D01*
X37107674Y54634708D01*
X37042622Y54704346D01*
X37042622Y55094627D01*
X37042609Y55120234D01*
X37042785Y55272743D01*
X37046822Y55385307D01*
X37059454Y55463429D01*
X37085416Y55512611D01*
X37129442Y55538354D01*
X37196266Y55546160D01*
X37290624Y55541533D01*
X37417251Y55529973D01*
X37492469Y55524439D01*
X37631145Y55518023D01*
X37791819Y55513829D01*
X37960138Y55512194D01*
X38121746Y55513455D01*
X38225589Y55515448D01*
X38357996Y55519043D01*
X38458463Y55524660D01*
X38535777Y55533998D01*
X38598719Y55548755D01*
X38656075Y55570631D01*
X38716628Y55601323D01*
X38789162Y55642532D01*
X38794240Y55645458D01*
X38852456Y55678648D01*
X38933156Y55724283D01*
X39020491Y55773398D01*
X39084352Y55810307D01*
X39196333Y55878377D01*
X39317117Y55954798D01*
X39434503Y56031670D01*
X39536289Y56101096D01*
X39610272Y56155177D01*
X39667995Y56200288D01*
X39598706Y56272729D01*
X39568439Y56301348D01*
X39490147Y56365146D01*
X39386412Y56441790D01*
X39266381Y56524624D01*
X39139202Y56606996D01*
X39129047Y56613476D01*
X39082211Y56647077D01*
X39059274Y56669930D01*
X39045000Y56684318D01*
X38995744Y56717032D01*
X38921557Y56759510D01*
X38832578Y56806455D01*
X38738949Y56852572D01*
X38650810Y56892564D01*
X38578301Y56921135D01*
X38462197Y56952376D01*
X38280792Y56980302D01*
X38062487Y56995825D01*
X37811609Y56998665D01*
X37532488Y56988545D01*
X37496905Y56986527D01*
X37357430Y56979253D01*
X37255733Y56975598D01*
X37184931Y56975754D01*
X37138139Y56979916D01*
X37108476Y56988277D01*
X37089056Y57001032D01*
X37087911Y57002094D01*
X37071608Y57025925D01*
X37059168Y57066878D01*
X37049490Y57132240D01*
X37041475Y57229295D01*
X37034021Y57365328D01*
X37031795Y57408164D01*
X37023923Y57523207D01*
X37014645Y57618940D01*
X37004937Y57686388D01*
X36995777Y57716572D01*
X36995137Y57717242D01*
X36979638Y57755694D01*
X36973224Y57814931D01*
X36973316Y57823129D01*
X36979328Y57867974D01*
X36998662Y57902937D01*
X37036802Y57929970D01*
X37099232Y57951024D01*
X37191438Y57968052D01*
X37318904Y57983005D01*
X37487115Y57997837D01*
X37585851Y58006353D01*
X37719229Y58019484D01*
X37836341Y58032845D01*
X37927224Y58045274D01*
X37981919Y58055607D01*
X38032807Y58066466D01*
X38102337Y58066234D01*
G37*
G36*
X43450455Y34990164D02*
G01*
X42919585Y34990164D01*
X42884291Y34921913D01*
X42860064Y34859172D01*
X42848972Y34777623D01*
X42860372Y34708912D01*
X42893743Y34667116D01*
X42922598Y34659270D01*
X42991601Y34650941D01*
X43086094Y34645266D01*
X43194471Y34643169D01*
X43450455Y34643169D01*
X43450455Y34527504D01*
X43159772Y34527504D01*
X43045217Y34529307D01*
X42941437Y34534569D01*
X42863810Y34542547D01*
X42822386Y34552499D01*
X42807810Y34561329D01*
X42752594Y34624577D01*
X42727341Y34712887D01*
X42733338Y34816722D01*
X42771873Y34926548D01*
X42787686Y34960362D01*
X42790545Y34984767D01*
X42768626Y34990164D01*
X42745568Y35001255D01*
X42733333Y35047996D01*
X42733333Y35105828D01*
X43450455Y35105828D01*
X43450455Y34990164D01*
G37*
G36*
X42204985Y48799936D02*
G01*
X42259375Y48788757D01*
X42313211Y48757512D01*
X42381546Y48698435D01*
X42508947Y48553898D01*
X42612886Y48372158D01*
X42684687Y48159216D01*
X42698530Y48100885D01*
X42716433Y48016231D01*
X42732886Y47923918D01*
X42749415Y47814354D01*
X42767548Y47677946D01*
X42788811Y47505100D01*
X42790278Y47491006D01*
X42794584Y47400820D01*
X42795116Y47278174D01*
X42792351Y47134257D01*
X42786762Y46980258D01*
X42778824Y46827368D01*
X42769011Y46686777D01*
X42757797Y46569674D01*
X42745657Y46487249D01*
X42729062Y46410579D01*
X42682737Y46232498D01*
X42629378Y46067169D01*
X42572789Y45925695D01*
X42516773Y45819176D01*
X42437907Y45696676D01*
X42372977Y45599349D01*
X42320861Y45526928D01*
X42275820Y45471908D01*
X42232113Y45426785D01*
X42184003Y45384053D01*
X42144502Y45351672D01*
X41968098Y45224417D01*
X41775644Y45108938D01*
X41581926Y45013509D01*
X41401731Y44946401D01*
X41385393Y44941884D01*
X41358396Y44935931D01*
X41324993Y44930602D01*
X41282527Y44925845D01*
X41228340Y44921606D01*
X41159775Y44917829D01*
X41074175Y44914462D01*
X40968882Y44911450D01*
X40841240Y44908740D01*
X40688590Y44906276D01*
X40508276Y44904006D01*
X40297641Y44901875D01*
X40054026Y44899828D01*
X39774775Y44897814D01*
X39457230Y44895776D01*
X39098734Y44893661D01*
X38696630Y44891415D01*
X38379755Y44889706D01*
X38004298Y44887698D01*
X37670327Y44885805D01*
X37375135Y44883875D01*
X37116014Y44881756D01*
X36890257Y44879293D01*
X36695155Y44876336D01*
X36528003Y44872731D01*
X36386092Y44868325D01*
X36266715Y44862965D01*
X36167164Y44856500D01*
X36084732Y44848776D01*
X36016712Y44839640D01*
X35960395Y44828941D01*
X35913076Y44816525D01*
X35872046Y44802239D01*
X35834597Y44785931D01*
X35798023Y44767448D01*
X35759616Y44746637D01*
X35716668Y44723346D01*
X35712833Y44721277D01*
X35636797Y44673046D01*
X35547695Y44606230D01*
X35453963Y44528429D01*
X35364040Y44447243D01*
X35286364Y44370270D01*
X35229373Y44305111D01*
X35201504Y44259365D01*
X35181324Y44213852D01*
X35144304Y44155729D01*
X35141167Y44151361D01*
X35115788Y44098200D01*
X35088721Y44017321D01*
X35065316Y43924399D01*
X35064199Y43919112D01*
X35042534Y43817263D01*
X35021576Y43719870D01*
X35005717Y43647345D01*
X34990819Y43548091D01*
X34982446Y43397085D01*
X34983180Y43217930D01*
X34992145Y43019743D01*
X35008464Y42811644D01*
X35031261Y42602752D01*
X35059658Y42402184D01*
X35092780Y42219061D01*
X35129749Y42062500D01*
X35169690Y41941621D01*
X35183893Y41905635D01*
X35226545Y41776869D01*
X35258045Y41649054D01*
X35275452Y41535786D01*
X35275828Y41450657D01*
X35269703Y41414215D01*
X35221939Y41277094D01*
X35141318Y41169797D01*
X35031247Y41095835D01*
X34895136Y41058715D01*
X34795194Y41053653D01*
X34657449Y41075993D01*
X34541891Y41136492D01*
X34447014Y41236448D01*
X34371310Y41377160D01*
X34313272Y41559927D01*
X34307096Y41584119D01*
X34284073Y41666061D01*
X34258085Y41750788D01*
X34256069Y41757282D01*
X34238485Y41827264D01*
X34217384Y41928739D01*
X34195242Y42049116D01*
X34174533Y42175801D01*
X34169788Y42206461D01*
X34150678Y42321972D01*
X34132490Y42420583D01*
X34117086Y42492659D01*
X34106330Y42528564D01*
X34103818Y42534537D01*
X34093707Y42586389D01*
X34084963Y42674442D01*
X34077789Y42790534D01*
X34072389Y42926502D01*
X34068967Y43074182D01*
X34067727Y43225411D01*
X34068872Y43372026D01*
X34072605Y43505863D01*
X34079131Y43618761D01*
X34097782Y43793152D01*
X34160576Y44114394D01*
X34259198Y44408786D01*
X34395173Y44679660D01*
X34570024Y44930352D01*
X34785273Y45164193D01*
X34853517Y45227534D01*
X34953478Y45314358D01*
X35048504Y45390952D01*
X35124858Y45445921D01*
X35182358Y45479969D01*
X35304458Y45541669D01*
X35448235Y45605310D01*
X35599283Y45665000D01*
X35743198Y45714844D01*
X35865577Y45748951D01*
X35882635Y45751844D01*
X35930474Y45756405D01*
X36003812Y45760574D01*
X36104538Y45764376D01*
X36234540Y45767839D01*
X36395706Y45770988D01*
X36589923Y45773850D01*
X36819078Y45776450D01*
X37085061Y45778816D01*
X37389758Y45780974D01*
X37735058Y45782950D01*
X38122848Y45784770D01*
X38555015Y45786461D01*
X41119959Y45795678D01*
X41273139Y45869386D01*
X41319392Y45893723D01*
X41444250Y45977371D01*
X41563712Y46080193D01*
X41665098Y46190482D01*
X41735731Y46296531D01*
X41763885Y46363430D01*
X41799593Y46472336D01*
X41835486Y46602466D01*
X41868223Y46740629D01*
X41894466Y46873635D01*
X41910874Y46988293D01*
X41914711Y47044225D01*
X41912276Y47188212D01*
X41894990Y47366998D01*
X41862526Y47583472D01*
X41814556Y47840528D01*
X41783361Y48011851D01*
X41757690Y48214799D01*
X41752440Y48378874D01*
X41767587Y48505600D01*
X41803109Y48596501D01*
X41803915Y48597787D01*
X41872661Y48672736D01*
X41970274Y48737627D01*
X42079648Y48783288D01*
X42183675Y48800546D01*
X42204985Y48799936D01*
G37*
G36*
X42584985Y41373206D02*
G01*
X42611444Y41355062D01*
X42617668Y41305464D01*
X42616287Y41275285D01*
X42601167Y41243534D01*
X42559836Y41236065D01*
X42534687Y41237722D01*
X42508228Y41255867D01*
X42502003Y41305464D01*
X42503384Y41335643D01*
X42518504Y41367394D01*
X42559836Y41374863D01*
X42584985Y41373206D01*
G37*
G36*
X43450455Y35337158D02*
G01*
X42733333Y35337158D01*
X42733333Y35452823D01*
X43450455Y35452823D01*
X43450455Y35337158D01*
G37*
G36*
X43392800Y33568207D02*
G01*
X43426601Y33527003D01*
X43436012Y33488707D01*
X43444961Y33414475D01*
X43448989Y33328060D01*
X43449006Y33326243D01*
X43447779Y33244038D01*
X43438079Y33190424D01*
X43413843Y33148088D01*
X43369008Y33099718D01*
X43358405Y33089226D01*
X43306724Y33045108D01*
X43263896Y33028707D01*
X43212860Y33032702D01*
X43177123Y33042331D01*
X43112533Y33083180D01*
X43066525Y33155957D01*
X43033915Y33267464D01*
X43017661Y33333330D01*
X42984192Y33412349D01*
X42943271Y33447357D01*
X42893930Y33439541D01*
X42854676Y33403571D01*
X42832919Y33328095D01*
X42843968Y33220001D01*
X42887822Y33079286D01*
X42883261Y33054982D01*
X42839334Y33046994D01*
X42801049Y33055163D01*
X42760809Y33097321D01*
X42737539Y33177846D01*
X42730040Y33299510D01*
X42734755Y33364817D01*
X42766443Y33466043D01*
X42823755Y33537443D01*
X42901739Y33573959D01*
X42995446Y33570536D01*
X43002320Y33568663D01*
X43047008Y33545511D01*
X43083148Y33500538D01*
X43115525Y33425717D01*
X43148921Y33313023D01*
X43149589Y33310496D01*
X43171229Y33235249D01*
X43190634Y33194401D01*
X43215723Y33177533D01*
X43254416Y33174225D01*
X43299038Y33179304D01*
X43325961Y33204104D01*
X43344840Y33261741D01*
X43354178Y33319938D01*
X43346953Y33383297D01*
X43317914Y33464154D01*
X43269371Y33579052D01*
X43337526Y33579052D01*
X43392800Y33568207D01*
G37*
G36*
X42584985Y35474299D02*
G01*
X42611444Y35456154D01*
X42617668Y35406557D01*
X42616287Y35376378D01*
X42601167Y35344627D01*
X42559836Y35337158D01*
X42534687Y35338815D01*
X42508228Y35356960D01*
X42502003Y35406557D01*
X42503384Y35436736D01*
X42518504Y35468487D01*
X42559836Y35475956D01*
X42584985Y35474299D01*
G37*
G36*
X43402975Y37682909D02*
G01*
X43447863Y37589325D01*
X43455278Y37542395D01*
X43445782Y37436854D01*
X43406993Y37331832D01*
X43398681Y37315528D01*
X43392182Y37287113D01*
X43414942Y37280327D01*
X43438161Y37269312D01*
X43450455Y37222495D01*
X43450455Y37164663D01*
X43140422Y37164663D01*
X43025531Y37165097D01*
X42946345Y37167531D01*
X42893579Y37173715D01*
X42857948Y37185401D01*
X42830168Y37204340D01*
X42800952Y37232282D01*
X42764153Y37276295D01*
X42762363Y37280327D01*
X43073957Y37280327D01*
X43168363Y37280327D01*
X43195538Y37281070D01*
X43258152Y37295030D01*
X43298779Y37331741D01*
X43304404Y37340760D01*
X43325881Y37404122D01*
X43333870Y37481111D01*
X43327783Y37552625D01*
X43307030Y37599562D01*
X43262521Y37623330D01*
X43198683Y37620663D01*
X43142513Y37585866D01*
X43126492Y37558842D01*
X43104473Y37492796D01*
X43089476Y37412368D01*
X43073957Y37280327D01*
X42762363Y37280327D01*
X42738180Y37334812D01*
X42727996Y37412826D01*
X42730479Y37523224D01*
X42737076Y37598611D01*
X42751399Y37658932D01*
X42776456Y37688727D01*
X42816577Y37696721D01*
X42855169Y37692980D01*
X42866537Y37672484D01*
X42856743Y37621539D01*
X42841593Y37540521D01*
X42838012Y37440808D01*
X42852305Y37360787D01*
X42883445Y37312351D01*
X42927405Y37288841D01*
X42957375Y37297931D01*
X42976846Y37344357D01*
X42989735Y37432544D01*
X42999329Y37504184D01*
X43032220Y37620013D01*
X43084631Y37698093D01*
X43158561Y37742085D01*
X43239955Y37757277D01*
X43262521Y37752996D01*
X43331884Y37739837D01*
X43402975Y37682909D01*
G37*
G36*
X43147459Y34339905D02*
G01*
X43255575Y34312373D01*
X43346772Y34259054D01*
X43409936Y34180510D01*
X43431374Y34120760D01*
X43447993Y34010896D01*
X43446164Y33893784D01*
X43425059Y33790701D01*
X43413930Y33762819D01*
X43383490Y33726871D01*
X43331933Y33717850D01*
X43264203Y33717850D01*
X43303564Y33793032D01*
X43334741Y33879912D01*
X43344267Y33982125D01*
X43328178Y34075687D01*
X43287190Y34145201D01*
X43229251Y34188637D01*
X43167076Y34216299D01*
X43103460Y34231791D01*
X43103460Y33717850D01*
X43001137Y33717850D01*
X42968185Y33719647D01*
X42868755Y33750439D01*
X42792113Y33812951D01*
X42741912Y33898776D01*
X42727112Y33972911D01*
X42829491Y33972911D01*
X42851400Y33902917D01*
X42897271Y33852728D01*
X42964663Y33833515D01*
X42980124Y33834779D01*
X42996794Y33845901D01*
X43006066Y33876139D01*
X43010068Y33934538D01*
X43010928Y34030145D01*
X43010920Y34036731D01*
X43007781Y34139759D01*
X42999318Y34204383D01*
X42986016Y34226776D01*
X42978963Y34225149D01*
X42941568Y34201665D01*
X42893484Y34159156D01*
X42867328Y34127624D01*
X42833986Y34051538D01*
X42829491Y33972911D01*
X42727112Y33972911D01*
X42721803Y33999504D01*
X42735439Y34106729D01*
X42786471Y34212043D01*
X42832711Y34262158D01*
X42924915Y34315359D01*
X42986016Y34329832D01*
X43033535Y34341088D01*
X43147459Y34339905D01*
G37*
G36*
X43258677Y40216549D02*
G01*
X43351332Y40164723D01*
X43408065Y40085672D01*
X43427322Y39980589D01*
X43427260Y39975220D01*
X43416251Y39894935D01*
X43392028Y39823805D01*
X43356735Y39755555D01*
X43426728Y39755555D01*
X43453269Y39757242D01*
X43527073Y39787409D01*
X43573272Y39852934D01*
X43589253Y39950679D01*
X43588791Y39972519D01*
X43581020Y40051428D01*
X43566692Y40112610D01*
X43555481Y40148058D01*
X43565233Y40168168D01*
X43611262Y40171949D01*
X43657969Y40164600D01*
X43688971Y40131466D01*
X43698690Y40073147D01*
X43701478Y39971940D01*
X43692217Y39870298D01*
X43672040Y39791048D01*
X43649607Y39745759D01*
X43616973Y39705996D01*
X43570692Y39677453D01*
X43504251Y39658350D01*
X43411138Y39646909D01*
X43284841Y39641348D01*
X43118849Y39639890D01*
X42738679Y39639890D01*
X42734830Y39761338D01*
X42734224Y39780824D01*
X42731664Y39893513D01*
X42731954Y39914073D01*
X42831019Y39914073D01*
X42846258Y39819171D01*
X42858903Y39790565D01*
X42877476Y39770678D01*
X42910962Y39760245D01*
X42969812Y39756220D01*
X43064475Y39755555D01*
X43140820Y39755970D01*
X43207584Y39759230D01*
X43246780Y39768181D01*
X43268993Y39785652D01*
X43284811Y39814476D01*
X43293151Y39834908D01*
X43310841Y39924172D01*
X43301501Y40006989D01*
X43266330Y40067001D01*
X43218597Y40096121D01*
X43129563Y40117216D01*
X43031128Y40114360D01*
X42941530Y40086462D01*
X42915822Y40070722D01*
X42855669Y40002025D01*
X42831019Y39914073D01*
X42731954Y39914073D01*
X42732760Y39971285D01*
X42738490Y40024013D01*
X42749833Y40061568D01*
X42767766Y40093823D01*
X42839796Y40170867D01*
X42948670Y40223568D01*
X43087259Y40241261D01*
X43129563Y40240019D01*
X43131657Y40239958D01*
X43258677Y40216549D01*
G37*
G36*
X43450455Y42600910D02*
G01*
X43198653Y42600910D01*
X43140888Y42600829D01*
X43048376Y42599450D01*
X42988341Y42594912D01*
X42951422Y42585371D01*
X42928258Y42568979D01*
X42909491Y42543892D01*
X42901247Y42528739D01*
X42880420Y42460139D01*
X42872131Y42380424D01*
X42871704Y42338037D01*
X42865889Y42294900D01*
X42847290Y42279824D01*
X42808515Y42281295D01*
X42778044Y42288508D01*
X42744332Y42319995D01*
X42740136Y42377629D01*
X42765581Y42464465D01*
X42820789Y42583561D01*
X42816169Y42594142D01*
X42781527Y42600910D01*
X42781198Y42600911D01*
X42743866Y42613717D01*
X42733333Y42658743D01*
X42733333Y42716575D01*
X43450455Y42716575D01*
X43450455Y42600910D01*
G37*
G36*
X43219768Y44279171D02*
G01*
X43327484Y44228626D01*
X43405125Y44143913D01*
X43407442Y44140007D01*
X43436580Y44063088D01*
X43450319Y43969355D01*
X43449587Y43871170D01*
X43435311Y43780895D01*
X43408418Y43710893D01*
X43369837Y43673526D01*
X43351520Y43668373D01*
X43306824Y43670310D01*
X43279324Y43689092D01*
X43283530Y43717350D01*
X43289326Y43725932D01*
X43312180Y43775036D01*
X43335174Y43841341D01*
X43346308Y43892302D01*
X43343705Y43995203D01*
X43307684Y44081085D01*
X43241480Y44139655D01*
X43188283Y44165321D01*
X43148431Y44175229D01*
X43123516Y44161173D01*
X43110045Y44117580D01*
X43104524Y44038876D01*
X43103460Y43919490D01*
X43103460Y43665027D01*
X43014349Y43665027D01*
X42913428Y43682305D01*
X42822525Y43736038D01*
X42757903Y43818506D01*
X42725541Y43921822D01*
X42728260Y43975600D01*
X42822933Y43975600D01*
X42837822Y43893804D01*
X42886817Y43828637D01*
X42889388Y43826636D01*
X42940416Y43794119D01*
X42979349Y43780692D01*
X42991243Y43785912D01*
X43002932Y43815276D01*
X43009117Y43876737D01*
X43010928Y43977322D01*
X43010924Y43982537D01*
X43007454Y44089083D01*
X42995648Y44152813D01*
X42972749Y44176735D01*
X42936001Y44163852D01*
X42882646Y44117171D01*
X42842364Y44059161D01*
X42822933Y43975600D01*
X42728260Y43975600D01*
X42731420Y44038102D01*
X42770031Y44139000D01*
X42845173Y44223826D01*
X42952235Y44276009D01*
X42972749Y44278772D01*
X43089809Y44294541D01*
X43219768Y44279171D01*
G37*
G36*
X38834827Y54215160D02*
G01*
X38905953Y54214301D01*
X39155661Y54199097D01*
X39376961Y54163234D01*
X39581227Y54104364D01*
X39779833Y54020139D01*
X39993983Y53896770D01*
X40208405Y53727601D01*
X40388408Y53531238D01*
X40403140Y53511691D01*
X40484507Y53389128D01*
X40563548Y53248443D01*
X40633622Y53103203D01*
X40688088Y52966970D01*
X40720305Y52853311D01*
X40730625Y52801957D01*
X40751413Y52706652D01*
X40770214Y52629052D01*
X40778734Y52593341D01*
X40796319Y52502200D01*
X40810179Y52409289D01*
X40817583Y52325341D01*
X40813306Y52126862D01*
X40778926Y51946630D01*
X40760025Y51879177D01*
X40734222Y51780486D01*
X40709609Y51680601D01*
X40668524Y51544372D01*
X40597869Y51375511D01*
X40509348Y51208056D01*
X40409498Y51053035D01*
X40304860Y50921476D01*
X40201970Y50824407D01*
X40140560Y50785694D01*
X40065033Y50763184D01*
X39978954Y50767114D01*
X39873632Y50798091D01*
X39740373Y50856724D01*
X39635399Y50911703D01*
X39544087Y50975157D01*
X39493658Y51038717D01*
X39481770Y51108113D01*
X39506077Y51189078D01*
X39564236Y51287340D01*
X39570364Y51296403D01*
X39657385Y51443806D01*
X39737830Y51612635D01*
X39807546Y51791142D01*
X39862378Y51967578D01*
X39898170Y52130193D01*
X39910769Y52267241D01*
X39910069Y52292872D01*
X39897541Y52406000D01*
X39872697Y52531208D01*
X39839943Y52649050D01*
X39803682Y52740081D01*
X39782076Y52779286D01*
X39707169Y52890298D01*
X39618595Y52995543D01*
X39527256Y53082889D01*
X39444059Y53140203D01*
X39401489Y53160901D01*
X39343272Y53186010D01*
X39310422Y53195810D01*
X39306770Y53194831D01*
X39292359Y53166876D01*
X39286520Y53112401D01*
X39284207Y53072839D01*
X39272154Y52987477D01*
X39253253Y52898421D01*
X39244771Y52856613D01*
X39231357Y52763975D01*
X39217771Y52643545D01*
X39205205Y52506251D01*
X39194851Y52363023D01*
X39191460Y52309542D01*
X39176731Y52097644D01*
X39160190Y51886759D01*
X39142555Y51684419D01*
X39124545Y51498155D01*
X39106877Y51335496D01*
X39090271Y51203975D01*
X39075444Y51111122D01*
X39055328Y51024813D01*
X39004810Y50896947D01*
X38932238Y50804034D01*
X38832689Y50742316D01*
X38701236Y50708040D01*
X38532955Y50697449D01*
X38501292Y50697680D01*
X38388217Y50701603D01*
X38282671Y50709373D01*
X38204015Y50719683D01*
X38168981Y50727092D01*
X38024024Y50769169D01*
X37865757Y50829201D01*
X37712834Y50899576D01*
X37583908Y50972684D01*
X37547806Y50997556D01*
X37436226Y51088531D01*
X37317934Y51202216D01*
X37200119Y51330070D01*
X37089968Y51463551D01*
X36994669Y51594117D01*
X36921409Y51713226D01*
X36877375Y51812337D01*
X36873619Y51827876D01*
X36864156Y51893846D01*
X36854954Y51991337D01*
X36846906Y52109906D01*
X36840902Y52239110D01*
X36840713Y52244485D01*
X36839410Y52524570D01*
X37691639Y52524570D01*
X37695185Y52423440D01*
X37704423Y52323870D01*
X37736805Y52186462D01*
X37796424Y52066063D01*
X37889911Y51946427D01*
X37908521Y51927567D01*
X37978130Y51871174D01*
X38064318Y51814242D01*
X38154029Y51764280D01*
X38234206Y51728796D01*
X38291795Y51715300D01*
X38294398Y51715408D01*
X38318370Y51728433D01*
X38340560Y51765729D01*
X38361778Y51830945D01*
X38382829Y51927730D01*
X38404521Y52059734D01*
X38427662Y52230603D01*
X38453060Y52443989D01*
X38458655Y52498635D01*
X38468217Y52619529D01*
X38476050Y52753300D01*
X38481706Y52888154D01*
X38484736Y53012295D01*
X38484691Y53113930D01*
X38481122Y53181264D01*
X38479568Y53193551D01*
X38469115Y53229411D01*
X38442119Y53240757D01*
X38384089Y53235724D01*
X38252684Y53203099D01*
X38097633Y53128743D01*
X37954829Y53023516D01*
X37834892Y52895485D01*
X37748441Y52752721D01*
X37742380Y52739116D01*
X37712212Y52663708D01*
X37696306Y52598426D01*
X37691639Y52524570D01*
X36839410Y52524570D01*
X36839388Y52529390D01*
X36856789Y52772818D01*
X36893071Y52975653D01*
X36948394Y53138780D01*
X37022914Y53263085D01*
X37040626Y53285642D01*
X37093491Y53355557D01*
X37146721Y53428643D01*
X37149301Y53432229D01*
X37216606Y53511575D01*
X37311444Y53606112D01*
X37423006Y53706505D01*
X37540477Y53803416D01*
X37653046Y53887511D01*
X37749901Y53949454D01*
X37931748Y54042511D01*
X38137754Y54123406D01*
X38348515Y54177084D01*
X38442119Y54189209D01*
X38576663Y54206637D01*
X38834827Y54215160D01*
G37*
G36*
X43450455Y40889071D02*
G01*
X43185737Y40889071D01*
X43130833Y40888985D01*
X43033107Y40887609D01*
X42968696Y40883332D01*
X42928566Y40874611D01*
X42903682Y40859901D01*
X42885009Y40837657D01*
X42878070Y40825883D01*
X42857340Y40762152D01*
X42848998Y40686721D01*
X42849004Y40684031D01*
X42853764Y40629658D01*
X42871863Y40591090D01*
X42909872Y40565687D01*
X42974361Y40550810D01*
X43071902Y40543820D01*
X43209065Y40542076D01*
X43450455Y40542076D01*
X43450455Y40426411D01*
X43171710Y40426411D01*
X43069712Y40427528D01*
X42947559Y40434593D01*
X42859969Y40450165D01*
X42800012Y40476536D01*
X42760762Y40515999D01*
X42735290Y40570847D01*
X42726560Y40606410D01*
X42730887Y40717086D01*
X42777873Y40839580D01*
X42784407Y40852305D01*
X42791714Y40881853D01*
X42768846Y40889071D01*
X42745626Y40900086D01*
X42733333Y40946903D01*
X42733333Y41004735D01*
X43450455Y41004735D01*
X43450455Y40889071D01*
G37*
G36*
X43317322Y42180392D02*
G01*
X43387324Y42178103D01*
X43420425Y42174360D01*
X43439897Y42152819D01*
X43450455Y42104278D01*
X43450455Y42045719D01*
X43185737Y42045719D01*
X43130833Y42045634D01*
X43033107Y42044257D01*
X42968696Y42039980D01*
X42928566Y42031259D01*
X42903682Y42016549D01*
X42885009Y41994306D01*
X42860513Y41939413D01*
X42850020Y41863422D01*
X42858378Y41791780D01*
X42885544Y41743458D01*
X42893642Y41738438D01*
X42950372Y41723022D01*
X43049018Y41711066D01*
X43186273Y41703015D01*
X43281769Y41699184D01*
X43363551Y41694425D01*
X43413415Y41687741D01*
X43439257Y41677131D01*
X43448971Y41660598D01*
X43450455Y41636143D01*
X43450455Y41579383D01*
X43151519Y41587005D01*
X43058740Y41589632D01*
X42962228Y41594000D01*
X42896528Y41600601D01*
X42852625Y41611012D01*
X42821507Y41626813D01*
X42794158Y41649580D01*
X42780992Y41662650D01*
X42730323Y41741917D01*
X42721452Y41832614D01*
X42753578Y41940479D01*
X42761918Y41959570D01*
X42782594Y42013935D01*
X42783328Y42039399D01*
X42765195Y42045719D01*
X42740777Y42059755D01*
X42737580Y42109335D01*
X42744899Y42172950D01*
X43067647Y42179417D01*
X43103998Y42180069D01*
X43219765Y42181092D01*
X43317322Y42180392D01*
G37*
G36*
X43450455Y36146812D02*
G01*
X43185737Y36146812D01*
X43130833Y36146727D01*
X43033107Y36145350D01*
X42968696Y36141073D01*
X42928566Y36132352D01*
X42903682Y36117642D01*
X42885009Y36095399D01*
X42878070Y36083625D01*
X42857340Y36019893D01*
X42848998Y35944462D01*
X42849004Y35941772D01*
X42853764Y35887399D01*
X42871863Y35848831D01*
X42909872Y35823428D01*
X42974361Y35808551D01*
X43071902Y35801561D01*
X43209065Y35799817D01*
X43450455Y35799817D01*
X43450455Y35684153D01*
X43171710Y35684153D01*
X43069712Y35685269D01*
X42947559Y35692335D01*
X42859969Y35707906D01*
X42800012Y35734277D01*
X42760762Y35773740D01*
X42735290Y35828588D01*
X42726560Y35864152D01*
X42730887Y35974827D01*
X42777873Y36097322D01*
X42786848Y36115380D01*
X42788313Y36133254D01*
X42768141Y36142619D01*
X42718123Y36146222D01*
X42630048Y36146812D01*
X42567889Y36147033D01*
X42504238Y36149702D01*
X42470811Y36158043D01*
X42457885Y36175282D01*
X42455737Y36204644D01*
X42455737Y36262477D01*
X43450455Y36262477D01*
X43450455Y36146812D01*
G37*
G36*
X43112084Y36979156D02*
G01*
X43239440Y36960952D01*
X43335274Y36913377D01*
X43405125Y36833895D01*
X43425298Y36790337D01*
X43446992Y36690088D01*
X43448325Y36580712D01*
X43427894Y36483746D01*
X43424074Y36474376D01*
X43392082Y36435034D01*
X43334829Y36424408D01*
X43289591Y36426506D01*
X43277869Y36440226D01*
X43297287Y36476457D01*
X43341170Y36577863D01*
X43345407Y36675474D01*
X43312729Y36759119D01*
X43247884Y36821776D01*
X43155618Y36856426D01*
X43040677Y36856045D01*
X42977364Y36840480D01*
X42889979Y36790903D01*
X42840939Y36717633D01*
X42832444Y36624959D01*
X42866697Y36517170D01*
X42912592Y36424408D01*
X42845523Y36424408D01*
X42809429Y36429882D01*
X42765825Y36464984D01*
X42741124Y36535982D01*
X42733333Y36646826D01*
X42738483Y36718342D01*
X42775484Y36830474D01*
X42846919Y36912294D01*
X42951331Y36962430D01*
X43087259Y36979512D01*
X43112084Y36979156D01*
G37*
G36*
X37425671Y36570148D02*
G01*
X37574681Y36538797D01*
X37670532Y36520185D01*
X37839848Y36498370D01*
X38051651Y36480780D01*
X38303865Y36467496D01*
X38594413Y36458595D01*
X38921218Y36454156D01*
X39282203Y36454259D01*
X39675291Y36458983D01*
X39783640Y36460825D01*
X39992819Y36464088D01*
X40162312Y36466124D01*
X40296648Y36466829D01*
X40400355Y36466098D01*
X40477962Y36463827D01*
X40533998Y36459912D01*
X40572990Y36454247D01*
X40599468Y36446729D01*
X40617960Y36437254D01*
X40674499Y36400208D01*
X40674499Y35957253D01*
X40674447Y35897962D01*
X40673553Y35754948D01*
X40671153Y35649428D01*
X40666733Y35574888D01*
X40659779Y35524812D01*
X40649778Y35492685D01*
X40636214Y35471994D01*
X40629585Y35465570D01*
X40615886Y35457123D01*
X40594378Y35450112D01*
X40561215Y35444405D01*
X40512552Y35439869D01*
X40444543Y35436369D01*
X40353342Y35433773D01*
X40235103Y35431948D01*
X40085982Y35430760D01*
X39902131Y35430077D01*
X39679706Y35429764D01*
X39414861Y35429690D01*
X38231793Y35429690D01*
X38142778Y35338530D01*
X38141560Y35337282D01*
X38102387Y35295720D01*
X38067797Y35254429D01*
X38032294Y35205316D01*
X37990377Y35140287D01*
X37936550Y35051249D01*
X37865313Y34930108D01*
X37836602Y34879779D01*
X37807126Y34818440D01*
X37791000Y34760399D01*
X37784245Y34689141D01*
X37782877Y34588154D01*
X37790307Y34437336D01*
X37816291Y34317703D01*
X37865196Y34226133D01*
X37941386Y34154547D01*
X38049222Y34094865D01*
X38057745Y34091199D01*
X38082977Y34082501D01*
X38115249Y34075116D01*
X38158486Y34068888D01*
X38216608Y34063657D01*
X38293538Y34059265D01*
X38393199Y34055556D01*
X38519514Y34052370D01*
X38676403Y34049551D01*
X38867791Y34046940D01*
X39097599Y34044380D01*
X39369750Y34041712D01*
X39414093Y34041290D01*
X39684863Y34038505D01*
X39913368Y34035685D01*
X40103090Y34032710D01*
X40257510Y34029458D01*
X40380109Y34025806D01*
X40474367Y34021633D01*
X40543766Y34016816D01*
X40591787Y34011235D01*
X40621910Y34004766D01*
X40637617Y33997287D01*
X40648020Y33986521D01*
X40658915Y33964651D01*
X40666344Y33928679D01*
X40670739Y33872176D01*
X40672534Y33788713D01*
X40672161Y33671860D01*
X40670052Y33515190D01*
X40668542Y33421837D01*
X40665945Y33290584D01*
X40662675Y33195089D01*
X40657866Y33128662D01*
X40650651Y33084611D01*
X40640163Y33056247D01*
X40625537Y33036879D01*
X40605906Y33019818D01*
X40585817Y33005109D01*
X40530343Y32984223D01*
X40455541Y32987330D01*
X40425179Y32989895D01*
X40349694Y32993690D01*
X40237174Y32998010D01*
X40092736Y33002702D01*
X39921494Y33007612D01*
X39728562Y33012587D01*
X39519055Y33017472D01*
X39298087Y33022114D01*
X39139409Y33025391D01*
X38916723Y33030407D01*
X38704835Y33035645D01*
X38509653Y33040935D01*
X38337089Y33046106D01*
X38193054Y33050988D01*
X38083456Y33055410D01*
X38014207Y33059201D01*
X37880339Y33072465D01*
X37663618Y33110829D01*
X37475503Y33166772D01*
X37323813Y33238265D01*
X37225688Y33310673D01*
X37108516Y33433393D01*
X37010921Y33576639D01*
X36944139Y33725976D01*
X36928370Y33781106D01*
X36898425Y33947088D01*
X36885467Y34131359D01*
X36888938Y34321455D01*
X36908279Y34504911D01*
X36942931Y34669262D01*
X36992337Y34802043D01*
X37010492Y34838038D01*
X37051385Y34916080D01*
X37089809Y34982157D01*
X37133555Y35048334D01*
X37190411Y35126677D01*
X37268169Y35229250D01*
X37332564Y35315216D01*
X37386250Y35390360D01*
X37422547Y35445179D01*
X37435883Y35471625D01*
X37426272Y35481920D01*
X37382186Y35498077D01*
X37314435Y35511233D01*
X37229186Y35526404D01*
X37121337Y35557702D01*
X37040252Y35596588D01*
X36995682Y35639148D01*
X36977558Y35697072D01*
X36977865Y35793232D01*
X37005368Y35895307D01*
X37020976Y35944310D01*
X37039961Y36030684D01*
X37053720Y36123679D01*
X37063564Y36208843D01*
X37086813Y36355364D01*
X37117910Y36461791D01*
X37162099Y36532303D01*
X37224625Y36571080D01*
X37310734Y36582302D01*
X37425671Y36570148D01*
G37*
G36*
X43400013Y43461332D02*
G01*
X43441340Y43389242D01*
X43451370Y43346310D01*
X43448280Y43231191D01*
X43406993Y43115075D01*
X43398681Y43098770D01*
X43392182Y43070355D01*
X43414942Y43063570D01*
X43438161Y43052555D01*
X43450455Y43005737D01*
X43450455Y42947905D01*
X42853110Y42947905D01*
X42793222Y43019079D01*
X42773711Y43044663D01*
X42764603Y43063570D01*
X43073883Y43063570D01*
X43168325Y43063570D01*
X43195591Y43064316D01*
X43258171Y43078281D01*
X43298779Y43114983D01*
X43304404Y43124003D01*
X43325881Y43187365D01*
X43333870Y43264354D01*
X43327783Y43335868D01*
X43307030Y43382805D01*
X43305508Y43384292D01*
X43250163Y43409344D01*
X43188217Y43398821D01*
X43137950Y43355658D01*
X43126013Y43332562D01*
X43103225Y43262910D01*
X43087928Y43182160D01*
X43073883Y43063570D01*
X42764603Y43063570D01*
X42742427Y43109601D01*
X42728992Y43192397D01*
X42730479Y43306466D01*
X42737076Y43381853D01*
X42751399Y43442174D01*
X42776456Y43471970D01*
X42816577Y43479963D01*
X42855169Y43476222D01*
X42866537Y43455727D01*
X42856743Y43404781D01*
X42849217Y43371286D01*
X42838082Y43268603D01*
X42844995Y43179239D01*
X42867685Y43111214D01*
X42903879Y43072544D01*
X42951302Y43071247D01*
X42963239Y43078611D01*
X42982194Y43118577D01*
X42988304Y43195858D01*
X42992728Y43267008D01*
X43021966Y43382719D01*
X43074719Y43469095D01*
X43146494Y43521986D01*
X43232800Y43537244D01*
X43250163Y43532464D01*
X43329144Y43510719D01*
X43400013Y43461332D01*
G37*
G36*
X39022532Y40649007D02*
G01*
X39240102Y40605879D01*
X39428144Y40544018D01*
X39616995Y40447007D01*
X39802996Y40317585D01*
X39974926Y40165000D01*
X40124920Y39997099D01*
X40245114Y39821725D01*
X40327642Y39646726D01*
X40334040Y39628040D01*
X40378155Y39448060D01*
X40403079Y39241885D01*
X40408382Y39023944D01*
X40393635Y38808663D01*
X40358412Y38610473D01*
X40349416Y38578721D01*
X40302311Y38461713D01*
X40235709Y38337279D01*
X40159699Y38222894D01*
X40084376Y38136029D01*
X40079811Y38131671D01*
X40042205Y38089218D01*
X40026775Y38059477D01*
X40034524Y38051865D01*
X40076658Y38045625D01*
X40144829Y38046449D01*
X40226933Y38053206D01*
X40310867Y38064762D01*
X40384528Y38079985D01*
X40435813Y38097744D01*
X40446738Y38103732D01*
X40509361Y38147144D01*
X40576148Y38204629D01*
X40636714Y38265856D01*
X40680671Y38320490D01*
X40697632Y38358199D01*
X40706797Y38400049D01*
X40731465Y38456540D01*
X40777407Y38561605D01*
X40816962Y38714635D01*
X40835124Y38876863D01*
X40830342Y39032476D01*
X40801063Y39165664D01*
X40795498Y39181984D01*
X40775600Y39258265D01*
X40767379Y39321433D01*
X40766963Y39327545D01*
X40755122Y39379657D01*
X40729420Y39462277D01*
X40693171Y39565343D01*
X40649688Y39678795D01*
X40607241Y39787720D01*
X40564792Y39907746D01*
X40540569Y39996960D01*
X40533438Y40061655D01*
X40542260Y40108125D01*
X40565899Y40142662D01*
X40589107Y40156168D01*
X40653069Y40178268D01*
X40743387Y40201887D01*
X40848641Y40224623D01*
X40957411Y40244071D01*
X41058278Y40257826D01*
X41139822Y40263486D01*
X41144626Y40263505D01*
X41223866Y40250215D01*
X41293651Y40208167D01*
X41357698Y40133065D01*
X41419730Y40020610D01*
X41483466Y39866506D01*
X41491705Y39844028D01*
X41542382Y39688485D01*
X41587917Y39521209D01*
X41623774Y39360210D01*
X41645418Y39223497D01*
X41647384Y39204640D01*
X41657628Y39059106D01*
X41662858Y38891374D01*
X41663019Y38718486D01*
X41658059Y38557484D01*
X41647925Y38425409D01*
X41620480Y38253980D01*
X41558264Y38023877D01*
X41471528Y37811516D01*
X41364090Y37625778D01*
X41239764Y37475541D01*
X41234072Y37469995D01*
X41102938Y37364720D01*
X40937189Y37265101D01*
X40747895Y37177030D01*
X40546126Y37106397D01*
X40503893Y37094201D01*
X40454858Y37081228D01*
X40405628Y37070564D01*
X40351085Y37061850D01*
X40286112Y37054726D01*
X40205590Y37048834D01*
X40104401Y37043813D01*
X39977427Y37039305D01*
X39819551Y37034949D01*
X39625654Y37030387D01*
X39390619Y37025259D01*
X39196817Y37021349D01*
X38939757Y37016799D01*
X38674198Y37012709D01*
X38411091Y37009221D01*
X38161386Y37006479D01*
X37936033Y37004625D01*
X37745980Y37003803D01*
X37618939Y37003672D01*
X37445669Y37003908D01*
X37310500Y37004943D01*
X37208366Y37007049D01*
X37134204Y37010499D01*
X37082949Y37015568D01*
X37049536Y37022527D01*
X37028902Y37031652D01*
X37015981Y37043215D01*
X36989862Y37079304D01*
X36960725Y37137630D01*
X36934625Y37216587D01*
X36908887Y37324629D01*
X36880835Y37470211D01*
X36858308Y37601243D01*
X36839072Y37744006D01*
X36834948Y37851142D01*
X36848170Y37927982D01*
X36880970Y37979854D01*
X36935582Y38012089D01*
X37014239Y38030016D01*
X37119176Y38038965D01*
X37318431Y38049423D01*
X37207384Y38179584D01*
X37114307Y38292874D01*
X37028286Y38413151D01*
X36965910Y38527324D01*
X36923619Y38645791D01*
X36897852Y38778954D01*
X36885048Y38937211D01*
X36884635Y38960736D01*
X37762131Y38960736D01*
X37764507Y38805077D01*
X37766546Y38759176D01*
X37773772Y38653942D01*
X37784731Y38579360D01*
X37801604Y38523849D01*
X37826575Y38475830D01*
X37827734Y38473966D01*
X37927449Y38353116D01*
X38062360Y38246152D01*
X38222474Y38157672D01*
X38397794Y38092274D01*
X38578329Y38054556D01*
X38754082Y38049117D01*
X38764967Y38050001D01*
X38922025Y38081459D01*
X39087210Y38144332D01*
X39244994Y38231505D01*
X39379851Y38335863D01*
X39451916Y38406950D01*
X39507444Y38476300D01*
X39543735Y38549217D01*
X39567664Y38639927D01*
X39586107Y38762656D01*
X39589968Y38793916D01*
X39600096Y38881203D01*
X39606811Y38947352D01*
X39608821Y38979994D01*
X39599459Y39036070D01*
X39572501Y39127391D01*
X39536304Y39218551D01*
X39498964Y39286932D01*
X39433150Y39363096D01*
X39308221Y39464632D01*
X39156950Y39553243D01*
X38990954Y39623392D01*
X38821854Y39669542D01*
X38661269Y39686156D01*
X38610556Y39683795D01*
X38459698Y39655963D01*
X38298925Y39601787D01*
X38142278Y39527557D01*
X38003798Y39439560D01*
X37897528Y39344086D01*
X37891482Y39337151D01*
X37833181Y39259172D01*
X37793900Y39177379D01*
X37771073Y39081369D01*
X37762131Y38960736D01*
X36884635Y38960736D01*
X36881645Y39130965D01*
X36881686Y39156894D01*
X36883845Y39302424D01*
X36891132Y39415158D01*
X36906116Y39506733D01*
X36931367Y39588785D01*
X36969455Y39672952D01*
X37022950Y39770868D01*
X37032739Y39787798D01*
X37195601Y40021569D01*
X37391201Y40225236D01*
X37615082Y40395376D01*
X37862790Y40528567D01*
X38129872Y40621386D01*
X38323770Y40658182D01*
X38551253Y40675940D01*
X38661269Y40674402D01*
X38788544Y40672622D01*
X39022532Y40649007D01*
G37*
G36*
X37255975Y47753062D02*
G01*
X37369761Y47746971D01*
X37523333Y47736371D01*
X37594150Y47731935D01*
X37740423Y47725328D01*
X37925429Y47719249D01*
X38144565Y47713792D01*
X38393229Y47709053D01*
X38666818Y47705128D01*
X38960730Y47702112D01*
X39270362Y47700101D01*
X39336001Y47699784D01*
X39629893Y47698047D01*
X39880598Y47695955D01*
X40090673Y47693445D01*
X40262672Y47690453D01*
X40399151Y47686915D01*
X40502667Y47682769D01*
X40575775Y47677950D01*
X40621031Y47672396D01*
X40640990Y47666042D01*
X40651519Y47651459D01*
X40660931Y47618589D01*
X40667508Y47563132D01*
X40671676Y47479170D01*
X40673864Y47360789D01*
X40674499Y47202072D01*
X40674485Y47142545D01*
X40674082Y47005392D01*
X40672560Y46905503D01*
X40669186Y46836254D01*
X40663223Y46791020D01*
X40653936Y46763175D01*
X40640590Y46746095D01*
X40622449Y46733154D01*
X40610078Y46727642D01*
X40579786Y46720660D01*
X40531413Y46714561D01*
X40461438Y46709209D01*
X40366336Y46704465D01*
X40242584Y46700193D01*
X40086660Y46696254D01*
X39895040Y46692512D01*
X39664200Y46688828D01*
X39390619Y46685065D01*
X39175122Y46682038D01*
X38917234Y46677881D01*
X38660546Y46673217D01*
X38412569Y46668207D01*
X38180812Y46663011D01*
X37972787Y46657792D01*
X37796005Y46652710D01*
X37657975Y46647925D01*
X37529350Y46643146D01*
X37365303Y46638378D01*
X37241392Y46636858D01*
X37153957Y46638612D01*
X37099335Y46643667D01*
X37073868Y46652047D01*
X37071525Y46654774D01*
X37060082Y46694903D01*
X37051140Y46771469D01*
X37044669Y46876210D01*
X37040636Y47000866D01*
X37039009Y47137172D01*
X37039758Y47276868D01*
X37042851Y47411691D01*
X37048255Y47533379D01*
X37055940Y47633670D01*
X37065873Y47704302D01*
X37078023Y47737011D01*
X37090730Y47744381D01*
X37122719Y47751759D01*
X37175714Y47754656D01*
X37255975Y47753062D01*
G37*
G36*
X43218233Y44609662D02*
G01*
X43319489Y44608514D01*
X43389550Y44606315D01*
X43420886Y44603144D01*
X43440064Y44581709D01*
X43450455Y44533239D01*
X43450455Y44474681D01*
X42452664Y44474681D01*
X42459984Y44538296D01*
X42467304Y44601912D01*
X42929311Y44608202D01*
X42952267Y44608500D01*
X43093315Y44609683D01*
X43218233Y44609662D01*
G37*
G36*
X36196194Y47792770D02*
G01*
X36317069Y47758450D01*
X36433177Y47701228D01*
X36534243Y47626149D01*
X36609996Y47538257D01*
X36650163Y47442595D01*
X36651031Y47437998D01*
X36662877Y47341490D01*
X36668517Y47225349D01*
X36667999Y47105952D01*
X36661367Y46999676D01*
X36648671Y46922895D01*
X36619744Y46858013D01*
X36546130Y46774000D01*
X36443948Y46705232D01*
X36323164Y46655481D01*
X36193743Y46628519D01*
X36065648Y46628115D01*
X35948847Y46658043D01*
X35926558Y46668639D01*
X35840978Y46723512D01*
X35755522Y46795802D01*
X35683961Y46872846D01*
X35640068Y46941978D01*
X35621086Y47010969D01*
X35609731Y47121666D01*
X35611321Y47243467D01*
X35625437Y47358093D01*
X35651660Y47447267D01*
X35656052Y47456382D01*
X35712279Y47540407D01*
X35794201Y47630110D01*
X35887976Y47711797D01*
X35979759Y47771777D01*
X35981228Y47772529D01*
X36080822Y47799144D01*
X36196194Y47792770D01*
G37*
G36*
X43450455Y38830236D02*
G01*
X43185737Y38830236D01*
X43130833Y38830151D01*
X43033107Y38828774D01*
X42968696Y38824498D01*
X42928566Y38815777D01*
X42903682Y38801067D01*
X42885009Y38778823D01*
X42862402Y38728514D01*
X42850382Y38654234D01*
X42854944Y38582808D01*
X42876757Y38534134D01*
X42883409Y38529546D01*
X42936274Y38516685D01*
X43034876Y38508955D01*
X43179022Y38506375D01*
X43453528Y38506375D01*
X43438888Y38379143D01*
X43175317Y38376817D01*
X43080615Y38375795D01*
X42997731Y38373300D01*
X42945038Y38367626D01*
X42913629Y38356828D01*
X42894599Y38338960D01*
X42879043Y38312075D01*
X42877361Y38308734D01*
X42857605Y38240332D01*
X42853452Y38164141D01*
X42854618Y38152075D01*
X42863537Y38112362D01*
X42884433Y38084389D01*
X42924162Y38065984D01*
X42989581Y38054974D01*
X43087544Y38049188D01*
X43224908Y38046452D01*
X43269369Y38045888D01*
X43357369Y38043824D01*
X43410924Y38039089D01*
X43438588Y38029385D01*
X43448914Y38012415D01*
X43450455Y37985883D01*
X43450455Y37928051D01*
X43183683Y37928051D01*
X43100974Y37928812D01*
X42968660Y37935588D01*
X42872491Y37951091D01*
X42805971Y37977390D01*
X42762604Y38016554D01*
X42735896Y38070650D01*
X42724032Y38135767D01*
X42737953Y38246244D01*
X42789225Y38356295D01*
X42804876Y38382379D01*
X42808944Y38414757D01*
X42779770Y38448387D01*
X42730718Y38520740D01*
X42721498Y38613952D01*
X42753578Y38724997D01*
X42757729Y38734443D01*
X42780932Y38793794D01*
X42783550Y38822659D01*
X42766732Y38830236D01*
X42744971Y38842164D01*
X42733333Y38888069D01*
X42733333Y38945901D01*
X43450455Y38945901D01*
X43450455Y38830236D01*
G37*
%TD*%
M02*
